<?xml version="1.0" standalone="no"?>
<!DOCTYPE svg PUBLIC "-//W3C//DTD SVG 20010904//EN"
 "http://www.w3.org/TR/2001/REC-SVG-20010904/DTD/svg10.dtd">
<svg version="1.0" xmlns="http://www.w3.org/2000/svg"
 width="700.000000pt" height="700.000000pt" viewBox="0 0 700.000000 700.000000"
 preserveAspectRatio="xMidYMid meet">
<metadata>
Created by potrace 1.14, written by Peter Selinger 2001-2017
</metadata>
<g transform="translate(0.000000,700.000000) scale(0.100000,-0.100000)"
fill="#000000" stroke="none">
<path d="M0 3500 l0 -3500 3500 0 3500 0 0 3500 0 3500 -3500 0 -3500 0 0
-3500z m2699 992 c223 -64 363 -203 402 -400 16 -86 7 -222 -21 -295 -65 -172
-187 -272 -420 -344 -8 -2 9 -13 39 -24 130 -45 216 -123 272 -245 57 -124 62
-273 15 -412 -80 -234 -262 -380 -526 -422 -101 -16 -1413 -14 -1408 2 3 7 83
498 179 1091 l174 1078 610 -4 c587 -3 613 -4 684 -25z m1775 -547 c37 -313
70 -572 72 -574 2 -2 6 -2 7 0 2 2 116 261 254 574 l250 570 462 3 461 2 -5
-22 c-2 -13 -81 -491 -175 -1063 -94 -572 -173 -1052 -176 -1067 l-6 -28 -314
0 c-173 0 -314 2 -314 5 0 3 56 346 125 763 69 416 124 762 123 769 -2 7 -118
-254 -257 -580 -140 -326 -291 -674 -334 -775 l-79 -182 -214 0 -213 0 -5 33
c-3 17 -42 367 -86 776 -44 409 -81 745 -83 747 -2 3 -226 -1334 -253 -1513
l-7 -43 -258 0 c-143 0 -259 1 -259 3 0 8 351 2135 355 2155 l5 22 428 -2 427
-3 69 -570z"/>
<path d="M1965 4028 c-2 -13 -14 -79 -25 -148 -11 -69 -23 -137 -26 -152 l-6
-28 184 0 c196 0 244 8 296 47 55 41 74 80 69 141 -4 59 -27 97 -75 125 -37
22 -161 37 -304 37 -103 0 -108 -1 -113 -22z"/>
<path d="M1837 3223 c-6 -9 -67 -359 -67 -382 0 -8 66 -11 218 -11 190 0 222
3 257 19 76 35 115 95 115 177 0 90 -48 150 -143 180 -61 19 -370 33 -380 17z"/>
</g>
</svg>
