<svg width="46" height="46" viewBox="0 0 46 46" fill="none" xmlns="http://www.w3.org/2000/svg">
<rect width="46" height="46" rx="8" fill="#6E3DCE"/>
<path fill-rule="evenodd" clip-rule="evenodd" d="M32.8884 26.8957H28.8404C26.9434 26.8957 25.3994 25.3527 25.3984 23.4567C25.3984 21.5587 26.9424 20.0147 28.8404 20.0137H32.8884C33.3024 20.0137 33.6384 20.3497 33.6384 20.7637C33.6384 21.1777 33.3024 21.5137 32.8884 21.5137H28.8404C27.7694 21.5147 26.8984 22.3857 26.8984 23.4557C26.8984 24.5247 27.7704 25.3957 28.8404 25.3957H32.8884C33.3024 25.3957 33.6384 25.7317 33.6384 26.1457C33.6384 26.5597 33.3024 26.8957 32.8884 26.8957Z" fill="white"/>
<path fill-rule="evenodd" clip-rule="evenodd" d="M29.2983 24.1436H28.9863C28.5723 24.1436 28.2363 23.8076 28.2363 23.3936C28.2363 22.9796 28.5723 22.6436 28.9863 22.6436H29.2983C29.7123 22.6436 30.0483 22.9796 30.0483 23.3936C30.0483 23.8076 29.7123 24.1436 29.2983 24.1436Z" fill="white"/>
<mask id="mask0" mask-type="alpha" maskUnits="userSpaceOnUse" x="13" y="14" width="21" height="20">
<path fill-rule="evenodd" clip-rule="evenodd" d="M13 14H33.6386V33.1729H13V14Z" fill="white"/>
</mask>
<g mask="url(#mask0)">
<path fill-rule="evenodd" clip-rule="evenodd" d="M18.998 15.5C16.518 15.5 14.5 17.518 14.5 19.998V27.175C14.5 29.655 16.518 31.673 18.998 31.673H27.642C30.122 31.673 32.139 29.655 32.139 27.175V19.998C32.139 17.518 30.122 15.5 27.642 15.5H18.998ZM27.642 33.173H18.998C15.691 33.173 13 30.482 13 27.175V19.998C13 16.69 15.691 14 18.998 14H27.642C30.949 14 33.639 16.69 33.639 19.998V27.175C33.639 30.482 30.949 33.173 27.642 33.173Z" fill="white"/>
</g>
<path fill-rule="evenodd" clip-rule="evenodd" d="M23.6842 20.0381H18.2852C17.8712 20.0381 17.5352 19.7021 17.5352 19.2881C17.5352 18.8741 17.8712 18.5381 18.2852 18.5381H23.6842C24.0982 18.5381 24.4342 18.8741 24.4342 19.2881C24.4342 19.7021 24.0982 20.0381 23.6842 20.0381Z" fill="white"/>
</svg>
