<svg width="12" height="12" viewBox="0 0 12 12" fill="none" xmlns="http://www.w3.org/2000/svg">
<path d="M9.76396 1.89642H5.6288V4.7819C5.6288 4.87525 5.5574 4.95974 5.44704 4.99678C5.4086 5.00967 5.36788 5.01598 5.32756 5.01598C5.25228 5.01598 5.17804 4.99404 5.121 4.95237L4.18244 4.26639L3.24388 4.95237C3.15636 5.01635 3.0282 5.03382 2.91788 4.99678C2.80748 4.95974 2.73612 4.87525 2.73612 4.7819V1.89642H1.96588C1.70392 1.89642 1.49076 1.73073 1.49076 1.52723C1.49076 1.32367 1.70392 1.15805 1.96588 1.15805H10.4706C10.8816 1.15805 11.2161 0.898304 11.2161 0.578993C11.216 0.259681 10.8816 0 10.4706 0H1.96584C0.88184 0 0 0.68514 0 1.5272V10.2631C0 11.2208 1.00308 12 2.236 12H9.764C10.9969 12 12 11.2208 12 10.2631V3.63336C12 2.67568 10.9969 1.89642 9.76396 1.89642Z" fill="#874CFA"/>
</svg>
