<svg width="46" height="46" viewBox="0 0 46 46" fill="none" xmlns="http://www.w3.org/2000/svg">
<rect width="46" height="46" rx="8" fill="#ECE4FD"/>
<mask id="mask0" mask-type="alpha" maskUnits="userSpaceOnUse" x="13" y="16" width="16" height="16">
<path fill-rule="evenodd" clip-rule="evenodd" d="M13.0859 16.0005H28.5862V31.5018H13.0859V16.0005Z" fill="white"/>
</mask>
<g mask="url(#mask0)">
<path fill-rule="evenodd" clip-rule="evenodd" d="M17.933 17.5018C17.494 17.5018 17.211 17.5018 17.162 17.5038C16.424 17.5348 15.743 17.8478 15.252 18.3838C14.794 18.8848 14.558 19.5248 14.589 20.1888C14.589 23.0818 14.59 27.4238 14.597 27.6618C14.711 29.0468 16.009 30.1058 17.495 29.9918C20.245 29.9958 24.319 30.0048 24.51 29.9978C25.245 29.9678 25.927 29.6558 26.418 29.1208C26.877 28.6218 27.113 27.9818 27.084 27.3208C27.083 27.3098 27.083 27.2988 27.083 27.2878C27.084 24.4278 27.084 20.0888 27.077 19.8558C26.964 18.4638 25.66 17.3918 24.166 17.5088C22.1 17.5058 19.281 17.5018 17.933 17.5018ZM17.232 31.5018C15.118 31.5028 13.274 29.8828 13.1 27.7578C13.097 27.7168 13.087 27.5918 13.09 20.2228C13.042 19.1918 13.416 18.1678 14.146 17.3708C14.908 16.5388 15.959 16.0538 17.106 16.0048C17.245 15.9948 22.053 16.0068 24.112 16.0108C26.362 15.8528 28.393 17.5228 28.574 19.7638C28.582 19.8728 28.585 22.3978 28.583 27.2728C28.625 28.3288 28.249 29.3458 27.523 30.1358C26.76 30.9668 25.708 31.4498 24.562 31.4968C24.422 31.5068 19.612 31.4938 17.55 31.4898C17.444 31.4978 17.338 31.5018 17.232 31.5018Z" fill="#874CFA"/>
</g>
<path fill-rule="evenodd" clip-rule="evenodd" d="M31.9038 29.3493C31.4528 29.3493 31.0078 29.1943 30.6408 28.8933L27.3598 26.1973C27.0398 25.9343 26.9938 25.4613 27.2568 25.1413C27.5188 24.8223 27.9918 24.7743 28.3118 25.0383L31.5918 27.7343C31.8128 27.9143 32.0348 27.8403 32.1208 27.7983C32.2068 27.7583 32.4058 27.6333 32.4058 27.3493L32.4178 20.0003C32.4188 19.7163 32.2188 19.5913 32.1328 19.5503C32.0478 19.5103 31.8228 19.4353 31.6038 19.6153L28.3108 22.3103C27.9888 22.5733 27.5178 22.5263 27.2558 22.2043C26.9928 21.8843 27.0408 21.4123 27.3608 21.1503L30.6538 18.4543C31.2578 17.9593 32.0708 17.8623 32.7758 18.1953C33.4808 18.5303 33.9188 19.2223 33.9178 20.0023L33.9058 27.3513C33.9048 28.1313 33.4658 28.8233 32.7618 29.1553C32.4858 29.2863 32.1938 29.3493 31.9038 29.3493Z" fill="#874CFA"/>
</svg>
