<svg width="46" height="46" viewBox="0 0 46 46" fill="none" xmlns="http://www.w3.org/2000/svg">
<rect width="46" height="46" rx="8" fill="#ECE4FD"/>
<path fill-rule="evenodd" clip-rule="evenodd" d="M18.665 14.5C16.135 14.5 14.5 16.233 14.5 18.916V27.084C14.5 29.767 16.135 31.5 18.665 31.5H27.333C29.864 31.5 31.5 29.767 31.5 27.084V18.916C31.5 16.233 29.865 14.5 27.334 14.5H18.665ZM27.333 33H18.665C15.276 33 13 30.622 13 27.084V18.916C13 15.378 15.276 13 18.665 13H27.334C30.723 13 33 15.378 33 18.916V27.084C33 30.622 30.723 33 27.333 33Z" fill="#874CFA"/>
<path fill-rule="evenodd" clip-rule="evenodd" d="M26.391 25.7678C26.26 25.7678 26.128 25.7338 26.007 25.6628L22.616 23.6398C22.39 23.5038 22.25 23.2588 22.25 22.9958V18.6338C22.25 18.2198 22.586 17.8838 23 17.8838C23.414 17.8838 23.75 18.2198 23.75 18.6338V22.5698L26.776 24.3728C27.131 24.5858 27.248 25.0458 27.036 25.4018C26.895 25.6368 26.646 25.7678 26.391 25.7678Z" fill="#874CFA"/>
</svg>
