<svg width="46" height="46" viewBox="0 0 46 46" fill="none" xmlns="http://www.w3.org/2000/svg">
<rect width="46" height="46" rx="8" fill="#ECE4FD"/>
<mask id="mask0" mask-type="alpha" maskUnits="userSpaceOnUse" x="14" y="13" width="18" height="20">
<path fill-rule="evenodd" clip-rule="evenodd" d="M14 13.0117H31.0527V32.8652H14V13.0117Z" fill="white"/>
</mask>
<g mask="url(#mask0)">
<path fill-rule="evenodd" clip-rule="evenodd" d="M18.5731 14.5117C16.9161 14.5117 15.5401 15.8537 15.5011 17.5087V28.2037C15.4641 29.9167 16.8141 31.3277 18.5101 31.3657H26.5741C28.2431 31.2967 29.5651 29.9097 29.5531 28.2097V19.3397L24.9181 14.5117H18.5851H18.5731ZM18.5851 32.8657H18.4761C15.9541 32.8087 13.9461 30.7107 14.0011 28.1877V17.4907C14.0591 15.0097 16.1081 13.0117 18.5711 13.0117H18.5881H25.2381C25.4421 13.0117 25.6371 13.0947 25.7791 13.2417L30.8441 18.5187C30.9781 18.6577 31.0531 18.8447 31.0531 19.0377V28.2037C31.0711 30.7127 29.1171 32.7627 26.6041 32.8647L18.5851 32.8657Z" fill="#874CFA"/>
</g>
<path fill-rule="evenodd" clip-rule="evenodd" d="M30.2996 19.9845H27.5446C25.7146 19.9795 24.2266 18.4875 24.2266 16.6595V13.7505C24.2266 13.3365 24.5626 13.0005 24.9766 13.0005C25.3906 13.0005 25.7266 13.3365 25.7266 13.7505V16.6595C25.7266 17.6635 26.5436 18.4815 27.5466 18.4845H30.2996C30.7136 18.4845 31.0496 18.8205 31.0496 19.2345C31.0496 19.6485 30.7136 19.9845 30.2996 19.9845Z" fill="#874CFA"/>
<path fill-rule="evenodd" clip-rule="evenodd" d="M24.7867 27.1084H19.3867C18.9727 27.1084 18.6367 26.7724 18.6367 26.3584C18.6367 25.9444 18.9727 25.6084 19.3867 25.6084H24.7867C25.2007 25.6084 25.5367 25.9444 25.5367 26.3584C25.5367 26.7724 25.2007 27.1084 24.7867 27.1084Z" fill="#874CFA"/>
<path fill-rule="evenodd" clip-rule="evenodd" d="M22.7427 23.3564H19.3867C18.9727 23.3564 18.6367 23.0204 18.6367 22.6064C18.6367 22.1924 18.9727 21.8564 19.3867 21.8564H22.7427C23.1567 21.8564 23.4927 22.1924 23.4927 22.6064C23.4927 23.0204 23.1567 23.3564 22.7427 23.3564Z" fill="#874CFA"/>
</svg>
