<svg width="12" height="12" viewBox="0 0 12 12" fill="none" xmlns="http://www.w3.org/2000/svg">
<path d="M2.13349 1.38574V8.2759L0.0216677 2.5234C-0.045616 2.34059 0.049097 2.13785 0.232428 2.07176L2.13349 1.38574Z" fill="#874CFA"/>
<path d="M11.9794 2.52395L9.87109 8.26684V1.3877L11.7686 2.0723C11.952 2.1384 12.0464 2.34113 11.9794 2.52395Z" fill="#874CFA"/>
<path d="M8.81411 0H3.18759C2.99348 0 2.83594 0.1575 2.83594 0.351562V11.6484C2.83594 11.8425 2.99348 12 3.18759 12H8.81411C9.00822 12 9.16577 11.8425 9.16577 11.6484V0.351562C9.16577 0.1575 9.00822 0 8.81411 0ZM6.70417 9.89062H4.59422C4.40011 9.89062 4.24257 9.73312 4.24257 9.53906C4.24257 9.345 4.40011 9.1875 4.59422 9.1875H6.70417C6.89828 9.1875 7.05582 9.345 7.05582 9.53906C7.05582 9.73312 6.89828 9.89062 6.70417 9.89062ZM7.40748 8.48438H4.59422C4.40011 8.48438 4.24257 8.32687 4.24257 8.13281C4.24257 7.93875 4.40011 7.78125 4.59422 7.78125H7.40748C7.6016 7.78125 7.75914 7.93875 7.75914 8.13281C7.75914 8.32687 7.6016 8.48438 7.40748 8.48438ZM7.40748 7.07812H5.29754C5.10342 7.07812 4.94588 6.92063 4.94588 6.72656C4.94588 6.5325 5.10342 6.375 5.29754 6.375H7.40748C7.6016 6.375 7.75914 6.5325 7.75914 6.72656C7.75914 6.92063 7.6016 7.07812 7.40748 7.07812ZM7.75914 4.61719C7.75914 4.81125 7.6016 4.96875 7.40748 4.96875H4.59422C4.40011 4.96875 4.24257 4.81125 4.24257 4.61719V2.50781C4.24257 2.31375 4.40011 2.15625 4.59422 2.15625H7.40748C7.6016 2.15625 7.75914 2.31375 7.75914 2.50781V4.61719Z" fill="#874CFA"/>
<path d="M4.94531 2.85938H7.05525V4.26562H4.94531V2.85938Z" fill="#874CFA"/>
</svg>
