<svg width="26" height="26" viewBox="0 0 26 26" fill="none" xmlns="http://www.w3.org/2000/svg">
<circle cx="13" cy="13" r="13" fill="#874CFA"/>
<path d="M15.8571 14.5C15.3525 14.5 14.8887 14.6833 14.5225 14.9897L12.2349 13.4885C12.3027 13.1667 12.3027 12.8333 12.2349 12.5115L14.5225 11.0103C14.8887 11.3167 15.3525 11.5 15.8571 11.5C17.0406 11.5 18 10.4926 18 9.25C18 8.00737 17.0406 7 15.8571 7C14.6737 7 13.7143 8.00737 13.7143 9.25C13.7143 9.41777 13.7319 9.58117 13.7651 9.73846L11.4775 11.2397C11.1113 10.9333 10.6475 10.75 10.1429 10.75C8.9594 10.75 8 11.7574 8 13C8 14.2426 8.9594 15.25 10.1429 15.25C10.6475 15.25 11.1113 15.0667 11.4775 14.7603L13.7651 16.2615C13.7313 16.4219 13.7142 16.5857 13.7143 16.75C13.7143 17.9926 14.6737 19 15.8571 19C17.0406 19 18 17.9926 18 16.75C18 15.5074 17.0406 14.5 15.8571 14.5Z" fill="white"/>
</svg>
