<svg width="151" height="142" viewBox="0 0 151 142" fill="none" xmlns="http://www.w3.org/2000/svg">
<g clip-path="url(#clip0)">
<path opacity="0.1" d="M92.9277 14.2645C71.4617 12.0323 68.1012 1.43342 51.7508 2.67152C36.512 3.82565 19.6702 14.5283 12.2604 29.542C2.81302 48.6863 16.8174 58.4137 17.6606 108.976C17.9422 125.85 16.4637 129.622 20.3612 134.774C25.8015 141.966 35.9217 144.184 98.6648 137.83C132.534 134.399 138.346 132.866 141.867 127.307C149.953 114.535 132.554 101.682 131.066 69.9342C129.514 36.8215 146.92 18.2307 138.154 10.191C130.759 3.40881 118.714 16.9459 92.9277 14.2645Z" fill="#F4F7FA"/>
<g style="mix-blend-mode:soft-light">
<g style="mix-blend-mode:soft-light">
<path d="M57.0914 128.442L57.2656 128.268C53.2574 124.313 51.3986 118.482 51.7471 110.937C52.0027 105.406 53.416 99.0988 55.947 92.1912L55.7146 92.1069C53.1744 99.0378 51.7564 105.37 51.4996 110.926C51.1494 118.542 53.0303 124.436 57.0914 128.442Z" fill="#FCFDFE"/>
</g>
</g>
<g style="mix-blend-mode:soft-light">
<g style="mix-blend-mode:soft-light">
<path d="M69.0401 125.921L69.2777 125.789C66.2494 120.34 66.092 113.568 68.8094 105.663C70.8019 99.8669 74.2652 93.6071 79.1035 87.0574L78.8851 86.8965C74.0305 93.4677 70.5539 99.7524 68.5527 105.575C65.8085 113.556 65.9729 120.401 69.0401 125.921Z" fill="#FCFDFE"/>
</g>
</g>
<path d="M67.9282 5.61766L51.95 138.451C51.7101 140.443 53.0828 142.228 55.0056 142.419L121.557 149.727C125.634 149.98 127.866 147.897 128.118 145.779L144.893 4.555C145.144 2.44885 143.143 0.541992 139.049 0.541992L71.8917 1.95674C69.9474 1.98928 68.1664 3.63643 67.9282 5.61766Z" fill="url(#paint0_linear)"/>
<path d="M64.9335 5.38954L48.867 138.887C48.6266 140.889 50.0033 142.683 51.933 142.875L120.929 149.746C123.092 149.961 125.074 148.396 125.327 146.268L142.196 4.31352C142.448 2.19691 140.86 0.495152 138.673 0.532336L68.9121 1.70945C66.9609 1.74257 65.1729 3.39844 64.9335 5.38954Z" fill="url(#paint1_linear)"/>
<path d="M66.241 12.7532L51.3502 136.532C51.1248 138.402 52.4144 140.076 54.221 140.25L119.107 146.559C121.118 146.755 122.961 145.294 123.196 143.312L138.786 12.1791C139.019 10.2084 137.546 8.61291 135.514 8.63499L69.9605 9.3322C68.1382 9.3537 66.4652 10.8922 66.241 12.7532Z" fill="#7C55A8"/>
<path d="M101.039 5.29779C100.954 6.00836 101.464 6.57601 102.179 6.56787C102.893 6.55974 103.545 5.97466 103.631 5.26235C103.718 4.55004 103.205 3.98414 102.489 3.99227C101.773 4.00041 101.125 4.58722 101.039 5.29779Z" fill="url(#paint2_linear)"/>
<path d="M75.3314 146.755C75.5278 151.682 76.2376 153.881 76.7157 156.543H64.7242C64.5836 155.187 64.4432 153.83 64.3031 152.472C63.1784 138.324 61.9829 127.148 61.1081 119.591C60.0625 110.581 59.3317 105.556 62.6725 102.038C66.92 97.5646 76.154 97.2107 79.8206 101.225C81.8991 103.498 81.3891 106.301 78.8 121.235C75.5423 140.004 75.1589 142.429 75.3314 146.755Z" fill="url(#paint3_linear)"/>
<path style="mix-blend-mode:multiply" opacity="0.3" d="M75.3318 146.755C75.5282 151.682 76.238 153.881 76.7161 156.543H69.7151C70.3768 152.558 72.3245 150.571 71.9591 145.688C71.5246 139.884 68.5318 139.462 67.6721 133.744C66.6753 127.101 70.3692 125.364 71.653 117.511C72.8241 110.346 71.1302 103.363 69.3625 98.6963C73.3272 97.9729 77.5956 98.7892 79.8187 101.222C81.8971 103.495 81.3871 106.298 78.7981 121.232C75.5427 140.004 75.1593 142.429 75.3318 146.755Z" fill="url(#paint4_linear)"/>
<path d="M91.0331 156.543C90.6459 155.433 90.2586 154.322 89.8713 153.212C85.5233 139.702 81.7899 129.1 79.1979 121.948C76.1081 113.421 74.2417 108.701 76.6844 104.506C79.7893 99.1769 88.6944 96.7065 93.1819 99.7667C95.7274 101.502 95.8761 104.346 96.7904 119.475C97.9394 138.493 98.1265 140.941 99.2883 145.111C100.973 151.165 102.456 152.713 103.746 156.543H91.0331Z" fill="url(#paint5_linear)"/>
<path style="mix-blend-mode:multiply" opacity="0.3" d="M96.1312 156.544C95.6542 152.128 97.3168 149.75 95.7646 144.85C94.0068 139.301 90.996 139.58 88.8455 134.212C86.3477 127.977 89.5426 125.439 88.9867 117.499C88.479 110.256 85.2231 103.851 82.4313 99.7152C86.1229 98.0994 90.4651 97.9141 93.1877 99.7675C95.7332 101.502 95.8819 104.347 96.7963 119.476C97.9453 138.494 98.1323 140.942 99.2941 145.112C100.979 151.166 102.462 152.715 103.752 156.544H96.1312Z" fill="url(#paint6_linear)"/>
<path d="M52.751 43.7402L50.6539 41.3145C49.8831 41.3726 37.1922 42.4765 32.6432 52.4942C32.0175 53.8717 29.7114 58.9497 31.917 62.9813C35.615 69.7396 50.2781 70.4293 58.6093 63.786C65.1555 58.5657 67.8735 48.7519 65.2362 46.26C62.0413 43.2434 49.3777 49.4102 48.414 49.8796C46.4784 50.8226 44.6782 51.8801 44.4639 51.5843C44.0979 51.0812 48.6545 47.1408 52.751 43.7402Z" fill="url(#paint7_linear)"/>
<path d="M31.251 13.6862L31.3242 11.4127L28.6329 10.1292C28.3405 9.98976 28.0113 9.94722 27.693 10.0078C27.3748 10.0684 27.0842 10.229 26.8635 10.4662C24.4609 13.0424 17.5035 21.6512 18.7612 33.7866C18.7934 34.0977 18.9206 34.3914 19.1254 34.6277C19.3303 34.8641 19.6028 35.0317 19.9061 35.1078C20.6938 35.2948 21.4918 35.4353 22.2959 35.5285L31.251 13.6862Z" fill="url(#paint8_linear)"/>
<path d="M52.6335 35.6155L53.4886 41.0671C53.4886 41.0671 53.9533 42.5672 53.9149 43.2243C54.7671 43.7902 56.3547 43.6485 56.3547 43.6485L57.2539 36.8455L52.7967 35.5405L52.6335 35.6155Z" fill="url(#paint9_linear)"/>
<path d="M51.0445 42.1982L52.1296 40.2657C52.1296 40.2657 53.2728 38.7237 55.5569 38.8951C57.841 39.0665 57.568 40.2634 57.568 40.2634L56.0274 40.3906C56.0274 40.3906 55.0317 40.4668 54.1046 41.6939C52.9155 42.8925 51.8711 43.3387 51.8711 43.3387L51.0445 42.1982Z" fill="#FFCBAE"/>
<path d="M60.9921 32.0296C60.9921 32.0296 38.7559 21.862 31.3263 11.4126C20.611 18.8146 22.298 35.5284 22.298 35.5284C22.298 35.5284 48.8868 34.9944 58.83 38.3556C61.4133 36.7624 60.9921 32.0296 60.9921 32.0296Z" fill="url(#paint10_linear)"/>
<path d="M79.3568 46.6024C76.8914 46.2422 72.9018 46.6141 68.8907 43.8717C67.6836 43.0449 63.4059 40.1167 63.5923 35.5052C63.7567 31.4452 67.4315 29.0224 67.8834 28.733C70.4882 27.0632 73.2062 27.2131 76.2234 27.4217C80.1357 27.6925 81.495 28.6656 84.2398 29.2112C91.0253 30.5615 93.0282 26.66 99.7602 26.527C108.364 26.3561 109.53 32.642 116.757 32.3167C124.87 31.9512 125.891 23.9177 133.8 22.0381C144.779 19.4288 162.375 30.2576 162.961 44.0582C163.299 52.0302 157.985 61.5465 150.6 64.7943C146.295 66.6861 141.501 66.4978 140.334 69.458C139.504 71.5653 141.786 72.9929 141.817 76.5643C141.859 81.1688 138.127 84.6519 137.524 85.2143C131.925 90.4341 118.492 88.884 108.976 82.6672C91.8089 71.4492 92.7598 48.5622 79.3568 46.6024Z" fill="url(#paint11_linear)"/>
<path d="M91.0523 41.4985C84.8187 41.8942 77.1108 42.4816 69.2803 43.8446C52.4488 46.7752 53.6832 55.1661 57.2696 62.65C60.9293 70.2879 61.2871 77.2252 61.3899 79.695C61.5561 83.6737 61.0484 86.9065 60.0335 93.3725C58.2699 104.605 56.5731 107.272 58.529 109.982C61.3812 113.933 68.5832 113.245 69.8443 113.099C76.2342 112.359 77.3379 108.506 82.7025 107.547C88.9355 106.431 90.7026 111.051 99.6456 113.635C110.2 116.687 123.398 114.803 129.097 107.49C131.297 104.665 132.575 100.882 131.475 99.792C129.976 98.3081 125.437 103.173 120.159 101.72C116.662 100.757 116.794 98.11 112.531 95.8231C107.4 93.0703 104.656 95.5326 101.184 93.7687C95.7681 91.0142 96.2787 81.8819 94.852 67.0006C94.0271 58.4399 92.7588 49.9278 91.0523 41.4985Z" fill="url(#paint12_linear)"/>
<path d="M91.0518 41.4985C100.123 41.3311 103.989 50.5267 113.553 51.7486C119.347 52.4893 127.774 50.371 139.223 37.647L144.594 39.7066C143.528 50.5133 138.974 56.8405 136.71 59.5294C123.778 74.8894 97.3807 76.2217 82.2715 64.8165C77.5296 61.2375 74.7082 57.0142 73.1415 54.219C77.2769 48.3015 83.4269 41.6396 91.0518 41.4985Z" fill="url(#paint13_linear)"/>
<path d="M70.7904 35.8689C70.9153 35.7661 71.0627 35.6942 71.2206 35.6591C71.3785 35.6241 71.5425 35.6269 71.6991 35.6673C71.8558 35.7076 72.0007 35.7845 72.122 35.8915C72.2433 35.9986 72.3376 36.1328 72.3972 36.2832C73.1123 38.075 74.5465 41.1055 76.2648 41.7754C78.7417 42.7341 82.3235 41.9985 82.8103 42.4145C83.2971 42.8305 72.4518 49.415 64.7874 47.2677C64.7335 47.2525 64.6809 47.233 64.63 47.2096L64.1879 47.0085C63.3125 46.6105 63.4182 45.3347 64.3477 45.0848C65.7726 44.7025 69.4828 43.3616 70.3239 41.6476C70.4204 41.4506 70.3512 39.9592 70.3088 39.7442L69.8395 37.3522C69.8039 37.171 69.818 36.9835 69.8803 36.8096C69.9426 36.6357 70.0507 36.482 70.1932 36.3645L70.7904 35.8689Z" fill="#FFCBAE"/>
<path d="M72.6439 37.0125C72.6439 37.0125 71.5716 39.2691 69.1487 38.8717C66.9784 38.5132 67.2038 33.0402 68.7019 32.139C69.2015 31.8386 70.2041 31.741 70.9413 32.0281C71.4594 32.2308 72.9872 33.5387 72.6015 35.3938C73.0865 35.1492 73.5635 35.1992 73.7244 35.4316C73.9283 35.7273 73.5768 36.245 73.4972 36.3653C73.2871 36.6646 72.9888 36.8909 72.6439 37.0125Z" fill="#FFCBAE"/>
<path d="M140.73 38.2245L141.47 36.4861C141.47 36.4861 136.635 29.6541 140.128 28.2695C143.621 26.885 142.751 28.9906 142.412 29.9899C142.073 30.9892 142.935 34.115 143.622 35.0412C144.31 35.9673 143.448 39.2662 143.448 39.2662L140.73 38.2245Z" fill="#FFCBAE"/>
<path style="mix-blend-mode:multiply" opacity="0.3" d="M114.429 107.911C112.074 106.53 113.422 103.42 110.711 101.163C108.229 99.0976 105.765 100.591 101.514 99.6821C96.4024 98.5893 92.2479 94.7796 90.224 91.3435C88.7816 88.894 88.7718 87.2265 89.068 74.158C89.3503 61.7123 89.4624 58.6701 91.0245 58.1629C93.8674 57.2391 97.0658 66.1535 102.732 65.7741C105.931 65.5591 106.17 62.6308 110.098 60.8454C116.765 57.8149 122.061 63.5314 129.357 62.8156C131.222 62.6326 133.456 61.9929 135.945 60.3632C126.093 71.2413 109.269 74.6054 95.1994 70.9241C96.2316 83.4843 96.2636 91.2686 101.183 93.771C104.655 95.5372 107.398 93.0738 112.53 95.8254C116.793 98.1123 116.661 100.759 120.158 101.722C125.436 103.175 129.975 98.3104 131.474 99.7943C132.472 100.782 131.504 103.978 129.676 106.675C128.404 106.237 127.071 106.005 125.726 105.985C120.305 105.927 117.207 109.541 114.429 107.911Z" fill="url(#paint14_linear)"/>
<path d="M22.5441 92.2871C34.4804 92.6677 44.3789 82.9753 44.3789 70.6737C44.3789 58.372 34.4804 48.4345 22.5441 48.5176C10.8559 48.5989 1.52379 58.2983 1.52379 70.1403C1.52379 81.9824 10.8559 91.9147 22.5441 92.2871Z" fill="url(#paint15_linear)"/>
<path d="M21.0408 92.2871C32.9765 92.6677 42.875 82.9753 42.875 70.6737C42.875 58.372 32.9765 48.4345 21.0408 48.5176C9.35197 48.5989 0.0198593 58.2983 0.0198593 70.1403C0.0198593 81.9824 9.35197 91.9147 21.0408 92.2871Z" fill="url(#paint16_linear)"/>
<path d="M1.44394 70.159C1.44394 81.2162 10.1324 90.4449 21.04 90.7778C32.1624 91.1177 41.3418 82.1115 41.3418 70.6558C41.3418 59.2001 32.1636 49.9656 21.04 50.0301C10.1324 50.0894 1.44394 59.1019 1.44394 70.159Z" fill="#875EB6"/>
<path d="M37.5003 82.5714C37.5003 82.5714 28.0633 72.0283 5.999 82.0716C5.999 82.0716 5.999 85.5713 21.5006 90.5714C37.9997 84.5713 37.5003 82.5714 37.5003 82.5714Z" fill="#996BCE"/>
<path d="M24.2032 70.4422L24.8718 75.5202C25.0659 78.7489 28.1992 80.0259 28.1992 80.0259C24.521 84.3899 17.4892 84.0581 15.0303 79.7935C16.73 79.1846 18.6347 76.5579 18.7085 74.6969L18.8828 70.3789L24.2032 70.4422Z" fill="#FFCBAE"/>
<path d="M16.0908 65.8727C16.0908 70.1466 18.6206 74.7795 21.7569 74.8306C24.9106 74.8824 27.4805 70.286 27.4805 65.9692C27.4805 61.6523 24.9106 59.2835 21.7569 59.2754C18.6206 59.2679 16.0908 61.5988 16.0908 65.8727Z" fill="#FFCBAE"/>
<path d="M27.6494 67.0603L26.7037 66.8994C26.8484 66.5473 27.4455 64.9879 26.7037 63.6132C25.9915 62.2937 24.315 61.6447 23.0347 61.7249C21.5825 61.8161 20.7111 62.4936 19.9792 61.9614C19.5726 61.6627 19.4366 61.123 19.3902 60.7029C19.3453 61.0831 19.2461 61.4548 19.0957 61.8068C18.5531 63.0659 17.6353 63.3233 17.1363 64.1541C16.7999 64.713 16.5809 65.6519 17.1363 67.3125L16.305 67.2544C15.9094 65.9916 15.6216 64.6975 15.4447 63.386C15.1211 60.9876 14.8986 59.3376 15.8171 58.5363C16 58.3766 16.8098 57.7438 18.7483 58.344C19.5364 57.5029 20.5303 56.8821 21.6319 56.5429C22.1413 56.3895 24.6688 55.6301 26.9105 57.2773C28.4348 58.3981 29.6303 60.4874 29.2457 62.2112C29.0424 63.1234 28.4871 63.5307 27.998 65.2906C27.8373 65.8708 27.7208 66.4624 27.6494 67.0603Z" fill="url(#paint17_linear)"/>
<path d="M16.877 67.4572C16.877 67.4572 16.5133 65.5817 15.409 65.7583C14.3048 65.9349 15.8865 69.016 16.877 69.3966V67.4572Z" fill="#FFCBAE"/>
<path d="M26.7701 67.5545C26.7701 67.5545 27.1407 65.6685 28.2682 65.8655C29.3957 66.0625 27.7803 69.1499 26.7701 69.5107V67.5545Z" fill="#FFCBAE"/>
<path d="M56.2934 130.52C66.394 130.44 74.7734 122.064 74.7734 111.85C74.7734 101.637 66.394 93.7196 56.2934 94.1925C46.4049 94.6561 38.5153 103.018 38.5153 112.843C38.5153 122.669 46.406 130.599 56.2934 130.52Z" fill="url(#paint18_linear)"/>
<path d="M39.7203 112.811C39.7203 121.985 47.0675 129.354 56.2944 129.269C65.7063 129.181 73.4766 121.398 73.4766 111.887C73.4766 102.376 65.7063 95.0188 56.2944 95.4465C47.0675 95.8649 39.7203 103.636 39.7203 112.811Z" fill="#875EB6"/>
<path d="M68.8461 120.882C69.759 118.517 66.3312 117.709 65.8947 112.203C65.8648 111.829 65.2844 104.308 63.9897 102.862C63.8783 102.74 63.7566 102.625 63.6258 102.518C62.9786 102.07 61.978 102.123 58.4082 100.792C55.3486 99.6516 55.5251 99.6845 55.1298 99.6197C52.8294 99.2418 49.4288 101.123 48.3094 103.633C47.3057 105.886 48.51 107.807 46.711 111.763C44.4805 117.457 43.365 120.303 44.3745 122.091C47.4423 127.524 66.7964 126.194 68.8461 120.882Z" fill="url(#paint19_linear)"/>
<path d="M70 122.633C70 122.633 57.9255 115.466 43 123.063C43 123.063 45.5 128.071 56.2568 129.565C67 128.071 70 122.633 70 122.633Z" fill="#996BCE"/>
<path d="M58.9699 112.283L59.5354 116.476C59.6287 117.176 59.9188 117.835 60.372 118.376C60.8251 118.917 61.4225 119.318 62.0948 119.533L66.6953 121.011C66.6953 121.011 57.8883 125.386 46.7668 121.329L51.8378 119.482C52.5445 119.204 53.1551 118.726 53.5959 118.107C54.0366 117.488 54.2883 116.755 54.3207 115.996L54.4659 112.406L58.9699 112.283Z" fill="#FFCBAE"/>
<path d="M52.1059 108.762C52.1059 112.309 54.2458 116.07 56.8991 116.008C59.5679 115.945 61.7422 112.044 61.7422 108.46C61.7422 104.876 59.5679 102.997 56.8991 103.097C54.2458 103.195 52.1059 105.215 52.1059 108.762Z" fill="#FFCBAE"/>
<path d="M64.2428 109.651C63.551 109.633 64.5501 104.007 61.8693 102.53C60.09 101.548 57.0019 102.573 55.265 104.447C52.5279 107.405 54.0597 111.507 51.9859 112.446C50.6701 113.041 48.9129 111.9 48.0712 111.051C45.4426 108.407 45.8011 102.647 48.9083 99.3115C51.3852 96.6522 54.7475 96.4541 55.5468 96.4315C60.1237 96.3019 64.3265 99.5689 65.2902 103.548C66.0303 106.605 64.7546 109.663 64.2428 109.651Z" fill="url(#paint20_linear)"/>
</g>
<defs>
<linearGradient id="paint0_linear" x1="99.245" y1="71.7094" x2="125.473" y2="74.5704" gradientUnits="userSpaceOnUse">
<stop stop-color="#444B8C"/>
<stop offset="1" stop-color="#26264F"/>
</linearGradient>
<linearGradient id="paint1_linear" x1="-181518" y1="110329" x2="55487.2" y2="615225" gradientUnits="userSpaceOnUse">
<stop stop-color="#444B8C"/>
<stop offset="1" stop-color="#26264F"/>
</linearGradient>
<linearGradient id="paint2_linear" x1="-3882.86" y1="1667.12" x2="-537.723" y2="10849.8" gradientUnits="userSpaceOnUse">
<stop stop-color="#FFC444"/>
<stop offset="1" stop-color="#F36F56"/>
</linearGradient>
<linearGradient id="paint3_linear" x1="54.81" y1="179.817" x2="71.6577" y2="120.707" gradientUnits="userSpaceOnUse">
<stop stop-color="#444B8C"/>
<stop offset="1" stop-color="#3E4177"/>
</linearGradient>
<linearGradient id="paint4_linear" x1="-30645.6" y1="218169" x2="702.863" y2="192415" gradientUnits="userSpaceOnUse">
<stop stop-color="#444B8C"/>
<stop offset="1" stop-color="#3E4177"/>
</linearGradient>
<linearGradient id="paint5_linear" x1="-44557.7" y1="240044" x2="-28319.8" y2="187376" gradientUnits="userSpaceOnUse">
<stop stop-color="#444B8C"/>
<stop offset="1" stop-color="#3E4177"/>
</linearGradient>
<linearGradient id="paint6_linear" x1="-19851.1" y1="235090" x2="1109.51" y2="189166" gradientUnits="userSpaceOnUse">
<stop stop-color="#444B8C"/>
<stop offset="1" stop-color="#3E4177"/>
</linearGradient>
<linearGradient id="paint7_linear" x1="54.7464" y1="42.5294" x2="31.2335" y2="87.4184" gradientUnits="userSpaceOnUse">
<stop stop-color="#AA80F9"/>
<stop offset="1" stop-color="#6165D7"/>
</linearGradient>
<linearGradient id="paint8_linear" x1="17.7754" y1="7.74364" x2="48.2445" y2="70.4454" gradientUnits="userSpaceOnUse">
<stop stop-color="#AB316D"/>
<stop offset="1" stop-color="#792D3D"/>
</linearGradient>
<linearGradient id="paint9_linear" x1="-22479.5" y1="24663.5" x2="-20294.5" y2="25149.1" gradientUnits="userSpaceOnUse">
<stop stop-color="#AB316D"/>
<stop offset="1" stop-color="#792D3D"/>
</linearGradient>
<linearGradient id="paint10_linear" x1="32.79" y1="12.4399" x2="59.2383" y2="76.1323" gradientUnits="userSpaceOnUse">
<stop stop-color="#FF9085"/>
<stop offset="1" stop-color="#FB6FBB"/>
</linearGradient>
<linearGradient id="paint11_linear" x1="179.275" y1="98.9249" x2="96.0989" y2="23.6593" gradientUnits="userSpaceOnUse">
<stop stop-color="#311944"/>
<stop offset="1" stop-color="#893976"/>
</linearGradient>
<linearGradient id="paint12_linear" x1="-140450" y1="125588" x2="-170727" y2="275733" gradientUnits="userSpaceOnUse">
<stop stop-color="#AA80F9"/>
<stop offset="1" stop-color="#6165D7"/>
</linearGradient>
<linearGradient id="paint13_linear" x1="-123660" y1="64612.4" x2="-128878" y2="138671" gradientUnits="userSpaceOnUse">
<stop stop-color="#AA80F9"/>
<stop offset="1" stop-color="#6165D7"/>
</linearGradient>
<linearGradient id="paint14_linear" x1="-54923.4" y1="114251" x2="-94196.3" y2="116893" gradientUnits="userSpaceOnUse">
<stop stop-color="#AA80F9"/>
<stop offset="1" stop-color="#6165D7"/>
</linearGradient>
<linearGradient id="paint15_linear" x1="-106751" y1="81262" x2="-138367" y2="81262" gradientUnits="userSpaceOnUse">
<stop stop-color="#444B8C"/>
<stop offset="1" stop-color="#26264F"/>
</linearGradient>
<linearGradient id="paint16_linear" x1="-107863" y1="81262" x2="-139478" y2="81262" gradientUnits="userSpaceOnUse">
<stop stop-color="#FF9085"/>
<stop offset="1" stop-color="#FB6FBB"/>
</linearGradient>
<linearGradient id="paint17_linear" x1="-40835.3" y1="17954.5" x2="-40560.5" y2="20123.8" gradientUnits="userSpaceOnUse">
<stop stop-color="#444B8C"/>
<stop offset="1" stop-color="#26264F"/>
</linearGradient>
<linearGradient id="paint18_linear" x1="-65800.6" y1="93557.3" x2="-99835" y2="93557.3" gradientUnits="userSpaceOnUse">
<stop stop-color="#F36F56"/>
<stop offset="1" stop-color="#FFC444"/>
</linearGradient>
<linearGradient id="paint19_linear" x1="-71719" y1="42407.8" x2="-42174" y2="96208.5" gradientUnits="userSpaceOnUse">
<stop stop-color="#AB316D"/>
<stop offset="1" stop-color="#792D3D"/>
</linearGradient>
<linearGradient id="paint20_linear" x1="-48086.1" y1="33410.8" x2="-41952.1" y2="47193.1" gradientUnits="userSpaceOnUse">
<stop stop-color="#AB316D"/>
<stop offset="1" stop-color="#792D3D"/>
</linearGradient>
<clipPath id="clip0">
<rect width="151" height="141" fill="white" transform="matrix(-1 0 0 1 151 0.571289)"/>
</clipPath>
</defs>
</svg>
