<svg width="17" height="5" viewBox="0 0 17 5" fill="none" xmlns="http://www.w3.org/2000/svg">
<g clip-path="url(#clip0)">
<path fill-rule="evenodd" clip-rule="evenodd" d="M13.3906 2.15234C13.3906 2.98077 14.0622 3.65234 14.8906 3.65234C15.7191 3.65234 16.3906 2.98077 16.3906 2.15234C16.3906 1.32392 15.7191 0.652344 14.8906 0.652344C14.0622 0.652344 13.3906 1.32392 13.3906 2.15234Z" fill="#535C73"/>
<path fill-rule="evenodd" clip-rule="evenodd" d="M7.39062 2.15234C7.39062 2.98077 8.0622 3.65234 8.89062 3.65234C9.71905 3.65234 10.3906 2.98077 10.3906 2.15234C10.3906 1.32392 9.71905 0.652344 8.89062 0.652344C8.0622 0.652344 7.39062 1.32392 7.39062 2.15234Z" fill="#535C73"/>
<path fill-rule="evenodd" clip-rule="evenodd" d="M1.39062 2.15234C1.39062 2.98077 2.0622 3.65234 2.89062 3.65234C3.71905 3.65234 4.39062 2.98077 4.39062 2.15234C4.39062 1.32392 3.71905 0.652344 2.89062 0.652344C2.0622 0.652344 1.39062 1.32392 1.39062 2.15234Z" fill="#535C73"/>
</g>
<defs>
<clipPath id="clip0">
<rect width="4" height="16" fill="white" transform="translate(16.8906 0.152344) rotate(90)"/>
</clipPath>
</defs>
</svg>
