<svg width="23" height="23" viewBox="0 0 23 23" fill="none" xmlns="http://www.w3.org/2000/svg">
<circle cx="11.5" cy="11.5" r="11.5" fill="#4E6297"/>
<path d="M16.6754 7.94592C16.6754 7.08491 15.9157 6.3252 15.0547 6.3252H8.52111C7.6601 6.3252 6.90039 7.08491 6.90039 7.94592V14.4795C6.90039 15.3405 7.6601 16.1002 8.52111 16.1002H11.8132V12.4029H10.5977V10.7822H11.8132V10.1238C11.8132 9.00952 12.6236 8.04721 13.6365 8.04721H14.9534V9.66794H13.6365C13.4846 9.66794 13.3326 9.81988 13.3326 10.1238V10.7822H14.9534V12.4029H13.3326V16.1002H15.0547C15.9157 16.1002 16.6754 15.3405 16.6754 14.4795V7.94592Z" fill="white"/>
</svg>
