<svg width="46" height="46" viewBox="0 0 46 46" fill="none" xmlns="http://www.w3.org/2000/svg">
<rect width="46" height="46" rx="8" fill="#F7F2FF"/>
<mask id="mask0" mask-type="alpha" maskUnits="userSpaceOnUse" x="11" y="11" width="24" height="24">
<path fill-rule="evenodd" clip-rule="evenodd" d="M17 27.5H14V32H17V27.5ZM24.5 21.5H21.5V32H24.5V21.5ZM32 14L29 14V32H32V14ZM29 12.5C28.1716 12.5 27.5 13.1716 27.5 14V32C27.5 32.8284 28.1716 33.5 29 33.5H32C32.8284 33.5 33.5 32.8284 33.5 32V14C33.5 13.1716 32.8284 12.5 32 12.5H29ZM20 21.5C20 20.6716 20.6716 20 21.5 20H24.5C25.3284 20 26 20.6716 26 21.5V32C26 32.8284 25.3284 33.5 24.5 33.5H21.5C20.6716 33.5 20 32.8284 20 32V21.5ZM12.5 27.5C12.5 26.6716 13.1716 26 14 26H17C17.8284 26 18.5 26.6716 18.5 27.5V32C18.5 32.8284 17.8284 33.5 17 33.5H14C13.1716 33.5 12.5 32.8284 12.5 32V27.5Z" fill="black"/>
</mask>
<g mask="url(#mask0)">
<rect x="11" y="11" width="24" height="24" fill="#874CFA"/>
</g>
</svg>
