<svg width="174" height="174" viewBox="0 0 174 174" fill="none" xmlns="http://www.w3.org/2000/svg">
<g filter="url(#filter0_dd)">
<rect x="12" y="7" width="150" height="150" rx="75" fill="white"/>
</g>
<path d="M76.6408 47.266C71.9592 47.8113 70.3772 38.9083 62.4122 36.9051C57.0243 35.5498 52.3116 38.256 51.3942 38.8096C47.626 41.0834 44.2667 45.4146 43.9698 50.2984C43.5225 57.6613 50.2946 61.9839 48.2403 65.5218C46.6515 68.258 41.9369 66.8185 40.6467 69.7525C39.5829 72.1713 41.8038 75.3884 43.1497 77.3375C46.8304 82.6682 49.9663 82.2368 51.1078 85.0233C53.3382 90.4672 42.6879 95.3235 40.2012 106.015C38.2988 114.194 41.4205 124.728 48.8861 130.321C57.8289 137.021 70.3493 134.641 77.5633 130.321C85.3858 125.637 84.1444 120.362 90.4428 118.688C98.0364 116.67 101.837 123.811 116.072 124.586C120.724 124.839 125.705 125.042 128.362 121.855C132.104 117.367 128.796 109.096 128.271 107.786C124.317 97.9035 115.269 94.6748 116.575 90.9695C117.397 88.64 121.648 87.996 122.226 87.9085C126.517 87.2576 128.56 89.9537 131.653 88.8183C133.467 88.1522 135.389 86.2614 135.687 84.1797C136.549 78.1547 123.2 74.7925 123.436 68.3969C123.58 64.4482 128.729 64.13 133.279 57.9466C137.765 51.8471 140.915 41.0682 136.283 34.7318C131.184 27.758 117.813 27.7381 109.613 32.6197C99.8545 38.4285 98.3242 50.6416 93.677 50.0261C89.6379 49.4917 88.9038 40.0155 84.9374 39.9212C81.5329 39.8391 80.7074 46.792 76.6408 47.266Z" fill="url(#paint0_linear)"/>
<path d="M128.85 92.4713C127.461 92.0073 121.795 90.1161 120.892 91.6446C119.879 93.3572 124.733 99.5586 131.105 100.972C134.343 101.69 138.679 101.329 139.133 99.7789C139.716 97.7911 133.83 94.1339 128.85 92.4713Z" fill="url(#paint1_linear)"/>
<path d="M79.5173 39.8361C79.3401 41.5827 77.8033 43.5863 75.7736 43.5798C73.6608 43.5729 72.3641 41.3917 72.0299 39.8361C71.5938 37.805 72.4639 35.2738 74.0784 34.7307C76.2563 33.9992 79.8185 36.8678 79.5173 39.8361Z" fill="url(#paint2_linear)"/>
<path d="M95.1796 34.731C93.206 35.349 90.2018 36.2895 89.581 38.8276C88.9984 41.2076 90.6947 44.2429 92.7218 44.6996C96.6828 45.5924 102.567 36.786 101.052 34.5961C100.084 33.1953 96.0721 34.4515 95.1796 34.731Z" fill="url(#paint3_linear)"/>
<path d="M75.1799 128.948C72.6896 129.346 69.9161 128.55 68.1753 126.791L44.7693 103.126C42.7389 101.073 42.8709 97.9102 45.0947 95.9966C47.3789 94.0317 52.1246 93.6679 54.3155 95.7887L79.6587 120.325C82.1758 122.762 81.7596 126.158 78.7804 127.839C78.059 128.248 76.0091 128.816 75.1799 128.948Z" fill="url(#paint4_linear)"/>
<path style="mix-blend-mode:multiply" opacity="0.3" d="M45.0959 95.9956C47.3801 94.0307 52.1258 93.6669 54.3167 95.7877L77.393 118.129C74.9489 118.211 72.3418 118.915 69.1409 117.701C63.9277 115.723 64.3511 111.3 59.8734 108.759C57.8586 107.615 54.6664 106.762 49.4365 107.845L44.7679 103.126C42.739 101.074 42.871 97.9121 45.0959 95.9956Z" fill="url(#paint5_linear)"/>
<path d="M47.2857 108.359C51.1851 106.954 53.1669 102.542 51.7122 98.5034C50.2574 94.465 45.917 92.3298 42.0176 93.7345C38.1182 95.1391 36.1363 99.5517 37.5911 103.59C39.0458 107.629 43.3862 109.764 47.2857 108.359Z" fill="url(#paint6_linear)"/>
<path d="M41.6797 94.0607C41.7907 99.4985 43.4978 104.237 46.8777 108.489L94.0442 111.815L76.2553 60.7822L41.6797 94.0607Z" fill="url(#paint7_linear)"/>
<path style="mix-blend-mode:multiply" opacity="0.3" d="M75.5856 100.998C70.7543 100.616 67.1484 94.5384 62.5398 95.9743C59.0807 97.0519 59.4376 101.181 56.099 101.874C52.8055 102.559 50.838 98.7124 46.9975 98.5724C45.3019 98.5106 43.8356 99.211 42.5859 100.288C43.4198 103.206 44.8398 105.926 46.8767 108.488L94.0432 111.815L84.8271 95.5581C81.0422 99.9939 78.0073 101.19 75.5856 100.998Z" fill="url(#paint8_linear)"/>
<path d="M94.5586 111.596C105.131 107.788 109.603 93.3262 104.549 79.295C99.4949 65.2639 86.8274 56.9766 76.2554 60.7848C65.6835 64.593 61.2106 79.0547 66.2649 93.0858C71.3192 107.117 83.9867 115.404 94.5586 111.596Z" fill="#D8DEE8"/>
<path d="M94.2516 110.731C96.496 109.922 98.4856 108.528 100.165 106.588C101.874 104.614 103.185 102.177 104.061 99.3427C105.903 93.3867 105.596 86.4389 103.197 79.7801C100.798 73.1212 96.6031 67.5731 91.3859 64.1589C88.9039 62.5353 86.3394 61.4935 83.7637 61.0629C81.2325 60.6394 78.8098 60.8347 76.5678 61.6414C74.3259 62.4481 72.3339 63.8439 70.6546 65.7839C68.9453 67.7586 67.6345 70.1955 66.758 73.0297C65.9881 75.52 65.5936 78.1836 65.5705 80.9274C65.5386 84.7452 70.4065 86.9661 71.8023 90.8403C73.287 94.9608 71.2787 100.408 73.9546 103.435C75.6038 105.3 77.4444 106.911 79.4335 108.213C81.9152 109.836 84.4797 110.878 87.0554 111.309C89.5858 111.735 92.0071 111.539 94.2516 110.731Z" fill="url(#paint9_linear)"/>
<path d="M86.4387 86.474C88.1784 91.3029 85.4376 96.6223 80.389 98.3306C75.4187 100.013 70.0746 97.5509 68.3834 92.8566C66.6922 88.1622 69.2556 82.9052 74.1779 81.0901C79.1766 79.2467 84.6989 81.6451 86.4387 86.474Z" fill="url(#paint10_linear)"/>
<path style="mix-blend-mode:multiply" opacity="0.3" d="M85.6187 86.681C86.9106 90.2669 85.928 93.8375 83.4593 94.6449C81.0288 95.4398 78.0677 93.2491 76.8127 89.7631C75.5578 86.2771 76.4533 82.7368 78.8474 81.8415C81.2795 80.9346 84.3268 83.0951 85.6187 86.681Z" fill="url(#paint11_linear)"/>
<path d="M91.843 80.2106C91.843 80.2106 95.0331 77.6696 96.6454 74.0898C93.1903 70.9721 90.8989 66.9116 90.3648 62.3602C89.0844 51.4463 98.2976 41.0807 111.503 39.1251C125.011 37.1247 137.594 44.5911 139.533 55.9989C139.533 56.0029 139.533 56.0068 139.533 56.0108C139.557 56.1522 139.579 56.2947 139.6 56.4375L139.609 56.4997C139.629 56.64 139.647 56.7803 139.664 56.9217C139.74 57.5666 139.78 58.2152 139.786 58.8646C139.789 59.1396 139.785 59.4138 139.774 59.6872C139.753 60.234 139.707 60.7757 139.637 61.3126C139.602 61.5809 139.561 61.8479 139.514 62.1136C139.483 62.2907 139.449 62.4672 139.412 62.6429C138.552 66.7735 136.253 70.5367 132.953 73.5304C132.883 73.594 132.813 73.6573 132.742 73.7202C131.581 74.7454 130.33 75.6618 129.002 76.4579C128.917 76.5085 128.833 76.5588 128.749 76.6087C128.153 76.958 127.539 77.2865 126.907 77.5941C126.637 77.7257 126.363 77.8532 126.086 77.9766C125.902 78.0591 125.716 78.1396 125.529 78.2182C125.248 78.3361 124.964 78.4497 124.678 78.5592C124.487 78.6315 124.295 78.7026 124.102 78.7725C121.601 79.6626 118.992 80.21 116.344 80.3997C116.142 80.4142 115.941 80.4262 115.74 80.4359L115.564 80.4435C115.42 80.4503 115.278 80.4569 115.135 80.4612C115.072 80.4634 115.008 80.4644 114.945 80.4659C114.806 80.4695 114.667 80.4728 114.529 80.4746C114.469 80.4746 114.41 80.4746 114.351 80.4746C114.206 80.4746 114.063 80.4746 113.92 80.4746L113.767 80.4724C113.614 80.4702 113.46 80.4673 113.307 80.4626L113.191 80.459C113.022 80.4532 112.854 80.4461 112.687 80.4377L112.619 80.4341C112.43 80.4244 112.243 80.4124 112.055 80.3979H112.052C110.503 80.2877 108.966 80.0501 107.456 79.6874C107.457 79.6856 107.459 79.6837 107.46 79.6816C106.588 79.4697 105.737 79.2178 104.908 78.9258C103.192 80.6319 98.6708 83.9264 91.843 80.2106Z" fill="url(#paint12_linear)"/>
<path d="M88.5914 62.4923C89.8718 73.4065 101.25 81.5006 114.571 80.53C128.56 79.5107 139.291 68.979 137.892 57.0542C136.493 45.1293 123.596 37.2023 109.729 39.2572C96.5238 41.2131 87.3109 51.5784 88.5914 62.4923Z" fill="url(#paint13_linear)"/>
<path d="M88.5914 62.4923C89.8718 73.4065 101.25 81.5006 114.571 80.53C128.56 79.5107 139.291 68.979 137.892 57.0542C136.493 45.1293 123.596 37.2023 109.729 39.2572C96.5238 41.2131 87.3109 51.5784 88.5914 62.4923Z" fill="white"/>
<path d="M103.905 78.1797C103.905 78.1797 98.9282 85.1654 90.0664 80.3431C90.0664 80.3431 96.1377 75.5089 95.7627 69.7808L103.905 78.1797Z" fill="white"/>
<path d="M110.223 70.6282C110.191 69.6957 110.487 68.9189 111.113 68.2976C111.738 67.6764 112.534 67.3493 113.499 67.3163C114.465 67.283 115.282 67.5547 115.948 68.1313C116.615 68.7079 116.964 69.4626 116.997 70.3953C117.029 71.3282 116.732 72.1052 116.107 72.7262C115.482 73.3472 114.686 73.6743 113.72 73.7076C112.754 73.7403 111.938 73.4687 111.272 72.8925C110.606 72.3164 110.256 71.5616 110.223 70.6282ZM115.925 64.5634L110.981 64.7337L109.555 45.946L116.057 45.7222L115.925 64.5634Z" fill="url(#paint14_linear)"/>
<g style="mix-blend-mode:multiply" opacity="0.3">
<path style="mix-blend-mode:multiply" opacity="0.3" d="M108.024 75.7622C110.242 69.4595 106.623 64.0999 110.121 59.7643C113.727 55.296 119.553 58.4289 125.078 54.4332C127.246 52.8656 129.554 50.065 130.898 44.6812C134.731 47.8473 137.312 52.1283 137.89 57.0544C139.289 68.9793 128.557 79.5098 114.569 80.5303C111.459 80.7566 108.462 80.4912 105.68 79.8179C106.848 78.4384 107.569 77.0528 108.024 75.7622Z" fill="url(#paint15_linear)"/>
</g>
<path d="M73.6377 59.5983C72.2969 55.5741 70.3414 50.9561 68.1992 51.0523C66.6006 51.1246 66.2177 53.7603 64.5087 53.9657C60.7803 54.4137 57.7153 42.4476 55.1859 42.8945C53.7363 43.1509 52.8301 47.4196 53.6311 51.0523C55.1187 57.7911 62.5575 62.6738 65.4789 61.1521C67.6536 60.0196 66.7593 55.6327 68.5865 55.1311C70.0029 54.7428 71.9216 56.9945 73.6377 59.5983Z" fill="white"/>
<path d="M80.4318 57.2685C81.1785 53.114 80.8043 51.8875 80.2376 51.6358C79.4341 51.2796 78.5334 53.0099 76.9355 52.9954C74.2025 52.9715 72.2292 47.8701 72.0799 47.9457C71.4984 48.2389 73.7903 56.6212 75.9642 56.4917C76.7424 56.4455 77.0823 55.3281 78.1009 55.3263C79.0498 55.3238 79.8453 56.2878 80.4318 57.2685Z" fill="white"/>
<path d="M106.461 98.0571C106.516 97.2453 114.88 96.3629 115.59 98.4454C115.933 99.4525 114.145 100.148 114.035 101.748C113.76 105.784 124.652 108.696 124.329 109.905C123.959 111.292 109.04 109.664 108.596 105.826C108.376 103.916 111.858 102.461 111.316 100.583C110.745 98.5995 106.421 98.6418 106.461 98.0571Z" fill="white"/>
<path d="M108.596 90.4813C108.823 89.3477 113.156 88.409 114.229 90.0926C114.769 90.9402 114.471 92.4318 113.646 93.0064C112.008 94.1479 108.37 91.6145 108.596 90.4813Z" fill="white"/>
<defs>
<filter id="filter0_dd" x="0.333334" y="0.333334" width="173.333" height="173.333" filterUnits="userSpaceOnUse" color-interpolation-filters="sRGB">
<feFlood flood-opacity="0" result="BackgroundImageFix"/>
<feColorMatrix in="SourceAlpha" type="matrix" values="0 0 0 0 0 0 0 0 0 0 0 0 0 0 0 0 0 0 127 0"/>
<feMorphology radius="1.66667" operator="erode" in="SourceAlpha" result="effect1_dropShadow"/>
<feOffset dy="5"/>
<feGaussianBlur stdDeviation="6.66667"/>
<feColorMatrix type="matrix" values="0 0 0 0 0.196078 0 0 0 0 0.196078 0 0 0 0 0.278431 0 0 0 0.05 0"/>
<feBlend mode="normal" in2="BackgroundImageFix" result="effect1_dropShadow"/>
<feColorMatrix in="SourceAlpha" type="matrix" values="0 0 0 0 0 0 0 0 0 0 0 0 0 0 0 0 0 0 127 0"/>
<feOffset/>
<feGaussianBlur stdDeviation="0.833333"/>
<feColorMatrix type="matrix" values="0 0 0 0 0.0470588 0 0 0 0 0.101961 0 0 0 0 0.294118 0 0 0 0.24 0"/>
<feBlend mode="normal" in2="effect1_dropShadow" result="effect2_dropShadow"/>
<feBlend mode="normal" in="SourceGraphic" in2="effect2_dropShadow" result="shape"/>
</filter>
<linearGradient id="paint0_linear" x1="95.579" y1="48.0015" x2="69.633" y2="156.155" gradientUnits="userSpaceOnUse">
<stop stop-color="#FFC444"/>
<stop offset="1" stop-color="#F36F56"/>
</linearGradient>
<linearGradient id="paint1_linear" x1="60087" y1="12673.6" x2="55818.9" y2="44581.4" gradientUnits="userSpaceOnUse">
<stop stop-color="#FFC444"/>
<stop offset="1" stop-color="#F36F56"/>
</linearGradient>
<linearGradient id="paint2_linear" x1="11356.1" y1="7202.78" x2="3941.32" y2="33465.3" gradientUnits="userSpaceOnUse">
<stop stop-color="#FFC444"/>
<stop offset="1" stop-color="#F36F56"/>
</linearGradient>
<linearGradient id="paint3_linear" x1="23595.7" y1="9995.24" x2="16435.2" y2="42640.2" gradientUnits="userSpaceOnUse">
<stop stop-color="#FFC444"/>
<stop offset="1" stop-color="#F36F56"/>
</linearGradient>
<linearGradient id="paint4_linear" x1="66.6997" y1="100.026" x2="57.8743" y2="123.649" gradientUnits="userSpaceOnUse">
<stop stop-color="#311944"/>
<stop offset="1" stop-color="#893976"/>
</linearGradient>
<linearGradient id="paint5_linear" x1="-93204.7" y1="46095" x2="-102811" y2="62138.2" gradientUnits="userSpaceOnUse">
<stop stop-color="#311944"/>
<stop offset="1" stop-color="#893976"/>
</linearGradient>
<linearGradient id="paint6_linear" x1="1019.89" y1="26593.2" x2="-1356.31" y2="32632.1" gradientUnits="userSpaceOnUse">
<stop stop-color="#311944"/>
<stop offset="1" stop-color="#893976"/>
</linearGradient>
<linearGradient id="paint7_linear" x1="41.9525" y1="97.9489" x2="87.022" y2="85.7967" gradientUnits="userSpaceOnUse">
<stop stop-color="#E38DDD"/>
<stop offset="1" stop-color="#9571F6"/>
</linearGradient>
<linearGradient id="paint8_linear" x1="48.5366" y1="72.388" x2="87.7211" y2="140.1" gradientUnits="userSpaceOnUse">
<stop stop-color="#AA80F9"/>
<stop offset="1" stop-color="#6165D7"/>
</linearGradient>
<linearGradient id="paint9_linear" x1="-48253.4" y1="112546" x2="-3175.05" y2="97250.3" gradientUnits="userSpaceOnUse">
<stop stop-color="#311944"/>
<stop offset="1" stop-color="#893976"/>
</linearGradient>
<linearGradient id="paint10_linear" x1="68.1616" y1="92.1603" x2="86.6554" y2="87.1737" gradientUnits="userSpaceOnUse">
<stop stop-color="#FF9085"/>
<stop offset="1" stop-color="#FB6FBB"/>
</linearGradient>
<linearGradient id="paint11_linear" x1="-15847.6" y1="23387.5" x2="-8097.21" y2="35195" gradientUnits="userSpaceOnUse">
<stop stop-color="#FF9085"/>
<stop offset="1" stop-color="#FB6FBB"/>
</linearGradient>
<linearGradient id="paint12_linear" x1="64773.3" y1="-55515.1" x2="170567" y2="160419" gradientUnits="userSpaceOnUse">
<stop stop-color="#311944"/>
<stop offset="1" stop-color="#893976"/>
</linearGradient>
<linearGradient id="paint13_linear" x1="136753" y1="19164.7" x2="111213" y2="100238" gradientUnits="userSpaceOnUse">
<stop stop-color="#FF9085"/>
<stop offset="1" stop-color="#FB6FBB"/>
</linearGradient>
<linearGradient id="paint14_linear" x1="17801.5" y1="18930.5" x2="36095" y2="35300.8" gradientUnits="userSpaceOnUse">
<stop stop-color="#FF9085"/>
<stop offset="1" stop-color="#FB6FBB"/>
</linearGradient>
<linearGradient id="paint15_linear" x1="98650.7" y1="22358.4" x2="71324.3" y2="89777.9" gradientUnits="userSpaceOnUse">
<stop stop-color="#FF9085"/>
<stop offset="1" stop-color="#FB6FBB"/>
</linearGradient>
</defs>
</svg>
