<svg width="12" height="12" viewBox="0 0 12 12" fill="none" xmlns="http://www.w3.org/2000/svg">
<path d="M11.8095 5.42436L6.2595 0.104252C6.1145 -0.0347507 5.8855 -0.0347507 5.7405 0.104252L0.185 5.42986C0.0675 5.54737 0 5.70937 0 5.87487C0 6.21938 0.2805 6.49989 0.625 6.49989H1.5V11.25C1.5 11.664 1.836 12 2.25 12H4.375C4.582 12 4.75 11.832 4.75 11.625V8.37492C4.75 8.30642 4.806 8.24992 4.875 8.24992H7.125C7.1935 8.24992 7.25 8.30642 7.25 8.37492V11.625C7.25 11.832 7.418 12 7.625 12H9.75C10.164 12 10.5 11.664 10.5 11.25V6.49989H11.375C11.7195 6.49989 12 6.21938 12 5.87487C12 5.70937 11.9325 5.54737 11.8095 5.42436Z" fill="#874CFA"/>
</svg>
