<svg width="21" height="19" viewBox="0 0 21 19" fill="none" xmlns="http://www.w3.org/2000/svg">
<mask id="mask0" mask-type="alpha" maskUnits="userSpaceOnUse" x="0" y="0" width="21" height="19">
<path fill-rule="evenodd" clip-rule="evenodd" d="M0 0H20.0137V18.1855H0V0Z" fill="white"/>
</mask>
<g mask="url(#mask0)">
<path fill-rule="evenodd" clip-rule="evenodd" d="M10.013 1.5C9.53701 1.5 9.11301 1.746 8.87501 2.159L1.67701 14.724C1.44301 15.134 1.44501 15.623 1.68201 16.032C1.91901 16.441 2.34301 16.686 2.81601 16.686H17.199C17.671 16.686 18.095 16.441 18.332 16.032C18.57 15.623 18.572 15.134 18.336 14.724L11.151 2.159C10.914 1.746 10.49 1.5 10.013 1.5M17.199 18.186H2.81601C1.80201 18.186 0.893013 17.662 0.384013 16.784C-0.124987 15.907 -0.127987 14.858 0.375013 13.979L7.57501 1.413C8.08101 0.528 8.99201 0 10.013 0H10.014C11.034 0 11.947 0.529 12.453 1.415L19.639 13.979C20.142 14.858 20.139 15.907 19.63 16.784C19.121 17.662 18.212 18.186 17.199 18.186" fill="#EB5757"/>
</g>
<path fill-rule="evenodd" clip-rule="evenodd" d="M10.003 11.164C9.589 11.164 9.253 10.828 9.253 10.414V7.31396C9.253 6.89996 9.589 6.56396 10.003 6.56396C10.417 6.56396 10.753 6.89996 10.753 7.31396V10.414C10.753 10.828 10.417 11.164 10.003 11.164Z" fill="#EB5757"/>
<path fill-rule="evenodd" clip-rule="evenodd" d="M10.005 14.499C9.452 14.499 9 14.052 9 13.499C9 12.946 9.443 12.499 9.995 12.499H10.005C10.558 12.499 11.005 12.946 11.005 13.499C11.005 14.052 10.558 14.499 10.005 14.499Z" fill="#EB5757"/>
</svg>
