<svg width="24" height="24" viewBox="0 0 24 24" fill="none" xmlns="http://www.w3.org/2000/svg">
<path d="M16.2857 5.57129H4.14285C2.95939 5.57129 2 6.53068 2 7.71414V19.857C2 21.0404 2.95939 21.9998 4.14285 21.9998H16.2857C17.4691 21.9998 18.4285 21.0404 18.4285 19.857V7.71414C18.4285 6.53068 17.4691 5.57129 16.2857 5.57129ZM17 19.857C17 20.2515 16.6802 20.5713 16.2857 20.5713H4.14285C3.74835 20.5713 3.42856 20.2515 3.42856 19.857V7.71414C3.42856 7.31964 3.74835 6.99984 4.14285 6.99984H16.2857C16.6802 6.99984 17 7.31964 17 7.71414V19.857Z" fill="white"/>
<path d="M19.875 2H7.125C5.95139 2 5 2.95139 5 4.12499C5 4.51621 5.31713 4.83334 5.70835 4.83334C6.09956 4.83334 6.41665 4.51621 6.41665 4.12499C6.41665 3.73378 6.73378 3.41665 7.125 3.41665H19.875C20.2662 3.41665 20.5833 3.73378 20.5833 4.12499V16.875C20.5833 17.2662 20.2662 17.5833 19.875 17.5833C19.4838 17.5833 19.1667 17.9004 19.1667 18.2917C19.1667 18.6829 19.4838 19 19.875 19C21.0486 19 22 18.0486 22 16.875V4.12499C22 2.95139 21.0486 2 19.875 2Z" fill="white"/>
</svg>
