<svg width="452" height="452" viewBox="0 0 452 452" fill="none" xmlns="http://www.w3.org/2000/svg">
<g opacity="0.6" filter="url(#filter0_f)">
<circle cx="226" cy="226" r="154" fill="#F0F5FB"/>
</g>
<g clip-path="url(#clip0)">
<path d="M340.468 100.441C336.973 97.544 331.67 95.976 327.183 95.6493C295.43 93.406 290.791 159.799 295.658 174.631C300.526 189.462 297.368 194.341 272.355 202.105C247.342 209.869 259.342 224.82 262.391 233.554C265.44 242.287 271.473 249.681 253.244 258.371C235.015 267.061 241.341 272.44 241.341 272.44C241.341 272.44 274.968 306.84 273.117 295.82C271.266 284.8 274.62 268.182 304.773 266.919C317.764 266.375 337.648 260.179 342.058 246.273C343.082 243.028 343.79 238.084 343.017 234.73C341.928 230.08 338.879 226.421 337.191 222.044C333.238 211.84 343.136 204.381 348.842 197.564C351.815 194.003 354.788 190.355 357.075 186.293C361.801 177.876 360.026 168.838 354.875 161.073C352.403 157.349 348.973 153.396 347.895 148.953C346.741 144.184 347.754 137.672 348.026 132.761C348.244 128.906 348.603 125.073 348.385 121.218C347.982 114.042 346.305 105.265 340.468 100.441Z" fill="url(#paint0_linear)"/>
<g style="mix-blend-mode:soft-light" opacity="0.8">
<g style="mix-blend-mode:soft-light" opacity="0.8">
<path d="M238.695 291.747C238.587 291.784 238.47 291.781 238.364 291.739C238.259 291.697 238.171 291.619 238.118 291.518C238.088 291.464 238.07 291.404 238.064 291.342C238.059 291.28 238.066 291.217 238.085 291.158C238.105 291.099 238.136 291.044 238.177 290.998C238.218 290.951 238.268 290.913 238.325 290.887C238.466 290.811 252.623 283.362 268.412 271.101C282.972 259.797 301.93 241.971 309.607 221.26C316.01 203.956 321.858 175.349 325.647 142.779C329.034 113.573 329.579 91.9795 328.13 87.9613C328.11 87.9034 328.1 87.8419 328.103 87.7805C328.106 87.7191 328.122 87.6588 328.148 87.6032C328.174 87.5476 328.211 87.4977 328.257 87.4564C328.302 87.415 328.355 87.3831 328.413 87.3624C328.471 87.3416 328.533 87.3325 328.594 87.3355C328.656 87.3385 328.716 87.3536 328.772 87.3799C328.827 87.4062 328.877 87.4432 328.918 87.4887C328.96 87.5343 328.992 87.5876 329.012 87.6455C330.7 92.3389 329.633 116.601 326.573 142.888C322.784 175.535 316.925 204.217 310.489 221.586C302.725 242.516 283.636 260.473 268.979 271.852C253.113 284.168 238.902 291.638 238.76 291.715L238.695 291.747Z" fill="white"/>
</g>
<g style="mix-blend-mode:soft-light" opacity="0.8">
<path d="M325.593 148.442C325.354 148.529 325.103 148.463 325.016 148.224C324.929 147.984 313.06 116.045 297.782 108.847C297.727 108.822 297.678 108.786 297.638 108.741C297.598 108.696 297.566 108.644 297.546 108.588C297.526 108.531 297.517 108.471 297.52 108.411C297.523 108.351 297.538 108.292 297.564 108.238C297.591 108.181 297.628 108.131 297.675 108.09C297.721 108.048 297.775 108.017 297.834 107.996C297.893 107.976 297.955 107.968 298.017 107.972C298.079 107.976 298.14 107.992 298.195 108.02C313.811 115.381 325.408 146.569 325.898 147.897C325.985 148.137 325.844 148.355 325.593 148.442Z" fill="white"/>
</g>
<g style="mix-blend-mode:soft-light" opacity="0.8">
<path d="M319.823 185.389C319.732 185.421 319.633 185.425 319.54 185.4C319.446 185.374 319.363 185.321 319.3 185.248C319.26 185.2 319.23 185.145 319.212 185.086C319.194 185.026 319.188 184.964 319.194 184.902C319.2 184.84 319.218 184.78 319.248 184.726C319.277 184.671 319.317 184.623 319.365 184.584C319.453 184.507 328.164 177.364 338.923 171.353C353.46 163.251 364.6 160.986 372.027 164.634C372.084 164.658 372.135 164.694 372.177 164.74C372.219 164.785 372.252 164.838 372.272 164.897C372.293 164.955 372.301 165.017 372.296 165.079C372.291 165.14 372.274 165.2 372.245 165.255C372.219 165.312 372.182 165.363 372.136 165.406C372.09 165.448 372.035 165.48 371.976 165.501C371.917 165.521 371.854 165.529 371.792 165.524C371.729 165.519 371.669 165.502 371.613 165.473C354.517 157.088 320.302 185.019 319.964 185.302C319.922 185.339 319.875 185.368 319.823 185.389Z" fill="white"/>
</g>
<g style="mix-blend-mode:soft-light" opacity="0.8">
<path d="M281.862 260.908L281.71 260.93C281.649 260.931 281.588 260.921 281.532 260.898C281.475 260.876 281.423 260.842 281.379 260.8C281.336 260.757 281.301 260.706 281.277 260.65C281.254 260.594 281.242 260.533 281.242 260.472C281.231 260.331 280.991 246.665 278.127 232.258C275.514 219.06 270.091 202.519 259.19 198.707C259.132 198.687 259.078 198.656 259.031 198.615C258.985 198.574 258.947 198.524 258.919 198.469C258.892 198.413 258.876 198.353 258.872 198.291C258.868 198.229 258.876 198.167 258.896 198.108C258.916 198.05 258.948 197.996 258.989 197.949C259.03 197.903 259.079 197.865 259.135 197.837C259.191 197.81 259.251 197.794 259.313 197.79C259.375 197.786 259.437 197.794 259.495 197.814C268.588 200.994 275.176 212.526 279.053 232.094C281.928 246.577 282.178 260.32 282.178 260.451C282.177 260.55 282.146 260.646 282.089 260.727C282.033 260.809 281.954 260.872 281.862 260.908Z" fill="white"/>
</g>
<g style="mix-blend-mode:soft-light" opacity="0.8">
<path d="M301.266 238.824C301.157 238.875 301.033 238.881 300.919 238.843C300.806 238.804 300.711 238.723 300.655 238.617C300.6 238.511 300.587 238.387 300.619 238.272C300.652 238.157 300.727 238.058 300.83 237.997C302.344 236.886 338.029 210.653 351.935 213.158C351.996 213.168 352.054 213.191 352.106 213.224C352.158 213.257 352.203 213.3 352.238 213.351C352.274 213.402 352.299 213.459 352.312 213.519C352.325 213.579 352.327 213.641 352.316 213.702C352.305 213.763 352.283 213.821 352.249 213.873C352.216 213.925 352.173 213.97 352.123 214.006C352.072 214.041 352.015 214.066 351.955 214.079C351.895 214.093 351.832 214.094 351.771 214.083C338.247 211.644 301.756 238.487 301.397 238.759L301.266 238.824Z" fill="white"/>
</g>
</g>
<path d="M368.345 198.228C366.037 194.319 361.572 191.052 357.467 189.234C328.337 176.373 301.517 237.278 301.07 252.883C300.624 268.487 296.017 272.015 269.85 270.85C243.683 269.685 249.911 287.816 249.824 297.083C249.737 306.35 252.928 315.323 232.826 317.327C212.724 319.33 216.862 326.539 216.862 326.539C216.862 326.539 236.877 370.293 238.848 359.295C240.819 348.296 249.628 333.792 278.431 342.808C290.834 346.696 311.644 347.589 320.497 335.991C322.555 333.291 324.896 328.88 325.299 325.461C325.855 320.724 324.221 316.238 324.112 311.555C323.84 300.622 335.688 296.941 343.365 292.455C347.361 290.114 351.401 287.685 354.919 284.636C362.215 278.31 363.608 269.217 361.387 260.168C360.32 255.823 358.425 250.944 358.915 246.403C359.449 241.525 362.596 235.732 364.523 231.202C366.026 227.652 367.67 224.167 368.77 220.465C370.817 213.572 372.2 204.751 368.345 198.228Z" fill="url(#paint1_linear)"/>
<g style="mix-blend-mode:soft-light" opacity="0.8">
<g style="mix-blend-mode:soft-light" opacity="0.8">
<path d="M207.845 343.81C207.731 343.811 207.621 343.771 207.535 343.697C207.449 343.623 207.393 343.52 207.377 343.407C207.361 343.283 207.395 343.158 207.47 343.058C207.545 342.959 207.656 342.892 207.78 342.873C207.943 342.852 223.776 340.641 242.789 334.445C260.311 328.728 284.18 318.372 298.424 301.483C310.304 287.37 325.484 262.433 340.065 233.064C353.143 206.722 360.962 186.577 360.962 182.319C360.962 182.195 361.011 182.076 361.099 181.988C361.187 181.9 361.306 181.851 361.43 181.851C361.555 181.851 361.674 181.9 361.761 181.988C361.849 182.076 361.899 182.195 361.899 182.319C361.899 187.306 352.675 209.771 340.915 233.478C326.301 262.912 311.067 287.914 299.143 302.081C284.758 319.156 260.714 329.588 243.073 335.338C223.983 341.567 208.063 343.788 207.91 343.81H207.845Z" fill="white"/>
</g>
<g style="mix-blend-mode:soft-light" opacity="0.8">
<path d="M338.106 238.465C338.045 238.467 337.985 238.456 337.928 238.434C337.871 238.411 337.819 238.378 337.776 238.335C337.732 238.293 337.697 238.242 337.674 238.186C337.65 238.129 337.638 238.069 337.638 238.008C337.638 237.67 337.268 203.662 325.333 191.728C325.289 191.684 325.255 191.632 325.231 191.575C325.207 191.518 325.195 191.457 325.195 191.395C325.195 191.334 325.207 191.273 325.231 191.216C325.255 191.159 325.289 191.107 325.333 191.063C325.377 191.02 325.428 190.985 325.485 190.962C325.542 190.938 325.603 190.926 325.665 190.926C325.727 190.926 325.788 190.938 325.845 190.962C325.902 190.985 325.954 191.02 325.997 191.063C338.204 203.27 338.564 236.592 338.574 238.008C338.575 238.069 338.562 238.129 338.539 238.186C338.515 238.242 338.48 238.293 338.437 238.335C338.393 238.378 338.341 238.411 338.285 238.434C338.228 238.456 338.167 238.467 338.106 238.465Z" fill="white"/>
</g>
<g style="mix-blend-mode:soft-light" opacity="0.8">
<path d="M320.171 271.177C320.075 271.177 319.981 271.148 319.901 271.094C319.821 271.039 319.76 270.962 319.725 270.872C319.704 270.814 319.695 270.753 319.698 270.691C319.701 270.63 319.716 270.57 319.742 270.514C319.768 270.458 319.805 270.408 319.851 270.367C319.897 270.326 319.95 270.294 320.008 270.273C320.117 270.23 330.745 266.451 342.898 264.447C359.319 261.736 370.568 263.369 376.328 269.315C376.413 269.406 376.459 269.525 376.457 269.649C376.455 269.773 376.405 269.891 376.317 269.979C376.273 270.022 376.221 270.056 376.163 270.079C376.106 270.102 376.045 270.113 375.983 270.112C375.921 270.111 375.86 270.098 375.804 270.073C375.747 270.048 375.696 270.013 375.653 269.968C362.39 256.291 320.748 271.003 320.335 271.155C320.282 271.173 320.227 271.181 320.171 271.177Z" fill="white"/>
</g>
<g style="mix-blend-mode:soft-light" opacity="0.8">
<path d="M258.907 329.403C258.854 329.404 258.802 329.393 258.755 329.371C258.695 329.352 258.639 329.322 258.592 329.281C258.544 329.241 258.506 329.191 258.478 329.135C258.45 329.079 258.435 329.017 258.432 328.955C258.429 328.893 258.439 328.83 258.461 328.772C258.504 328.652 262.904 315.704 265.081 301.189C267.085 287.871 267.575 270.469 258.602 263.195C258.505 263.116 258.444 263.001 258.432 262.877C258.42 262.752 258.457 262.628 258.537 262.531C258.616 262.434 258.731 262.373 258.855 262.361C258.98 262.348 259.104 262.386 259.201 262.466C266.682 268.531 268.969 281.609 266.007 301.33C263.807 315.933 259.386 328.957 259.343 329.077C259.312 329.169 259.254 329.249 259.176 329.308C259.098 329.366 259.004 329.399 258.907 329.403Z" fill="white"/>
</g>
<g style="mix-blend-mode:soft-light" opacity="0.8">
<path d="M284.638 315.182C284.538 315.183 284.441 315.152 284.36 315.093C284.279 315.034 284.22 314.951 284.192 314.855C284.173 314.796 284.166 314.735 284.172 314.673C284.177 314.612 284.194 314.552 284.222 314.498C284.251 314.443 284.29 314.395 284.337 314.355C284.384 314.315 284.438 314.285 284.497 314.267C286.304 313.722 328.752 301.112 341.002 308.18C341.055 308.211 341.102 308.253 341.138 308.302C341.175 308.351 341.202 308.407 341.217 308.467C341.232 308.527 341.236 308.589 341.227 308.65C341.218 308.711 341.197 308.769 341.166 308.822C341.135 308.876 341.094 308.923 341.045 308.961C340.996 308.999 340.941 309.027 340.881 309.043C340.821 309.059 340.759 309.064 340.697 309.056C340.636 309.048 340.577 309.027 340.523 308.996C328.632 302.125 285.205 315.04 284.769 315.171L284.638 315.182Z" fill="white"/>
</g>
</g>
<path d="M270.701 88.5055L270.363 90.9012C269.26 90.9523 268.164 91.098 267.086 91.3368L266.182 89.0935C266.122 88.9474 266.034 88.8146 265.923 88.703C265.811 88.5913 265.679 88.5029 265.533 88.4431C265.387 88.3833 265.23 88.3532 265.072 88.3545C264.915 88.3559 264.759 88.3887 264.614 88.451L260.77 90.03C260.474 90.1533 260.237 90.3873 260.111 90.6823C259.985 90.9772 259.979 91.3097 260.095 91.609L261.009 93.874C260.074 94.4672 259.192 95.1413 258.374 95.8886L256.436 94.3858C256.31 94.2892 256.167 94.2184 256.014 94.1775C255.861 94.1367 255.701 94.1266 255.544 94.1479C255.387 94.1691 255.236 94.2213 255.099 94.3014C254.963 94.3815 254.843 94.4879 254.748 94.6145L252.156 97.9249C252.058 98.0484 251.985 98.1901 251.941 98.342C251.898 98.4938 251.885 98.6527 251.903 98.8096C251.921 98.9665 251.97 99.1182 252.047 99.256C252.124 99.3939 252.228 99.5151 252.352 99.6128L254.29 101.126C253.77 102.111 253.337 103.138 252.995 104.197L250.523 103.871C250.203 103.833 249.881 103.921 249.625 104.116C249.369 104.311 249.199 104.598 249.151 104.916L248.53 109.098C248.505 109.254 248.513 109.415 248.551 109.569C248.589 109.723 248.658 109.868 248.754 109.995C248.849 110.121 248.969 110.228 249.107 110.308C249.244 110.387 249.396 110.439 249.554 110.459L252.025 110.785C252.054 111.901 252.178 113.012 252.396 114.107L250.076 115.065C249.776 115.193 249.536 115.432 249.408 115.733C249.281 116.033 249.274 116.371 249.39 116.677L250.936 120.608C250.995 120.756 251.083 120.891 251.194 121.005C251.306 121.12 251.439 121.21 251.586 121.272C251.733 121.334 251.891 121.366 252.051 121.366C252.21 121.366 252.368 121.334 252.515 121.272L254.835 120.292C255.417 121.243 256.084 122.139 256.828 122.971L255.281 124.985C255.083 125.243 254.992 125.568 255.029 125.891C255.065 126.214 255.226 126.51 255.477 126.717L258.799 129.319C258.927 129.418 259.074 129.49 259.23 129.531C259.386 129.572 259.549 129.582 259.709 129.559C259.869 129.537 260.023 129.483 260.162 129.401C260.301 129.319 260.423 129.209 260.519 129.08L262.044 127.087C263.028 127.614 264.06 128.048 265.125 128.383L264.777 130.876C264.754 131.037 264.763 131.2 264.803 131.357C264.843 131.513 264.913 131.661 265.011 131.79C265.108 131.92 265.229 132.029 265.369 132.111C265.508 132.194 265.662 132.248 265.822 132.27L270.004 132.815C270.33 132.855 270.659 132.764 270.918 132.562C271.178 132.36 271.346 132.063 271.387 131.737L271.725 129.276C272.85 129.226 273.969 129.077 275.068 128.829L275.982 131.116C276.043 131.265 276.133 131.401 276.247 131.515C276.36 131.63 276.495 131.72 276.644 131.782C276.793 131.844 276.953 131.875 277.114 131.875C277.275 131.875 277.434 131.843 277.583 131.78L281.481 130.125C281.783 129.995 282.021 129.753 282.145 129.449C282.269 129.146 282.269 128.806 282.146 128.503L281.231 126.238C282.185 125.622 283.081 124.922 283.91 124.147L285.816 125.639C285.943 125.737 286.089 125.808 286.244 125.849C286.399 125.891 286.561 125.9 286.721 125.878C286.88 125.856 287.033 125.802 287.171 125.72C287.309 125.637 287.43 125.528 287.525 125.399L290.084 122.012C290.278 121.753 290.363 121.427 290.321 121.106C290.278 120.784 290.111 120.492 289.856 120.292L287.961 118.822C288.483 117.814 288.913 116.76 289.246 115.675L291.609 115.98C291.929 116.02 292.253 115.931 292.508 115.733C292.763 115.535 292.929 115.244 292.97 114.923L293.503 110.742C293.525 110.583 293.515 110.422 293.474 110.267C293.433 110.112 293.362 109.967 293.265 109.839C293.168 109.712 293.047 109.605 292.908 109.524C292.77 109.444 292.617 109.391 292.458 109.37L290.106 109.065C290.061 107.936 289.915 106.814 289.67 105.711L291.859 104.796C292.153 104.671 292.386 104.435 292.506 104.139C292.627 103.843 292.625 103.512 292.502 103.217L290.912 99.3514C290.789 99.0582 290.555 98.8251 290.262 98.7028C289.968 98.5805 289.638 98.5788 289.344 98.698L287.144 99.6128C286.541 98.6752 285.859 97.79 285.108 96.9666L286.567 95.0719C286.76 94.8186 286.846 94.4992 286.805 94.1831C286.765 93.867 286.601 93.5798 286.349 93.384L283.06 90.8685C282.807 90.6749 282.488 90.5892 282.172 90.63C281.856 90.6708 281.568 90.8348 281.373 91.0863L279.913 92.992C278.935 92.479 277.911 92.0597 276.853 91.7397L277.18 89.3549C277.202 89.199 277.192 89.0404 277.152 88.8882C277.113 88.7359 277.043 88.593 276.948 88.4677C276.853 88.3423 276.734 88.2368 276.598 88.1574C276.463 88.0779 276.312 88.026 276.157 88.0046L272.051 87.471C271.895 87.4496 271.735 87.4594 271.582 87.4999C271.429 87.5404 271.286 87.6108 271.161 87.7069C271.035 87.8031 270.93 87.9232 270.851 88.0603C270.772 88.1973 270.721 88.3486 270.701 88.5055ZM256.24 107.954C257.427 99.7108 264.995 93.9285 273.151 94.9956C281.307 96.0628 287.046 103.598 285.957 111.853C284.868 120.107 277.267 126.063 269.013 124.985C260.759 123.907 255.042 116.263 256.24 107.954Z" fill="#D8DEE8"/>
<path d="M207.803 87.199L207.28 90.9123C205.576 90.9875 203.881 91.2134 202.216 91.5875L200.812 88.1246C200.72 87.8992 200.584 87.6943 200.413 87.5217C200.241 87.3492 200.037 87.2123 199.812 87.1191C199.587 87.026 199.346 86.9783 199.103 86.9789C198.859 86.9796 198.619 87.0285 198.394 87.1228L192.438 89.5729C191.981 89.7615 191.618 90.1215 191.424 90.5756C191.231 91.0298 191.223 91.5417 191.403 92.0013L192.819 95.5077C191.372 96.4235 190.009 97.4657 188.746 98.6221L185.752 96.3026C185.359 95.9999 184.862 95.8654 184.37 95.9287C183.878 95.992 183.431 96.2479 183.127 96.6402L179.131 101.758C178.976 101.95 178.861 102.17 178.793 102.406C178.725 102.643 178.704 102.89 178.733 103.134C178.761 103.379 178.838 103.615 178.958 103.829C179.079 104.044 179.241 104.232 179.436 104.383L182.43 106.724C181.626 108.243 180.952 109.828 180.416 111.461L176.604 110.96C176.109 110.903 175.612 111.041 175.216 111.343C174.82 111.646 174.557 112.09 174.481 112.582L173.523 119.04C173.484 119.283 173.495 119.531 173.554 119.769C173.613 120.008 173.719 120.232 173.866 120.429C174.013 120.626 174.199 120.792 174.411 120.916C174.623 121.04 174.858 121.121 175.102 121.152L178.924 121.664C178.966 123.384 179.16 125.096 179.501 126.782L175.918 128.285C175.452 128.479 175.08 128.846 174.881 129.31C174.681 129.773 174.671 130.297 174.851 130.768L177.236 136.833C177.327 137.064 177.463 137.273 177.636 137.45C177.809 137.627 178.016 137.767 178.245 137.863C178.473 137.958 178.718 138.007 178.966 138.006C179.214 138.005 179.458 137.954 179.686 137.857L183.28 136.354C184.18 137.821 185.207 139.206 186.35 140.492L183.955 143.607C183.647 144.006 183.507 144.51 183.566 145.01C183.625 145.511 183.878 145.969 184.271 146.285L189.4 150.304C189.596 150.457 189.822 150.57 190.063 150.636C190.304 150.701 190.556 150.717 190.804 150.684C191.051 150.65 191.29 150.568 191.505 150.441C191.72 150.314 191.908 150.145 192.057 149.944L194.409 146.863C195.939 147.672 197.539 148.343 199.189 148.866L198.645 152.721C198.609 152.968 198.623 153.219 198.685 153.461C198.747 153.702 198.856 153.929 199.005 154.128C199.155 154.327 199.343 154.495 199.557 154.622C199.772 154.748 200.01 154.832 200.256 154.866L206.725 155.716C207.227 155.777 207.733 155.638 208.133 155.328C208.533 155.018 208.794 154.562 208.859 154.06L209.382 150.238C211.123 150.165 212.854 149.935 214.554 149.552L215.97 153.08C216.061 153.312 216.197 153.523 216.371 153.701C216.545 153.879 216.752 154.021 216.982 154.117C217.211 154.214 217.458 154.263 217.707 154.263C217.956 154.262 218.202 154.212 218.431 154.115L224.475 151.556C224.938 151.354 225.304 150.98 225.496 150.512C225.687 150.044 225.688 149.52 225.498 149.051L224.083 145.545C225.555 144.595 226.94 143.517 228.221 142.322L231.172 144.619C231.369 144.77 231.594 144.88 231.834 144.944C232.073 145.007 232.323 145.023 232.569 144.989C232.815 144.956 233.052 144.874 233.266 144.749C233.481 144.624 233.668 144.458 233.818 144.26L237.771 139.011C238.072 138.609 238.204 138.105 238.139 137.606C238.074 137.108 237.817 136.655 237.422 136.343L234.493 134.078C235.296 132.517 235.959 130.888 236.475 129.211L240.134 129.69C240.628 129.748 241.126 129.61 241.52 129.304C241.913 128.999 242.17 128.55 242.235 128.056L243.063 121.577C243.128 121.083 242.995 120.584 242.693 120.188C242.391 119.792 241.945 119.532 241.451 119.465L237.803 118.985C237.734 117.244 237.508 115.513 237.128 113.813L240.515 112.397C240.97 112.203 241.331 111.836 241.519 111.378C241.706 110.919 241.705 110.405 241.517 109.947L239.045 103.98C238.953 103.753 238.817 103.547 238.645 103.373C238.472 103.199 238.268 103.061 238.042 102.967C237.816 102.873 237.574 102.824 237.329 102.824C237.084 102.824 236.842 102.873 236.616 102.967L233.219 104.383C232.295 102.932 231.246 101.565 230.083 100.299L232.326 97.3698C232.625 96.9775 232.758 96.483 232.694 95.9936C232.631 95.5043 232.377 95.0596 231.988 94.7563L226.914 90.8579C226.72 90.7092 226.499 90.6002 226.264 90.5372C226.028 90.4742 225.782 90.4584 225.54 90.4908C225.298 90.5232 225.065 90.6031 224.854 90.7259C224.643 90.8487 224.459 91.012 224.311 91.2063L222.046 94.1356C220.531 93.3522 218.949 92.7035 217.32 92.1973L217.821 88.5166C217.855 88.2755 217.84 88.03 217.778 87.7945C217.716 87.559 217.608 87.3381 217.461 87.1447C217.313 86.9512 217.128 86.789 216.917 86.6675C216.706 86.546 216.473 86.4675 216.231 86.4367L209.894 85.6091C209.406 85.544 208.912 85.6747 208.52 85.9726C208.128 86.2706 207.87 86.7115 207.803 87.199ZM185.436 117.287C187.276 104.535 198.982 95.5839 211.592 97.2391C224.202 98.8943 233.077 110.535 231.378 123.309C229.68 136.082 217.952 145.284 205.189 143.607C192.427 141.93 183.595 130.114 185.436 117.287Z" fill="#D8DEE8"/>
<path d="M201.726 123.167L173.99 353.752C173.576 357.215 175.95 360.307 179.293 360.645L294.842 373.331C301.92 373.767 305.797 370.151 306.232 366.482L335.362 121.327C335.797 117.668 332.323 114.357 325.213 114.357L208.608 116.808C205.232 116.873 202.14 119.726 201.726 123.167Z" fill="url(#paint2_linear)"/>
<path d="M196.531 122.775L168.633 354.514C168.219 357.988 170.604 361.102 173.958 361.44L293.753 373.364C297.51 373.734 300.951 371.023 301.386 367.32L330.679 120.902C331.115 117.232 328.36 114.27 324.559 114.336L203.435 116.383C200.049 116.437 196.945 119.312 196.531 122.775Z" fill="url(#paint3_linear)"/>
<path d="M198.807 135.548L172.945 350.419C172.553 353.675 174.796 356.572 177.932 356.877L290.595 367.832C294.09 368.169 297.281 365.632 297.695 362.191L324.766 134.557C325.169 131.138 322.61 128.372 319.082 128.405L205.265 129.613C202.096 129.657 199.189 132.325 198.807 135.548Z" fill="#D8DEE8"/>
<path d="M259.222 122.612C259.07 123.842 259.952 124.833 261.193 124.811C262.435 124.789 263.567 123.788 263.72 122.546C263.872 121.305 262.979 120.325 261.727 120.347C260.474 120.368 259.364 121.381 259.222 122.612Z" fill="url(#paint4_linear)"/>
<g style="mix-blend-mode:soft-light">
<g style="mix-blend-mode:soft-light">
<path d="M218.278 279.79C241.342 237.147 275.796 224.385 286.174 180.435C291.782 156.674 287.96 133.937 281.524 115.065L324.559 114.336C328.36 114.27 331.115 117.232 330.679 120.902L301.386 367.32C300.951 371.023 297.51 373.734 293.753 373.364L199.58 363.988C198.884 325.777 207.998 298.793 218.278 279.79Z" fill="white"/>
</g>
</g>
<path d="M82.8008 147.222C82.8008 124.572 102.565 106.201 126.283 106.201C149.303 106.201 167.467 123.603 167.467 145.066C167.467 166.529 149.303 184.856 126.283 186.032C102.565 187.241 82.8008 169.883 82.8008 147.222Z" fill="url(#paint5_linear)"/>
<path d="M85.3496 145.414C85.3496 122.764 104.548 104.394 127.579 104.394C149.935 104.404 167.576 121.795 167.576 143.258C167.576 164.721 149.935 183.048 127.579 184.224C104.548 185.433 85.3496 168.075 85.3496 145.414Z" fill="url(#paint6_linear)"/>
<g style="mix-blend-mode:soft-light" opacity="0.5">
<g style="mix-blend-mode:soft-light" opacity="0.5">
<path d="M91.9258 145.251C91.9258 126.205 108.053 110.775 127.404 110.786C146.177 110.786 160.998 125.399 160.998 143.432C160.998 161.465 146.177 176.852 127.404 177.843C108.053 178.867 91.9258 164.286 91.9258 145.251Z" fill="white"/>
</g>
</g>
<g style="mix-blend-mode:soft-light" opacity="0.5">
<path d="M126.064 113.704C144.849 113.704 159.669 128.329 159.669 146.362C159.661 150.559 158.856 154.716 157.295 158.612C159.718 153.918 160.987 148.715 160.998 143.432C160.998 125.399 146.177 110.786 127.404 110.786C112.474 110.775 99.4831 119.965 94.3105 132.891C100.158 121.523 112.3 113.704 126.064 113.704Z" fill="white"/>
</g>
<path d="M111.354 140.59V157.197C111.354 162.01 115.394 165.799 120.37 165.669L132.697 165.342C137.597 165.211 141.572 161.258 141.572 156.5V140.067L111.354 140.59ZM122.711 157.763L124.998 150.826C124.505 150.576 124.091 150.194 123.801 149.724C123.511 149.253 123.356 148.711 123.354 148.158C123.354 146.449 124.78 145.044 126.544 145.011C128.308 144.979 129.724 146.329 129.724 148.028C129.721 148.588 129.567 149.136 129.28 149.617C128.993 150.098 128.582 150.493 128.091 150.761L130.367 157.589L122.711 157.763Z" fill="white"/>
<path d="M138.064 138.63C137.759 138.64 137.456 138.589 137.171 138.48C136.886 138.371 136.626 138.207 136.406 137.996C136.185 137.784 136.01 137.531 135.889 137.251C135.768 136.971 135.704 136.67 135.701 136.365C135.701 131.487 131.596 127.556 126.543 127.621C121.491 127.686 117.331 131.748 117.331 136.659C117.331 137.933 116.253 138.989 114.924 139.011C113.596 139.033 112.518 138.009 112.518 136.735C112.518 129.254 118.823 123.102 126.543 123.015C134.264 122.927 140.427 128.884 140.427 136.289C140.427 137.552 139.371 138.608 138.064 138.63Z" fill="white"/>
<path d="M166.606 233.39C166.606 233.39 165.767 230.254 166.366 229.448C166.965 228.643 170.591 225.43 170.243 226.476C170.037 227.098 169.744 227.689 169.372 228.229C169.372 228.229 171.321 229.133 170.068 230.494C168.816 231.855 168.392 232.171 168.315 233.39C168.239 234.61 167.444 235.035 166.606 233.39Z" fill="#FFCBAE"/>
<path d="M131.729 369.051C131.729 369.051 131.282 371.774 131.337 372.732C131.391 373.69 142.128 374.202 142.237 373.472C142.346 372.743 140.462 371.599 139.134 371.186C137.805 370.772 133.928 369.694 133.928 369.694L131.729 369.051Z" fill="url(#paint7_linear)"/>
<path d="M134.33 366.34L133.981 369.716C133.981 369.716 132.74 370.543 131.64 369.912L131.096 366.231L134.33 366.34Z" fill="#FFCBAE"/>
<path d="M112.572 373.462C112.572 373.462 112.126 376.173 112.18 377.143C112.235 378.112 122.972 378.602 123.081 377.883C123.19 377.164 121.306 375.999 119.988 375.596C118.671 375.193 114.783 374.104 114.783 374.104L112.572 373.462Z" fill="#AA80F9"/>
<path d="M115.176 370.75L114.838 374.126C114.838 374.126 113.586 374.954 112.486 374.311L111.941 370.63L115.176 370.75Z" fill="#FFCBAE"/>
<path d="M132.381 278.102L136.105 285.66C137.107 300.012 137.597 315.617 137.281 332.31C137.042 344.735 136.378 356.507 135.43 367.549L130.378 367.32C127.949 362.485 125.074 355.167 124.813 346.14C124.53 336.721 127.394 335.468 127.209 326.452C126.969 314.767 122.069 311.653 119.455 297.584C118.464 292.215 117.789 285.192 118.584 276.665L132.381 278.102Z" fill="url(#paint8_linear)"/>
<path style="mix-blend-mode:multiply" opacity="0.3" d="M118.584 276.665L126.033 277.449C130.508 285.224 131.761 293.315 130.976 296.898C129.866 301.972 126.926 303.595 127.089 308.68C127.252 313.766 130.214 315.018 132.098 320.953C133.394 325.058 133.056 328.837 132.316 336.22C130.824 351.095 127.23 355.647 130.236 360.525C131.096 361.908 132.632 363.552 135.648 364.815C135.572 365.73 135.507 366.645 135.43 367.549L130.378 367.32C127.949 362.485 125.074 355.167 124.813 346.14C124.53 336.721 127.394 335.468 127.209 326.452C126.969 314.767 122.069 311.653 119.455 297.584C118.464 292.215 117.789 285.192 118.584 276.665Z" fill="url(#paint9_linear)"/>
<path d="M125.707 282.632C123.376 295.34 121.318 308.931 119.717 323.348C117.779 340.75 116.744 357.16 116.331 372.405L110.799 372.558C103.525 358.162 103.078 348.405 104.124 342.045C104.526 339.606 105.626 334.804 105.877 327.628C106.051 322.619 105.735 318.818 105.332 314.245C104.461 304.204 103.405 302.016 103.252 294.339C103.1 287.141 103.078 283.493 105.125 281.369C110.548 275.772 124.639 282.142 125.707 282.632Z" fill="url(#paint10_linear)"/>
<path d="M165.638 232.911L169.33 232.65C172.226 244.356 170.146 255.714 163.613 259.895C153.387 266.418 134.407 254.124 130.291 240.741C128.483 234.861 128.897 226.378 132.512 224.733C133.514 224.276 135.06 224.211 138.436 226.094C148.487 231.746 148.759 242.418 153.867 243.322C156.142 243.725 159.812 242.276 165.638 232.911Z" fill="url(#paint11_linear)"/>
<path d="M137.522 288.23C139.286 285.29 137.064 282.458 136.564 276.905C135.986 270.6 138.415 269.544 140.821 259.101C142.411 252.153 143.947 245.489 142.117 237.681C141.235 233.935 139.754 227.586 134.495 224.526C131.794 222.937 128.092 223.1 120.796 223.481C111.779 223.949 107.271 224.189 103.917 225.953C103.416 226.214 93.1907 231.779 92.4829 240.85C91.7751 250.084 101.826 251.315 103.166 263.631C103.764 269.152 102.697 277.645 102 283.166C101.325 288.459 100.868 289.809 101.913 291.41C104.429 295.275 112.138 294.176 127.547 291.976C133.591 291.105 136.193 290.419 137.522 288.23Z" fill="url(#paint12_linear)"/>
<path d="M114.066 261.649C113.413 264.044 111.071 265.841 109.438 271.678C109.089 272.93 106.574 281.903 109.83 284.114C111.714 285.388 113.402 282.97 117.964 282.654C125.87 282.11 129.638 288.753 134.799 286.945C135.692 286.629 136.879 285.954 138.055 284.408C138.295 285.802 138.251 287.01 137.522 288.23C136.193 290.419 133.591 291.105 127.547 291.976C112.138 294.176 104.429 295.275 101.913 291.41C100.868 289.809 101.325 288.459 102 283.166C102.697 277.645 103.764 269.151 103.166 263.631C101.826 251.315 91.7751 250.084 92.4829 240.85C92.6789 238.378 93.5828 236.189 94.8024 234.272C107.554 239.434 116.113 254.113 114.066 261.649Z" fill="url(#paint13_linear)"/>
<path d="M97.959 279.801L100.507 281.435C100.964 280.901 102.032 279.834 103.687 279.475C105.549 279.061 107.694 279.649 107.738 280.248C107.781 280.847 106.475 281.206 106.279 281.282C104.645 281.881 103.447 281.38 102.783 282.034C102.554 282.262 102.26 282.698 101.596 283.09C101.449 283.18 101.296 283.26 101.139 283.329C100.05 283.754 98.1877 281.859 98.0243 281.696L97.959 279.801Z" fill="#FFCBAE"/>
<path d="M105.495 246.338C107.346 241.928 108.62 235.155 105.713 225.104C86.5037 232.672 76.7031 250.618 80.5253 264.839C83.6833 276.567 95.1499 282.273 97.7089 283.471C98.3079 282.121 98.9068 280.76 99.4948 279.409C96.5329 276.11 93.1898 271.22 93.6689 265.656C94.3223 257.924 101.76 255.289 105.495 246.338Z" fill="url(#paint14_linear)"/>
<path d="M120.326 214.388C120.326 214.388 120.174 217.753 119.128 220.269C118.192 222.534 113.226 223.971 112.224 224.472C111.222 224.973 114.108 226.465 117.005 226.759C119.901 227.053 128.188 226.388 129.68 225.289C131.172 224.189 128.482 224.276 126.413 223.514C124.344 222.751 123.146 218.711 123.506 216.871C123.865 215.031 120.326 214.388 120.326 214.388Z" fill="#FFCBAE"/>
<path d="M124.912 213.169C126.414 211.688 126.621 211.513 126.796 211.013C127.449 208.954 125.859 206.145 123.768 205.459C123.659 205.426 122.266 204.969 121.732 205.579C121.198 206.189 121.939 206.809 121.623 207.8C121.307 208.791 120.523 208.802 119.031 210.022C117.801 211.023 117.028 211.655 116.854 212.526C116.494 214.345 118.683 216.969 120.621 216.893C121.318 216.871 121.514 216.512 124.912 213.169Z" fill="url(#paint15_linear)"/>
<path d="M122.513 217.445C123.272 216.962 122.581 215.542 122.539 212.491C122.492 208.755 123.49 208.061 122.685 206.594C121.702 204.804 119.223 204.063 117.585 204.027C117.222 204.022 117.138 203.821 114.103 204.603C108.64 206.002 107.268 204.5 104.825 206.002C102.459 207.448 103.494 209.038 101.196 210.736C97.4746 213.494 93.5606 210.515 90.8992 212.82C88.3834 214.996 88.3262 220.553 90.972 223.583C93.9712 227.02 99.3823 225.986 103.01 225.307C103.775 225.163 107.626 224.36 111.639 221.433C113.427 220.123 115.013 218.563 116.348 216.802C116.577 216.55 116.936 216.241 117.404 216.19C117.965 216.133 118.417 216.473 118.635 216.622C119.779 217.404 121.765 217.929 122.513 217.445Z" fill="#3F437A"/>
<path d="M120.816 217.176C120.816 217.176 122.417 218.983 124.845 218.384C127.034 217.851 126.478 212.842 124.878 212.047C124.344 211.775 123.375 211.796 122.645 212.145C122.221 212.352 122.101 212.569 121.393 212.896C120.685 213.223 120.533 213.157 120.359 213.364C120.184 213.571 120.043 214.192 120.729 215.564C120.228 215.216 119.694 215.139 119.368 215.368C119.258 215.46 119.175 215.581 119.128 215.717C118.921 216.337 119.564 216.958 120.816 217.176Z" fill="#FFCBAE"/>
<path d="M303.237 149.378L303.803 152.416L292.217 152.449L191.641 152.688C189.05 152.688 186.676 154.834 186.316 157.458L162.305 317.925C161.946 320.582 166.084 324.633 168.654 324.829L213.279 328.26V328.205L280.021 333.323L280.184 333.389C283.037 333.617 285.65 331.548 286.021 328.739L308.507 157.436C308.867 154.648 306.112 149.378 303.237 149.378Z" fill="url(#paint16_linear)"/>
<path d="M283.745 325.406C283.375 328.205 280.761 330.307 277.908 330.089L166.269 321.508C163.699 321.312 161.913 319.003 162.273 316.346L184.095 154.18C184.444 151.545 186.828 149.411 189.409 149.4L301.68 149.095C304.555 149.084 306.58 151.327 306.221 154.115L283.745 325.406Z" fill="url(#paint17_linear)"/>
<path d="M285.226 236.221C285.041 237.604 283.745 238.65 282.329 238.595L184.073 235.013C182.777 234.958 181.863 233.891 182.037 232.563L183.975 218.243C184.149 216.925 185.336 216.021 186.632 216.054L284.975 218.787C286.391 218.831 287.404 219.833 287.218 221.216L285.226 236.221Z" fill="white"/>
<path d="M281.425 265.318C281.239 266.701 279.944 267.888 278.517 267.823L180.337 262.977C179.042 262.912 178.138 261.67 178.323 260.342L180.261 245.739C180.446 244.421 181.633 243.278 182.94 243.332L281.185 247.296C282.601 247.351 283.602 248.636 283.417 250.019L281.425 265.318Z" fill="white"/>
<path style="mix-blend-mode:multiply" opacity="0.1" d="M287.228 221.161C286.986 221.083 286.732 221.042 286.477 221.041L188.123 218.308C186.827 218.276 185.651 219.168 185.466 220.497L183.539 234.817C183.529 234.852 183.526 234.889 183.528 234.926C182.526 234.642 181.884 233.695 182.036 232.563L183.974 218.243C184.149 216.925 185.336 216.021 186.631 216.054L284.974 218.787C286.368 218.831 287.37 219.8 287.228 221.161Z" fill="url(#paint18_linear)"/>
<path style="mix-blend-mode:multiply" opacity="0.1" d="M283.44 249.703C283.197 249.604 282.939 249.549 282.678 249.539L184.433 245.576C183.137 245.521 181.939 246.665 181.765 247.993L179.815 262.585C179.803 262.679 179.796 262.773 179.794 262.868C178.803 262.541 178.171 261.474 178.313 260.342L180.262 245.739C180.447 244.421 181.634 243.278 182.941 243.332L281.175 247.296C282.492 247.351 283.44 248.44 283.44 249.703Z" fill="url(#paint19_linear)"/>
<path d="M255.313 288.894C255.596 286.694 254.049 284.669 251.839 284.549L201.018 281.631C198.905 281.511 196.967 283.275 196.673 285.42L194.582 301.232C194.299 303.366 195.758 305.424 197.86 305.566L248.659 309.04C250.87 309.192 252.895 307.33 253.189 305.13L255.313 288.894Z" fill="url(#paint20_linear)"/>
<path d="M259.145 182.384C258.481 187.437 255.879 192 252.187 195.354C248.212 198.969 242.975 201.169 237.53 201.07C232.085 200.972 227.544 198.588 224.604 194.896C221.903 191.488 220.586 186.936 221.25 181.97C222.622 171.636 232.118 163.273 242.55 163.306C252.982 163.338 260.539 171.865 259.145 182.384Z" fill="url(#paint21_linear)"/>
<path d="M249.017 176.634C248.407 181.164 244.236 184.791 239.695 184.736C235.154 184.682 232.007 180.99 232.606 176.504C233.205 172.017 237.343 168.38 241.862 168.402C246.381 168.424 249.616 172.104 249.017 176.634Z" fill="white"/>
<path d="M252.187 195.354C248.212 198.969 242.974 201.169 237.529 201.071C232.085 200.973 227.544 198.588 224.604 194.896C227.957 190.225 233.489 187.11 239.37 187.186C245.25 187.263 250.041 190.54 252.187 195.354Z" fill="white"/>
<g style="mix-blend-mode:soft-light" opacity="0.4">
<path d="M306.221 154.115L283.745 325.406C283.375 328.205 280.598 330.296 277.745 330.078L210.698 324.927C207.371 321.522 204.757 317.487 203.01 313.058C202.077 310.667 201.394 308.185 200.974 305.653C199.733 298.422 200.212 290.201 202.03 282.132C203.418 275.933 205.561 269.928 208.412 264.251C210.655 259.819 213.29 255.779 216.23 252.382C218.354 249.931 220.64 247.558 223.058 245.227C225.976 242.407 229.08 239.663 232.27 236.94C239.719 230.592 247.69 224.396 255.073 217.84C272.115 202.725 285.934 185.847 282.613 161.748C282.504 160.986 281.458 155.182 280.141 149.149L301.517 149.095C304.381 149.084 306.58 151.338 306.221 154.115Z" fill="white"/>
</g>
</g>
<defs>
<filter id="filter0_f" x="0" y="0" width="452" height="452" filterUnits="userSpaceOnUse" color-interpolation-filters="sRGB">
<feFlood flood-opacity="0" result="BackgroundImageFix"/>
<feBlend mode="normal" in="SourceGraphic" in2="BackgroundImageFix" result="shape"/>
<feGaussianBlur stdDeviation="36" result="effect1_foregroundBlur"/>
</filter>
<linearGradient id="paint0_linear" x1="275.391" y1="295.474" x2="354.926" y2="80.6642" gradientUnits="userSpaceOnUse">
<stop stop-color="#E38DDD"/>
<stop offset="1" stop-color="#9571F6"/>
</linearGradient>
<linearGradient id="paint1_linear" x1="216.512" y1="274.266" x2="370.787" y2="274.266" gradientUnits="userSpaceOnUse">
<stop stop-color="#FF9085"/>
<stop offset="1" stop-color="#FB6FBB"/>
</linearGradient>
<linearGradient id="paint2_linear" x1="256.105" y1="237.898" x2="301.642" y2="242.865" gradientUnits="userSpaceOnUse">
<stop stop-color="#444B8C"/>
<stop offset="1" stop-color="#26264F"/>
</linearGradient>
<linearGradient id="paint3_linear" x1="270448" y1="231142" x2="-110573" y2="1.04298e+06" gradientUnits="userSpaceOnUse">
<stop stop-color="#444B8C"/>
<stop offset="1" stop-color="#26264F"/>
</linearGradient>
<linearGradient id="paint4_linear" x1="258.176" y1="113.668" x2="390.512" y2="472.083" gradientUnits="userSpaceOnUse">
<stop stop-color="#FFC444"/>
<stop offset="1" stop-color="#F36F56"/>
</linearGradient>
<linearGradient id="paint5_linear" x1="-898.022" y1="1110.9" x2="-807.503" y2="1025.55" gradientUnits="userSpaceOnUse">
<stop stop-color="#311944"/>
<stop offset="1" stop-color="#893976"/>
</linearGradient>
<linearGradient id="paint6_linear" x1="60456.9" y1="105218" x2="113800" y2="55395.9" gradientUnits="userSpaceOnUse">
<stop stop-color="#FF9085"/>
<stop offset="1" stop-color="#FB6FBB"/>
</linearGradient>
<linearGradient id="paint7_linear" x1="136.815" y1="365.488" x2="136.936" y2="333.03" gradientUnits="userSpaceOnUse">
<stop stop-color="#AA80F9"/>
<stop offset="1" stop-color="#6165D7"/>
</linearGradient>
<linearGradient id="paint8_linear" x1="3703.41" y1="221787" x2="-22577.9" y2="250085" gradientUnits="userSpaceOnUse">
<stop stop-color="#311944"/>
<stop offset="1" stop-color="#893976"/>
</linearGradient>
<linearGradient id="paint9_linear" x1="79884.5" y1="261395" x2="77017" y2="261624" gradientUnits="userSpaceOnUse">
<stop stop-color="#311944"/>
<stop offset="1" stop-color="#893976"/>
</linearGradient>
<linearGradient id="paint10_linear" x1="95859.6" y1="269966" x2="90231.3" y2="270416" gradientUnits="userSpaceOnUse">
<stop stop-color="#311944"/>
<stop offset="1" stop-color="#893976"/>
</linearGradient>
<linearGradient id="paint11_linear" x1="-14485.8" y1="71669.6" x2="-8278.97" y2="115951" gradientUnits="userSpaceOnUse">
<stop stop-color="#AA80F9"/>
<stop offset="1" stop-color="#6165D7"/>
</linearGradient>
<linearGradient id="paint12_linear" x1="173494" y1="229005" x2="162181" y2="312330" gradientUnits="userSpaceOnUse">
<stop stop-color="#AA80F9"/>
<stop offset="1" stop-color="#6165D7"/>
</linearGradient>
<linearGradient id="paint13_linear" x1="141523" y1="167824" x2="173760" y2="126117" gradientUnits="userSpaceOnUse">
<stop stop-color="#AA80F9"/>
<stop offset="1" stop-color="#6165D7"/>
</linearGradient>
<linearGradient id="paint14_linear" x1="94293.8" y1="190907" x2="78454.2" y2="256496" gradientUnits="userSpaceOnUse">
<stop stop-color="#AA80F9"/>
<stop offset="1" stop-color="#6165D7"/>
</linearGradient>
<linearGradient id="paint15_linear" x1="118.766" y1="226.292" x2="124.555" y2="207.26" gradientUnits="userSpaceOnUse">
<stop stop-color="#444B8C"/>
<stop offset="1" stop-color="#3E4177"/>
</linearGradient>
<linearGradient id="paint16_linear" x1="192609" y1="364158" x2="389039" y2="364158" gradientUnits="userSpaceOnUse">
<stop stop-color="#311944"/>
<stop offset="1" stop-color="#893976"/>
</linearGradient>
<linearGradient id="paint17_linear" x1="251.203" y1="529.045" x2="233.763" y2="226.98" gradientUnits="userSpaceOnUse">
<stop stop-color="#F36F56"/>
<stop offset="1" stop-color="#FFC444"/>
</linearGradient>
<linearGradient id="paint18_linear" x1="157709" y1="34789.2" x2="259391" y2="34789.2" gradientUnits="userSpaceOnUse">
<stop stop-color="#F36F56"/>
<stop offset="1" stop-color="#FFC444"/>
</linearGradient>
<linearGradient id="paint19_linear" x1="153991" y1="40988.4" x2="255517" y2="40988.4" gradientUnits="userSpaceOnUse">
<stop stop-color="#F36F56"/>
<stop offset="1" stop-color="#FFC444"/>
</linearGradient>
<linearGradient id="paint20_linear" x1="117989" y1="60039" x2="115266" y2="98315.5" gradientUnits="userSpaceOnUse">
<stop stop-color="#F36F56"/>
<stop offset="1" stop-color="#FFC444"/>
</linearGradient>
<linearGradient id="paint21_linear" x1="77006" y1="28637.3" x2="78725.6" y2="80482.1" gradientUnits="userSpaceOnUse">
<stop stop-color="#F36F56"/>
<stop offset="1" stop-color="#FFC444"/>
</linearGradient>
<clipPath id="clip0">
<rect width="293" height="292" fill="white" transform="translate(79 86)"/>
</clipPath>
</defs>
</svg>
