<svg width="300" height="300" viewBox="0 0 300 300" fill="none" xmlns="http://www.w3.org/2000/svg">
<circle cx="150" cy="137" r="79" fill="#874CFA"/>
<g opacity="0.6" filter="url(#filter0_f)">
<circle cx="150" cy="150" r="78" fill="#F0F5FB"/>
</g>
<g clip-path="url(#clip0)">
<path d="M122.219 209.205C89.7104 203.954 82.5445 200.314 79.2292 193.651C74.4159 183.976 77.915 168.313 86.1572 158.665C93.388 150.201 102.42 148.535 102.155 142.667C101.939 137.838 95.7515 137.216 91.2085 128.141C89.8835 125.496 87.3092 120.358 88.4287 114.166C90.0674 105.102 98.434 100.337 99.1154 99.9637C107.871 95.1557 112.869 100.683 119.477 96.3672C127.747 90.9643 123.999 79.6232 131.754 76.3296C137.406 73.9283 144.631 77.7195 146.519 78.7092C152.814 82.0137 152.154 85.3668 157.47 87.4165C163.717 89.8232 166.702 85.9996 173.966 87.5247C179.969 88.7848 184.317 92.9275 187.865 97.1027C195.853 106.486 191.883 112.062 197.778 123.646C206.085 139.963 218.643 138.086 220.877 151.185C222.04 158.032 219.049 161.136 221.347 171.634C222.9 178.719 224.852 179.99 225.198 184.165C226.199 196.155 211.818 206.647 209.141 208.491C192.1 220.2 168.574 216.695 122.219 209.205Z" fill="url(#paint0_linear)"/>
<path style="mix-blend-mode:multiply" opacity="0.3" d="M175.031 177.864C153.128 176.296 138.341 196.025 132.49 191.12C126.946 186.469 142.614 170.785 137.254 152.435C132.003 134.436 111.425 130.699 113.052 120.558C114.891 109.087 142.49 106.102 141.841 97.6381C141.457 92.6463 131.689 91.5917 129.737 83.6686C129.207 81.5215 129.385 79.3853 129.937 77.395C124.572 81.5972 127.011 91.4457 119.477 96.3672C112.869 100.683 107.871 95.1557 99.1154 99.9637C98.434 100.337 90.0674 105.102 88.4287 114.166C87.3092 120.358 89.8835 125.496 91.2085 128.141C95.7515 137.216 101.939 137.838 102.155 142.667C102.42 148.535 93.3881 150.201 86.1572 158.665C77.915 168.313 74.4159 183.976 79.2292 193.651C82.5445 200.314 89.7104 203.954 122.219 209.205C168.574 216.696 192.1 220.2 209.141 208.491C215.755 203.943 223.559 196.171 225.236 189.238C221.888 192.191 218.611 193.624 215.555 194.165C201.342 196.663 194.787 179.287 175.031 177.864Z" fill="url(#paint1_linear)"/>
<path d="M186.569 155.656L180.441 153.653L172.453 178.094L178.58 180.097L186.569 155.656Z" fill="#97A6B7"/>
<path d="M191.927 135.247L189.001 133.262L180.375 153.695C181.927 155.847 183.971 156.518 186.8 156.826L191.927 135.247Z" fill="url(#paint2_linear)"/>
<path d="M185.935 131.997C182.901 128.79 183.307 124.128 183.415 122.932C184.345 112.284 195.719 110.034 198.856 96.9782C199.683 93.5386 199.445 91.4077 200.235 91.2887C202.117 91.0075 207.282 102.527 206.184 114.56C205.957 117.043 204.286 132.413 195.708 134.712C192.523 135.561 188.412 134.604 185.935 131.997Z" fill="url(#paint3_linear)"/>
<path style="mix-blend-mode:multiply" opacity="0.3" d="M187.542 132.034C187.239 131.483 185.627 128.487 185.849 124.858C186.433 115.328 199.245 110.212 200.852 97.6271C201.225 94.685 200.938 91.8781 201.219 91.8619C201.657 91.8402 204.086 98.7033 202.707 105.896C200.543 117.21 189.835 124.863 192.247 130.266C192.534 130.904 193.513 132.662 192.799 133.754C192.29 134.538 191.008 134.744 190.062 134.506C189.251 134.3 188.445 133.716 187.542 132.034Z" fill="url(#paint4_linear)"/>
<path d="M193.705 146.459C193.364 144.69 194.186 142.7 195.841 138.79C198.653 132.143 200.06 128.817 202.937 127.362C205.403 126.118 208.085 126.551 213.45 127.416C219.627 128.411 222.715 128.909 223.607 130.894C224.391 132.657 223.077 134.398 213.315 146.767C209.6 151.477 207.696 153.841 205.544 154.274C200.736 155.231 194.63 151.245 193.705 146.459Z" fill="url(#paint5_linear)"/>
<path style="mix-blend-mode:multiply" opacity="0.3" d="M207.529 126.621C204.176 132.04 199.492 139.99 194.809 149.163C195.663 150.52 196.902 151.71 198.324 152.619C203.678 141.997 209.119 132.9 212.634 127.281C210.563 126.951 208.919 126.702 207.529 126.621Z" fill="url(#paint6_linear)"/>
<path style="mix-blend-mode:multiply" opacity="0.3" d="M223.607 130.894C223.326 130.272 222.834 129.796 222.098 129.406C218.394 134.614 210.93 144.241 200.309 153.646C202.028 154.338 203.862 154.609 205.544 154.273C207.696 153.841 209.6 151.477 213.315 146.767C223.077 134.398 224.392 132.657 223.607 130.894Z" fill="url(#paint7_linear)"/>
<path d="M179.989 183.835L176.668 181.645L197.398 151.229L199.956 152.916L179.989 183.835Z" fill="#97A6B7"/>
<path d="M192.721 146.15L191.953 147.978C191.841 148.241 191.825 148.535 191.907 148.809C191.989 149.082 192.164 149.319 192.402 149.476L203.246 156.74C203.479 156.895 203.758 156.966 204.038 156.942C204.317 156.917 204.579 156.798 204.782 156.605L206.242 155.204C206.375 155.076 206.478 154.92 206.543 154.748C206.608 154.575 206.633 154.39 206.617 154.206C206.601 154.023 206.544 153.845 206.45 153.686C206.356 153.527 206.228 153.392 206.074 153.289L194.539 145.604C194.388 145.504 194.216 145.438 194.037 145.412C193.858 145.385 193.675 145.398 193.502 145.451C193.328 145.503 193.168 145.593 193.034 145.713C192.899 145.834 192.792 145.984 192.721 146.15Z" fill="url(#paint8_linear)"/>
<path d="M96.2996 212.299C91.8919 205.668 94.5798 195.333 95.1422 193.154C97.3542 184.652 102.562 179.39 104.461 177.518C117.505 164.663 137.419 164.787 152.502 164.874C167.586 164.96 175.969 165.02 185.146 170.217C201.696 179.606 213.086 201.428 206.444 212.137C202.312 218.805 194.286 216.171 146.634 217.826C115.742 218.902 101.827 220.617 96.2996 212.299Z" fill="white"/>
<path d="M144.579 139.357C144.579 139.357 147.765 162.175 131.654 166.691C129.799 167.215 129.225 169.568 130.631 170.888L150.496 189.562C150.782 189.831 151.118 190.04 151.486 190.177C151.853 190.314 152.244 190.376 152.636 190.36C153.028 190.344 153.413 190.25 153.768 190.083C154.123 189.916 154.441 189.68 154.704 189.389L172.735 169.471C173.919 168.167 173.4 166.085 171.745 165.474C165.958 163.343 155.601 157.156 157.775 140.461L144.579 139.357Z" fill="#FFCBAE"/>
<path d="M132.811 124.966C132.816 125.258 137.97 151.704 151.215 151.704C163.762 151.704 168.527 132.229 170.079 123.138C170.241 121.591 170.409 120.045 170.571 118.498C169.717 118.779 167.602 119.341 165.066 118.655C164.492 118.498 160.853 117.513 159.501 114.512C157.992 111.17 160.761 108.509 159.187 105.583C158.267 103.89 156.429 103.095 155.022 102.689C155.958 104.063 157.775 107.124 156.748 109.909C156.055 111.781 154.125 113.576 149.814 114.663C137.494 117.789 132.692 118.974 132.811 124.966Z" fill="#FFCBAE"/>
<path d="M136.043 128.124C136.043 128.124 129.223 122.354 128.628 125.885C127.384 133.252 133.225 137.319 136.389 135.112C139.553 132.905 136.043 128.124 136.043 128.124Z" fill="#FFCBAE"/>
<path d="M166.135 128.124C166.135 128.124 172.96 122.354 173.555 125.885C174.794 133.252 168.958 137.319 165.789 135.112C162.62 132.905 166.135 128.124 166.135 128.124Z" fill="#FFCBAE"/>
<path d="M157.58 140.504C157.58 140.504 155.438 138.654 153.453 139.52C153.122 139.666 152.811 139.855 152.529 140.082C152.288 140.274 151.99 140.378 151.682 140.378C151.375 140.378 151.076 140.274 150.836 140.082C150.559 139.856 150.253 139.667 149.927 139.52C147.942 138.654 145.801 140.504 145.801 140.504C145.958 140.498 146.78 141.645 146.969 141.84C148.002 142.894 149.733 143.587 151.69 143.587C153.648 143.587 155.373 142.894 156.406 141.84C156.596 141.645 157.423 140.498 157.58 140.504Z" fill="url(#paint9_linear)"/>
<path d="M127.008 159.249C127.008 159.249 127.668 158.454 128.911 158.421C130.155 158.389 131.843 157.642 132.567 157.577C132.746 157.567 132.832 157.513 132.849 157.448C132.865 157.383 132.07 157.123 131.356 157.101C130.085 157.058 129.344 157.545 129.176 157.296C129.009 157.047 129.804 156.252 129.652 156.079C129.501 155.906 128.982 156.377 128.381 156.636C127.96 156.82 126.305 158.8 126.305 158.8L127.008 159.249Z" fill="#FFCBAE"/>
<path d="M108.089 157.929C108.024 157.026 107.83 154.284 109.274 153.468C110.718 152.651 113.141 154.3 114.109 154.982C118.208 157.881 118.305 161.396 120.571 161.78C121.583 161.953 123.2 161.52 125.634 158.335L127.007 159.249C126.932 162.818 125.082 166.026 122.156 167.443C117.191 169.838 112.248 165.587 111.653 165.063C111.329 164.771 108.381 162.078 108.089 157.929Z" fill="url(#paint10_linear)"/>
<path d="M106.633 221.146C106.401 221.336 106.358 221.801 106.331 222.109C106.32 222.244 106.314 222.309 106.331 222.358C106.439 222.709 107.12 222.747 108.191 222.855C109.884 223.028 110.387 223.164 110.517 222.909C110.646 222.655 110.343 222.287 110.306 222.25C110.127 222.017 109.905 221.936 109.473 221.795C108.672 221.53 108.137 221.39 107.975 221.346C106.953 221.071 106.785 221.022 106.633 221.146Z" fill="url(#paint11_linear)"/>
<path d="M107.638 219.6L107.806 221.53C107.757 221.622 107.184 221.898 106.73 221.66L106.297 219.767L107.638 219.6Z" fill="url(#paint12_linear)"/>
<path d="M121.406 220.292C121.13 220.6 121.071 221.163 121.309 221.438C121.547 221.714 121.898 221.503 122.904 221.536C123.91 221.568 124.267 221.822 124.997 221.622C125.294 221.536 125.819 221.341 125.808 221.13C125.797 220.919 125.532 220.903 124.645 220.606C123.385 220.184 123.391 220.162 123.12 220.113C122.45 220.005 121.774 219.892 121.406 220.292Z" fill="url(#paint13_linear)"/>
<path d="M122.098 218.534L122.639 220.335C122.596 220.432 122.05 220.751 121.579 220.551L120.773 218.805L122.098 218.534Z" fill="url(#paint14_linear)"/>
<path d="M117.296 179.146C117.464 192.615 119.251 206.015 122.618 219.058L120.546 219.615C118.799 217.982 116.593 215.413 115.527 211.784C114.862 209.534 115.084 208.372 114.667 205.603C113.997 201.19 112.645 198.88 111.249 195.322C109.989 192.125 108.507 187.431 107.707 181.157L117.296 179.146Z" fill="url(#paint15_linear)"/>
<path style="mix-blend-mode:multiply" opacity="0.3" d="M117.296 179.146C115.408 180.584 113.067 182.85 113.142 185.576C113.196 187.604 114.532 187.977 115.522 190.93C116.733 194.548 115.257 195.56 116.117 200.146C116.755 203.558 117.539 202.823 118.497 206.982C119.34 210.686 118.967 212.347 120.276 215.311C120.879 216.662 121.667 217.924 122.618 219.058L120.546 219.615C118.799 217.982 116.593 215.413 115.527 211.784C114.862 209.534 115.084 208.372 114.667 205.603C113.997 201.19 112.645 198.88 111.249 195.322C109.989 192.125 108.507 187.431 107.707 181.157L117.296 179.146Z" fill="url(#paint16_linear)"/>
<path d="M109.698 179.173C109.276 186.863 108.931 194.692 108.665 202.661C108.466 208.642 108.32 214.546 108.227 220.373L106.112 220.632C105.144 218.834 104.403 216.923 103.905 214.943C103.154 211.925 103.327 210.135 102.997 207.009C102.629 203.499 102.088 202.736 101.136 198.312C99.2056 189.335 98.2375 184.846 100.395 182.05C101.093 181.147 103.289 178.87 109.698 179.173Z" fill="url(#paint17_linear)"/>
<path d="M112.635 158.086C113.424 157.578 112.705 156.085 112.662 152.878C112.613 148.951 113.651 148.221 112.813 146.68C111.791 144.798 109.211 144.019 107.508 143.981C107.129 143.976 107.043 143.765 103.884 144.587C98.2001 146.058 96.7723 144.479 94.2304 146.058C91.7696 147.578 92.8459 149.249 90.4554 151.034C86.5831 153.932 82.5107 150.801 79.7417 153.224C77.1241 155.512 77.0646 161.353 79.8174 164.538C82.938 168.151 88.5679 167.064 92.3429 166.35C93.1379 166.198 97.1454 165.355 101.321 162.277C103.181 160.901 104.831 159.261 106.221 157.41C106.458 157.145 106.832 156.82 107.318 156.766C107.902 156.707 108.373 157.064 108.6 157.221C109.79 158.043 111.856 158.594 112.635 158.086Z" fill="url(#paint18_linear)"/>
<path d="M109.765 153.846C109.765 153.846 103.161 151.921 100.251 155.214C99.7971 155.723 99.3374 156.48 98.9859 158.146C97.7528 163.992 101.036 166.074 100.587 171.38C100.538 171.991 99.9648 177.826 95.7247 181.412C93.7128 183.115 91.4143 183.846 91.4738 185.36C91.5116 186.447 92.7555 187.442 93.9021 187.788C96.1033 188.464 97.385 186.609 100.284 185.966C103.312 185.295 104.016 186.858 108.791 187.485C110.381 187.696 117.639 188.654 119.429 185.663C120.192 184.392 119.251 183.591 117.909 178.372C117.774 177.842 115.449 168.67 116.152 164.673C116.217 164.327 116.417 162.921 116.357 161.055C116.34 160.52 116.272 159.987 116.152 159.465C116.152 159.465 115.589 156.864 113.567 154.625C113.274 154.306 112.928 153.97 109.765 153.846Z" fill="url(#paint19_linear)"/>
<g style="mix-blend-mode:multiply" opacity="0.3">
<path style="mix-blend-mode:multiply" opacity="0.3" d="M100.251 155.214C99.5862 155.204 99.0616 157.778 98.9859 158.146C97.7528 163.992 101.036 166.074 100.587 171.38C100.538 171.991 99.9648 177.826 95.7247 181.412C93.7128 183.116 91.4143 183.846 91.4738 185.36C91.5116 186.447 92.7555 187.442 93.9021 187.788C96.1033 188.464 97.385 186.609 100.284 185.966C103.312 185.295 104.016 186.858 108.791 187.485C110.381 187.696 117.639 188.654 119.429 185.663C119.613 185.355 119.683 185.219 119.667 185.09C119.467 183.635 112.75 184.954 111.062 182.304C109.375 179.654 113.68 175.074 112.252 173.684C111.138 172.602 108.293 175.198 106.011 173.981C104.578 173.218 104.34 171.477 103.632 167.74C102.388 161.174 101.263 155.225 100.251 155.214Z" fill="url(#paint20_linear)"/>
</g>
<path d="M107.644 149.562C107.73 149.979 108.185 152.223 107.271 152.797C107.07 152.921 106.686 152.997 105.924 153.137C105.426 153.235 105.004 153.289 104.707 153.327C104.75 153.7 104.875 154.311 105.313 154.868C106.53 156.431 108.969 156.025 109.315 155.966C110.543 155.739 111.749 155.36 112.041 155.128C112.484 154.776 112.836 154.511 113.041 154.241C112.565 154.013 111.608 153.408 110.964 153.213C110.524 153.076 110.076 152.966 109.623 152.883C109.553 152.45 109.488 152.012 109.418 151.58L107.644 149.562Z" fill="#FFCBAE"/>
<path d="M107.599 150.677C107.599 150.677 107.761 152.321 109.362 152.613C110.79 152.872 111.866 149.417 111.136 148.519C110.893 148.221 110.287 147.94 109.768 147.951C109.4 147.962 108.156 148.438 107.983 149.682C107.74 149.417 107.431 149.346 107.28 149.454C107.128 149.563 107.188 149.995 107.209 150.082C107.271 150.317 107.408 150.526 107.599 150.677Z" fill="#FFCBAE"/>
<path d="M110.143 177.355L114.6 166.323C114.67 166.146 114.704 165.957 114.698 165.767C114.692 165.576 114.647 165.39 114.566 165.217C114.485 165.045 114.369 164.892 114.226 164.767C114.083 164.641 113.915 164.547 113.734 164.489L104.919 161.672C104.672 161.615 104.414 161.649 104.191 161.767C103.968 161.885 103.794 162.08 103.702 162.315L99.1481 173.948C99.0941 174.085 99.0692 174.231 99.075 174.378C99.0809 174.525 99.1173 174.669 99.1819 174.8C99.2466 174.932 99.3381 175.049 99.4505 175.144C99.563 175.238 99.6939 175.308 99.835 175.349L108.872 177.972C109.123 178.042 109.39 178.018 109.625 177.905C109.859 177.791 110.043 177.596 110.143 177.355Z" fill="#26264F"/>
<path d="M109.574 171.006C109.574 171.006 110.467 170.411 110.467 169.822C110.467 169.232 111.061 168.334 111.359 168.334C111.656 168.334 111.656 168.632 111.359 169.227C111.061 169.822 112.549 169.524 113.144 168.929C113.739 168.334 114.333 168.334 114.036 168.632C113.566 169.102 113.441 169.524 113.441 169.524C113.441 169.524 112.846 171.899 110.245 171.752L109.574 171.006Z" fill="#FFCBAE"/>
<path d="M103.332 154.062C101.428 153.213 98.2481 156.712 97.6802 157.334C94.684 160.628 90.4331 168.097 93.8187 172.494C96.6418 176.166 104.219 176.972 110.465 172.196L109.573 170.411C108.924 170.649 104.662 172.126 101.547 169.822C100.887 169.33 100.595 168.491 100.487 167.35C100.287 165.236 102.786 164.668 104.224 161.493C105.495 158.686 104.971 154.792 103.332 154.062Z" fill="url(#paint21_linear)"/>
<path d="M175.68 204.986L195.939 204.11L219.281 204.927L196.253 209.962L175.68 204.986Z" fill="url(#paint22_linear)"/>
<path d="M192.002 224.51L175.593 220.097C173.938 219.648 172.656 218.015 172.656 216.425V216.409C172.656 214.819 173.938 213.753 175.593 214.045L193.191 216.928L192.002 224.51Z" fill="url(#paint23_linear)"/>
<path d="M219.315 221.195L192.798 224.159C191.132 224.343 189.77 223.185 189.77 221.568V220.47C189.77 218.853 191.132 217.436 192.798 217.301L219.315 215.192C218.141 217.377 217.865 219.421 219.315 221.195Z" fill="url(#paint24_linear)"/>
<path d="M219.541 221.487L193.019 224.494C190.85 224.743 189.055 223.223 189.055 221.108V221.087C189.055 218.972 190.85 217.112 193.019 216.944L219.541 214.873C219.703 214.862 219.833 214.992 219.833 215.17C219.833 215.349 219.703 215.5 219.541 215.511L193.019 217.674C191.272 217.815 189.833 219.313 189.833 221.011V221.033C189.833 222.736 191.272 223.959 193.019 223.764L219.541 220.849C219.703 220.833 219.833 220.962 219.833 221.135C219.835 221.22 219.807 221.302 219.753 221.366C219.7 221.431 219.624 221.474 219.541 221.487Z" fill="#22C2A4"/>
<path d="M192.694 216.945L175.593 214.046C173.938 213.754 172.656 211.59 172.656 209.205V209.178C172.656 206.793 173.938 204.9 175.593 204.96L193.732 205.636L192.694 216.945Z" fill="url(#paint25_linear)"/>
<path d="M219.315 214.408L194.28 216.301C191.814 216.485 189.77 214.673 189.77 212.245V210.595C189.77 208.167 191.814 206.144 194.28 206.079L219.315 205.398C218.136 208.67 217.871 211.731 219.315 214.408Z" fill="url(#paint26_linear)"/>
<path d="M219.541 214.873L193.019 216.944C190.85 217.112 189.055 214.668 189.055 211.493V211.455C189.055 208.28 190.85 205.652 193.019 205.598L219.541 204.938C219.703 204.933 219.833 205.144 219.833 205.409C219.833 205.674 219.703 205.895 219.541 205.901L193.019 206.696C191.272 206.744 189.833 208.864 189.833 211.417V211.45C189.833 214.002 191.272 215.971 193.019 215.847L219.541 213.91C219.703 213.9 219.833 214.105 219.833 214.37C219.833 214.635 219.703 214.862 219.541 214.873Z" fill="url(#paint27_linear)"/>
<g style="mix-blend-mode:soft-light" opacity="0.5">
<path d="M187.388 214.554L183.732 213.916C182.883 211.585 182.942 209.443 183.732 206.885L187.388 207.15C186.642 209.838 186.755 212.277 187.388 214.554Z" fill="white"/>
</g>
<path d="M172.994 189.07C172.978 189.854 173.011 192.51 174.779 193.948C177.456 196.117 182.902 193.521 185.433 190.016C187.964 186.512 187.84 181.828 186.85 181.471C185.477 180.968 183.135 189.194 177.543 189.989C175.644 190.265 173.984 189.584 172.994 189.07Z" fill="url(#paint28_linear)"/>
<path d="M173.544 183.553L179.758 185.252C179.79 185.26 179.818 185.279 179.838 185.306C179.858 185.332 179.868 185.365 179.866 185.398L180.077 194.235C180.083 194.359 179.861 194.635 179.742 194.602L173.82 192.666C173.79 192.658 173.764 192.64 173.745 192.616C173.725 192.592 173.714 192.562 173.712 192.531L173.16 183.856C173.155 183.726 173.42 183.515 173.544 183.553Z" fill="url(#paint29_linear)"/>
<path d="M173.375 183.737L179.595 185.43C179.627 185.439 179.655 185.458 179.675 185.485C179.696 185.511 179.707 185.543 179.708 185.576L179.919 194.424C179.919 194.454 179.912 194.484 179.899 194.511C179.886 194.538 179.867 194.562 179.844 194.581C179.821 194.6 179.794 194.614 179.765 194.621C179.736 194.629 179.705 194.63 179.676 194.624L173.651 192.861C173.621 192.854 173.593 192.837 173.574 192.812C173.554 192.788 173.543 192.757 173.543 192.726L173.121 183.937C173.121 183.906 173.128 183.875 173.142 183.847C173.155 183.819 173.175 183.795 173.199 183.775C173.224 183.756 173.253 183.743 173.283 183.736C173.313 183.73 173.345 183.73 173.375 183.737Z" fill="url(#paint30_linear)"/>
<path d="M175.041 184.462L175.02 183.732C175.019 183.716 175.023 183.7 175.029 183.685C175.036 183.67 175.046 183.657 175.058 183.647C175.071 183.636 175.086 183.629 175.101 183.625C175.117 183.621 175.133 183.621 175.149 183.624L177.448 184.159C177.467 184.164 177.484 184.175 177.495 184.191C177.507 184.207 177.513 184.226 177.513 184.246L177.502 185.03C177.502 185.045 177.499 185.061 177.493 185.075C177.486 185.089 177.477 185.102 177.465 185.111C177.453 185.121 177.439 185.128 177.424 185.132C177.408 185.136 177.393 185.136 177.378 185.133L175.106 184.538C175.088 184.534 175.072 184.525 175.061 184.511C175.049 184.497 175.042 184.48 175.041 184.462Z" fill="url(#paint31_linear)"/>
<g style="mix-blend-mode:soft-light" opacity="0.3">
<path d="M176.766 191.963C176.799 190.525 177.75 189.768 177.41 188.583C176.928 186.89 174.608 187.08 174.349 185.717C174.273 185.349 174.349 184.841 174.846 184.137L173.375 183.737C173.345 183.73 173.313 183.73 173.283 183.736C173.253 183.743 173.224 183.756 173.199 183.775C173.175 183.795 173.155 183.819 173.142 183.847C173.128 183.875 173.121 183.906 173.121 183.937L173.543 192.726C173.543 192.757 173.554 192.788 173.574 192.812C173.593 192.837 173.621 192.854 173.651 192.861L177.367 193.948C176.891 193.223 176.75 192.547 176.766 191.963Z" fill="white"/>
</g>
<path d="M172.86 189.686C172.866 189.578 172.638 188.442 173.579 188.177C174.52 187.912 173.834 188.999 173.758 189.41C173.682 189.822 173.52 190.741 173.152 190.422C173.045 190.334 172.962 190.22 172.911 190.092C172.86 189.963 172.843 189.824 172.86 189.686Z" fill="#FFCBAE"/>
<path d="M186.613 183.737C185.97 183.321 186.554 182.099 186.592 179.481C186.635 176.274 185.781 175.674 186.467 174.419C187.306 172.878 189.409 172.239 190.805 172.212C191.113 172.202 191.183 172.034 193.763 172.705C198.409 173.905 199.577 172.618 201.654 173.905C203.73 175.192 202.784 176.512 204.736 177.972C207.9 180.341 211.232 177.783 213.492 179.762C215.629 181.634 215.677 186.404 213.427 189.01C210.88 191.958 206.278 191.071 203.195 190.487C202.546 190.363 199.274 189.676 195.861 187.161C194.341 186.036 192.991 184.697 191.854 183.186C191.659 182.964 191.356 182.704 190.962 182.661C190.48 182.607 190.096 182.899 189.912 183.029C188.939 183.705 187.246 184.148 186.613 183.737Z" fill="url(#paint32_linear)"/>
<path d="M170.074 223.283L172.389 221.893H173.433C173.433 221.893 173.79 223.218 173.752 223.283C173.287 224.045 171.118 224.624 169.766 224.672C169.539 224.683 169.225 224.683 169.144 224.521C169.009 224.245 169.62 223.666 170.074 223.283Z" fill="url(#paint33_linear)"/>
<path d="M172.433 220.373C172.579 221.233 172.389 221.682 172.189 221.936C171.989 222.19 171.919 222.163 171.07 222.893C170.794 223.137 170.648 223.266 170.68 223.337C170.713 223.407 170.967 223.369 171.497 223.245C172.665 222.964 173.249 222.818 173.39 222.536C173.53 222.255 173.406 222.169 173.411 221.476C173.415 221.12 173.474 220.766 173.584 220.427L172.433 220.373Z" fill="url(#paint34_linear)"/>
<path d="M170.758 213.548C170.758 213.548 169.714 214.797 169.882 216.165C170.049 217.534 171.888 215.533 172.142 214.857C172.396 214.181 172.694 213.218 172.694 213.218C172.694 213.218 171.412 212.417 170.758 213.548Z" fill="url(#paint35_linear)"/>
<path d="M171.155 211.595C171.155 211.595 171.442 213.05 170.896 213.818C170.631 214.202 170.263 214.521 170.371 214.835C170.441 215.046 170.717 215.192 170.944 215.17C171.388 215.121 171.631 214.445 171.804 213.969C172.058 213.266 172.199 211.757 172.199 211.757L171.155 211.595Z" fill="url(#paint36_linear)"/>
<path d="M171.99 212.823L171.028 212.471C170.525 211.325 169.913 209.443 170.119 207.155C170.644 201.271 176.084 198.15 176.69 197.82C178.172 198.561 179.675 199.61 179.729 200.935C179.794 202.596 177.534 203.472 175.408 205.9C174.132 207.36 172.769 209.529 171.99 212.823Z" fill="url(#paint37_linear)"/>
<path d="M172.335 221.049C171.275 216.895 171.545 213.51 171.854 211.557C172.313 208.605 173.26 202.607 177.262 200.368C178.138 199.881 179.387 199.443 180.913 198.086C181.932 197.172 182.799 196.102 183.481 194.916C188.841 193.348 193.784 193.981 195.964 196.858C196.213 197.188 196.845 197.907 196.97 198.967C197.24 201.363 194.888 204.251 192.248 204.851C188.89 205.619 186.943 202.169 183.968 203.315C183.135 203.64 182.432 204.435 181.021 206.025C179.768 207.429 178.698 208.987 177.835 210.66C176.7 212.882 175.834 214.527 175.71 216.652C175.683 217.15 175.661 218.15 175.082 219.226C174.714 219.903 174.203 220.492 173.584 220.952L172.335 221.049Z" fill="url(#paint38_linear)"/>
<path style="mix-blend-mode:multiply" opacity="0.3" d="M196.969 198.967C196.845 197.907 196.212 197.188 195.963 196.858C193.784 193.981 188.841 193.348 183.481 194.916C182.798 196.102 181.931 197.172 180.912 198.086C179.387 199.443 178.138 199.881 177.261 200.368C174.817 201.736 173.513 204.505 172.762 207.123C173.876 205.398 174.828 204.943 175.569 204.932C176.623 204.922 177.094 205.825 178.354 205.7C179.701 205.571 180.009 204.456 181.101 204.327C181.426 204.289 181.826 204.338 182.313 204.597C182.956 203.921 183.438 203.521 183.968 203.315C186.942 202.169 188.889 205.619 192.248 204.851C194.887 204.251 197.24 201.363 196.969 198.967Z" fill="url(#paint39_linear)"/>
<path d="M175.114 202.228C176.003 202.179 176.894 202.199 177.78 202.287C183.124 202.812 184.595 205.457 189.013 206.106C190.062 206.257 194.713 206.933 196.731 204.245C198.175 202.314 197.958 198.988 196.374 197.68C195.703 197.123 195.043 197.139 190.749 197.177C189.138 197.193 187.52 197.198 185.903 197.22C179.067 197.306 177.759 196.831 176.515 197.961C175.936 198.491 175.087 199.627 175.114 202.228Z" fill="url(#paint40_linear)"/>
<path d="M189.55 180.287C189.55 180.287 197.527 177.962 198.355 183.802C199.15 189.4 195.083 191.969 196.932 197.642C197.149 198.297 181.746 195.284 181.746 195.284C183.801 192.721 184.277 190.606 184.326 189.135C184.38 187.518 183.915 186.788 184.326 184.879C184.326 184.879 184.786 182.753 186.44 180.925C186.678 180.66 186.965 180.39 189.55 180.287Z" fill="url(#paint41_linear)"/>
<g style="mix-blend-mode:soft-light">
<g style="mix-blend-mode:soft-light">
<path d="M194.672 196.442H194.65C194.574 196.42 187.122 194.435 182.719 194.192C182.695 194.189 182.673 194.178 182.657 194.16C182.641 194.142 182.633 194.119 182.633 194.095C182.634 194.082 182.637 194.071 182.642 194.06C182.647 194.049 182.654 194.039 182.664 194.031C182.673 194.023 182.683 194.017 182.695 194.013C182.706 194.009 182.718 194.007 182.73 194.008C187.154 194.257 194.623 196.242 194.699 196.263C194.719 196.27 194.736 196.284 194.747 196.303C194.758 196.321 194.762 196.342 194.759 196.364C194.756 196.385 194.745 196.404 194.729 196.418C194.713 196.433 194.693 196.441 194.672 196.442Z" fill="#F4F7FA"/>
</g>
</g>
<path d="M191.279 176.788C191.209 177.128 190.835 178.956 191.587 179.432C191.749 179.535 192.058 179.589 192.685 179.708C193.091 179.784 193.437 179.832 193.68 179.859C193.642 180.168 193.539 180.671 193.183 181.125C192.193 182.401 190.197 182.066 189.911 182.017C188.91 181.833 187.926 181.525 187.688 181.336C187.325 181.049 187.039 180.833 186.871 180.611C187.255 180.422 188.039 179.93 188.564 179.768C188.925 179.659 189.291 179.569 189.662 179.497C189.716 179.146 189.775 178.789 189.829 178.437L191.279 176.788Z" fill="#FFCBAE"/>
<path d="M191.191 178.14C191.191 178.14 190.526 179.205 189.336 178.87C188.276 178.567 188.698 175.841 189.499 175.479C189.764 175.355 190.272 175.365 190.623 175.549C190.872 175.679 191.559 176.42 191.262 177.329C191.521 177.231 191.754 177.285 191.824 177.41C191.894 177.534 191.7 177.81 191.656 177.864C191.535 178.003 191.372 178.1 191.191 178.14Z" fill="#FFCBAE"/>
<path style="mix-blend-mode:multiply" opacity="0.3" d="M198.355 183.802C198.241 182.98 197.982 182.32 197.625 181.796C198.182 184.446 197.679 185.917 196.997 186.788C195.721 188.426 193.909 187.826 191.01 190.211C189.118 191.763 189.074 192.688 187.647 193.267C186.219 193.845 184.629 193.57 183.239 193.029C182.817 193.828 182.317 194.583 181.746 195.284C181.746 195.284 197.149 198.296 196.932 197.642C195.083 191.969 199.15 189.4 198.355 183.802ZM194.764 196.377C194.758 196.396 194.746 196.413 194.729 196.425C194.712 196.436 194.692 196.442 194.672 196.441H194.65C194.574 196.42 187.122 194.435 182.72 194.192C182.696 194.189 182.674 194.178 182.658 194.16C182.642 194.142 182.633 194.118 182.633 194.094C182.634 194.082 182.637 194.07 182.642 194.059C182.647 194.049 182.655 194.039 182.664 194.031C182.673 194.023 182.683 194.017 182.695 194.013C182.706 194.009 182.718 194.007 182.73 194.008C187.154 194.257 194.623 196.241 194.699 196.263C194.711 196.266 194.722 196.272 194.731 196.279C194.741 196.286 194.749 196.296 194.755 196.306C194.761 196.317 194.765 196.328 194.766 196.341C194.768 196.353 194.767 196.365 194.764 196.377Z" fill="url(#paint42_linear)"/>
<path d="M194.699 196.263C194.623 196.241 187.154 194.256 182.73 194.007C182.718 194.007 182.706 194.008 182.695 194.012C182.683 194.016 182.673 194.023 182.664 194.031C182.654 194.039 182.647 194.048 182.642 194.059C182.637 194.07 182.634 194.082 182.633 194.094C182.633 194.118 182.641 194.141 182.657 194.159C182.673 194.177 182.695 194.189 182.719 194.191C187.122 194.435 194.574 196.42 194.65 196.441H194.672C194.693 196.44 194.713 196.432 194.729 196.418C194.745 196.404 194.756 196.384 194.759 196.363C194.762 196.342 194.758 196.32 194.747 196.302C194.736 196.284 194.719 196.27 194.699 196.263Z" fill="#F4F7FA"/>
<path d="M191.335 195.533C191.178 195.117 191.016 194.695 190.859 194.273C192.617 193.792 195.045 193.083 197.539 192.191C197.928 192.05 198.393 191.877 198.545 191.466C198.972 190.314 196.262 189.124 195.208 186.604C194.234 184.278 194.77 181.05 195.9 180.671C198.252 179.876 206.592 190.26 203.617 194.635C201.93 197.112 196.738 197.502 191.335 195.533Z" fill="url(#paint43_linear)"/>
<path d="M190.857 194.273C189.754 193.688 188.434 194.289 188.348 194.332C187.991 194.499 187.669 194.73 187.396 195.013C187.358 195.068 186.877 195.727 187.055 195.944C187.234 196.16 187.737 195.971 188.386 195.565C188.771 195.512 189.161 195.503 189.548 195.538C190.441 195.619 190.852 195.9 191.176 195.657C191.414 195.479 191.49 195.105 191.409 194.824C191.328 194.543 191.047 194.375 190.857 194.273Z" fill="#FFCBAE"/>
<path d="M139.145 203.618H127.355V219.257H139.145V203.618Z" fill="url(#paint44_linear)"/>
<path d="M133.25 220.627C136.506 220.627 139.145 220.012 139.145 219.254C139.145 218.495 136.506 217.88 133.25 217.88C129.995 217.88 127.355 218.495 127.355 219.254C127.355 220.012 129.995 220.627 133.25 220.627Z" fill="url(#paint45_linear)"/>
<path d="M133.25 204.992C136.506 204.992 139.145 204.377 139.145 203.618C139.145 202.86 136.506 202.245 133.25 202.245C129.995 202.245 127.355 202.86 127.355 203.618C127.355 204.377 129.995 204.992 133.25 204.992Z" fill="url(#paint46_linear)"/>
<path d="M137.807 191.385H128.684V203.487H137.807V191.385Z" fill="url(#paint47_linear)"/>
<path d="M137.807 203.488C137.807 204.072 135.768 204.548 133.248 204.548C130.728 204.548 128.684 204.072 128.684 203.488C128.684 202.904 130.728 202.423 133.248 202.423C135.768 202.423 137.807 202.899 137.807 203.488Z" fill="url(#paint48_linear)"/>
<path d="M137.807 191.385C137.807 191.974 135.768 192.45 133.248 192.45C130.728 192.45 128.684 191.974 128.684 191.385C128.684 190.795 130.728 190.319 133.248 190.319C135.768 190.319 137.807 190.795 137.807 191.385Z" fill="#97A6B7"/>
<path d="M132.516 174.874L131.267 177.177C130.295 178.965 129.785 180.967 129.785 183.002V191.385C129.785 191.834 131.337 192.191 133.252 192.191C135.166 192.191 136.713 191.834 136.713 191.385V183.332C136.715 181.061 136.332 178.807 135.583 176.664L135.031 175.079C134.636 173.949 133.084 173.824 132.516 174.874Z" fill="url(#paint49_linear)"/>
<path style="mix-blend-mode:multiply" opacity="0.3" d="M135.582 176.664L135.03 175.079C134.944 174.827 134.786 174.605 134.576 174.441C134.951 175.381 135.137 176.387 135.122 177.399C135.046 180.585 132.856 181.942 132.002 185.366C131.601 186.961 131.445 189.2 132.391 192.169C132.661 192.185 132.953 192.191 133.251 192.191C135.16 192.191 136.712 191.834 136.712 191.385V183.332C136.714 181.061 136.332 178.807 135.582 176.664Z" fill="url(#paint50_linear)"/>
<path d="M135.297 223.791L135.346 210.114L156.27 206.388L156.221 220.065L135.297 223.791Z" fill="url(#paint51_linear)"/>
<path d="M140.041 216.951C140.054 213.175 138.045 210.108 135.554 210.099C133.063 210.09 131.033 213.144 131.02 216.919C131.007 220.695 133.015 223.762 135.507 223.771C137.998 223.78 140.028 220.726 140.041 216.951Z" fill="url(#paint52_linear)"/>
<path d="M160.736 213.163C160.749 209.387 158.741 206.32 156.25 206.311C153.759 206.302 151.728 209.356 151.715 213.131C151.702 216.907 153.711 219.974 156.202 219.983C158.693 219.992 160.723 216.938 160.736 213.163Z" fill="url(#paint53_linear)"/>
</g>
<defs>
<filter id="filter0_f" x="0" y="0" width="300" height="300" filterUnits="userSpaceOnUse" color-interpolation-filters="sRGB">
<feFlood flood-opacity="0" result="BackgroundImageFix"/>
<feBlend mode="normal" in="SourceGraphic" in2="BackgroundImageFix" result="shape"/>
<feGaussianBlur stdDeviation="36" result="effect1_foregroundBlur"/>
</filter>
<linearGradient id="paint0_linear" x1="200.037" y1="66.3443" x2="161.1" y2="142.597" gradientUnits="userSpaceOnUse">
<stop stop-color="#40447E"/>
<stop offset="1" stop-color="#3C3B6B"/>
</linearGradient>
<linearGradient id="paint1_linear" x1="409768" y1="40937" x2="314136" y2="241048" gradientUnits="userSpaceOnUse">
<stop stop-color="#40447E"/>
<stop offset="1" stop-color="#3C3B6B"/>
</linearGradient>
<linearGradient id="paint2_linear" x1="198.52" y1="147.193" x2="174.158" y2="142.177" gradientUnits="userSpaceOnUse">
<stop offset="0.49" stop-color="#EBEFF2"/>
<stop offset="1" stop-color="white"/>
</linearGradient>
<linearGradient id="paint3_linear" x1="198.061" y1="111.132" x2="183.757" y2="150.862" gradientUnits="userSpaceOnUse">
<stop stop-color="#FFC444"/>
<stop offset="0.92" stop-color="#F47555"/>
<stop offset="1" stop-color="#F36F56"/>
</linearGradient>
<linearGradient id="paint4_linear" x1="194.385" y1="111.643" x2="197.075" y2="156.875" gradientUnits="userSpaceOnUse">
<stop stop-color="#FFC444"/>
<stop offset="1" stop-color="#F36F56"/>
</linearGradient>
<linearGradient id="paint5_linear" x1="219.764" y1="126.699" x2="181.809" y2="159.077" gradientUnits="userSpaceOnUse">
<stop stop-color="#E38DDD"/>
<stop offset="1" stop-color="#9571F6"/>
</linearGradient>
<linearGradient id="paint6_linear" x1="58617.9" y1="29381.8" x2="60804.6" y2="29381.8" gradientUnits="userSpaceOnUse">
<stop stop-color="#E38DDD"/>
<stop offset="1" stop-color="#9571F6"/>
</linearGradient>
<linearGradient id="paint7_linear" x1="81031.6" y1="27417.4" x2="84549.8" y2="27417.4" gradientUnits="userSpaceOnUse">
<stop stop-color="#E38DDD"/>
<stop offset="1" stop-color="#9571F6"/>
</linearGradient>
<linearGradient id="paint8_linear" x1="41227.4" y1="20267.7" x2="39912.6" y2="27152.9" gradientUnits="userSpaceOnUse">
<stop offset="0.49" stop-color="#EBEFF2"/>
<stop offset="1" stop-color="white"/>
</linearGradient>
<linearGradient id="paint9_linear" x1="148.026" y1="145.633" x2="151.947" y2="140.144" gradientUnits="userSpaceOnUse">
<stop stop-color="#FF9085"/>
<stop offset="1" stop-color="#FB6FBB"/>
</linearGradient>
<linearGradient id="paint10_linear" x1="26063.6" y1="28013.7" x2="23193.5" y2="31686.6" gradientUnits="userSpaceOnUse">
<stop stop-color="#FF9085"/>
<stop offset="1" stop-color="#FB6FBB"/>
</linearGradient>
<linearGradient id="paint11_linear" x1="110.671" y1="222.14" x2="106.459" y2="222.266" gradientUnits="userSpaceOnUse">
<stop stop-color="#444B8C"/>
<stop offset="1" stop-color="#26264F"/>
</linearGradient>
<linearGradient id="paint12_linear" x1="-1445" y1="7234.19" x2="-1547.28" y2="7118.64" gradientUnits="userSpaceOnUse">
<stop stop-color="#FFC444"/>
<stop offset="1" stop-color="#F36F56"/>
</linearGradient>
<linearGradient id="paint13_linear" x1="-5967.91" y1="7359.22" x2="-6337.17" y2="7463.08" gradientUnits="userSpaceOnUse">
<stop stop-color="#444B8C"/>
<stop offset="1" stop-color="#26264F"/>
</linearGradient>
<linearGradient id="paint14_linear" x1="-1330.82" y1="7173.77" x2="-1435.46" y2="7048.44" gradientUnits="userSpaceOnUse">
<stop stop-color="#FFC444"/>
<stop offset="1" stop-color="#F36F56"/>
</linearGradient>
<linearGradient id="paint15_linear" x1="20410.7" y1="121420" x2="8566.54" y2="111583" gradientUnits="userSpaceOnUse">
<stop stop-color="#444B8C"/>
<stop offset="1" stop-color="#26264F"/>
</linearGradient>
<linearGradient id="paint16_linear" x1="20410.7" y1="121420" x2="8566.54" y2="111583" gradientUnits="userSpaceOnUse">
<stop stop-color="#444B8C"/>
<stop offset="1" stop-color="#26264F"/>
</linearGradient>
<linearGradient id="paint17_linear" x1="23362.5" y1="124084" x2="12090.3" y2="119331" gradientUnits="userSpaceOnUse">
<stop stop-color="#444B8C"/>
<stop offset="1" stop-color="#26264F"/>
</linearGradient>
<linearGradient id="paint18_linear" x1="34071.6" y1="39465.2" x2="14747.4" y2="59544.6" gradientUnits="userSpaceOnUse">
<stop stop-color="#FFC444"/>
<stop offset="1" stop-color="#F36F56"/>
</linearGradient>
<linearGradient id="paint19_linear" x1="34586.8" y1="72289.6" x2="22756.1" y2="82278.5" gradientUnits="userSpaceOnUse">
<stop stop-color="#FF9085"/>
<stop offset="1" stop-color="#FB6FBB"/>
</linearGradient>
<linearGradient id="paint20_linear" x1="26152.8" y1="87144.2" x2="35643.9" y2="65661.2" gradientUnits="userSpaceOnUse">
<stop stop-color="#FF9085"/>
<stop offset="1" stop-color="#FB6FBB"/>
</linearGradient>
<linearGradient id="paint21_linear" x1="20025.1" y1="42842.8" x2="12634.1" y2="49192.7" gradientUnits="userSpaceOnUse">
<stop stop-color="#FF9085"/>
<stop offset="1" stop-color="#FB6FBB"/>
</linearGradient>
<linearGradient id="paint22_linear" x1="101130" y1="17093.7" x2="136283" y2="17093.7" gradientUnits="userSpaceOnUse">
<stop stop-color="#FFC444"/>
<stop offset="1" stop-color="#F36F56"/>
</linearGradient>
<linearGradient id="paint23_linear" x1="49552.9" y1="33917.9" x2="49954.7" y2="32133.1" gradientUnits="userSpaceOnUse">
<stop stop-color="#22C2A4"/>
<stop offset="1" stop-color="#22C2A4"/>
</linearGradient>
<linearGradient id="paint24_linear" x1="76295.5" y1="28253.2" x2="92434.6" y2="28253.2" gradientUnits="userSpaceOnUse">
<stop stop-color="#FF9085"/>
<stop offset="1" stop-color="#FB6FBB"/>
</linearGradient>
<linearGradient id="paint25_linear" x1="52864.3" y1="33800" x2="52033.3" y2="38721.6" gradientUnits="userSpaceOnUse">
<stop stop-color="#FFC444"/>
<stop offset="1" stop-color="#F36F56"/>
</linearGradient>
<linearGradient id="paint26_linear" x1="76295.5" y1="32482.2" x2="92434.6" y2="32482.2" gradientUnits="userSpaceOnUse">
<stop stop-color="#FF9085"/>
<stop offset="1" stop-color="#FB6FBB"/>
</linearGradient>
<linearGradient id="paint27_linear" x1="79065.2" y1="35750.7" x2="96579.6" y2="35750.7" gradientUnits="userSpaceOnUse">
<stop stop-color="#FFC444"/>
<stop offset="1" stop-color="#F36F56"/>
</linearGradient>
<linearGradient id="paint28_linear" x1="25888.8" y1="38759.5" x2="28579.4" y2="41241.4" gradientUnits="userSpaceOnUse">
<stop stop-color="#E38DDD"/>
<stop offset="1" stop-color="#9571F6"/>
</linearGradient>
<linearGradient id="paint29_linear" x1="173.9" y1="191.044" x2="178.898" y2="188.522" gradientUnits="userSpaceOnUse">
<stop stop-color="#26264F"/>
<stop offset="1" stop-color="#444B8C"/>
</linearGradient>
<linearGradient id="paint30_linear" x1="-28694.8" y1="23892.1" x2="-30223.9" y2="23944.7" gradientUnits="userSpaceOnUse">
<stop stop-color="#26264F"/>
<stop offset="1" stop-color="#444B8C"/>
</linearGradient>
<linearGradient id="paint31_linear" x1="174.984" y1="184.111" x2="177.622" y2="184.599" gradientUnits="userSpaceOnUse">
<stop stop-color="#AA80F9"/>
<stop offset="1" stop-color="#6165D7"/>
</linearGradient>
<linearGradient id="paint32_linear" x1="75243.6" y1="50294.7" x2="78099.8" y2="44177.9" gradientUnits="userSpaceOnUse">
<stop stop-color="#FF9085"/>
<stop offset="1" stop-color="#FB6FBB"/>
</linearGradient>
<linearGradient id="paint33_linear" x1="169.128" y1="223.284" x2="173.755" y2="223.284" gradientUnits="userSpaceOnUse">
<stop stop-color="#311944"/>
<stop offset="1" stop-color="#6B3976"/>
</linearGradient>
<linearGradient id="paint34_linear" x1="-9432.87" y1="9877.83" x2="-9040.74" y2="8736.77" gradientUnits="userSpaceOnUse">
<stop stop-color="#FFC444"/>
<stop offset="1" stop-color="#F36F56"/>
</linearGradient>
<linearGradient id="paint35_linear" x1="-9548.06" y1="11393.8" x2="-9399.96" y2="11393.8" gradientUnits="userSpaceOnUse">
<stop stop-color="#311944"/>
<stop offset="1" stop-color="#6B3976"/>
</linearGradient>
<linearGradient id="paint36_linear" x1="-5923.2" y1="11562.3" x2="-5459.1" y2="10843.2" gradientUnits="userSpaceOnUse">
<stop stop-color="#FFC444"/>
<stop offset="1" stop-color="#F36F56"/>
</linearGradient>
<linearGradient id="paint37_linear" x1="173.919" y1="199.205" x2="177.365" y2="219.128" gradientUnits="userSpaceOnUse">
<stop stop-color="#AB316D"/>
<stop offset="1" stop-color="#792D3D"/>
</linearGradient>
<linearGradient id="paint38_linear" x1="-82886.4" y1="85903.5" x2="-80322.8" y2="78258" gradientUnits="userSpaceOnUse">
<stop stop-color="#AB316D"/>
<stop offset="1" stop-color="#792D3D"/>
</linearGradient>
<linearGradient id="paint39_linear" x1="-79014.8" y1="41645" x2="-78334.8" y2="37647.3" gradientUnits="userSpaceOnUse">
<stop stop-color="#AB316D"/>
<stop offset="1" stop-color="#792D3D"/>
</linearGradient>
<linearGradient id="paint40_linear" x1="-70760.6" y1="24891.8" x2="-70520.1" y2="28331.6" gradientUnits="userSpaceOnUse">
<stop stop-color="#AB316D"/>
<stop offset="1" stop-color="#792D3D"/>
</linearGradient>
<linearGradient id="paint41_linear" x1="43456.5" y1="47202.2" x2="42245.5" y2="38481.3" gradientUnits="userSpaceOnUse">
<stop stop-color="#E38DDD"/>
<stop offset="1" stop-color="#9571F6"/>
</linearGradient>
<linearGradient id="paint42_linear" x1="43456.5" y1="42041.4" x2="42493" y2="34247.4" gradientUnits="userSpaceOnUse">
<stop stop-color="#E38DDD"/>
<stop offset="1" stop-color="#9571F6"/>
</linearGradient>
<linearGradient id="paint43_linear" x1="36579.3" y1="42346.9" x2="35354.6" y2="34516.8" gradientUnits="userSpaceOnUse">
<stop stop-color="#E38DDD"/>
<stop offset="1" stop-color="#9571F6"/>
</linearGradient>
<linearGradient id="paint44_linear" x1="19604.8" y1="46434.8" x2="16591.2" y2="46650.7" gradientUnits="userSpaceOnUse">
<stop stop-color="#311944"/>
<stop offset="1" stop-color="#6B3976"/>
</linearGradient>
<linearGradient id="paint45_linear" x1="19765.3" y1="8733.25" x2="17167.6" y2="9791.86" gradientUnits="userSpaceOnUse">
<stop stop-color="#311944"/>
<stop offset="1" stop-color="#6B3976"/>
</linearGradient>
<linearGradient id="paint46_linear" x1="16891.3" y1="7958.34" x2="19461.5" y2="7958.34" gradientUnits="userSpaceOnUse">
<stop stop-color="#311944"/>
<stop offset="1" stop-color="#6B3976"/>
</linearGradient>
<linearGradient id="paint47_linear" x1="128.686" y1="197.436" x2="137.808" y2="197.436" gradientUnits="userSpaceOnUse">
<stop offset="0.01" stop-color="#97A6B7"/>
<stop offset="0.28" stop-color="#EBEFF2"/>
<stop offset="1" stop-color="#97A6B7"/>
</linearGradient>
<linearGradient id="paint48_linear" x1="13326.5" y1="6197.59" x2="14865.5" y2="6197.59" gradientUnits="userSpaceOnUse">
<stop offset="0.01" stop-color="#97A6B7"/>
<stop offset="0.28" stop-color="#EBEFF2"/>
<stop offset="1" stop-color="#97A6B7"/>
</linearGradient>
<linearGradient id="paint49_linear" x1="10292" y1="44274.3" x2="11179.3" y2="44274.3" gradientUnits="userSpaceOnUse">
<stop stop-color="#FF9085"/>
<stop offset="1" stop-color="#FB6FBB"/>
</linearGradient>
<linearGradient id="paint50_linear" x1="7678.8" y1="43621.2" x2="8145.7" y2="43621.2" gradientUnits="userSpaceOnUse">
<stop stop-color="#FF9085"/>
<stop offset="1" stop-color="#FB6FBB"/>
</linearGradient>
<linearGradient id="paint51_linear" x1="35093.7" y1="53544.3" x2="42356.4" y2="50846" gradientUnits="userSpaceOnUse">
<stop stop-color="#311944"/>
<stop offset="1" stop-color="#6B3976"/>
</linearGradient>
<linearGradient id="paint52_linear" x1="23894.1" y1="29990.5" x2="22618.1" y2="27280" gradientUnits="userSpaceOnUse">
<stop stop-color="#311944"/>
<stop offset="1" stop-color="#6B3976"/>
</linearGradient>
<linearGradient id="paint53_linear" x1="23030.9" y1="28054.4" x2="27453.5" y2="25988" gradientUnits="userSpaceOnUse">
<stop stop-color="#311944"/>
<stop offset="1" stop-color="#6B3976"/>
</linearGradient>
<clipPath id="clip0">
<rect width="148.403" height="151.431" fill="white" transform="translate(77.0664 75.5454)"/>
</clipPath>
</defs>
</svg>
