<svg width="168" height="24" viewBox="0 0 168 24" fill="none" xmlns="http://www.w3.org/2000/svg">
<path d="M2.75613 2.90332L0.367188 17.6674H8.37337C9.83686 17.6674 11.3864 17.4737 12.5271 16.2685C13.1512 15.6013 13.6463 14.5252 13.6463 13.4921C13.6463 12.2008 13.0867 11.2754 12.4195 10.7588C12.0321 10.4791 11.5801 10.2854 11.1497 10.1778V10.1347C11.7523 10.0056 12.4195 9.72579 12.9145 9.35992C13.5386 8.90796 14.2704 8.00403 14.2704 6.56206C14.2704 5.07704 13.4956 4.17312 12.8499 3.72116C11.7308 2.94637 10.1812 2.90332 9.70773 2.90332H2.75613ZM6.544 6.13162H8.22271C8.86837 6.13162 9.21273 6.26075 9.29881 6.3038C9.5786 6.43293 9.87991 6.69119 9.87991 7.29381C9.87991 7.61664 9.68621 7.91794 9.49251 8.09012C9.21273 8.32686 8.76076 8.47752 8.24424 8.47752H6.1566L6.544 6.13162ZM5.64007 11.6628H7.44792C7.8138 11.6628 8.39489 11.7919 8.6962 11.9856C8.97598 12.1578 9.21273 12.5237 9.21273 13.0832C9.21273 13.5567 8.93294 13.8365 8.84685 13.9226C8.48098 14.31 7.98597 14.353 7.57705 14.353H5.18811L5.64007 11.6628Z" fill="#E26285"/>
<path d="M28.3441 2.90332H17.2172L14.7852 17.6674H25.8906L26.4717 14.1378H19.886L20.2518 11.7273H25.5462L26.1273 8.54208H20.8114L21.1773 6.34684H27.763L28.3441 2.90332Z" fill="#E26285"/>
<path d="M33.4303 2.90332L26.5003 17.6674H30.2451L31.601 14.7404H35.5395L35.8839 17.6674H40.4896L38.2082 2.90332H33.4303ZM32.8492 11.5552L34.7432 7.25076L35.2597 11.5552H32.8492Z" fill="#E26285"/>
<path d="M48.5743 2.90332H44.0546L42.5696 12.0286C42.4835 12.5667 42.419 13.0832 42.419 13.5998C42.419 15.2785 43.1938 16.3761 44.3559 17.0863C45.5181 17.775 46.8095 17.8826 47.9932 17.8826C49.4351 17.8826 50.8986 17.7535 52.2115 16.8065C54.2345 15.343 54.4282 12.868 54.708 11.1462L56.0639 2.90332H52.5128L51.0062 11.9641C50.8986 12.5667 50.8341 13.2124 50.5328 13.7074C50.0808 14.4176 49.4136 14.5682 48.768 14.5682C48.3806 14.5682 47.7134 14.5037 47.3045 14.0087C47.0462 13.6858 47.0031 13.2984 47.0031 12.9326C47.0031 12.373 47.1108 11.8995 47.1968 11.3399L48.5743 2.90332Z" fill="#E26285"/>
<path d="M57.3996 2.90332L56.8185 6.34684H59.8531L58.0022 17.6674H62.5218L64.3727 6.34684H67.4289L68.01 2.90332H57.3996Z" fill="#E26285"/>
<path d="M81.6914 2.90332H77.7313L74.3954 7.76729L72.6091 2.90332H67.616L71.1456 11.426L70.1341 17.6674H74.6537L75.6652 11.426L81.6914 2.90332Z" fill="#E26285"/>
<path d="M87.563 2.90332L85.131 17.6674H88.6176L90.3609 7.12163H90.4039L91.5446 17.6674H94.4285L98.9697 7.12163H99.0127L97.2694 17.6674H101.531L103.963 2.90332H97.7644L94.3209 10.7373H94.2779L93.3309 2.90332H87.563Z" fill="#E26285"/>
<path d="M109.535 2.90332L102.605 17.6674H106.35L107.706 14.7404H111.644L111.988 17.6674H116.594L114.313 2.90332H109.535ZM108.954 11.5552L110.848 7.25076L111.364 11.5552H108.954Z" fill="#E26285"/>
<path d="M120.245 2.90332L117.813 17.6674H122.333L122.893 14.2454L124.851 12.0932L126.508 17.6674H131.458L128.122 8.52056L132.922 2.90332H128.682L123.775 8.86491L124.765 2.90332H120.245Z" fill="#E26285"/>
<path d="M145.517 2.90332H134.39L131.958 17.6674H143.064L143.645 14.1378H137.059L137.425 11.7273H142.719L143.3 8.54208H137.984L138.35 6.34684H144.936L145.517 2.90332Z" fill="#E26285"/>
<path d="M147.547 2.90332L145.115 17.6674H149.635L150.539 12.2439H152.282L153.509 17.6674H158.028L156.371 11.4906C157.038 11.2323 157.856 10.7373 158.373 10.1562C159.061 9.38144 159.449 8.17621 159.449 6.92793C159.449 5.55053 158.911 4.68965 158.394 4.17312C157.189 2.98941 155.295 2.90332 154.305 2.90332H147.547ZM151.529 6.13162H153.186C153.53 6.13162 154.068 6.19618 154.391 6.36836C154.649 6.51902 155.015 6.82032 155.015 7.46598C155.015 7.93947 154.8 8.39143 154.456 8.64969C154.111 8.92948 153.53 9.05861 152.842 9.05861H151.055L151.529 6.13162Z" fill="#E26285"/>
<path d="M163.182 2.40435C163.182 1.9709 163.287 1.56857 163.497 1.19735C163.71 0.826126 164.003 0.5343 164.377 0.321867C164.753 0.107289 165.158 0 165.593 0C166.027 0 166.431 0.107289 166.805 0.321867C167.178 0.5343 167.47 0.826126 167.681 1.19735C167.894 1.56857 168 1.9709 168 2.40435C168 2.82707 167.898 3.22297 167.694 3.59204C167.491 3.96112 167.201 4.25831 166.825 4.48361C166.452 4.70677 166.041 4.81836 165.593 4.81836C165.147 4.81836 164.736 4.70785 164.36 4.48683C163.986 4.26367 163.697 3.96755 163.491 3.59848C163.285 3.2294 163.182 2.83136 163.182 2.40435ZM163.572 2.40435C163.572 2.77342 163.663 3.11568 163.844 3.43111C164.025 3.74439 164.27 3.99008 164.581 4.16818C164.893 4.34628 165.23 4.43533 165.593 4.43533C165.957 4.43533 166.295 4.34521 166.608 4.16496C166.92 3.98257 167.165 3.73581 167.341 3.42467C167.52 3.11353 167.61 2.77342 167.61 2.40435C167.61 2.03742 167.52 1.69946 167.341 1.39047C167.165 1.07933 166.92 0.83471 166.608 0.65661C166.295 0.476364 165.957 0.386241 165.593 0.386241C165.23 0.386241 164.893 0.475291 164.581 0.653391C164.268 0.829345 164.021 1.07396 163.84 1.38725C163.662 1.70053 163.572 2.03957 163.572 2.40435ZM165.093 2.64575V3.73366H164.615V1.00101H165.552C165.898 1.00101 166.166 1.07182 166.357 1.21344C166.549 1.35292 166.645 1.55677 166.645 1.82499C166.645 2.08892 166.5 2.29062 166.211 2.4301C166.487 2.53739 166.626 2.75626 166.628 3.08671V3.28305C166.628 3.46759 166.647 3.60062 166.686 3.68216V3.73366H166.194C166.162 3.65641 166.146 3.51908 166.146 3.32167C166.146 3.12211 166.143 3.0041 166.136 2.96762C166.1 2.76162 165.951 2.65433 165.691 2.64575H165.093ZM165.093 2.23376H165.623C165.786 2.22947 165.917 2.19192 166.017 2.12111C166.117 2.0503 166.166 1.95695 166.166 1.84108C166.166 1.68444 166.122 1.57393 166.034 1.50956C165.946 1.44304 165.788 1.40978 165.562 1.40978H165.093V2.23376Z" fill="#E26285"/>
</svg>
