<svg width="108" height="42" viewBox="0 0 108 42" fill="none" xmlns="http://www.w3.org/2000/svg">
<rect x="80.5977" y="18.7793" width="1.94797" height="9.00938" fill="#874CFA"/>
<path d="M40.9824 17.1638V27.7891H42.8294V20.4739H42.928L45.8645 27.758H47.2445L50.181 20.4894H50.2796V27.7891H52.1265V17.1638H49.7711L46.6167 24.863H46.4922L43.3378 17.1638H40.9824Z" fill="#23262F"/>
<path d="M56.8289 27.7891L57.7057 25.1691H61.7005L62.5825 27.7891H64.637L60.8912 17.1638H58.515L54.7744 27.7891H56.8289ZM58.2245 23.6231L59.6616 19.3428H59.7446L61.1817 23.6231H58.2245Z" fill="#23262F"/>
<path d="M72.8816 20.0847H74.7337C74.6974 18.2896 73.1669 17.0186 70.9049 17.0186C68.674 17.0186 66.9982 18.2741 67.0034 20.1522C67.0034 21.6775 68.0877 22.5543 69.8361 23.0057L71.045 23.317C72.1915 23.6075 72.949 23.9655 72.9542 24.7904C72.949 25.6983 72.0878 26.3053 70.8322 26.3053C69.6286 26.3053 68.6947 25.7658 68.6169 24.6503H66.7232C66.8011 26.7619 68.3731 27.95 70.8478 27.95C73.3952 27.95 74.8738 26.6789 74.879 24.806C74.8738 22.9642 73.3537 22.1237 71.7557 21.745L70.7596 21.4959C69.888 21.2884 68.9438 20.92 68.9541 20.0329C68.9593 19.2339 69.6753 18.6476 70.8789 18.6476C72.0255 18.6476 72.783 19.182 72.8816 20.0847Z" fill="#23262F"/>
<path d="M88.7234 27.7891H90.6482V23.898H92.6093L94.6949 27.7891H96.8428L94.5445 23.5764C95.7948 23.0731 96.4537 22.0044 96.4537 20.5621C96.4537 18.5335 95.1463 17.1638 92.7079 17.1638H88.7234V27.7891ZM90.6482 22.3001V18.7721H92.4122C93.8493 18.7721 94.4926 19.431 94.4926 20.5621C94.4926 21.6931 93.8493 22.3001 92.4225 22.3001H90.6482Z" fill="#23262F"/>
<path d="M105.242 20.0847H107.094C107.058 18.2896 105.527 17.0186 103.265 17.0186C101.034 17.0186 99.3584 18.2741 99.3635 20.1522C99.3635 21.6775 100.448 22.5543 102.196 23.0057L103.405 23.317C104.552 23.6075 105.309 23.9655 105.314 24.7904C105.309 25.6983 104.448 26.3053 103.192 26.3053C101.989 26.3053 101.055 25.7658 100.977 24.6503H99.0834C99.1612 26.7619 100.733 27.95 103.208 27.95C105.755 27.95 107.234 26.6789 107.239 24.806C107.234 22.9642 105.714 22.1237 104.116 21.745L103.12 21.4959C102.248 21.2884 101.304 20.92 101.314 20.0329C101.319 19.2339 102.035 18.6476 103.239 18.6476C104.386 18.6476 105.143 19.182 105.242 20.0847Z" fill="#23262F"/>
<path d="M7.63362 22.084V36.4649H0V8.22656L7.63362 22.084Z" fill="#874CFA"/>
<path d="M30.6356 8.22656V36.4649H23.002V22.084L30.6356 8.22656Z" fill="#874CFA"/>
<path d="M30.6368 33.3968H23.0031L17.69 23.7519L15.3184 19.4469L7.63606 33.3968H0L15.294 5.63086H15.3427L22.8619 19.2813L27.6028 27.8889L30.6368 33.3968Z" fill="#22C2A4"/>
<path style="mix-blend-mode:overlay" opacity="0.74" d="M6.93164 20.8135L8.8163 31.2498L10.7497 27.741L6.93164 20.8135Z" fill="url(#paint0_linear)"/>
<path style="mix-blend-mode:overlay" opacity="0.74" d="M25.4156 23.9174L21.3711 30.4383L17.6895 23.7518L22.8613 19.2812L25.4156 23.9174Z" fill="url(#paint1_linear)"/>
<path d="M30.6368 8.22656L23.0031 22.084L19.1364 29.1064L15.3427 35.9925H15.294L11.5028 29.1064L7.63362 22.084L0 8.22656H7.63362L15.3184 22.1765L23.0031 8.22656H30.6368Z" fill="#D95818"/>
<path d="M7.63281 8.22656L15.2932 35.9925L30.6359 8.22656H23.0023L15.3176 22.1765L7.63281 8.22656Z" fill="#F4651F" style="mix-blend-mode:overlay"/>
<rect x="77.1875" y="15.6143" width="1.70448" height="8.76588" transform="rotate(-90 77.1875 15.6143)" fill="#874CFA"/>
<defs>
<linearGradient id="paint0_linear" x1="351.089" y1="4240.3" x2="351.089" y2="3695.53" gradientUnits="userSpaceOnUse">
<stop stop-opacity="0.8"/>
<stop offset="0.99" stop-color="white" stop-opacity="0"/>
</linearGradient>
<linearGradient id="paint1_linear" x1="1094.25" y1="4121.16" x2="1320.96" y2="4295.03" gradientUnits="userSpaceOnUse">
<stop stop-opacity="0.8"/>
<stop offset="0.99" stop-color="white" stop-opacity="0"/>
</linearGradient>
</defs>
</svg>
