<svg width="259" height="37" viewBox="0 0 259 37" fill="none" xmlns="http://www.w3.org/2000/svg">
<path d="M4.24701 4.2387L0.564055 27H12.9069C15.1631 27 17.5521 26.7014 19.3106 24.8433C20.2728 23.8147 21.036 22.1558 21.036 20.5631C21.036 18.5723 20.1733 17.1456 19.1447 16.3493C18.5475 15.918 17.8507 15.6194 17.1871 15.4535V15.3871C18.1161 15.188 19.1447 14.7567 19.9078 14.1926C20.8701 13.4958 21.9982 12.1023 21.9982 9.87926C21.9982 7.58985 20.8037 6.19631 19.8083 5.49953C18.083 4.30506 15.694 4.2387 14.9641 4.2387H4.24701ZM10.0866 9.21566H12.6747C13.6701 9.21566 14.2009 9.41474 14.3336 9.4811C14.765 9.68018 15.2295 10.0783 15.2295 11.0074C15.2295 11.5051 14.9309 11.9696 14.6323 12.235C14.2009 12.6 13.5042 12.8323 12.7078 12.8323H9.4894L10.0866 9.21566ZM8.69309 17.7429H11.4802C12.0442 17.7429 12.9401 17.9419 13.4046 18.2406C13.8359 18.506 14.2009 19.07 14.2009 19.9327C14.2009 20.6627 13.7696 21.094 13.6369 21.2267C13.0728 21.824 12.3097 21.8903 11.6793 21.8903H7.99632L8.69309 17.7429ZM43.6951 4.2387H26.5412L22.7919 27H39.9126L40.8085 21.5585H30.6555L31.2195 17.8424H39.3818L40.2776 12.9318H32.0822L32.6463 9.54746H42.7993L43.6951 4.2387ZM51.5364 4.2387L40.8525 27H46.6258L48.7161 22.4876H54.788L55.3189 27H62.4194L58.9023 4.2387H51.5364ZM50.6406 17.577L53.5604 10.941L54.3567 17.577H50.6406ZM74.8833 4.2387H67.9155L65.6261 18.3069C65.4934 19.1364 65.3939 19.9327 65.3939 20.729C65.3939 23.317 66.5884 25.0092 68.3801 26.1041C70.1718 27.1659 72.1626 27.3318 73.9874 27.3318C76.2105 27.3318 78.4667 27.1327 80.4907 25.6728C83.6096 23.4166 83.9082 19.6009 84.3395 16.9465L86.4298 4.2387H80.9552L78.6326 18.2074C78.4667 19.1364 78.3672 20.1318 77.9026 20.8949C77.2059 21.9899 76.1773 22.2221 75.1819 22.2221C74.5847 22.2221 73.5561 22.1226 72.9257 21.3594C72.5275 20.8617 72.4612 20.2645 72.4612 19.7005C72.4612 18.8378 72.6271 18.1078 72.7598 17.2452L74.8833 4.2387ZM88.489 4.2387L87.5932 9.54746H92.2715L89.4181 27H96.3858L99.2393 9.54746H103.951L104.847 4.2387H88.489ZM125.939 4.2387H119.834L114.691 11.7373L111.937 4.2387H104.239L109.681 17.3779L108.121 27H115.089L116.649 17.3779L125.939 4.2387ZM134.991 4.2387L131.242 27H136.617L139.304 10.7419H139.371L141.129 27H145.575L152.576 10.7419H152.643L149.955 27H156.525L160.274 4.2387H150.718L145.409 16.3161H145.343L143.883 4.2387H134.991ZM168.864 4.2387L158.18 27H163.954L166.044 22.4876H172.116L172.647 27H179.747L176.23 4.2387H168.864ZM167.969 17.577L170.888 10.941L171.685 17.577H167.969ZM185.376 4.2387L181.627 27H188.595L189.457 21.7244L192.477 18.4064L195.032 27H202.663L197.52 12.8986L204.919 4.2387H198.383L190.818 13.4295L192.344 4.2387H185.376ZM224.337 4.2387H207.183L203.434 27H220.554L221.45 21.5585H211.297L211.861 17.8424H220.023L220.919 12.9318H212.724L213.288 9.54746H223.441L224.337 4.2387ZM227.467 4.2387L223.717 27H230.685L232.079 18.6387H234.766L236.657 27H243.625L241.07 17.4774C242.099 17.0793 243.36 16.3161 244.156 15.4203C245.218 14.2258 245.815 12.3677 245.815 10.4433C245.815 8.31981 244.985 6.99262 244.189 6.19631C242.331 4.37142 239.411 4.2387 237.885 4.2387H227.467ZM233.605 9.21566H236.16C236.69 9.21566 237.52 9.3152 238.018 9.58064C238.416 9.8129 238.98 10.2774 238.98 11.2728C238.98 12.0028 238.648 12.6995 238.117 13.0977C237.586 13.529 236.69 13.7281 235.629 13.7281H232.875L233.605 9.21566Z" fill="white"/>
<path d="M251.572 3.70671C251.572 3.03847 251.735 2.41821 252.059 1.84591C252.387 1.27361 252.839 0.823712 253.415 0.496212C253.994 0.165404 254.619 0 255.289 0C255.959 0 256.582 0.165404 257.158 0.496212C257.734 0.823712 258.184 1.27361 258.508 1.84591C258.837 2.41821 259.001 3.03847 259.001 3.70671C259.001 4.3584 258.844 4.96874 258.529 5.53773C258.215 6.10672 257.769 6.56489 257.189 6.91224C256.613 7.25628 255.98 7.4283 255.289 7.4283C254.602 7.4283 253.968 7.25793 253.389 6.9172C252.813 6.57316 252.366 6.11664 252.049 5.54765C251.731 4.97866 251.572 4.36501 251.572 3.70671ZM252.174 3.70671C252.174 4.2757 252.314 4.80334 252.593 5.28962C252.872 5.7726 253.251 6.15138 253.729 6.42595C254.211 6.70052 254.731 6.83781 255.289 6.83781C255.851 6.83781 256.373 6.69887 256.854 6.42099C257.336 6.1398 257.713 5.75937 257.985 5.2797C258.261 4.80003 258.399 4.2757 258.399 3.70671C258.399 3.14102 258.261 2.62 257.985 2.14364C257.713 1.66397 257.336 1.28684 256.854 1.01227C256.373 0.734394 255.851 0.595455 255.289 0.595455C254.731 0.595455 254.211 0.73274 253.729 1.00731C253.247 1.27857 252.867 1.6557 252.588 2.13868C252.312 2.62166 252.174 3.14433 252.174 3.70671ZM254.52 4.07887V5.75606H253.781V1.54322H255.226C255.76 1.54322 256.174 1.65239 256.467 1.87072C256.764 2.08575 256.912 2.40001 256.912 2.81352C256.912 3.22042 256.688 3.53138 256.242 3.7464C256.668 3.91181 256.882 4.24923 256.886 4.75868V5.06137C256.886 5.34586 256.915 5.55096 256.975 5.67667V5.75606H256.216C256.167 5.63697 256.142 5.42525 256.142 5.12091C256.142 4.81326 256.137 4.63132 256.127 4.57508C256.071 4.2575 255.842 4.0921 255.441 4.07887H254.52ZM254.52 3.44371H255.336C255.587 3.4371 255.79 3.37921 255.943 3.27004C256.097 3.16087 256.174 3.01697 256.174 2.83833C256.174 2.59684 256.106 2.42648 255.97 2.32724C255.833 2.22469 255.591 2.17341 255.242 2.17341H254.52V3.44371Z" fill="white"/>
</svg>
