<svg width="22" height="16" viewBox="0 0 22 16" fill="none" xmlns="http://www.w3.org/2000/svg">
<path d="M21.9826 1.73901C21.9826 1.71387 21.9999 1.6894 21.9988 1.66455L15.2852 8.13351L21.9908 14.3958C21.9947 14.3511 21.9826 14.306 21.9826 14.2603V1.73901Z" fill="#F4651F"/>
<path d="M14.2599 9.12939L11.5192 11.7663C11.3805 11.8997 11.2013 11.9666 11.0221 11.9666C10.8466 11.9666 10.6712 11.9026 10.5334 11.7742L7.80018 9.22727L1.05078 15.7329C1.21489 15.7919 1.39105 15.8377 1.57552 15.8377H20.4688C20.7428 15.8377 20.9997 15.7542 21.2231 15.6298L14.2599 9.12939Z" fill="#F4651F"/>
<path d="M11.0159 10.2624L21.2618 0.392557C21.0299 0.254632 20.7599 0.162109 20.4704 0.162109H1.57712C1.20024 0.162109 0.854904 0.308445 0.585938 0.531628L11.0159 10.2624Z" fill="#F4651F"/>
<path d="M0 1.97949V14.2602C0 14.4012 0.0324021 14.5371 0.0675761 14.667L6.73324 8.24811L0 1.97949Z" fill="#F4651F"/>
</svg>
