<svg width="118" height="33" viewBox="0 0 118 33" fill="none" xmlns="http://www.w3.org/2000/svg">
<path d="M11.6939 13.5396L10.7368 18.0856C10.7368 18.0856 12.5051 27.8273 8.27238 29.9028C5.91073 31.0608 1.53707 32.5331 1.53711 29.9028C1.53721 22.3708 6.77699 4.79688 6.77699 4.79688C6.8368 4.87344 6.89661 4.9524 6.95404 5.03614C7.14954 5.30959 7.32928 5.59398 7.49238 5.88792L11.6939 13.5396Z" fill="#FF6F42"/>
<path d="M32.1625 2.06033C35.4967 5.6898 37.7263 30.0503 35.5192 30.1477C33.3121 30.2451 31.5273 29.2006 29.8713 27.7383L28.8198 27.6354L27.2715 14.6837L25.03 20.4668L24.7432 21.2032L18.998 18.2648C18.998 18.2648 21.4524 9.11156 24.1401 4.99671C25.5795 2.793 30.3818 0.121937 32.1625 2.06033Z" fill="#874CFA"/>
<path d="M35.889 29.9022C35.7694 31.8115 25.67 29.9022 25.67 29.9022C25.67 29.9022 26.1988 29.9022 25.4307 29.9022C24.6626 29.9022 22.8142 29.5214 21.6479 28.8986C20.4817 28.2758 19.4759 27.3908 18.7098 26.3132L15.9367 21.2624L11.6898 13.5318L7.48833 5.87533C7.32587 5.58102 7.14611 5.29659 6.94999 5.02355L6.77533 4.78429C5.97811 3.74403 4.88296 2.97246 3.70807 2.39165C2.32264 1.98465 0.717211 2.51128 0.238724 1.43459C-0.239833 -0.718817 8.97183 0.716857 8.97183 0.716857C10.5583 0.836491 12.0831 1.84336 13.3971 2.61797C14.7111 3.39258 15.7938 4.50493 16.5325 5.83944L16.5469 5.86337L21.4805 14.8693L24.0932 19.6258L24.9953 21.2696L26.6199 24.2221L27.3065 25.4734C28.0439 26.814 29.1896 27.1554 30.8644 27.8732C32.5392 28.591 36.0086 27.9928 35.889 29.9022Z" fill="url(#paint0_linear)"/>
<path d="M30.1275 29.9028H25.67H25.4307C24.1091 29.8656 22.8142 29.522 21.6479 28.8992C20.4817 28.2765 19.4759 27.3914 18.7098 26.3139L15.9367 21.263L11.6898 13.5324L7.48833 5.87596C7.32587 5.58165 7.14611 5.29722 6.94998 5.02419L6.77533 4.78492C5.97811 3.74466 4.88286 2.97311 3.70797 2.3923C2.15275 2.15307 -0.120177 2.61859 0.119008 1.19598C0.358194 -0.226622 4.42584 0.837106 4.42584 0.837106C6.77541 1.07635 7.41747 1.844 8.73149 2.61861C10.0455 3.39322 11.1281 4.50556 11.8669 5.84007L11.8812 5.864L16.8148 14.846L19.4276 19.6025L20.3296 21.2463L21.959 24.2227L22.6481 25.4741C23.3855 26.8147 24.4691 27.9328 25.786 28.7118C27.1028 29.4908 28.6046 29.9021 30.1346 29.9028H30.1275Z" fill="#F4651F"/>
<path d="M11.6936 13.5396L10.7365 18.0856L6.76953 4.79688C6.82935 4.87344 6.88916 4.9524 6.94658 5.03614C7.14209 5.30959 7.32183 5.59398 7.48493 5.88792L11.6936 13.5396Z" fill="url(#paint1_linear)" style="mix-blend-mode:overlay"/>
<path d="M45.9096 23.6077C46.0249 23.8248 46.1301 24.0521 46.225 24.2895C46.3268 24.5202 46.4252 24.7543 46.5202 24.9917C46.6151 24.7475 46.7135 24.5066 46.8153 24.2692C46.917 24.0317 47.0256 23.8044 47.1409 23.5873L51.4964 15.4354C51.5507 15.3336 51.605 15.2522 51.6593 15.1912C51.7203 15.1301 51.7848 15.086 51.8526 15.0589C51.9272 15.0317 52.0087 15.0148 52.0969 15.008C52.185 15.0012 52.2902 14.9978 52.4123 14.9978H54.4781V29.7139H52.0663V20.2085C52.0663 20.0321 52.0697 19.8387 52.0765 19.6284C52.0901 19.4181 52.107 19.2043 52.1274 18.9872L47.6803 27.3325C47.5785 27.5225 47.4462 27.6717 47.2834 27.7803C47.1206 27.8821 46.9306 27.9329 46.7135 27.9329H46.337C46.1199 27.9329 45.9299 27.8821 45.7671 27.7803C45.6043 27.6717 45.472 27.5225 45.3702 27.3325L40.8621 18.9567C40.8892 19.1806 40.9062 19.4011 40.9129 19.6182C40.9265 19.8285 40.9333 20.0253 40.9333 20.2085V29.7139H38.5215V14.9978H40.5873C40.7094 14.9978 40.8146 15.0012 40.9028 15.008C40.991 15.0148 41.069 15.0317 41.1368 15.0589C41.2115 15.086 41.2793 15.1301 41.3404 15.1912C41.4014 15.2522 41.4591 15.3336 41.5134 15.4354L45.9096 23.6077Z" fill="#23262F"/>
<path d="M70.3776 29.7139H68.2609C68.0234 29.7139 67.8267 29.6563 67.6706 29.5409C67.5214 29.4188 67.4128 29.2695 67.345 29.0931L66.2459 26.0909H60.1502L59.0512 29.0931C58.9969 29.2492 58.8884 29.3917 58.7255 29.5206C58.5695 29.6495 58.3761 29.7139 58.1455 29.7139H56.0186L61.7988 14.9978H64.5973L70.3776 29.7139ZM60.8524 24.1572H65.5437L63.7527 19.262C63.6713 19.0449 63.5797 18.7905 63.4779 18.4987C63.3829 18.2002 63.288 17.8779 63.193 17.5319C63.098 17.8779 63.003 18.2002 62.908 18.4987C62.8198 18.7973 62.7317 19.0585 62.6435 19.2824L60.8524 24.1572Z" fill="#23262F"/>
<path d="M79.7798 17.6744C79.7052 17.8236 79.617 17.9288 79.5152 17.9899C79.4202 18.0509 79.3049 18.0815 79.1692 18.0815C79.0335 18.0815 78.8809 18.0306 78.7113 17.9288C78.5417 17.8203 78.3415 17.7015 78.1109 17.5726C77.8802 17.4437 77.6088 17.3284 77.2967 17.2266C76.9914 17.118 76.6285 17.0638 76.2079 17.0638C75.8279 17.0638 75.4955 17.1112 75.2106 17.2062C74.9324 17.2944 74.695 17.42 74.4982 17.5828C74.3083 17.7456 74.1658 17.9424 74.0708 18.1731C73.9758 18.397 73.9283 18.6446 73.9283 18.916C73.9283 19.262 74.0233 19.5504 74.2133 19.781C74.41 20.0117 74.6678 20.2085 74.9867 20.3713C75.3055 20.5342 75.6685 20.68 76.0756 20.8089C76.4826 20.9378 76.8965 21.0769 77.3171 21.2262C77.7445 21.3687 78.1617 21.5383 78.5688 21.7351C78.9758 21.925 79.3388 22.1693 79.6577 22.4678C79.9765 22.7596 80.2309 23.1191 80.4209 23.5466C80.6176 23.974 80.716 24.4931 80.716 25.1037C80.716 25.7686 80.6007 26.3928 80.37 26.9763C80.1461 27.553 79.8137 28.0585 79.3727 28.4927C78.9385 28.9201 78.406 29.2594 77.775 29.5104C77.1441 29.7546 76.4216 29.8768 75.6074 29.8768C75.1393 29.8768 74.678 29.8293 74.2234 29.7343C73.7689 29.6461 73.3313 29.5172 72.9107 29.3476C72.4968 29.1779 72.1068 28.9744 71.7404 28.7369C71.3808 28.4995 71.0586 28.2349 70.7736 27.9431L71.5674 26.6303C71.642 26.5353 71.7302 26.4573 71.832 26.3962C71.9405 26.3283 72.0593 26.2944 72.1882 26.2944C72.3578 26.2944 72.5409 26.3657 72.7377 26.5081C72.9344 26.6438 73.1651 26.7965 73.4297 26.9661C73.7011 27.1357 74.0165 27.2918 74.3761 27.4343C74.7425 27.57 75.18 27.6378 75.6889 27.6378C76.4691 27.6378 77.0729 27.4546 77.5003 27.0882C77.9277 26.7151 78.1414 26.1825 78.1414 25.4904C78.1414 25.1037 78.043 24.7882 77.8463 24.5439C77.6563 24.2997 77.4019 24.0962 77.083 23.9333C76.7642 23.7637 76.4012 23.6212 75.9942 23.5059C75.5871 23.3905 75.1733 23.265 74.7526 23.1293C74.332 22.9936 73.9182 22.8308 73.5111 22.6408C73.104 22.4509 72.7411 22.2032 72.4222 21.8979C72.1034 21.5926 71.8456 21.2126 71.6488 20.7581C71.4589 20.2967 71.3639 19.7302 71.3639 19.0585C71.3639 18.5225 71.469 18 71.6793 17.4912C71.8964 16.9823 72.2085 16.5311 72.6156 16.1376C73.0294 15.7441 73.5348 15.4286 74.1319 15.1912C74.7289 14.9537 75.4107 14.835 76.1773 14.835C77.0457 14.835 77.8463 14.9707 78.579 15.242C79.3117 15.5134 79.9358 15.8934 80.4514 16.3819L79.7798 17.6744Z" fill="#23262F"/>
<path d="M93.1747 14.9978V17.2469H88.7479V29.7139H86.0105V17.2469H81.5634V14.9978H93.1747Z" fill="#23262F"/>
<path d="M97.7383 23.9639V29.7139H95.0009V14.9978H99.4887C100.493 14.9978 101.351 15.103 102.063 15.3133C102.782 15.5168 103.369 15.8052 103.824 16.1783C104.285 16.5515 104.621 16.9993 104.831 17.5217C105.048 18.0374 105.157 18.6073 105.157 19.2315C105.157 19.7268 105.082 20.1949 104.933 20.6359C104.791 21.0769 104.58 21.4772 104.302 21.8368C104.031 22.1964 103.692 22.5119 103.285 22.7833C102.884 23.0547 102.426 23.2718 101.911 23.4346C102.257 23.6314 102.555 23.913 102.806 24.2793L106.49 29.7139H104.027C103.79 29.7139 103.586 29.6664 103.417 29.5715C103.254 29.4765 103.115 29.3408 103 29.1644L99.9059 24.4524C99.7906 24.276 99.6617 24.1504 99.5192 24.0758C99.3835 24.0012 99.18 23.9639 98.9086 23.9639H97.7383ZM97.7383 21.9997H99.448C99.9636 21.9997 100.411 21.9352 100.791 21.8063C101.178 21.6774 101.493 21.501 101.738 21.2771C101.989 21.0464 102.175 20.775 102.297 20.4629C102.42 20.1508 102.481 19.8082 102.481 19.435C102.481 18.6887 102.233 18.1154 101.738 17.7151C101.249 17.3148 100.5 17.1146 99.4887 17.1146H97.7383V21.9997Z" fill="#23262F"/>
<path d="M116.133 17.6744C116.058 17.8236 115.97 17.9288 115.868 17.9899C115.773 18.0509 115.658 18.0815 115.522 18.0815C115.386 18.0815 115.234 18.0306 115.064 17.9288C114.895 17.8203 114.694 17.7015 114.464 17.5726C114.233 17.4437 113.962 17.3284 113.65 17.2266C113.344 17.118 112.981 17.0638 112.561 17.0638C112.181 17.0638 111.848 17.1112 111.564 17.2062C111.285 17.2944 111.048 17.42 110.851 17.5828C110.661 17.7456 110.519 17.9424 110.424 18.1731C110.329 18.397 110.281 18.6446 110.281 18.916C110.281 19.262 110.376 19.5504 110.566 19.781C110.763 20.0117 111.021 20.2085 111.34 20.3713C111.658 20.5342 112.021 20.68 112.429 20.8089C112.836 20.9378 113.249 21.0769 113.67 21.2262C114.097 21.3687 114.515 21.5383 114.922 21.7351C115.329 21.925 115.692 22.1693 116.011 22.4678C116.329 22.7596 116.584 23.1191 116.774 23.5466C116.971 23.974 117.069 24.4931 117.069 25.1037C117.069 25.7686 116.954 26.3928 116.723 26.9763C116.499 27.553 116.167 28.0585 115.726 28.4927C115.291 28.9201 114.759 29.2594 114.128 29.5104C113.497 29.7546 112.775 29.8768 111.96 29.8768C111.492 29.8768 111.031 29.8293 110.576 29.7343C110.122 29.6461 109.684 29.5172 109.264 29.3476C108.85 29.1779 108.46 28.9744 108.093 28.7369C107.734 28.4995 107.412 28.2349 107.127 27.9431L107.92 26.6303C107.995 26.5353 108.083 26.4573 108.185 26.3962C108.293 26.3283 108.412 26.2944 108.541 26.2944C108.711 26.2944 108.894 26.3657 109.091 26.5081C109.287 26.6438 109.518 26.7965 109.783 26.9661C110.054 27.1357 110.369 27.2918 110.729 27.4343C111.095 27.57 111.533 27.6378 112.042 27.6378C112.822 27.6378 113.426 27.4546 113.853 27.0882C114.281 26.7151 114.494 26.1825 114.494 25.4904C114.494 25.1037 114.396 24.7882 114.199 24.5439C114.009 24.2997 113.755 24.0962 113.436 23.9333C113.117 23.7637 112.754 23.6212 112.347 23.5059C111.94 23.3905 111.526 23.265 111.106 23.1293C110.685 22.9936 110.271 22.8308 109.864 22.6408C109.457 22.4509 109.094 22.2032 108.775 21.8979C108.456 21.5926 108.199 21.2126 108.002 20.7581C107.812 20.2967 107.717 19.7302 107.717 19.0585C107.717 18.5225 107.822 18 108.032 17.4912C108.249 16.9823 108.561 16.5311 108.969 16.1376C109.382 15.7441 109.888 15.4286 110.485 15.1912C111.082 14.9537 111.764 14.835 112.53 14.835C113.399 14.835 114.199 14.9707 114.932 15.242C115.665 15.5134 116.289 15.8934 116.804 16.3819L116.133 17.6744Z" fill="#23262F"/>
<defs>
<linearGradient id="paint0_linear" x1="-0.000570476" y1="15.6827" x2="23.0884" y2="12.4407" gradientUnits="userSpaceOnUse">
<stop stop-color="#F4651F"/>
<stop offset="1" stop-color="#FF8B52"/>
</linearGradient>
<linearGradient id="paint1_linear" x1="2358.69" y1="1826.15" x2="2310.49" y2="2236.55" gradientUnits="userSpaceOnUse">
<stop stop-color="#D25518"/>
<stop offset="0.99" stop-color="#F4651F"/>
</linearGradient>
</defs>
</svg>
