<svg width="160" height="50" viewBox="0 0 160 50" fill="none" xmlns="http://www.w3.org/2000/svg">
<path d="M15.981 18.5435L14.673 24.7566C14.673 24.7566 17.0898 38.0708 11.3048 40.9074C8.07711 42.4901 2.09956 44.5023 2.09961 40.9074C2.09975 30.6134 9.26103 6.59473 9.26103 6.59473C9.34278 6.69937 9.42453 6.80728 9.50301 6.92173C9.77021 7.29547 10.0159 7.68415 10.2388 8.08587L15.981 18.5435Z" fill="#FF6F42"/>
<g filter="url(#filter0_d)">
<path d="M43.9549 2.85296C48.5118 7.81341 51.559 41.1073 48.5425 41.2404C45.5261 41.3735 43.0867 39.946 40.8235 37.9475L39.3864 37.8069L37.2704 20.1055L34.2068 28.0094L33.8148 29.0159L25.9628 24.9999C25.9628 24.9999 29.3172 12.49 32.9905 6.86615C34.9578 3.8543 41.5212 0.203723 43.9549 2.85296Z" fill="#A475FF"/>
</g>
<path d="M49.0512 40.9067C48.8877 43.5163 35.0847 40.9067 35.0847 40.9067C35.0847 40.9067 35.8074 40.9067 34.7577 40.9067C33.7079 40.9067 31.1816 40.3863 29.5877 39.5351C27.9937 38.6839 26.6191 37.4744 25.5721 36.0016L21.7821 29.0986L15.9777 18.533L10.2355 8.06883C10.0135 7.66658 9.7678 7.27785 9.49975 6.90469L9.26104 6.57768C8.17147 5.15594 6.67472 4.10143 5.06898 3.30763C3.17549 2.75137 0.981319 3.47112 0.327364 1.9996C-0.326688 -0.943499 12.263 1.01866 12.263 1.01866C14.4312 1.18217 16.5153 2.55828 18.3112 3.61695C20.1071 4.67562 21.5867 6.19588 22.5963 8.01978L22.6159 8.05248L29.3588 20.361L32.9297 26.8618L34.1625 29.1084L36.3829 33.1436L37.3214 34.8539C38.3292 36.6861 39.8949 37.1527 42.184 38.1337C44.473 39.1147 49.2147 38.2972 49.0512 40.9067Z" fill="url(#paint0_linear)"/>
<path d="M41.1765 40.9079H35.0844H34.7574C32.9512 40.8569 31.1814 40.3874 29.5874 39.5362C27.9935 38.6851 26.6188 37.4755 25.5718 36.0028L21.7818 29.0997L15.9775 18.5341L10.2353 8.06994C10.0132 7.6677 9.76754 7.27897 9.4995 6.90581L9.26079 6.5788C8.17121 5.15706 6.67432 4.10257 5.06858 3.30877C2.94304 2.9818 -0.163407 3.61804 0.163492 1.67374C0.490391 -0.270558 6.0497 1.18326 6.0497 1.18326C9.2609 1.51024 10.1384 2.55939 11.9343 3.61806C13.7302 4.67674 15.2098 6.197 16.2195 8.02089L16.2391 8.05359L22.9819 20.3294L26.5528 26.8303L27.7857 29.0768L30.0126 33.1447L30.9543 34.855C31.9621 36.6872 33.4432 38.2154 35.243 39.2801C37.0427 40.3447 39.0952 40.9069 41.1863 40.9079H41.1765Z" fill="#F4651F"/>
<path d="M15.9807 18.5435L14.6727 24.7566L9.25098 6.59473C9.33273 6.69937 9.41448 6.80728 9.49296 6.92173C9.76016 7.29547 10.0058 7.68415 10.2287 8.08587L15.9807 18.5435Z" fill="url(#paint1_linear)" style="mix-blend-mode:overlay"/>
<path d="M62.7449 32.3023C62.9025 32.599 63.0462 32.9096 63.176 33.2342C63.3151 33.5495 63.4496 33.8694 63.5794 34.1939C63.7092 33.8601 63.8436 33.5309 63.9827 33.2064C64.1218 32.8818 64.2702 32.5712 64.4278 32.2745L70.3805 21.1331C70.4547 20.9941 70.5289 20.8828 70.6031 20.7993C70.6865 20.7159 70.7746 20.6556 70.8673 20.6185C70.9693 20.5814 71.0806 20.5582 71.2011 20.549C71.3217 20.5397 71.4654 20.535 71.6323 20.535H74.4557V40.6478H71.1594V27.6566C71.1594 27.4155 71.164 27.1512 71.1733 26.8638C71.1919 26.5763 71.215 26.2842 71.2429 25.9875L65.1649 37.3931C65.0258 37.6527 64.845 37.8567 64.6225 38.0051C64.4 38.1442 64.1404 38.2137 63.8436 38.2137H63.329C63.0323 38.2137 62.7727 38.1442 62.5502 38.0051C62.3276 37.8567 62.1468 37.6527 62.0077 37.3931L55.8464 25.9457C55.8835 26.2518 55.9066 26.5531 55.9159 26.8499C55.9345 27.1373 55.9437 27.4062 55.9437 27.6566V40.6478H52.6475V20.535H55.4708C55.6377 20.535 55.7815 20.5397 55.902 20.549C56.0225 20.5582 56.1292 20.5814 56.2219 20.6185C56.3239 20.6556 56.4166 20.7159 56.5001 20.7993C56.5835 20.8828 56.6623 20.9941 56.7365 21.1331L62.7449 32.3023Z" fill="white"/>
<path d="M96.1857 40.6478H93.2927C92.9682 40.6478 92.6993 40.569 92.486 40.4114C92.2821 40.2445 92.1337 40.0405 92.041 39.7994L90.5389 35.6961H82.2078L80.7057 39.7994C80.6315 40.0126 80.4832 40.2074 80.2607 40.3836C80.0474 40.5597 79.7831 40.6478 79.4679 40.6478H76.561L84.461 20.535H88.2857L96.1857 40.6478ZM83.1675 33.0534H89.5792L87.1314 26.363C87.0201 26.0663 86.8949 25.7186 86.7558 25.3198C86.626 24.9118 86.4962 24.4714 86.3664 23.9985C86.2366 24.4714 86.1068 24.9118 85.977 25.3198C85.8564 25.7278 85.7359 26.0848 85.6153 26.3908L83.1675 33.0534Z" fill="white"/>
<path d="M109.036 24.1932C108.934 24.3972 108.813 24.5409 108.674 24.6244C108.544 24.7078 108.387 24.7496 108.201 24.7496C108.016 24.7496 107.807 24.68 107.575 24.5409C107.344 24.3925 107.07 24.2303 106.755 24.0541C106.44 23.8779 106.069 23.7203 105.642 23.5812C105.225 23.4328 104.729 23.3586 104.154 23.3586C103.635 23.3586 103.18 23.4235 102.791 23.5534C102.411 23.6739 102.086 23.8455 101.817 24.068C101.558 24.2905 101.363 24.5595 101.233 24.8747C101.103 25.1807 101.039 25.5192 101.039 25.8901C101.039 26.363 101.168 26.7571 101.428 27.0724C101.697 27.3877 102.049 27.6566 102.485 27.8791C102.921 28.1017 103.417 28.301 103.973 28.4772C104.53 28.6534 105.095 28.8435 105.67 29.0475C106.254 29.2422 106.824 29.4741 107.381 29.743C107.937 30.0026 108.433 30.3364 108.869 30.7444C109.305 31.1432 109.652 31.6346 109.912 32.2188C110.181 32.803 110.315 33.5124 110.315 34.3469C110.315 35.2557 110.158 36.1088 109.843 36.9062C109.537 37.6944 109.082 38.3853 108.48 38.9787C107.886 39.5629 107.158 40.0266 106.296 40.3696C105.434 40.7035 104.446 40.8704 103.333 40.8704C102.694 40.8704 102.063 40.8055 101.442 40.6757C100.821 40.5551 100.223 40.3789 99.6477 40.1471C99.0821 39.9153 98.549 39.6371 98.0483 39.3125C97.5569 38.988 97.1164 38.6264 96.727 38.2276L97.8118 36.4333C97.9138 36.3035 98.0344 36.1969 98.1735 36.1134C98.3218 36.0207 98.4841 35.9743 98.6603 35.9743C98.8921 35.9743 99.1424 36.0717 99.4113 36.2664C99.6802 36.4519 99.9955 36.6605 100.357 36.8923C100.728 37.1242 101.159 37.3374 101.651 37.5322C102.151 37.7176 102.749 37.8103 103.445 37.8103C104.511 37.8103 105.336 37.56 105.92 37.0592C106.505 36.5492 106.797 35.8213 106.797 34.8755C106.797 34.3469 106.662 33.9158 106.393 33.5819C106.134 33.2481 105.786 32.9699 105.35 32.7474C104.914 32.5156 104.418 32.3208 103.862 32.1632C103.306 32.0055 102.74 31.834 102.165 31.6485C101.59 31.4631 101.025 31.2405 100.468 30.9809C99.912 30.7213 99.4159 30.3828 98.9801 29.9655C98.5443 29.5482 98.192 29.029 97.9231 28.4077C97.6635 27.7771 97.5337 27.0029 97.5337 26.0848C97.5337 25.3523 97.6774 24.6383 97.9648 23.9428C98.2615 23.2474 98.6881 22.6307 99.2444 22.0929C99.81 21.5551 100.501 21.1239 101.317 20.7993C102.133 20.4748 103.065 20.3125 104.112 20.3125C105.299 20.3125 106.393 20.498 107.395 20.8689C108.396 21.2398 109.249 21.7591 109.954 22.4267L109.036 24.1932Z" fill="white"/>
<path d="M127.343 20.535V23.609H121.293V40.6478H117.551V23.609H111.473V20.535H127.343Z" fill="white"/>
<path d="M133.58 32.7891V40.6478H129.839V20.535H135.972C137.345 20.535 138.518 20.6788 139.491 20.9662C140.474 21.2444 141.276 21.6385 141.897 22.1485C142.528 22.6585 142.987 23.2705 143.274 23.9845C143.571 24.6893 143.719 25.4682 143.719 26.3213C143.719 26.9982 143.617 27.638 143.413 28.2408C143.219 28.8435 142.931 29.3906 142.551 29.8821C142.18 30.3735 141.716 30.8047 141.16 31.1756C140.613 31.5465 139.987 31.8433 139.282 32.0658C139.755 32.3347 140.163 32.7196 140.506 33.2203L145.541 40.6478H142.175C141.851 40.6478 141.573 40.5829 141.341 40.4531C141.118 40.3233 140.928 40.1378 140.771 39.8967L136.543 33.4567C136.385 33.2157 136.209 33.0441 136.014 32.9421C135.829 32.8401 135.55 32.7891 135.18 32.7891H133.58ZM133.58 30.1046H135.917C136.621 30.1046 137.233 30.0165 137.753 29.8403C138.281 29.6642 138.712 29.4231 139.046 29.1171C139.389 28.8018 139.644 28.4309 139.811 28.0043C139.978 27.5778 140.061 27.1095 140.061 26.5995C140.061 25.5795 139.723 24.7959 139.046 24.2488C138.378 23.7017 137.354 23.4282 135.972 23.4282H133.58V30.1046Z" fill="white"/>
<path d="M158.72 24.1932C158.618 24.3972 158.497 24.5409 158.358 24.6244C158.229 24.7078 158.071 24.7496 157.885 24.7496C157.7 24.7496 157.491 24.68 157.26 24.5409C157.028 24.3925 156.754 24.2303 156.439 24.0541C156.124 23.8779 155.753 23.7203 155.326 23.5812C154.909 23.4328 154.413 23.3586 153.838 23.3586C153.319 23.3586 152.865 23.4235 152.475 23.5534C152.095 23.6739 151.77 23.8455 151.502 24.068C151.242 24.2905 151.047 24.5595 150.917 24.8747C150.788 25.1807 150.723 25.5192 150.723 25.8901C150.723 26.363 150.853 26.7571 151.112 27.0724C151.381 27.3877 151.733 27.6566 152.169 27.8791C152.605 28.1017 153.101 28.301 153.657 28.4772C154.214 28.6534 154.779 28.8435 155.354 29.0475C155.938 29.2422 156.509 29.4741 157.065 29.743C157.621 30.0026 158.117 30.3364 158.553 30.7444C158.989 31.1432 159.337 31.6346 159.596 32.2188C159.865 32.803 160 33.5124 160 34.3469C160 35.2557 159.842 36.1088 159.527 36.9062C159.221 37.6944 158.766 38.3853 158.164 38.9787C157.57 39.5629 156.842 40.0266 155.98 40.3696C155.118 40.7035 154.13 40.8704 153.018 40.8704C152.378 40.8704 151.747 40.8055 151.126 40.6757C150.505 40.5551 149.907 40.3789 149.332 40.1471C148.766 39.9153 148.233 39.6371 147.732 39.3125C147.241 38.988 146.801 38.6264 146.411 38.2276L147.496 36.4333C147.598 36.3035 147.719 36.1969 147.858 36.1134C148.006 36.0207 148.168 35.9743 148.344 35.9743C148.576 35.9743 148.827 36.0717 149.095 36.2664C149.364 36.4519 149.68 36.6605 150.041 36.8923C150.412 37.1242 150.843 37.3374 151.335 37.5322C151.835 37.7176 152.433 37.8103 153.129 37.8103C154.195 37.8103 155.02 37.56 155.605 37.0592C156.189 36.5492 156.481 35.8213 156.481 34.8755C156.481 34.3469 156.346 33.9158 156.077 33.5819C155.818 33.2481 155.47 32.9699 155.034 32.7474C154.598 32.5156 154.102 32.3208 153.546 32.1632C152.99 32.0055 152.424 31.834 151.849 31.6485C151.274 31.4631 150.709 31.2405 150.152 30.9809C149.596 30.7213 149.1 30.3828 148.664 29.9655C148.229 29.5482 147.876 29.029 147.607 28.4077C147.348 27.7771 147.218 27.0029 147.218 26.0848C147.218 25.3523 147.362 24.6383 147.649 23.9428C147.946 23.2474 148.372 22.6307 148.929 22.0929C149.494 21.5551 150.185 21.1239 151.001 20.7993C151.817 20.4748 152.749 20.3125 153.796 20.3125C154.983 20.3125 156.077 20.498 157.079 20.8689C158.08 21.2398 158.933 21.7591 159.638 22.4267L158.72 24.1932Z" fill="white"/>
<defs>
<filter id="filter0_d" x="21.9629" y="1.93848" width="31.7875" height="47.3109" filterUnits="userSpaceOnUse" color-interpolation-filters="sRGB">
<feFlood flood-opacity="0" result="BackgroundImageFix"/>
<feColorMatrix in="SourceAlpha" type="matrix" values="0 0 0 0 0 0 0 0 0 0 0 0 0 0 0 0 0 0 127 0"/>
<feOffset dy="4"/>
<feGaussianBlur stdDeviation="2"/>
<feColorMatrix type="matrix" values="0 0 0 0 0 0 0 0 0 0 0 0 0 0 0 0 0 0 0.25 0"/>
<feBlend mode="normal" in2="BackgroundImageFix" result="effect1_dropShadow"/>
<feBlend mode="normal" in="SourceGraphic" in2="effect1_dropShadow" result="shape"/>
</filter>
<linearGradient id="paint0_linear" x1="0.000316172" y1="21.4727" x2="31.5564" y2="17.0418" gradientUnits="userSpaceOnUse">
<stop stop-color="#F4651F"/>
<stop offset="1" stop-color="#FF8B52"/>
</linearGradient>
<linearGradient id="paint1_linear" x1="3223.66" y1="2495.86" x2="3157.78" y2="3056.76" gradientUnits="userSpaceOnUse">
<stop stop-color="#D25518"/>
<stop offset="0.99" stop-color="#F4651F"/>
</linearGradient>
</defs>
</svg>
