<svg width="540" height="325" viewBox="0 0 540 325" fill="none" xmlns="http://www.w3.org/2000/svg">
<g filter="url(#filter0_d)">
<path d="M193.195 107.193C201.852 97.8378 229.368 84.4926 256.088 93.9674C290.125 106.037 274.236 151.555 252.939 158.83C235.901 164.651 215.927 159.916 204.678 159.492M181.455 34.2913C190.112 24.9364 216.503 5.81191 243.224 15.2867C277.261 27.3562 261.372 72.8747 240.075 80.1498C223.037 85.9699 205.423 86.1251 198.763 94.9149" stroke="#A475FF" stroke-width="24"/>
</g>
<path d="M230.347 188.665C225.971 195.769 191.013 167.707 191.013 167.707C191.013 167.707 193.049 168.791 190.092 167.216C187.136 165.641 180.802 160.384 177.59 155.595C174.378 150.805 172.322 145.336 171.584 139.617L171.269 114.489L170.777 76.0225L170.308 37.9352C170.287 36.4691 170.178 35.0057 169.983 33.5525L169.802 32.2733C168.867 26.6342 166.234 21.4182 162.903 16.773C158.405 12.365 151.145 11.0993 151.512 5.97372C154.086 -3.29646 186.598 21.1223 186.598 21.1223C192.459 24.8365 196.264 31.8395 199.733 37.516C203.202 43.1925 205.087 49.6944 205.194 56.3462L205.2 56.4678L205.719 101.251L206.02 124.918L206.121 133.095L206.319 147.791L206.396 154.016C206.484 160.689 210.194 164.353 215.168 170.55C220.143 176.748 234.724 181.561 230.347 188.665Z" fill="url(#paint0_linear)"/>
<path d="M208.168 176.847L191.01 167.705L190.089 167.215C185.079 164.361 180.799 160.382 177.587 155.593C174.376 150.804 172.319 145.335 171.581 139.616L171.266 114.487L170.774 76.0213L170.306 37.9338C170.284 36.4678 170.175 35.0043 169.98 33.5512L169.799 32.272C168.864 26.6329 166.23 21.4168 162.899 16.7716C157.404 12.661 147.7 9.79118 151.539 4.806C155.377 -0.179181 168.852 12.2578 168.852 12.2578C177.405 17.9975 178.302 22.2691 181.771 27.9457C185.24 33.6222 187.126 40.1241 187.233 46.7759L187.239 46.8974L187.807 91.5885L188.108 115.256L188.209 123.433L188.376 138.231L188.462 144.461C188.551 151.133 190.429 157.66 193.9 163.359C197.371 169.058 202.307 173.721 208.195 176.862L208.168 176.847Z" fill="#FF6F42"/>
<path d="M228.04 180.386L224.361 177.863C222.226 179.559 215.325 184.332 218.501 186.5C221.767 188.73 229 190.5 230 190L228.04 180.386Z" fill="#D35518"/>
<path d="M258.855 129.244L255.593 144.734C255.593 144.734 261.62 177.928 247.193 185C239.143 188.946 224.235 193.962 224.235 185C224.236 159.336 242.096 99.4543 242.096 99.4543C242.3 99.7152 242.504 99.9843 242.699 100.27C243.366 101.201 243.978 102.17 244.534 103.172L258.855 129.244Z" fill="#FF6F42"/>
<g filter="url(#filter1_d)">
<path d="M328.622 90.1272C339.987 102.494 347.586 185.5 340.064 185.832C332.541 186.163 326.457 182.605 320.812 177.622L317.228 177.271L311.951 133.14L304.31 152.845L303.333 155.354L283.75 145.342C283.75 145.342 292.116 114.153 301.277 100.133C306.183 92.6237 322.553 83.5224 328.622 90.1272Z" fill="#A475FF"/>
</g>
<path d="M341.331 185C340.924 191.506 306.499 185 306.499 185C306.499 185 308.302 185 305.684 185C303.066 185 296.765 183.702 292.79 181.58C288.815 179.458 285.386 176.443 282.775 172.771L273.323 155.561L258.847 129.22L244.526 103.131C243.972 102.128 243.36 101.159 242.691 100.229L242.096 99.4137C239.378 95.8692 235.645 93.2401 231.641 91.2611C226.918 89.8743 221.446 91.6687 219.815 88.0001C218.184 80.6626 249.583 85.5544 249.583 85.5544C254.99 85.9621 260.188 89.3929 264.667 92.0323C269.145 94.6717 272.836 98.4619 275.354 103.009L275.403 103.091L292.219 133.777L301.125 149.984L304.199 155.585L309.737 165.646L312.078 169.91C314.591 174.477 318.496 175.641 324.205 178.087C329.914 180.532 341.739 178.494 341.331 185Z" fill="url(#paint1_linear)"/>
<path d="M321.693 185H306.499H305.684C301.179 184.873 296.765 183.702 292.79 181.58C288.814 179.458 285.386 176.443 282.775 172.771L273.323 155.561L258.847 129.22L244.526 103.131C243.972 102.128 243.359 101.159 242.691 100.229L242.096 99.4136C239.378 95.869 235.645 93.2401 231.64 91.261C226.339 90.4459 218.592 92.0321 219.407 87.1847C220.222 82.3373 234.087 85.9619 234.087 85.9619C242.096 86.7771 244.284 89.3927 248.763 92.0321C253.242 94.6715 256.932 98.4617 259.45 103.009L259.499 103.09L276.316 133.695L285.222 149.903L288.296 155.504L293.85 165.646L296.199 169.909C298.712 174.477 302.406 178.287 306.895 180.942C311.383 183.596 316.502 184.997 321.717 185H321.693Z" fill="#F4651F"/>
<path d="M258.856 129.244L255.594 144.734L242.072 99.4543C242.276 99.7152 242.48 99.9843 242.676 100.27C243.342 101.201 243.955 102.17 244.511 103.172L258.856 129.244Z" fill="url(#paint2_linear)" style="mix-blend-mode:overlay"/>
<path d="M33.9207 276.849C35.6207 276.849 37.0487 276.645 38.2047 276.237C39.3607 275.829 40.2787 275.285 40.9587 274.605C41.6614 273.925 42.1601 273.131 42.4547 272.225C42.7721 271.318 42.9307 270.355 42.9307 269.335C42.9307 268.269 42.7607 267.317 42.4207 266.479C42.0807 265.617 41.5481 264.892 40.8227 264.303C40.0974 263.691 39.1567 263.226 38.0007 262.909C36.8674 262.591 35.4961 262.433 33.8867 262.433H24.6727V276.849H33.9207ZM24.6727 241.897V256.109H31.9487C35.0767 256.109 37.4341 255.542 39.0207 254.409C40.6301 253.275 41.4347 251.473 41.4347 249.003C41.4347 246.441 40.7094 244.617 39.2587 243.529C37.8081 242.441 35.5414 241.897 32.4587 241.897H24.6727ZM32.4587 234.825C35.6774 234.825 38.4314 235.131 40.7207 235.743C43.0101 236.355 44.8801 237.227 46.3307 238.361C47.8041 239.494 48.8807 240.865 49.5607 242.475C50.2407 244.084 50.5807 245.897 50.5807 247.915C50.5807 249.071 50.4107 250.181 50.0707 251.247C49.7307 252.289 49.1981 253.275 48.4727 254.205C47.7701 255.111 46.8634 255.939 45.7527 256.687C44.6647 257.435 43.3614 258.069 41.8427 258.591C48.5974 260.109 51.9747 263.759 51.9747 269.539C51.9747 271.624 51.5781 273.551 50.7847 275.319C49.9914 277.087 48.8354 278.617 47.3167 279.909C45.7981 281.178 43.9281 282.175 41.7067 282.901C39.4854 283.626 36.9467 283.989 34.0907 283.989H15.5267V234.825H32.4587ZM69.4645 242.101V255.735H86.6685V262.773H69.4645V276.679H91.2925V283.989H60.2845V234.825H91.2925V242.101H69.4645ZM125.374 265.425L119.39 249.071C119.095 248.345 118.789 247.484 118.472 246.487C118.154 245.489 117.837 244.413 117.52 243.257C117.225 244.413 116.919 245.501 116.602 246.521C116.284 247.518 115.978 248.391 115.684 249.139L109.734 265.425H125.374ZM141.524 283.989H134.452C133.658 283.989 133.012 283.796 132.514 283.411C132.015 283.003 131.641 282.504 131.392 281.915L127.72 271.885H107.354L103.682 281.915C103.5 282.436 103.149 282.912 102.628 283.343C102.106 283.773 101.46 283.989 100.69 283.989H93.5498L112.896 234.825H122.212L141.524 283.989ZM165.205 276.611C166.973 276.611 168.549 276.316 169.931 275.727C171.337 275.137 172.515 274.31 173.467 273.245C174.419 272.179 175.145 270.887 175.643 269.369C176.165 267.85 176.425 266.15 176.425 264.269V234.825H185.571V264.269C185.571 267.193 185.095 269.901 184.143 272.395C183.214 274.865 181.865 277.007 180.097 278.821C178.352 280.611 176.221 282.017 173.705 283.037C171.189 284.034 168.356 284.533 165.205 284.533C162.032 284.533 159.187 284.034 156.671 283.037C154.155 282.017 152.013 280.611 150.245 278.821C148.5 277.007 147.151 274.865 146.199 272.395C145.27 269.901 144.805 267.193 144.805 264.269V234.825H153.951V264.235C153.951 266.116 154.201 267.816 154.699 269.335C155.221 270.853 155.957 272.157 156.909 273.245C157.884 274.31 159.063 275.137 160.445 275.727C161.851 276.316 163.437 276.611 165.205 276.611ZM230.226 242.339H215.402V283.989H206.256V242.339H191.432V234.825H230.226V242.339ZM257.774 264.949V283.989H248.662V264.949L230.744 234.825H238.802C239.595 234.825 240.218 235.017 240.672 235.403C241.148 235.788 241.544 236.275 241.862 236.865L250.838 253.287C251.359 254.261 251.812 255.179 252.198 256.041C252.606 256.902 252.968 257.763 253.286 258.625C253.58 257.763 253.92 256.902 254.306 256.041C254.691 255.179 255.133 254.261 255.632 253.287L264.574 236.865C264.823 236.366 265.197 235.901 265.696 235.471C266.194 235.04 266.829 234.825 267.6 234.825H275.692L257.774 264.949ZM347.811 234.825V283.989H339.753V252.233C339.753 250.963 339.821 249.592 339.957 248.119L325.099 276.033C324.397 277.37 323.32 278.039 321.869 278.039H320.577C319.127 278.039 318.05 277.37 317.347 276.033L302.319 248.017C302.387 248.765 302.444 249.501 302.489 250.227C302.535 250.952 302.557 251.621 302.557 252.233V283.989H294.499V234.825H301.401C301.809 234.825 302.161 234.836 302.455 234.859C302.75 234.881 303.011 234.938 303.237 235.029C303.487 235.119 303.702 235.267 303.883 235.471C304.087 235.675 304.28 235.947 304.461 236.287L319.183 263.589C319.569 264.314 319.92 265.062 320.237 265.833C320.577 266.603 320.906 267.397 321.223 268.213C321.541 267.374 321.869 266.569 322.209 265.799C322.549 265.005 322.912 264.246 323.297 263.521L337.815 236.287C337.997 235.947 338.189 235.675 338.393 235.471C338.597 235.267 338.813 235.119 339.039 235.029C339.289 234.938 339.561 234.881 339.855 234.859C340.15 234.836 340.501 234.825 340.909 234.825H347.811ZM384.757 265.425L378.773 249.071C378.478 248.345 378.172 247.484 377.855 246.487C377.537 245.489 377.22 244.413 376.903 243.257C376.608 244.413 376.302 245.501 375.985 246.521C375.667 247.518 375.361 248.391 375.067 249.139L369.117 265.425H384.757ZM400.907 283.989H393.835C393.041 283.989 392.395 283.796 391.897 283.411C391.398 283.003 391.024 282.504 390.775 281.915L387.103 271.885H366.737L363.065 281.915C362.883 282.436 362.532 282.912 362.011 283.343C361.489 283.773 360.843 283.989 360.073 283.989H352.933L372.279 234.825H381.595L400.907 283.989ZM415.141 255.429H417.283C418.145 255.429 418.859 255.315 419.425 255.089C419.992 254.839 420.479 254.454 420.887 253.933L434.453 236.763C435.02 236.037 435.609 235.539 436.221 235.267C436.856 234.972 437.649 234.825 438.601 234.825H446.489L429.931 255.259C428.957 256.505 427.948 257.389 426.905 257.911C427.653 258.183 428.322 258.568 428.911 259.067C429.523 259.543 430.101 260.177 430.645 260.971L447.713 283.989H439.655C438.567 283.989 437.751 283.841 437.207 283.547C436.686 283.229 436.244 282.776 435.881 282.187L421.975 264.031C421.545 263.419 421.046 262.988 420.479 262.739C419.913 262.489 419.097 262.365 418.031 262.365H415.141V283.989H405.995V234.825H415.141V255.429ZM461.793 242.101V255.735H478.997V262.773H461.793V276.679H483.621V283.989H452.613V234.825H483.621V242.101H461.793ZM506.584 258.217C508.307 258.217 509.803 258.001 511.072 257.571C512.364 257.14 513.418 256.551 514.234 255.803C515.073 255.032 515.696 254.125 516.104 253.083C516.512 252.04 516.716 250.895 516.716 249.649C516.716 247.155 515.889 245.24 514.234 243.903C512.602 242.565 510.097 241.897 506.72 241.897H500.872V258.217H506.584ZM530.112 283.989H521.85C520.286 283.989 519.153 283.377 518.45 282.153L508.114 266.411C507.729 265.821 507.298 265.402 506.822 265.153C506.369 264.903 505.689 264.779 504.782 264.779H500.872V283.989H491.726V234.825H506.72C510.052 234.825 512.908 235.176 515.288 235.879C517.691 236.559 519.651 237.522 521.17 238.769C522.711 240.015 523.845 241.511 524.57 243.257C525.295 244.979 525.658 246.883 525.658 248.969C525.658 250.623 525.409 252.187 524.91 253.661C524.434 255.134 523.731 256.471 522.802 257.673C521.895 258.874 520.762 259.928 519.402 260.835C518.065 261.741 516.535 262.455 514.812 262.977C515.401 263.317 515.945 263.725 516.444 264.201C516.943 264.654 517.396 265.198 517.804 265.833L530.112 283.989Z" fill="white"/>
<defs>
<filter id="filter0_d" x="162.989" y="0.717529" width="134.52" height="192.309" filterUnits="userSpaceOnUse" color-interpolation-filters="sRGB">
<feFlood flood-opacity="0" result="BackgroundImageFix"/>
<feColorMatrix in="SourceAlpha" type="matrix" values="0 0 0 0 0 0 0 0 0 0 0 0 0 0 0 0 0 0 127 0"/>
<feOffset dy="9.65843"/>
<feGaussianBlur stdDeviation="4.82922"/>
<feColorMatrix type="matrix" values="0 0 0 0 0 0 0 0 0 0 0 0 0 0 0 0 0 0 0.25 0"/>
<feBlend mode="normal" in2="BackgroundImageFix" result="effect1_dropShadow"/>
<feBlend mode="normal" in="SourceGraphic" in2="effect1_dropShadow" result="shape"/>
</filter>
<filter id="filter1_d" x="274.092" y="87.8464" width="78.6423" height="117.324" filterUnits="userSpaceOnUse" color-interpolation-filters="sRGB">
<feFlood flood-opacity="0" result="BackgroundImageFix"/>
<feColorMatrix in="SourceAlpha" type="matrix" values="0 0 0 0 0 0 0 0 0 0 0 0 0 0 0 0 0 0 127 0"/>
<feOffset dy="9.65843"/>
<feGaussianBlur stdDeviation="4.82922"/>
<feColorMatrix type="matrix" values="0 0 0 0 0 0 0 0 0 0 0 0 0 0 0 0 0 0 0.25 0"/>
<feBlend mode="normal" in2="BackgroundImageFix" result="effect1_dropShadow"/>
<feBlend mode="normal" in="SourceGraphic" in2="effect1_dropShadow" result="shape"/>
</filter>
<linearGradient id="paint0_linear" x1="121.368" y1="60.3252" x2="216.889" y2="95.2009" gradientUnits="userSpaceOnUse">
<stop stop-color="#FF6F42"/>
<stop offset="1" stop-color="#FF8B52"/>
</linearGradient>
<linearGradient id="paint1_linear" x1="219" y1="136.549" x2="297.699" y2="125.495" gradientUnits="userSpaceOnUse">
<stop stop-color="#F4651F"/>
<stop offset="1" stop-color="#FF8B52"/>
</linearGradient>
<linearGradient id="paint2_linear" x1="8258.74" y1="6305.49" x2="8094.55" y2="7703.89" gradientUnits="userSpaceOnUse">
<stop stop-color="#D25518"/>
<stop offset="0.99" stop-color="#F4651F"/>
</linearGradient>
</defs>
</svg>
