<svg width="22" height="22" viewBox="0 0 22 22" fill="none" xmlns="http://www.w3.org/2000/svg">
<g opacity="0.8">
<path d="M3.91424 2.5415V15.1735L0.0436197 4.62721C-0.0797007 4.29205 0.0938931 3.92037 0.429909 3.7992L3.91424 2.5415Z" fill="white"/>
<path d="M21.9579 4.62658L18.0938 15.1552V2.54346L21.5716 3.79857C21.9077 3.91975 22.0808 4.29143 21.9579 4.62658Z" fill="white"/>
<path d="M16.1602 0H5.84766C5.49188 0 5.20312 0.28875 5.20312 0.644531V21.3555C5.20312 21.7113 5.49188 22 5.84766 22H16.1602C16.5159 22 16.8047 21.7113 16.8047 21.3555V0.644531C16.8047 0.28875 16.5159 0 16.1602 0ZM12.293 18.1328H8.42578C8.07 18.1328 7.78125 17.8441 7.78125 17.4883C7.78125 17.1325 8.07 16.8438 8.42578 16.8438H12.293C12.6487 16.8438 12.9375 17.1325 12.9375 17.4883C12.9375 17.8441 12.6487 18.1328 12.293 18.1328ZM13.582 15.5547H8.42578C8.07 15.5547 7.78125 15.2659 7.78125 14.9102C7.78125 14.5544 8.07 14.2656 8.42578 14.2656H13.582C13.9378 14.2656 14.2266 14.5544 14.2266 14.9102C14.2266 15.2659 13.9378 15.5547 13.582 15.5547ZM13.582 12.9766H9.71484C9.35906 12.9766 9.07031 12.6878 9.07031 12.332C9.07031 11.9762 9.35906 11.6875 9.71484 11.6875H13.582C13.9378 11.6875 14.2266 11.9762 14.2266 12.332C14.2266 12.6878 13.9378 12.9766 13.582 12.9766ZM14.2266 8.46484C14.2266 8.82063 13.9378 9.10938 13.582 9.10938H8.42578C8.07 9.10938 7.78125 8.82063 7.78125 8.46484V4.59766C7.78125 4.24188 8.07 3.95312 8.42578 3.95312H13.582C13.9378 3.95312 14.2266 4.24188 14.2266 4.59766V8.46484Z" fill="white"/>
<path d="M9.07031 5.24219H12.9375V7.82031H9.07031V5.24219Z" fill="white"/>
</g>
</svg>
