<svg width="22" height="19" viewBox="0 0 22 19" fill="none" xmlns="http://www.w3.org/2000/svg">
<g opacity="0.8">
<path d="M18.1667 6.45941C19.7736 6.45941 21.0658 5.16326 21.0658 3.56417C21.0658 1.96408 19.7726 0.666016 18.1667 0.666016C16.5695 0.666016 15.2754 1.96312 15.2754 3.56417C15.2754 5.16226 16.5695 6.45941 18.1667 6.45941Z" fill="white"/>
<path d="M20.491 6.93115H15.8477C15.1585 6.93115 14.5781 7.46353 14.3996 8.17926L11.6426 13.8236C11.6034 13.8207 11.5701 13.8011 11.5299 13.8011H10.4671C10.4279 13.8011 10.3936 13.8217 10.3563 13.8236L7.59933 8.18026C7.42189 7.46453 6.84242 6.9312 6.15223 6.9312H1.50596C0.675506 6.93115 0 7.69297 0 8.62733V17.6032H7.65915V12.5079L9.33178 15.6002C9.49354 16.1374 9.93574 16.5266 10.4681 16.5266H11.5309C12.0633 16.5266 12.5065 16.1374 12.6692 15.6002L14.3409 12.5079V17.6032H22V8.62728C21.999 7.69297 21.3224 6.93115 20.491 6.93115Z" fill="white"/>
<path d="M3.83079 6.45941C5.42793 6.45941 6.72208 5.16326 6.72208 3.56417C6.72308 1.96312 5.42888 0.666016 3.83079 0.666016C2.22584 0.666016 0.931641 1.96312 0.931641 3.56417C0.931641 5.16226 2.22579 6.45941 3.83079 6.45941Z" fill="white"/>
</g>
</svg>
