<svg width="22" height="22" viewBox="0 0 22 22" fill="none" xmlns="http://www.w3.org/2000/svg">
<g opacity="0.8" clip-path="url(#clip0)">
<path d="M15.0752 12.7763L12.7768 15.0752L4.86063 7.15945L3.12727 6.19781L0 3.06797L3.06797 0L6.19781 3.12684L7.15945 4.86063L15.0752 12.7763Z" fill="white"/>
<path d="M20.7189 16.6961L16.0421 13.6792L13.6816 16.0381L16.6959 20.7165C17.7087 22.2308 19.8524 22.4417 21.1397 21.154L21.1451 21.1486L21.1452 21.1487L21.1538 21.1401C22.4423 19.8535 22.2326 17.7097 20.7189 16.6961Z" fill="white"/>
<path d="M10.6223 14.4841L3.74944 21.3569C2.90253 22.2149 1.48856 22.2142 0.643232 21.3569C-0.208753 20.4928 -0.214854 19.108 0.643232 18.2503L7.51565 11.3774L10.6223 14.4841Z" fill="white"/>
<path d="M20.3996 9.32905C18.8763 10.8523 16.6776 11.2884 14.7677 10.6362L11.3632 7.23174C10.7114 5.32264 11.1475 3.1235 12.6708 1.60026C14.2297 0.0413537 16.4963 -0.378881 18.4368 0.340846L16.5371 2.18034L17.1829 4.75631L19.7366 5.48549L21.6753 3.6069C22.3718 5.53749 21.9464 7.78217 20.3996 9.32905Z" fill="white"/>
</g>
<defs>
<clipPath id="clip0">
<rect width="22" height="22" fill="white"/>
</clipPath>
</defs>
</svg>
