<svg width="22" height="22" viewBox="0 0 22 22" fill="none" xmlns="http://www.w3.org/2000/svg">
<g clip-path="url(#clip0)">
<path d="M21.6507 9.94494L11.4757 0.191613C11.2099 -0.06322 10.7901 -0.06322 10.5243 0.191613L0.339167 9.95502C0.12375 10.1704 0 10.4674 0 10.7709C0 11.4024 0.51425 11.9167 1.14583 11.9167H2.75V20.625C2.75 21.384 3.366 22 4.125 22H8.02083C8.40033 22 8.70833 21.692 8.70833 21.3125V15.3542C8.70833 15.2286 8.811 15.125 8.9375 15.125H13.0625C13.1881 15.125 13.2917 15.2286 13.2917 15.3542V21.3125C13.2917 21.692 13.5997 22 13.9792 22H17.875C18.634 22 19.25 21.384 19.25 20.625V11.9167H20.8542C21.4858 11.9167 22 11.4024 22 10.7709C22 10.4674 21.8762 10.1704 21.6507 9.94494Z" fill="white"/>
</g>
<defs>
<clipPath id="clip0">
<rect width="22" height="22" fill="white"/>
</clipPath>
</defs>
</svg>
