<svg width="22" height="23" viewBox="0 0 22 23" fill="none" xmlns="http://www.w3.org/2000/svg">
<g opacity="0.8" clip-path="url(#clip0)">
<path d="M21.3955 12.4199H13.7709C13.4376 12.4199 13.166 12.6912 13.166 13.024C13.166 13.1935 13.2381 13.3462 13.3506 13.4563L18.7195 18.8189C18.8298 18.9376 18.9891 19.0118 19.1631 19.0118C19.3732 19.0118 19.5577 18.9058 19.666 18.7447C20.986 17.2143 21.8348 15.2707 21.9877 13.132C21.9962 13.096 22.0004 13.06 22.0004 13.0239C22.0004 12.6912 21.7309 12.4199 21.3955 12.4199Z" fill="white"/>
<path d="M11.4679 1.47217C11.1347 1.4742 10.8652 1.74348 10.8652 2.07624V10.5398C10.8652 10.8747 11.1347 11.146 11.4679 11.146H19.9437C20.2769 11.146 20.5484 10.8747 20.5484 10.5398C20.2492 5.66903 16.3466 1.77108 11.4679 1.47217Z" fill="white"/>
<path d="M16.1259 18.325L9.87423 12.0808C9.76816 11.9726 9.70453 11.8221 9.70453 11.6589L9.70229 2.83927C9.70229 2.50651 9.43283 2.2373 9.09961 2.2373C4.02142 2.5468 0 6.76048 0 11.9091C0 17.261 4.34404 21.602 9.70229 21.602C12.147 21.602 14.3794 20.6991 16.0856 19.2089C16.2172 19.0986 16.3 18.9334 16.3 18.749C16.3 18.5857 16.2341 18.4352 16.1259 18.325Z" fill="white"/>
</g>
<defs>
<clipPath id="clip0">
<rect width="22" height="21.9739" fill="white" transform="translate(0 0.550293)"/>
</clipPath>
</defs>
</svg>
