<svg width="22" height="22" viewBox="0 0 22 22" fill="none" xmlns="http://www.w3.org/2000/svg">
<g opacity="0.8">
<path d="M17.1047 3.47676H10.3983V8.76682C10.3983 8.93795 10.2825 9.09285 10.1035 9.16076C10.0412 9.1844 9.97513 9.19596 9.90974 9.19596C9.78765 9.19596 9.66725 9.15574 9.57474 9.07935L8.05259 7.82172L6.53044 9.07935C6.3885 9.19665 6.18065 9.22866 6.00174 9.16076C5.82269 9.09285 5.70696 8.93795 5.70696 8.76682V3.47676H4.45779C4.03294 3.47676 3.68724 3.17301 3.68724 2.79993C3.68724 2.42673 4.03294 2.12309 4.45779 2.12309H18.2508C18.9172 2.12309 19.4597 1.64689 19.4597 1.06149C19.4597 0.476082 18.9173 0 18.2507 0H4.45772C2.69969 0 1.26953 1.25609 1.26953 2.79987V18.8156C1.26953 20.5715 2.89632 22 4.89586 22H17.1047C19.1043 22 20.7311 20.5715 20.7311 18.8156V6.66117C20.7311 4.90541 19.1043 3.47676 17.1047 3.47676Z" fill="white"/>
</g>
</svg>
