<svg width="375" height="240" viewBox="0 0 375 240" fill="none" xmlns="http://www.w3.org/2000/svg">
<g opacity="0.6" filter="url(#filter0_f)">
<ellipse cx="188" cy="196.5" rx="116" ry="124.5" fill="#F0F5FB"/>
</g>
<g clip-path="url(#clip0)">
<path d="M146.684 276.049C98.3368 268.239 87.6798 262.826 82.7494 252.917C75.5911 238.528 80.7949 215.235 93.0526 200.886C103.806 188.299 117.238 185.822 116.844 177.095C116.522 169.913 107.321 168.988 100.565 155.491C98.5942 151.558 94.7657 143.917 96.4306 134.708C98.8677 121.228 111.31 114.142 112.324 113.587C125.345 106.437 132.777 114.657 142.606 108.238C154.904 100.203 149.33 83.3372 160.863 78.439C169.268 74.8678 180.014 80.506 182.821 81.9779C192.183 86.8922 191.202 91.8789 199.108 94.9272C208.398 98.5064 212.838 92.8199 223.64 95.0881C232.567 96.9621 239.034 103.123 244.31 109.332C256.19 123.287 250.286 131.579 259.053 148.808C271.407 173.073 290.083 170.283 293.405 189.763C295.134 199.945 290.686 204.562 294.105 220.174C296.413 230.71 299.317 232.6 299.831 238.809C301.319 256.641 279.933 272.244 275.952 274.987C250.608 292.4 215.621 287.188 146.684 276.049Z" fill="url(#paint0_linear)"/>
<path style="mix-blend-mode:multiply" opacity="0.3" d="M225.224 229.439C192.65 227.107 170.66 256.448 161.957 249.153C153.713 242.236 177.014 218.911 169.043 191.621C161.233 164.854 130.63 159.296 133.051 144.215C135.785 127.156 176.829 122.716 175.864 110.129C175.293 102.705 160.767 101.136 157.863 89.3534C157.075 86.1603 157.341 82.9833 158.161 80.0234C150.182 86.2729 153.81 100.919 142.606 108.238C132.777 114.657 125.345 106.437 112.324 113.587C111.31 114.142 98.8677 121.228 96.4306 134.708C94.7657 143.917 98.5942 151.558 100.565 155.491C107.321 168.988 116.522 169.913 116.844 177.095C117.238 185.822 103.806 188.299 93.0526 200.886C80.7949 215.235 75.5911 238.528 82.7494 252.917C87.6798 262.826 98.3368 268.239 146.684 276.049C215.621 287.188 250.608 292.4 275.952 274.987C285.788 268.223 297.394 256.665 299.888 246.354C294.909 250.745 290.035 252.877 285.491 253.681C264.353 257.397 254.605 231.555 225.224 229.439Z" fill="url(#paint1_linear)"/>
<path d="M242.384 196.412L233.271 193.433L221.391 229.781L230.504 232.76L242.384 196.412Z" fill="#97A6B7"/>
<path d="M250.352 166.06L246 163.108L233.172 193.495C235.48 196.696 238.52 197.694 242.727 198.152L250.352 166.06Z" fill="url(#paint2_linear)"/>
<path d="M241.438 161.226C236.926 156.457 237.529 149.524 237.69 147.746C239.073 131.909 255.988 128.563 260.653 109.148C261.883 104.032 261.53 100.863 262.704 100.686C265.503 100.268 273.184 117.4 271.551 135.295C271.213 138.987 268.728 161.846 255.972 165.264C251.234 166.527 245.122 165.103 241.438 161.226Z" fill="url(#paint3_linear)"/>
<path style="mix-blend-mode:multiply" opacity="0.3" d="M243.828 161.282C243.377 160.462 240.981 156.006 241.31 150.609C242.179 136.437 261.233 128.829 263.622 110.113C264.177 105.737 263.751 101.563 264.169 101.539C264.82 101.506 268.432 111.713 266.381 122.41C263.163 139.236 247.238 150.617 250.825 158.652C251.252 159.601 252.707 162.215 251.646 163.84C250.89 165.006 248.983 165.312 247.576 164.958C246.369 164.652 245.171 163.784 243.828 161.282Z" fill="url(#paint4_linear)"/>
<path d="M252.996 182.733C252.489 180.103 253.712 177.143 256.173 171.328C260.355 161.443 262.446 156.497 266.725 154.333C270.393 152.483 274.382 153.127 282.361 154.413C291.546 155.893 296.139 156.633 297.466 159.585C298.632 162.207 296.678 164.797 282.16 183.191C276.634 190.197 273.803 193.712 270.602 194.355C263.452 195.779 254.371 189.851 252.996 182.733Z" fill="url(#paint5_linear)"/>
<path style="mix-blend-mode:multiply" opacity="0.3" d="M273.554 153.231C268.567 161.29 261.602 173.113 254.637 186.754C255.908 188.773 257.749 190.543 259.865 191.894C267.827 176.097 275.919 162.569 281.147 154.212C278.066 153.722 275.621 153.352 273.554 153.231Z" fill="url(#paint6_linear)"/>
<path style="mix-blend-mode:multiply" opacity="0.3" d="M297.466 159.585C297.048 158.66 296.316 157.953 295.222 157.374C289.712 165.119 278.613 179.436 262.816 193.423C265.374 194.452 268.101 194.854 270.602 194.356C273.803 193.712 276.634 190.197 282.16 183.192C296.678 164.797 298.632 162.207 297.466 159.585Z" fill="url(#paint7_linear)"/>
<path d="M232.599 238.319L227.66 235.061L258.489 189.827L262.293 192.337L232.599 238.319Z" fill="#97A6B7"/>
<path d="M251.532 182.274L250.39 184.993C250.223 185.384 250.199 185.821 250.321 186.228C250.443 186.635 250.703 186.986 251.057 187.221L267.184 198.023C267.531 198.254 267.946 198.36 268.361 198.323C268.776 198.287 269.167 198.11 269.468 197.822L271.64 195.739C271.837 195.549 271.99 195.317 272.087 195.06C272.183 194.803 272.221 194.528 272.197 194.255C272.173 193.982 272.088 193.718 271.948 193.482C271.809 193.246 271.618 193.044 271.39 192.891L254.234 181.462C254.01 181.313 253.755 181.215 253.489 181.176C253.222 181.137 252.95 181.156 252.692 181.234C252.434 181.311 252.197 181.445 251.996 181.625C251.796 181.805 251.637 182.026 251.532 182.274Z" fill="url(#paint8_linear)"/>
<path d="M108.134 280.649C101.579 270.788 105.577 255.418 106.413 252.177C109.703 239.533 117.448 231.707 120.271 228.924C139.671 209.806 169.286 209.991 191.718 210.12C214.15 210.248 226.617 210.337 240.266 218.066C264.877 232.029 281.816 264.483 271.939 280.408C265.794 290.325 253.858 286.408 182.991 288.869C137.049 290.47 116.354 293.019 108.134 280.649Z" fill="white"/>
<path d="M179.934 172.173C179.934 172.173 184.671 206.106 160.711 212.822C157.952 213.603 157.1 217.101 159.191 219.064L188.733 246.836C189.158 247.236 189.658 247.547 190.205 247.75C190.752 247.954 191.333 248.047 191.916 248.023C192.499 247.999 193.071 247.859 193.599 247.611C194.127 247.363 194.6 247.012 194.991 246.579L221.806 216.956C223.568 215.018 222.795 211.922 220.334 211.013C211.728 207.844 196.326 198.643 199.559 173.814L179.934 172.173Z" fill="#FFCBAE"/>
<path d="M162.431 150.77C162.439 151.204 170.104 190.535 189.801 190.535C208.461 190.535 215.547 161.572 217.856 148.051C218.097 145.751 218.346 143.451 218.588 141.15C217.317 141.569 214.172 142.405 210.4 141.384C209.547 141.15 204.134 139.687 202.123 135.223C199.879 130.252 203.997 126.295 201.657 121.944C200.29 119.426 197.555 118.244 195.464 117.641C196.855 119.684 199.558 124.236 198.029 128.378C197 131.161 194.129 133.831 187.718 135.448C169.396 140.097 162.254 141.858 162.431 150.77Z" fill="#FFCBAE"/>
<path d="M167.24 155.467C167.24 155.467 157.098 146.885 156.213 152.137C154.364 163.092 163.05 169.14 167.755 165.859C172.46 162.577 167.24 155.467 167.24 155.467Z" fill="#FFCBAE"/>
<path d="M211.992 155.467C211.992 155.467 222.142 146.885 223.027 152.137C224.869 163.092 216.19 169.14 211.477 165.859C206.764 162.577 211.992 155.467 211.992 155.467Z" fill="#FFCBAE"/>
<path d="M199.27 173.878C199.27 173.878 196.085 171.127 193.133 172.414C192.64 172.632 192.178 172.913 191.758 173.251C191.4 173.536 190.956 173.691 190.499 173.691C190.041 173.691 189.598 173.536 189.24 173.251C188.828 172.914 188.374 172.633 187.889 172.414C184.937 171.127 181.752 173.878 181.752 173.878C181.985 173.87 183.208 175.575 183.489 175.865C185.025 177.433 187.599 178.462 190.511 178.462C193.422 178.462 195.988 177.433 197.524 175.865C197.806 175.575 199.036 173.87 199.27 173.878Z" fill="url(#paint9_linear)"/>
</g>
<defs>
<filter id="filter0_f" x="0" y="0" width="376" height="393" filterUnits="userSpaceOnUse" color-interpolation-filters="sRGB">
<feFlood flood-opacity="0" result="BackgroundImageFix"/>
<feBlend mode="normal" in="SourceGraphic" in2="BackgroundImageFix" result="shape"/>
<feGaussianBlur stdDeviation="36" result="effect1_foregroundBlur"/>
</filter>
<linearGradient id="paint0_linear" x1="262.413" y1="63.5891" x2="204.506" y2="176.99" gradientUnits="userSpaceOnUse">
<stop stop-color="#40447E"/>
<stop offset="1" stop-color="#3C3B6B"/>
</linearGradient>
<linearGradient id="paint1_linear" x1="609364" y1="60845.6" x2="467141" y2="358447" gradientUnits="userSpaceOnUse">
<stop stop-color="#40447E"/>
<stop offset="1" stop-color="#3C3B6B"/>
</linearGradient>
<linearGradient id="paint2_linear" x1="260.157" y1="183.826" x2="223.926" y2="176.366" gradientUnits="userSpaceOnUse">
<stop offset="0.49" stop-color="#EBEFF2"/>
<stop offset="1" stop-color="white"/>
</linearGradient>
<linearGradient id="paint3_linear" x1="259.471" y1="130.196" x2="238.199" y2="189.283" gradientUnits="userSpaceOnUse">
<stop stop-color="#FFC444"/>
<stop offset="0.92" stop-color="#F47555"/>
<stop offset="1" stop-color="#F36F56"/>
</linearGradient>
<linearGradient id="paint4_linear" x1="254.006" y1="130.956" x2="258.005" y2="198.224" gradientUnits="userSpaceOnUse">
<stop stop-color="#FFC444"/>
<stop offset="1" stop-color="#F36F56"/>
</linearGradient>
<linearGradient id="paint5_linear" x1="291.751" y1="153.347" x2="235.304" y2="201.499" gradientUnits="userSpaceOnUse">
<stop stop-color="#E38DDD"/>
<stop offset="1" stop-color="#9571F6"/>
</linearGradient>
<linearGradient id="paint6_linear" x1="87140.3" y1="43660.9" x2="90392.2" y2="43660.9" gradientUnits="userSpaceOnUse">
<stop stop-color="#E38DDD"/>
<stop offset="1" stop-color="#9571F6"/>
</linearGradient>
<linearGradient id="paint7_linear" x1="120473" y1="40739.6" x2="125706" y2="40739.6" gradientUnits="userSpaceOnUse">
<stop stop-color="#E38DDD"/>
<stop offset="1" stop-color="#9571F6"/>
</linearGradient>
<linearGradient id="paint8_linear" x1="61277.5" y1="30106.7" x2="59322.1" y2="40346.2" gradientUnits="userSpaceOnUse">
<stop offset="0.49" stop-color="#EBEFF2"/>
<stop offset="1" stop-color="white"/>
</linearGradient>
<linearGradient id="paint9_linear" x1="185.062" y1="181.506" x2="190.892" y2="173.343" gradientUnits="userSpaceOnUse">
<stop stop-color="#FF9085"/>
<stop offset="1" stop-color="#FB6FBB"/>
</linearGradient>
<clipPath id="clip0">
<rect width="220" height="164" fill="white" transform="translate(80 76)"/>
</clipPath>
</defs>
</svg>
