<svg width="37" height="38" viewBox="0 0 37 38" fill="none" xmlns="http://www.w3.org/2000/svg">
<path d="M29.1135 31.5124C26.6433 29.1694 25.2507 25.9498 25.2536 22.589V20.2306C25.235 17.9743 24.3695 15.8018 22.8207 14.1255C21.2718 12.4492 19.1468 11.3841 16.8488 11.1325V11.0598C16.8488 10.4419 16.3358 9.94141 15.7025 9.94141C15.0692 9.94141 14.5563 10.4419 14.5563 11.0598V11.1325C12.258 11.3841 10.133 12.4494 8.58435 14.1255C7.03571 15.8017 6.17005 17.9742 6.15142 20.2306V22.589C6.15428 25.9497 4.76157 29.1693 2.29156 31.5124C1.96058 31.8297 1.85884 32.312 2.03365 32.7328C2.20989 33.1522 2.62828 33.4276 3.09393 33.4276H28.3116C28.7772 33.4276 29.1957 33.1522 29.3719 32.7328C29.5467 32.312 29.4449 31.8297 29.114 31.5124H29.1135Z" fill="#ADBBD4"/>
<path d="M15.7032 37.819C14.6143 37.8204 13.5683 37.3996 12.7975 36.6475L12.5997 36.4546C12.273 36.1345 12.1756 35.6536 12.3533 35.237C12.531 34.819 12.9479 34.5464 13.4107 34.5464H17.9957C18.4585 34.5464 18.8769 34.819 19.0546 35.2356C19.2323 35.6536 19.1348 36.1345 18.8067 36.4546L18.6104 36.6461H18.6118C17.841 37.3982 16.7936 37.8204 15.7032 37.819H15.7032Z" fill="#ADBBD4"/>
<ellipse cx="27.2642" cy="9.5" rx="9.73684" ry="9.5" fill="#FF2C55"/>
</svg>
