<svg width="37" height="38" viewBox="0 0 37 38" fill="none" xmlns="http://www.w3.org/2000/svg">
<path d="M32.6379 27.2166C30.0289 24.742 28.558 21.3415 28.5611 17.7918V15.301C28.5415 12.9178 27.6274 10.6233 25.9915 8.85283C24.3556 7.08233 22.1112 5.95735 19.684 5.69159V5.61481C19.684 4.96217 19.1423 4.43359 18.4734 4.43359C17.8045 4.43359 17.2627 4.96217 17.2627 5.61481V5.69159C14.8353 5.95736 12.5909 7.08248 10.9552 8.85283C9.31957 10.6232 8.40527 12.9177 8.38559 15.301V17.7918C8.38862 21.3414 6.91764 24.7419 4.30884 27.2166C3.95926 27.5518 3.85181 28.0612 4.03644 28.5057C4.22258 28.9486 4.66448 29.2395 5.1563 29.2395H31.791C32.2828 29.2395 32.7247 28.9486 32.9108 28.5057C33.0954 28.0612 32.988 27.5518 32.6384 27.2166H32.6379Z" fill="#ADBBD4"/>
<path d="M18.4765 33.8774C17.3263 33.8789 16.2216 33.4344 15.4074 32.6401L15.1986 32.4363C14.8535 32.0982 14.7507 31.5903 14.9383 31.1503C15.1259 30.7088 15.5663 30.4209 16.0551 30.4209H20.8978C21.3866 30.4209 21.8285 30.7088 22.0161 31.1488C22.2038 31.5903 22.1009 32.0982 21.7543 32.4363L21.547 32.6386H21.5485C20.7343 33.433 19.6281 33.8789 18.4764 33.8774H18.4765Z" fill="#ADBBD4"/>
</svg>
