<svg width="40" height="40" viewBox="0 0 40 40" fill="none" xmlns="http://www.w3.org/2000/svg">
<rect width="40" height="40" rx="11.4286" fill="#22C2A4"/>
<path d="M27.9915 17.753C29.6715 17.753 31.0224 16.3979 31.0224 14.7262C31.0224 13.0534 29.6704 11.6963 27.9915 11.6963C26.3217 11.6963 24.9688 13.0524 24.9688 14.7262C24.9688 16.3969 26.3217 17.753 27.9915 17.753Z" fill="white"/>
<path d="M30.4225 18.2461H25.5681C24.8475 18.2461 24.2407 18.8027 24.0541 19.5509L21.1719 25.4519C21.1308 25.4488 21.096 25.4283 21.054 25.4283H19.9429C19.9019 25.4283 19.866 25.4498 19.8271 25.4519L16.9448 19.552C16.7592 18.8037 16.1534 18.2461 15.4319 18.2461H10.5744C9.70621 18.2461 9 19.0425 9 20.0194V29.4032H17.0073V24.0763L18.7559 27.3091C18.9251 27.8708 19.3874 28.2777 19.9439 28.2777H21.0551C21.6116 28.2777 22.0749 27.8708 22.2451 27.3091L23.9927 24.0763V29.4032H32V20.0193C31.9989 19.0425 31.2917 18.2461 30.4225 18.2461Z" fill="white"/>
<path d="M13.0075 17.753C14.6772 17.753 16.0302 16.3979 16.0302 14.7262C16.0312 13.0524 14.6782 11.6963 13.0075 11.6963C11.3296 11.6963 9.97656 13.0524 9.97656 14.7262C9.97656 16.3969 11.3295 17.753 13.0075 17.753Z" fill="white"/>
</svg>
