<svg width="90" height="91" viewBox="0 0 90 91" fill="none" xmlns="http://www.w3.org/2000/svg">
<rect width="90" height="90" rx="45" fill="#B9C4E1"/>
<path fill-rule="evenodd" clip-rule="evenodd" d="M62.328 34.9892C62.3786 35.3769 62.4214 35.768 62.4563 36.1622C63.2219 35.5032 64.0276 35.221 64.7198 35.4614C66.2168 35.9813 66.6157 38.7488 65.6107 41.6428C64.7231 44.1989 63.0371 45.9988 61.624 46.0261C60.2453 51.1756 57.4485 55.4692 53.8376 58.1259V61.0487C54.5133 60.8218 55.1231 60.4729 55.5972 59.9286C55.8318 61.1278 56.0231 62.3347 56.1707 63.547C66.0016 65.1381 74.381 68.8383 79.8674 73.7826C75.7133 78.9514 70.4525 83.1225 64.4725 85.9883C58.4926 88.8542 51.9458 90.342 45.3146 90.342C38.6833 90.342 32.1366 88.8542 26.1566 85.9883C20.1766 83.1225 14.9158 78.9514 10.7617 73.7826C16.2585 68.8335 24.6463 65.131 34.4906 63.5424C34.6381 62.3315 34.8301 61.1261 35.0661 59.9286C35.5342 60.4658 36.1343 60.8127 36.7991 61.0398V58.1259C33.183 55.4654 30.3834 51.1635 29.0067 46.0042C27.5937 45.9709 25.9153 44.2114 25.0266 41.6301C24.0199 38.7059 24.424 35.9734 25.9169 35.4666C26.6073 35.2323 27.4134 35.5149 28.1794 36.1723C28.1894 36.0598 28.1999 35.9474 28.2111 35.8354C26.7913 32.8939 25.7059 29.8369 25.7866 26.6119C25.9031 21.9619 29.4436 17.0243 34.0936 17.2161C34.8969 17.323 35.7085 17.3551 36.5178 17.3119C37.7502 17.1389 38.7376 16.3273 39.7199 15.52L39.72 15.5199L39.72 15.5199C40.0204 15.273 40.3204 15.0264 40.6268 14.7986C42.1141 13.7193 43.8498 13.0329 45.673 12.803C47.4963 12.5732 49.348 12.8073 51.0567 13.4838C52.2067 13.9498 53.2618 14.6117 54.3171 15.2738C55.1849 15.8182 56.0527 16.3626 56.9736 16.7983C58.8935 17.6901 60.9984 18.1112 63.1136 18.0266C65.2289 17.9421 67.2934 17.3543 69.1361 16.3121C68.3575 17.7548 67.0936 18.8756 65.5681 19.476C66.9772 19.919 68.4942 19.8755 69.8757 19.3527C69.0403 20.8596 67.7024 22.0254 66.0954 22.6467L69.636 22.8933C68.6198 24.3269 67.202 25.4278 65.5613 26.0572L68.3348 26.1462C67.9807 27.1681 67.3777 28.0857 66.5803 28.8162C65.7828 29.5467 64.816 30.0671 63.767 30.3305H65.5544L62.328 34.9892Z" fill="white"/>
</svg>
