<svg width="46" height="46" viewBox="0 0 46 46" fill="none" xmlns="http://www.w3.org/2000/svg">
<rect width="46" height="46" rx="8" fill="#E1E8FF"/>
<path fill-rule="evenodd" clip-rule="evenodd" d="M28.886 23.1463C28.518 23.1463 28.197 22.8753 28.144 22.5003C28.087 22.0893 28.372 21.7103 28.783 21.6533C29.823 21.5073 30.608 20.6053 30.61 19.5533C30.61 18.5103 29.862 17.6283 28.831 17.4593C28.423 17.3923 28.146 17.0063 28.213 16.5973C28.281 16.1883 28.664 15.9143 29.075 15.9793C30.833 16.2683 32.11 17.7723 32.11 19.5553C32.106 21.3503 30.765 22.8903 28.99 23.1393C28.955 23.1443 28.92 23.1463 28.886 23.1463Z" fill="#4C6FFF"/>
<mask id="mask0" mask-type="alpha" maskUnits="userSpaceOnUse" x="29" y="25" width="5" height="5">
<path fill-rule="evenodd" clip-rule="evenodd" d="M29.9785 25.0015H33.7725V29.531H29.9785V25.0015Z" fill="white"/>
</mask>
<g mask="url(#mask0)">
<path fill-rule="evenodd" clip-rule="evenodd" d="M31.8618 29.531C31.5598 29.531 31.2748 29.347 31.1608 29.048C31.0128 28.661 31.2078 28.227 31.5948 28.08C32.2728 27.822 32.2728 27.537 32.2728 27.4C32.2728 26.962 31.7158 26.656 30.6178 26.492C30.2088 26.43 29.9258 26.049 29.9868 25.638C30.0478 25.228 30.4278 24.955 30.8408 25.008C33.2638 25.371 33.7728 26.509 33.7728 27.4C33.7728 27.944 33.5588 28.937 32.1288 29.482C32.0408 29.515 31.9508 29.531 31.8618 29.531Z" fill="#4C6FFF"/>
</g>
<path fill-rule="evenodd" clip-rule="evenodd" d="M22.8867 26.9141C20.5107 26.9141 17.6777 27.2061 17.6777 28.5961C17.6777 29.9971 20.5107 30.2911 22.8867 30.2911C25.2627 30.2911 28.0947 30.0001 28.0947 28.6131C28.0947 27.2091 25.2627 26.9141 22.8867 26.9141ZM22.8867 31.7911C21.2277 31.7911 16.1777 31.7911 16.1777 28.5961C16.1777 25.4141 21.2277 25.4141 22.8867 25.4141C24.5457 25.4141 29.5947 25.4141 29.5947 28.6131C29.5947 31.7911 24.7217 31.7911 22.8867 31.7911Z" fill="#4C6FFF"/>
<path fill-rule="evenodd" clip-rule="evenodd" d="M22.8864 16.5C21.1944 16.5 19.8184 17.877 19.8184 19.569C19.8154 20.389 20.1294 21.156 20.7044 21.735C21.2794 22.314 22.0454 22.635 22.8614 22.638L22.8864 23.388V22.638C24.5784 22.638 25.9554 21.262 25.9554 19.569C25.9554 17.877 24.5784 16.5 22.8864 16.5ZM22.8864 24.138H22.8594C21.6394 24.134 20.4964 23.656 19.6404 22.792C18.7824 21.929 18.3134 20.783 18.3184 19.566C18.3184 17.05 20.3674 15 22.8864 15C25.4064 15 27.4554 17.05 27.4554 19.569C27.4554 22.088 25.4064 24.138 22.8864 24.138Z" fill="#4C6FFF"/>
<path fill-rule="evenodd" clip-rule="evenodd" d="M16.8851 23.1464C16.8511 23.1464 16.8161 23.1444 16.7811 23.1394C15.0061 22.8904 13.6661 21.3504 13.6621 19.5574C13.6621 17.7724 14.9391 16.2685 16.6971 15.9795C17.1181 15.9135 17.4911 16.1905 17.5591 16.5975C17.6261 17.0065 17.3491 17.3925 16.9411 17.4595C15.9101 17.6285 15.1621 18.5104 15.1621 19.5554C15.1641 20.6054 15.9491 21.5084 16.9881 21.6534C17.3991 21.7104 17.6841 22.0894 17.6271 22.5004C17.5741 22.8754 17.2531 23.1464 16.8851 23.1464Z" fill="#4C6FFF"/>
<path fill-rule="evenodd" clip-rule="evenodd" d="M13.912 29.5313C13.823 29.5313 13.733 29.5153 13.645 29.4823C12.214 28.9363 12 27.9433 12 27.4003C12 26.5103 12.509 25.3713 14.933 25.0083C15.346 24.9563 15.724 25.2283 15.786 25.6383C15.847 26.0493 15.564 26.4303 15.155 26.4923C14.057 26.6563 13.5 26.9623 13.5 27.4003C13.5 27.5373 13.5 27.8213 14.179 28.0803C14.566 28.2273 14.761 28.6613 14.613 29.0483C14.499 29.3473 14.214 29.5313 13.912 29.5313Z" fill="#4C6FFF"/>
</svg>
