<svg width="46" height="46" viewBox="0 0 46 46" fill="none" xmlns="http://www.w3.org/2000/svg">
<rect width="46" height="46" rx="8" fill="#FFEEF1"/>
<path fill-rule="evenodd" clip-rule="evenodd" d="M17.3286 19.3475L17.9316 26.5195C17.9756 27.0715 18.4266 27.4855 18.9776 27.4855H18.9816H29.8926H29.8946C30.4156 27.4855 30.8606 27.0975 30.9346 26.5825L31.8846 20.0235C31.9066 19.8675 31.8676 19.7115 31.7726 19.5855C31.6786 19.4585 31.5406 19.3765 31.3846 19.3545C31.1756 19.3625 22.5026 19.3505 17.3286 19.3475ZM18.9756 28.9855C17.6586 28.9855 16.5436 27.9575 16.4366 26.6425L15.5206 15.7485L14.0136 15.4885C13.6046 15.4165 13.3316 15.0295 13.4016 14.6205C13.4736 14.2115 13.8686 13.9455 14.2686 14.0095L16.3486 14.3695C16.6836 14.4285 16.9386 14.7065 16.9676 15.0465L17.2026 17.8475C31.4786 17.8535 31.5246 17.8605 31.5936 17.8685C32.1506 17.9495 32.6406 18.2405 32.9746 18.6885C33.3086 19.1355 33.4486 19.6865 33.3686 20.2385L32.4196 26.7965C32.2406 28.0445 31.1566 28.9855 29.8966 28.9855H29.8916H18.9836H18.9756Z" fill="#FF92AE"/>
<path fill-rule="evenodd" clip-rule="evenodd" d="M28.2876 23.0439H25.5156C25.1006 23.0439 24.7656 22.7079 24.7656 22.2939C24.7656 21.8799 25.1006 21.5439 25.5156 21.5439H28.2876C28.7016 21.5439 29.0376 21.8799 29.0376 22.2939C29.0376 22.7079 28.7016 23.0439 28.2876 23.0439Z" fill="#FF92AE"/>
<path fill-rule="evenodd" clip-rule="evenodd" d="M18.545 31.7021C18.846 31.7021 19.089 31.9451 19.089 32.2461C19.089 32.5471 18.846 32.7911 18.545 32.7911C18.243 32.7911 18 32.5471 18 32.2461C18 31.9451 18.243 31.7021 18.545 31.7021Z" fill="#FF92AE"/>
<mask id="mask0" mask-type="alpha" maskUnits="userSpaceOnUse" x="18" y="31" width="2" height="2">
<path fill-rule="evenodd" clip-rule="evenodd" d="M18 32.2457C18 32.5477 18.243 32.7917 18.546 32.7917C18.847 32.7917 19.09 32.5477 19.09 32.2457C19.09 31.9447 18.847 31.7017 18.546 31.7017C18.243 31.7017 18 31.9447 18 32.2457Z" fill="white"/>
</mask>
<g mask="url(#mask0)">
<path fill-rule="evenodd" clip-rule="evenodd" d="M13.002 37.7907H24.091V26.7017H13.002V37.7907Z" fill="#FF92AE"/>
</g>
<path fill-rule="evenodd" clip-rule="evenodd" d="M18.544 32.0407C18.431 32.0407 18.339 32.1327 18.339 32.2457C18.339 32.4727 18.75 32.4727 18.75 32.2457C18.75 32.1327 18.657 32.0407 18.544 32.0407ZM18.544 33.5407C17.83 33.5407 17.25 32.9597 17.25 32.2457C17.25 31.5317 17.83 30.9517 18.544 30.9517C19.258 30.9517 19.839 31.5317 19.839 32.2457C19.839 32.9597 19.258 33.5407 18.544 33.5407Z" fill="#FF92AE"/>
<path fill-rule="evenodd" clip-rule="evenodd" d="M29.8262 31.7017C30.1272 31.7017 30.3712 31.9447 30.3712 32.2457C30.3712 32.5467 30.1272 32.7907 29.8262 32.7907C29.5242 32.7907 29.2812 32.5467 29.2812 32.2457C29.2812 31.9447 29.5242 31.7017 29.8262 31.7017Z" fill="#FF92AE"/>
<mask id="mask1" mask-type="alpha" maskUnits="userSpaceOnUse" x="29" y="31" width="2" height="2">
<path fill-rule="evenodd" clip-rule="evenodd" d="M29.2812 32.2457C29.2812 32.5477 29.5243 32.7917 29.8263 32.7917C30.1263 32.7917 30.3713 32.5477 30.3713 32.2457C30.3713 31.9447 30.1263 31.7017 29.8263 31.7017C29.5243 31.7017 29.2812 31.9447 29.2812 32.2457Z" fill="white"/>
</mask>
<g mask="url(#mask1)">
<path fill-rule="evenodd" clip-rule="evenodd" d="M24.2812 37.7907H35.3712V26.7017H24.2812V37.7907Z" fill="#FF92AE"/>
</g>
<path fill-rule="evenodd" clip-rule="evenodd" d="M29.8253 32.0407C29.7133 32.0407 29.6213 32.1327 29.6213 32.2457C29.6223 32.4747 30.0322 32.4727 30.0312 32.2457C30.0312 32.1327 29.9383 32.0407 29.8253 32.0407ZM29.8252 33.5407C29.1112 33.5407 28.5312 32.9597 28.5312 32.2457C28.5312 31.5317 29.1112 30.9517 29.8252 30.9517C30.5402 30.9517 31.1212 31.5317 31.1212 32.2457C31.1212 32.9597 30.5402 33.5407 29.8252 33.5407Z" fill="#FF92AE"/>
</svg>
