<svg width="452" height="452" viewBox="0 0 452 452" fill="none" xmlns="http://www.w3.org/2000/svg">
<rect width="452" height="452" fill="#252730"/>
<rect width="1440" height="900" transform="translate(-67 -86)" fill="#F0F5FB"/>
<rect x="-67" y="-86" width="586" height="900" fill="#874CFA"/>
<g filter="url(#filter0_d)">
<path d="M189.955 -44.147C194.512 -39.1866 197.559 -5.89268 194.543 -5.75959C191.526 -5.62651 189.087 -7.05395 186.823 -9.0525L185.386 -9.19315L183.27 -26.8945L180.207 -18.9906L179.815 -17.9841L171.963 -22.0001C171.963 -22.0001 175.317 -34.51 178.991 -40.1338C180.958 -43.1457 187.521 -46.7963 189.955 -44.147Z" fill="#A475FF"/>
</g>
<g opacity="0.6" filter="url(#filter1_f)">
<circle cx="226" cy="226" r="154" fill="#F0F5FB"/>
</g>
<g clip-path="url(#clip0)">
<path d="M171.15 342.892C106.965 332.524 92.8171 325.338 86.2715 312.183C76.7683 293.08 83.6768 262.157 99.9499 243.108C114.226 226.397 132.058 223.108 131.535 211.523C131.108 201.987 118.892 200.759 109.923 182.842C107.307 177.621 102.224 167.477 104.435 155.25C107.67 137.354 124.189 127.947 125.534 127.21C142.821 117.718 152.688 128.631 165.736 120.11C182.062 109.443 174.663 87.0511 189.975 80.5483C201.133 75.8073 215.399 83.2925 219.125 85.2465C231.554 91.7707 230.252 98.391 240.748 102.438C253.081 107.19 258.975 99.6403 273.315 102.651C285.168 105.139 293.753 113.319 300.757 121.562C316.529 140.088 308.691 151.097 320.33 173.969C336.731 206.184 361.525 202.479 365.935 228.34C368.231 241.858 362.326 247.988 366.864 268.713C369.928 282.701 373.783 285.21 374.466 293.454C376.442 317.127 348.05 337.842 342.764 341.483C309.118 364.6 262.669 357.681 171.15 342.892Z" fill="url(#paint0_linear)"/>
<path style="mix-blend-mode:multiply" opacity="0.3" d="M275.419 281.014C232.174 277.918 202.98 316.87 191.427 307.186C180.482 298.003 211.416 267.037 200.834 230.807C190.466 195.271 149.837 187.893 153.051 167.872C156.681 145.224 211.17 139.33 209.889 122.619C209.131 112.763 189.847 110.681 185.992 95.0382C184.945 90.7991 185.298 86.5813 186.387 82.6519C175.795 90.9485 180.61 110.393 165.736 120.11C152.688 128.631 142.821 117.718 125.534 127.21C124.189 127.947 107.67 137.354 104.435 155.251C102.224 167.477 107.307 177.621 109.923 182.842C118.892 200.759 131.108 201.987 131.535 211.523C132.058 223.108 114.226 226.397 99.9499 243.108C83.6768 262.157 76.7683 293.08 86.2715 312.183C92.8171 325.338 106.965 332.524 171.15 342.892C262.67 357.681 309.118 364.6 342.764 341.483C355.823 332.503 371.231 317.159 374.541 303.47C367.932 309.3 361.461 312.129 355.428 313.197C327.367 318.13 314.425 283.822 275.419 281.014Z" fill="url(#paint1_linear)"/>
<path d="M298.2 237.167L286.102 233.212L270.329 281.468L282.427 285.422L298.2 237.167Z" fill="#97A6B7"/>
<path d="M308.777 196.873L303.001 192.954L285.97 233.295C289.034 237.545 293.07 238.869 298.655 239.477L308.777 196.873Z" fill="url(#paint2_linear)"/>
<path d="M296.946 190.455C290.955 184.123 291.756 174.919 291.97 172.559C293.806 151.535 316.262 147.093 322.455 121.316C324.089 114.525 323.619 110.318 325.178 110.083C328.894 109.528 339.091 132.272 336.923 156.03C336.475 160.931 333.175 191.278 316.24 195.816C309.951 197.492 301.836 195.602 296.946 190.455Z" fill="url(#paint3_linear)"/>
<path style="mix-blend-mode:multiply" opacity="0.3" d="M300.117 190.53C299.519 189.441 296.337 183.525 296.775 176.36C297.928 157.546 323.224 147.445 326.395 122.598C327.132 116.789 326.566 111.247 327.121 111.215C327.986 111.172 332.78 124.722 330.058 138.924C325.786 161.262 304.644 176.371 309.407 187.038C309.972 188.298 311.905 191.769 310.496 193.926C309.492 195.474 306.961 195.88 305.093 195.41C303.491 195.004 301.9 193.851 300.117 190.53Z" fill="url(#paint4_linear)"/>
<path d="M312.289 219.008C311.616 215.516 313.239 211.587 316.506 203.867C322.059 190.744 324.835 184.177 330.516 181.304C335.385 178.849 340.681 179.703 351.273 181.411C363.467 183.376 369.565 184.358 371.326 188.277C372.875 191.758 370.28 195.196 351.006 219.617C343.671 228.917 339.912 233.583 335.662 234.437C326.17 236.327 314.115 228.458 312.289 219.008Z" fill="url(#paint5_linear)"/>
<path style="mix-blend-mode:multiply" opacity="0.3" d="M339.581 179.842C332.961 190.541 323.714 206.237 314.467 224.347C316.154 227.027 318.599 229.376 321.407 231.17C331.978 210.199 342.72 192.239 349.661 181.144C345.571 180.493 342.325 180.002 339.581 179.842Z" fill="url(#paint6_linear)"/>
<path style="mix-blend-mode:multiply" opacity="0.3" d="M371.328 188.277C370.773 187.049 369.801 186.11 368.349 185.341C361.035 195.624 346.299 214.63 325.328 233.199C328.724 234.566 332.343 235.1 335.664 234.438C339.914 233.583 343.673 228.917 351.008 219.617C370.282 195.196 372.876 191.758 371.328 188.277Z" fill="url(#paint7_linear)"/>
<path d="M285.21 292.802L278.654 288.478L319.582 228.426L324.633 231.757L285.21 292.802Z" fill="#97A6B7"/>
<path d="M310.346 218.399L308.83 222.008C308.609 222.527 308.576 223.107 308.738 223.647C308.9 224.188 309.246 224.654 309.716 224.966L331.125 239.306C331.586 239.613 332.137 239.754 332.689 239.705C333.24 239.657 333.758 239.422 334.158 239.039L337.041 236.274C337.304 236.022 337.507 235.714 337.635 235.373C337.763 235.032 337.813 234.667 337.781 234.305C337.749 233.942 337.636 233.591 337.451 233.278C337.266 232.964 337.012 232.696 336.71 232.494L313.934 217.321C313.636 217.123 313.298 216.993 312.944 216.941C312.591 216.888 312.23 216.915 311.887 217.018C311.545 217.121 311.229 217.298 310.963 217.536C310.696 217.775 310.486 218.07 310.346 218.399Z" fill="url(#paint8_linear)"/>
<path d="M119.971 349C111.269 335.909 116.576 315.503 117.686 311.2C122.053 294.415 132.336 284.025 136.084 280.331C161.839 254.949 201.155 255.195 230.935 255.366C260.716 255.537 277.266 255.654 295.387 265.916C328.061 284.452 350.548 327.537 337.436 348.679C329.278 361.845 313.432 356.645 219.35 359.913C158.358 362.037 130.884 365.422 119.971 349Z" fill="white"/>
<path d="M215.292 204.988C215.292 204.988 221.581 250.038 189.772 258.954C186.109 259.989 184.977 264.634 187.754 267.24L226.973 304.11C227.537 304.64 228.202 305.053 228.927 305.323C229.653 305.594 230.425 305.717 231.199 305.685C231.972 305.653 232.732 305.467 233.433 305.138C234.134 304.809 234.762 304.343 235.281 303.768L270.881 264.442C273.219 261.869 272.194 257.758 268.926 256.551C257.501 252.344 237.053 240.129 241.346 207.166L215.292 204.988Z" fill="#FFCBAE"/>
<path d="M192.056 176.574C192.067 177.151 202.243 229.366 228.393 229.366C253.165 229.366 262.572 190.915 265.637 172.965C265.957 169.911 266.288 166.857 266.609 163.804C264.922 164.359 260.747 165.469 255.739 164.113C254.607 163.804 247.421 161.86 244.751 155.934C241.772 149.335 247.239 144.082 244.132 138.305C242.317 134.963 238.686 133.393 235.91 132.592C237.757 135.304 241.345 141.348 239.316 146.847C237.949 150.542 234.137 154.087 225.627 156.233C201.303 162.405 191.821 164.743 192.056 176.574Z" fill="#FFCBAE"/>
<path d="M198.442 182.81C198.442 182.81 184.977 171.417 183.803 178.39C181.347 192.933 192.879 200.962 199.125 196.606C205.372 192.249 198.442 182.81 198.442 182.81Z" fill="#FFCBAE"/>
<path d="M257.852 182.81C257.852 182.81 271.328 171.417 272.502 178.39C274.948 192.933 263.426 200.962 257.169 196.606C250.912 192.249 257.852 182.81 257.852 182.81Z" fill="#FFCBAE"/>
<path d="M240.961 207.251C240.961 207.251 236.733 203.6 232.814 205.308C232.16 205.597 231.546 205.97 230.988 206.419C230.514 206.797 229.924 207.003 229.317 207.003C228.71 207.003 228.121 206.797 227.646 206.419C227.099 205.972 226.496 205.599 225.852 205.308C221.933 203.6 217.705 207.251 217.705 207.251C218.015 207.241 219.638 209.505 220.011 209.889C222.051 211.971 225.468 213.338 229.333 213.338C233.199 213.338 236.605 211.971 238.644 209.889C239.018 209.505 240.652 207.241 240.961 207.251Z" fill="url(#paint9_linear)"/>
<path d="M180.611 244.261C180.611 244.261 181.913 242.691 184.369 242.627C186.825 242.563 190.157 241.09 191.588 240.962C191.94 240.94 192.111 240.834 192.143 240.705C192.175 240.577 190.605 240.065 189.196 240.022C186.686 239.937 185.224 240.898 184.893 240.406C184.562 239.915 186.131 238.346 185.832 238.004C185.533 237.662 184.508 238.591 183.323 239.104C182.49 239.467 179.223 243.375 179.223 243.375L180.611 244.261Z" fill="#FFCBAE"/>
<path d="M143.259 241.656C143.131 239.872 142.747 234.459 145.598 232.846C148.449 231.234 153.232 234.491 155.144 235.836C163.238 241.56 163.43 248.5 167.904 249.258C169.9 249.6 173.093 248.746 177.898 242.456L180.61 244.261C180.461 251.308 176.809 257.64 171.032 260.438C161.23 265.168 151.471 256.775 150.296 255.74C149.655 255.163 143.836 249.846 143.259 241.656Z" fill="url(#paint10_linear)"/>
<path d="M140.377 366.469C139.918 366.843 139.832 367.761 139.779 368.37C139.758 368.637 139.747 368.765 139.779 368.861C139.993 369.555 141.338 369.63 143.452 369.843C146.794 370.185 147.787 370.452 148.044 369.95C148.3 369.448 147.702 368.722 147.627 368.647C147.275 368.188 146.837 368.028 145.983 367.75C144.403 367.227 143.345 366.95 143.025 366.864C141.007 366.32 140.676 366.224 140.377 366.469Z" fill="url(#paint11_linear)"/>
<path d="M142.363 363.415L142.694 367.227C142.598 367.409 141.466 367.953 140.569 367.483L139.715 363.746L142.363 363.415Z" fill="url(#paint12_linear)"/>
<path d="M169.549 364.782C169.004 365.39 168.887 366.501 169.357 367.045C169.826 367.59 170.52 367.173 172.507 367.238C174.493 367.302 175.197 367.803 176.639 367.408C177.226 367.238 178.262 366.853 178.24 366.437C178.219 366.02 177.696 365.988 175.945 365.401C173.457 364.568 173.468 364.525 172.934 364.429C171.61 364.216 170.275 363.992 169.549 364.782Z" fill="url(#paint13_linear)"/>
<path d="M170.914 361.312L171.982 364.867C171.896 365.059 170.818 365.689 169.889 365.294L168.298 361.845L170.914 361.312Z" fill="url(#paint14_linear)"/>
<path d="M161.434 283.545C161.767 310.138 165.294 336.596 171.941 362.347L167.851 363.447C164.402 360.222 160.046 355.151 157.942 347.986C156.629 343.544 157.067 341.248 156.244 335.781C154.92 327.068 152.251 322.508 149.496 315.482C147.008 309.172 144.082 299.903 142.502 287.517L161.434 283.545Z" fill="url(#paint15_linear)"/>
<path style="mix-blend-mode:multiply" opacity="0.3" d="M161.434 283.545C157.707 286.385 153.084 290.859 153.233 296.241C153.34 300.245 155.977 300.982 157.931 306.812C160.323 313.955 157.408 315.952 159.106 325.007C160.366 331.745 161.914 330.293 163.804 338.504C165.47 345.818 164.733 349.096 167.317 354.948C168.508 357.617 170.064 360.107 171.941 362.347L167.851 363.447C164.402 360.222 160.046 355.151 157.942 347.986C156.629 343.544 157.067 341.248 156.244 335.781C154.92 327.068 152.251 322.508 149.496 315.482C147.008 309.172 144.082 299.903 142.502 287.517L161.434 283.545Z" fill="url(#paint16_linear)"/>
<path d="M146.43 283.598C145.597 298.782 144.917 314.24 144.391 329.972C143.999 341.782 143.711 353.438 143.526 364.942L139.351 365.455C137.439 361.905 135.976 358.132 134.994 354.221C133.51 348.263 133.851 344.729 133.2 338.557C132.474 331.627 131.406 330.122 129.527 321.387C125.715 303.662 123.804 294.799 128.064 289.279C129.442 287.496 133.777 283 146.43 283.598Z" fill="url(#paint17_linear)"/>
<path d="M152.229 241.965C153.788 240.962 152.368 238.014 152.282 231.683C152.186 223.93 154.236 222.489 152.581 219.446C150.563 215.73 145.47 214.192 142.106 214.118C141.359 214.107 141.188 213.69 134.952 215.313C123.73 218.218 120.911 215.1 115.892 218.218C111.034 221.218 113.159 224.518 108.439 228.041C100.794 233.765 92.7532 227.582 87.2862 232.366C82.1181 236.883 82.0007 248.415 87.4357 254.704C93.5968 261.837 104.712 259.69 112.166 258.281C113.735 257.982 121.647 256.316 129.891 250.241C133.564 247.522 136.822 244.285 139.565 240.631C140.035 240.107 140.772 239.467 141.733 239.36C142.886 239.242 143.815 239.947 144.263 240.257C146.612 241.88 150.691 242.969 152.229 241.965Z" fill="url(#paint18_linear)"/>
<path d="M146.559 233.594C146.559 233.594 133.521 229.793 127.777 236.296C126.88 237.299 125.972 238.794 125.278 242.083C122.844 253.626 129.325 257.737 128.439 268.212C128.343 269.418 127.211 280.94 118.839 288.019C114.867 291.383 110.329 292.824 110.447 295.814C110.521 297.96 112.977 299.925 115.241 300.608C119.587 301.943 122.117 298.281 127.841 297.01C133.82 295.686 135.208 298.772 144.637 300.01C147.776 300.427 162.106 302.317 165.64 296.412C167.146 293.903 165.288 292.322 162.64 282.018C162.373 280.972 157.781 262.862 159.17 254.971C159.298 254.288 159.693 251.511 159.575 247.828C159.542 246.771 159.406 245.719 159.17 244.688C159.17 244.688 158.059 239.552 154.066 235.132C153.489 234.502 152.806 233.84 146.559 233.594Z" fill="url(#paint19_linear)"/>
<g style="mix-blend-mode:multiply" opacity="0.3">
<path style="mix-blend-mode:multiply" opacity="0.3" d="M127.777 236.295C126.463 236.274 125.428 241.357 125.278 242.083C122.844 253.626 129.325 257.737 128.439 268.212C128.343 269.418 127.211 280.94 118.839 288.019C114.867 291.382 110.329 292.824 110.447 295.814C110.521 297.96 112.977 299.925 115.241 300.608C119.587 301.943 122.117 298.28 127.841 297.01C133.82 295.686 135.208 298.772 144.637 300.01C147.776 300.427 162.106 302.317 165.64 296.412C166.003 295.803 166.142 295.536 166.11 295.28C165.715 292.408 152.453 295.013 149.122 289.781C145.79 284.549 154.29 275.505 151.471 272.76C149.271 270.625 143.655 275.75 139.149 273.348C136.319 271.842 135.849 268.404 134.45 261.025C131.994 248.062 129.773 236.317 127.777 236.295Z" fill="url(#paint20_linear)"/>
</g>
<path d="M142.374 225.137C142.545 225.959 143.442 230.391 141.637 231.523C141.242 231.768 140.484 231.918 138.979 232.195C137.996 232.387 137.163 232.494 136.576 232.569C136.662 233.306 136.907 234.512 137.772 235.612C140.175 238.698 144.99 237.897 145.674 237.78C148.098 237.331 150.479 236.584 151.055 236.125C151.931 235.431 152.625 234.907 153.031 234.373C152.091 233.925 150.201 232.729 148.93 232.345C148.062 232.075 147.177 231.857 146.282 231.693C146.144 230.839 146.015 229.974 145.877 229.12L142.374 225.137Z" fill="#FFCBAE"/>
<path d="M142.29 227.337C142.29 227.337 142.61 230.583 145.771 231.159C148.59 231.672 150.714 224.849 149.273 223.076C148.792 222.489 147.596 221.934 146.571 221.955C145.845 221.977 143.389 222.916 143.048 225.372C142.567 224.849 141.959 224.71 141.66 224.924C141.361 225.137 141.478 225.991 141.521 226.162C141.643 226.627 141.912 227.039 142.29 227.337Z" fill="#FFCBAE"/>
<path d="M147.306 280.011L156.105 258.228C156.244 257.879 156.31 257.505 156.299 257.13C156.288 256.755 156.199 256.386 156.039 256.046C155.878 255.706 155.65 255.403 155.367 255.156C155.085 254.909 154.754 254.722 154.396 254.608L136.991 249.045C136.505 248.934 135.995 249.001 135.554 249.234C135.113 249.467 134.771 249.851 134.589 250.316L125.598 273.284C125.491 273.553 125.442 273.842 125.454 274.132C125.465 274.422 125.537 274.706 125.665 274.966C125.792 275.227 125.973 275.457 126.195 275.644C126.417 275.83 126.676 275.968 126.954 276.049L144.797 281.228C145.292 281.367 145.82 281.319 146.282 281.095C146.745 280.871 147.109 280.485 147.306 280.011Z" fill="#26264F"/>
<path d="M146.186 267.475C146.186 267.475 147.947 266.3 147.947 265.136C147.947 263.972 149.122 262.2 149.709 262.2C150.297 262.2 150.297 262.787 149.709 263.962C149.122 265.136 152.058 264.549 153.233 263.374C154.407 262.2 155.582 262.2 154.995 262.787C154.066 263.716 153.82 264.549 153.82 264.549C153.82 264.549 152.646 269.236 147.51 268.948L146.186 267.475Z" fill="#FFCBAE"/>
<path d="M133.863 234.021C130.105 232.345 123.826 239.253 122.705 240.481C116.789 246.984 108.397 261.73 115.081 270.411C120.655 277.661 135.614 279.252 147.947 269.824L146.186 266.3C144.904 266.77 136.49 269.685 130.34 265.136C129.037 264.165 128.46 262.509 128.247 260.256C127.852 256.081 132.785 254.96 135.625 248.692C138.134 243.151 137.099 235.463 133.863 234.021Z" fill="url(#paint21_linear)"/>
<path d="M276.7 334.563L316.699 332.833L362.785 334.446L317.319 344.387L276.7 334.563Z" fill="url(#paint22_linear)"/>
<path d="M308.926 373.11L276.53 364.397C273.262 363.511 270.731 360.286 270.731 357.147V357.115C270.731 353.976 273.262 351.872 276.53 352.449L311.275 358.14L308.926 373.11Z" fill="url(#paint23_linear)"/>
<path d="M362.851 366.565L310.497 372.416C307.208 372.779 304.518 370.494 304.518 367.302V365.134C304.518 361.941 307.208 359.144 310.497 358.877L362.851 354.712C360.534 359.026 359.989 363.063 362.851 366.565Z" fill="url(#paint24_linear)"/>
<path d="M363.298 367.141L310.934 373.078C306.652 373.569 303.107 370.569 303.107 366.394V366.351C303.107 362.176 306.652 358.503 310.934 358.172L363.298 354.082C363.619 354.061 363.875 354.317 363.875 354.67C363.875 355.022 363.619 355.321 363.298 355.342L310.934 359.613C307.485 359.891 304.645 362.849 304.645 366.202V366.244C304.645 369.608 307.485 372.021 310.934 371.637L363.298 365.881C363.619 365.849 363.875 366.105 363.875 366.447C363.88 366.613 363.824 366.775 363.718 366.903C363.611 367.031 363.462 367.115 363.298 367.141Z" fill="#22C2A4"/>
<path d="M310.293 358.172L276.53 352.448C273.262 351.872 270.731 347.601 270.731 342.892V342.838C270.731 338.129 273.262 334.392 276.53 334.51L312.343 335.844L310.293 358.172Z" fill="url(#paint25_linear)"/>
<path d="M362.851 353.164L313.423 356.901C308.554 357.264 304.518 353.687 304.518 348.893V345.636C304.518 340.842 308.554 336.848 313.423 336.72L362.851 335.375C360.523 341.835 360 347.878 362.851 353.164Z" fill="url(#paint26_linear)"/>
<path d="M363.298 354.082L310.934 358.172C306.652 358.503 303.107 353.676 303.107 347.409V347.334C303.107 341.066 306.652 335.876 310.934 335.77L363.298 334.467C363.619 334.456 363.875 334.873 363.875 335.396C363.875 335.919 363.619 336.357 363.298 336.368L310.934 337.937C307.485 338.033 304.645 342.219 304.645 347.259V347.323C304.645 352.363 307.485 356.25 310.934 356.004L363.298 352.181C363.619 352.16 363.875 352.566 363.875 353.089C363.875 353.612 363.619 354.061 363.298 354.082Z" fill="url(#paint27_linear)"/>
<g style="mix-blend-mode:soft-light" opacity="0.5">
<path d="M299.818 353.452L292.599 352.192C290.923 347.59 291.04 343.362 292.599 338.311L299.818 338.834C298.344 344.141 298.568 348.957 299.818 353.452Z" fill="white"/>
</g>
<path d="M271.393 303.138C271.361 304.687 271.425 309.93 274.917 312.77C280.202 317.052 290.955 311.926 295.952 305.007C300.949 298.088 300.704 288.841 298.749 288.136C296.037 287.143 291.414 303.384 280.373 304.954C276.625 305.498 273.347 304.153 271.393 303.138Z" fill="url(#paint28_linear)"/>
<path d="M272.472 292.247L284.741 295.6C284.804 295.617 284.859 295.655 284.898 295.707C284.937 295.759 284.957 295.823 284.955 295.888L285.371 313.336C285.382 313.582 284.944 314.126 284.709 314.062L273.017 310.239C272.958 310.222 272.906 310.187 272.868 310.139C272.83 310.092 272.807 310.033 272.803 309.972L271.714 292.845C271.703 292.589 272.227 292.172 272.472 292.247Z" fill="url(#paint29_linear)"/>
<path d="M272.142 292.61L284.421 295.952C284.484 295.97 284.54 296.008 284.58 296.06C284.62 296.112 284.643 296.175 284.645 296.241L285.062 313.71C285.061 313.769 285.048 313.827 285.022 313.881C284.996 313.935 284.959 313.982 284.914 314.019C284.868 314.057 284.814 314.084 284.757 314.099C284.699 314.114 284.639 314.116 284.581 314.105L272.686 310.624C272.626 310.61 272.572 310.575 272.533 310.527C272.495 310.479 272.473 310.419 272.473 310.357L271.64 293.005C271.64 292.944 271.653 292.883 271.68 292.828C271.707 292.772 271.746 292.724 271.794 292.686C271.843 292.648 271.899 292.621 271.959 292.608C272.019 292.595 272.082 292.596 272.142 292.61Z" fill="url(#paint30_linear)"/>
<path d="M275.43 294.041L275.388 292.599C275.387 292.567 275.394 292.535 275.407 292.506C275.42 292.477 275.44 292.451 275.465 292.431C275.489 292.41 275.518 292.396 275.549 292.388C275.58 292.38 275.613 292.379 275.644 292.386L280.182 293.443C280.22 293.452 280.253 293.475 280.276 293.506C280.299 293.537 280.311 293.575 280.31 293.614L280.289 295.162C280.29 295.193 280.283 295.223 280.271 295.251C280.258 295.279 280.239 295.303 280.215 295.323C280.192 295.342 280.164 295.356 280.134 295.364C280.104 295.371 280.073 295.371 280.043 295.365L275.559 294.19C275.524 294.183 275.492 294.165 275.469 294.138C275.446 294.11 275.432 294.076 275.43 294.041Z" fill="url(#paint31_linear)"/>
<g style="mix-blend-mode:soft-light" opacity="0.3">
<path d="M278.836 308.851C278.9 306.011 280.78 304.516 280.107 302.178C279.157 298.835 274.576 299.209 274.063 296.518C273.914 295.792 274.063 294.788 275.046 293.4L272.141 292.61C272.082 292.596 272.019 292.595 271.959 292.608C271.899 292.621 271.843 292.648 271.794 292.686C271.746 292.724 271.707 292.772 271.68 292.828C271.653 292.883 271.64 292.944 271.64 293.005L272.473 310.357C272.473 310.419 272.495 310.479 272.533 310.527C272.572 310.575 272.626 310.609 272.686 310.624L280.022 312.77C279.082 311.339 278.804 310.004 278.836 308.851Z" fill="white"/>
</g>
<path d="M271.127 304.356C271.138 304.142 270.689 301.9 272.547 301.377C274.405 300.853 273.049 303 272.899 303.811C272.75 304.623 272.43 306.438 271.704 305.808C271.492 305.635 271.329 305.41 271.228 305.156C271.127 304.902 271.092 304.627 271.127 304.356Z" fill="#FFCBAE"/>
<path d="M298.281 292.61C297.01 291.788 298.163 289.375 298.238 284.207C298.323 277.875 296.636 276.69 297.992 274.212C299.647 271.169 303.801 269.909 306.556 269.856C307.165 269.834 307.303 269.503 312.397 270.827C321.569 273.198 323.875 270.657 327.976 273.198C332.076 275.739 330.207 278.345 334.062 281.228C340.309 285.905 346.886 280.854 351.349 284.762C355.567 288.457 355.663 297.874 351.221 303.021C346.192 308.841 337.105 307.089 331.019 305.936C329.737 305.691 323.277 304.334 316.54 299.369C313.538 297.148 310.873 294.505 308.627 291.521C308.243 291.083 307.645 290.571 306.866 290.485C305.915 290.379 305.157 290.955 304.794 291.211C302.872 292.546 299.53 293.422 298.281 292.61Z" fill="url(#paint32_linear)"/>
<path d="M265.628 370.687L270.198 367.942H272.259C272.259 367.942 272.964 370.558 272.889 370.687C271.971 372.192 267.689 373.335 265.02 373.431C264.571 373.452 263.952 373.452 263.792 373.132C263.525 372.587 264.731 371.445 265.628 370.687Z" fill="url(#paint33_linear)"/>
<path d="M270.285 364.942C270.573 366.64 270.199 367.526 269.804 368.028C269.409 368.53 269.27 368.476 267.594 369.918C267.049 370.398 266.761 370.655 266.825 370.793C266.889 370.932 267.391 370.857 268.438 370.612C270.744 370.057 271.897 369.768 272.175 369.213C272.452 368.658 272.207 368.487 272.218 367.12C272.225 366.416 272.34 365.718 272.559 365.049L270.285 364.942Z" fill="url(#paint34_linear)"/>
<path d="M266.975 351.466C266.975 351.466 264.914 353.933 265.245 356.634C265.576 359.336 269.206 355.385 269.708 354.05C270.21 352.716 270.797 350.815 270.797 350.815C270.797 350.815 268.267 349.235 266.975 351.466Z" fill="url(#paint35_linear)"/>
<path d="M267.763 347.612C267.763 347.612 268.329 350.484 267.251 352C266.728 352.758 266.001 353.388 266.215 354.008C266.354 354.424 266.898 354.713 267.347 354.67C268.222 354.574 268.703 353.239 269.045 352.299C269.547 350.911 269.824 347.932 269.824 347.932L267.763 347.612Z" fill="url(#paint36_linear)"/>
<path d="M269.408 350.036L267.507 349.342C266.514 347.078 265.308 343.362 265.713 338.845C266.749 327.228 277.491 321.067 278.687 320.416C281.613 321.878 284.581 323.95 284.688 326.566C284.816 329.844 280.353 331.574 276.156 336.368C273.636 339.251 270.946 343.533 269.408 350.036Z" fill="url(#paint37_linear)"/>
<path d="M270.092 366.276C267.999 358.076 268.533 351.392 269.142 347.537C270.049 341.707 271.918 329.865 279.82 325.444C281.549 324.483 284.016 323.619 287.027 320.938C289.039 319.135 290.751 317.023 292.099 314.681C302.681 311.585 312.44 312.834 316.744 318.515C317.235 319.166 318.484 320.586 318.73 322.679C319.264 327.409 314.619 333.111 309.408 334.296C302.777 335.813 298.933 329 293.06 331.264C291.416 331.905 290.028 333.474 287.241 336.613C284.767 339.387 282.654 342.461 280.951 345.764C278.709 350.153 277.001 353.399 276.755 357.595C276.702 358.578 276.659 360.553 275.516 362.678C274.789 364.015 273.78 365.177 272.559 366.084L270.092 366.276Z" fill="url(#paint38_linear)"/>
<path style="mix-blend-mode:multiply" opacity="0.3" d="M318.729 322.679C318.483 320.586 317.234 319.166 316.743 318.515C312.439 312.834 302.68 311.585 292.098 314.681C290.75 317.023 289.038 319.135 287.026 320.938C284.015 323.619 281.548 324.484 279.819 325.445C274.992 328.146 272.419 333.613 270.935 338.781C273.134 335.375 275.014 334.478 276.476 334.457C278.559 334.435 279.488 336.219 281.976 335.973C284.634 335.717 285.243 333.517 287.4 333.261C288.041 333.186 288.831 333.282 289.792 333.795C291.062 332.46 292.013 331.67 293.059 331.264C298.932 329 302.776 335.813 309.407 334.296C314.618 333.111 319.263 327.409 318.729 322.679Z" fill="url(#paint39_linear)"/>
<path d="M275.579 329.118C277.335 329.021 279.094 329.061 280.844 329.235C291.393 330.271 294.298 335.492 303.021 336.774C305.093 337.073 314.276 338.407 318.259 333.101C321.11 329.289 320.683 322.722 317.554 320.138C316.23 319.038 314.927 319.07 306.449 319.145C303.267 319.177 300.074 319.188 296.882 319.23C283.385 319.401 280.801 318.461 278.345 320.693C277.202 321.74 275.526 323.982 275.579 329.118Z" fill="url(#paint40_linear)"/>
<path d="M304.079 285.798C304.079 285.798 319.829 281.206 321.463 292.738C323.032 303.79 315.002 308.862 318.654 320.063C319.081 321.355 288.671 315.407 288.671 315.407C292.728 310.346 293.668 306.171 293.764 303.267C293.871 300.074 292.953 298.633 293.764 294.863C293.764 294.863 294.672 290.667 297.939 287.058C298.409 286.535 298.975 286.001 304.079 285.798Z" fill="url(#paint41_linear)"/>
<g style="mix-blend-mode:soft-light">
<g style="mix-blend-mode:soft-light">
<path d="M314.191 317.692H314.148C313.999 317.65 299.285 313.731 290.593 313.251C290.546 313.245 290.502 313.223 290.47 313.187C290.439 313.152 290.422 313.106 290.422 313.058C290.423 313.035 290.429 313.011 290.44 312.99C290.45 312.968 290.465 312.949 290.483 312.933C290.5 312.917 290.521 312.905 290.544 312.897C290.566 312.889 290.59 312.886 290.614 312.888C299.349 313.379 314.095 317.297 314.244 317.34C314.284 317.354 314.318 317.382 314.339 317.418C314.361 317.454 314.369 317.497 314.363 317.538C314.357 317.58 314.336 317.618 314.305 317.646C314.273 317.674 314.233 317.691 314.191 317.692Z" fill="#F4F7FA"/>
</g>
</g>
<path d="M307.495 278.89C307.357 279.562 306.62 283.171 308.104 284.111C308.424 284.314 309.033 284.421 310.272 284.656C311.072 284.805 311.756 284.901 312.236 284.955C312.162 285.563 311.959 286.556 311.254 287.453C309.3 289.973 305.36 289.311 304.794 289.215C302.819 288.852 300.875 288.243 300.405 287.87C299.69 287.304 299.124 286.877 298.793 286.439C299.551 286.065 301.099 285.093 302.135 284.773C302.848 284.559 303.572 284.38 304.303 284.239C304.409 283.545 304.527 282.84 304.634 282.146L307.495 278.89Z" fill="#FFCBAE"/>
<path d="M307.325 281.559C307.325 281.559 306.011 283.662 303.662 283C301.569 282.402 302.402 277.021 303.983 276.305C304.506 276.06 305.51 276.081 306.204 276.444C306.695 276.7 308.051 278.163 307.464 279.957C307.976 279.765 308.435 279.872 308.574 280.117C308.713 280.363 308.328 280.908 308.243 281.014C308.003 281.289 307.681 281.48 307.325 281.559Z" fill="#FFCBAE"/>
<path style="mix-blend-mode:multiply" opacity="0.3" d="M321.463 292.738C321.238 291.115 320.726 289.813 320.021 288.777C321.121 294.009 320.128 296.913 318.782 298.632C316.262 301.868 312.685 300.683 306.962 305.392C303.225 308.456 303.139 310.282 300.32 311.425C297.501 312.567 294.362 312.023 291.618 310.955C290.785 312.533 289.798 314.024 288.671 315.407C288.671 315.407 319.081 321.355 318.654 320.063C315.002 308.862 323.032 303.79 321.463 292.738ZM314.372 317.564C314.361 317.603 314.336 317.636 314.304 317.659C314.271 317.683 314.231 317.694 314.191 317.692H314.148C313.999 317.65 299.285 313.731 290.593 313.25C290.546 313.245 290.502 313.223 290.471 313.187C290.439 313.152 290.422 313.106 290.422 313.058C290.423 313.034 290.429 313.011 290.44 312.99C290.45 312.968 290.465 312.949 290.483 312.933C290.501 312.917 290.521 312.905 290.544 312.897C290.567 312.889 290.59 312.886 290.614 312.887C299.349 313.379 314.095 317.297 314.244 317.34C314.268 317.346 314.289 317.357 314.308 317.372C314.327 317.386 314.343 317.405 314.355 317.425C314.367 317.446 314.375 317.469 314.378 317.493C314.381 317.517 314.379 317.541 314.372 317.564Z" fill="url(#paint42_linear)"/>
<path d="M314.244 317.34C314.095 317.297 299.349 313.379 290.614 312.888C290.59 312.886 290.566 312.889 290.544 312.897C290.521 312.905 290.5 312.917 290.483 312.933C290.465 312.949 290.45 312.968 290.44 312.99C290.429 313.011 290.423 313.035 290.422 313.058C290.422 313.106 290.439 313.152 290.47 313.187C290.502 313.223 290.546 313.245 290.593 313.251C299.285 313.731 313.999 317.65 314.148 317.692H314.191C314.233 317.691 314.273 317.674 314.305 317.646C314.336 317.618 314.357 317.58 314.363 317.538C314.369 317.497 314.361 317.454 314.339 317.418C314.318 317.382 314.284 317.354 314.244 317.34Z" fill="#F4F7FA"/>
<path d="M307.603 315.899C307.293 315.076 306.973 314.244 306.663 313.411C310.133 312.46 314.928 311.062 319.85 309.3C320.619 309.022 321.537 308.68 321.836 307.869C322.68 305.595 317.33 303.245 315.248 298.27C313.326 293.678 314.383 287.303 316.615 286.556C321.26 284.986 337.725 305.488 331.852 314.126C328.521 319.017 318.27 319.785 307.603 315.899Z" fill="url(#paint43_linear)"/>
<path d="M306.663 313.411C304.484 312.257 301.879 313.443 301.708 313.528C301.004 313.857 300.367 314.313 299.829 314.873C299.754 314.98 298.804 316.283 299.156 316.71C299.509 317.137 300.502 316.763 301.783 315.963C302.544 315.858 303.314 315.84 304.079 315.909C305.841 316.069 306.652 316.625 307.293 316.144C307.763 315.792 307.912 315.055 307.752 314.5C307.592 313.944 307.037 313.613 306.663 313.411Z" fill="#FFCBAE"/>
<path d="M204.572 331.862H181.294V362.739H204.572V331.862Z" fill="url(#paint44_linear)"/>
<path d="M192.933 365.444C199.361 365.444 204.572 364.23 204.572 362.732C204.572 361.234 199.361 360.02 192.933 360.02C186.505 360.02 181.294 361.234 181.294 362.732C181.294 364.23 186.505 365.444 192.933 365.444Z" fill="url(#paint45_linear)"/>
<path d="M192.933 334.574C199.361 334.574 204.572 333.36 204.572 331.862C204.572 330.364 199.361 329.15 192.933 329.15C186.505 329.15 181.294 330.364 181.294 331.862C181.294 333.36 186.505 334.574 192.933 334.574Z" fill="url(#paint46_linear)"/>
<path d="M201.934 307.709H183.921V331.603H201.934V307.709Z" fill="url(#paint47_linear)"/>
<path d="M201.934 331.606C201.934 332.759 197.909 333.699 192.933 333.699C187.957 333.699 183.921 332.759 183.921 331.606C183.921 330.453 187.957 329.502 192.933 329.502C197.909 329.502 201.934 330.442 201.934 331.606Z" fill="url(#paint48_linear)"/>
<path d="M201.934 307.709C201.934 308.873 197.909 309.813 192.933 309.813C187.957 309.813 183.921 308.873 183.921 307.709C183.921 306.545 187.957 305.605 192.933 305.605C197.909 305.605 201.934 306.545 201.934 307.709Z" fill="#97A6B7"/>
<path d="M191.48 275.109L189.014 279.658C187.094 283.187 186.088 287.141 186.088 291.158V307.709C186.088 308.595 189.152 309.3 192.932 309.3C196.712 309.3 199.766 308.595 199.766 307.709V291.81C199.769 287.327 199.015 282.875 197.534 278.644L196.445 275.515C195.666 273.284 192.601 273.038 191.48 275.109Z" fill="url(#paint49_linear)"/>
<path style="mix-blend-mode:multiply" opacity="0.3" d="M197.535 278.644L196.445 275.515C196.276 275.017 195.964 274.579 195.549 274.255C196.29 276.112 196.656 278.097 196.627 280.096C196.478 286.385 192.153 289.066 190.466 295.825C189.676 298.975 189.366 303.395 191.235 309.257C191.769 309.289 192.345 309.3 192.932 309.3C196.702 309.3 199.766 308.595 199.766 307.709V291.81C199.769 287.327 199.015 282.876 197.535 278.644Z" fill="url(#paint50_linear)"/>
<path d="M196.97 371.691L197.066 344.687L238.378 337.33L238.282 364.334L196.97 371.691Z" fill="url(#paint51_linear)"/>
<path d="M206.341 358.185C206.367 350.731 202.401 344.674 197.483 344.657C192.565 344.64 188.557 350.669 188.531 358.123C188.504 365.577 192.47 371.634 197.389 371.651C202.307 371.668 206.315 365.639 206.341 358.185Z" fill="url(#paint52_linear)"/>
<path d="M247.198 350.706C247.224 343.252 243.259 337.195 238.34 337.178C233.422 337.161 229.414 343.189 229.388 350.643C229.362 358.097 233.328 364.154 238.246 364.171C243.164 364.188 247.172 358.16 247.198 350.706Z" fill="url(#paint53_linear)"/>
</g>
<defs>
<filter id="filter0_d" x="167.963" y="-45.0615" width="31.7875" height="47.3109" filterUnits="userSpaceOnUse" color-interpolation-filters="sRGB">
<feFlood flood-opacity="0" result="BackgroundImageFix"/>
<feColorMatrix in="SourceAlpha" type="matrix" values="0 0 0 0 0 0 0 0 0 0 0 0 0 0 0 0 0 0 127 0"/>
<feOffset dy="4"/>
<feGaussianBlur stdDeviation="2"/>
<feColorMatrix type="matrix" values="0 0 0 0 0 0 0 0 0 0 0 0 0 0 0 0 0 0 0.25 0"/>
<feBlend mode="normal" in2="BackgroundImageFix" result="effect1_dropShadow"/>
<feBlend mode="normal" in="SourceGraphic" in2="effect1_dropShadow" result="shape"/>
</filter>
<filter id="filter1_f" x="0" y="0" width="452" height="452" filterUnits="userSpaceOnUse" color-interpolation-filters="sRGB">
<feFlood flood-opacity="0" result="BackgroundImageFix"/>
<feBlend mode="normal" in="SourceGraphic" in2="BackgroundImageFix" result="shape"/>
<feGaussianBlur stdDeviation="36" result="effect1_foregroundBlur"/>
</filter>
<linearGradient id="paint0_linear" x1="324.79" y1="60.8338" x2="247.914" y2="211.384" gradientUnits="userSpaceOnUse">
<stop stop-color="#40447E"/>
<stop offset="1" stop-color="#3C3B6B"/>
</linearGradient>
<linearGradient id="paint1_linear" x1="808960" y1="80754.1" x2="620147" y2="475846" gradientUnits="userSpaceOnUse">
<stop stop-color="#40447E"/>
<stop offset="1" stop-color="#3C3B6B"/>
</linearGradient>
<linearGradient id="paint2_linear" x1="321.795" y1="220.459" x2="273.695" y2="210.555" gradientUnits="userSpaceOnUse">
<stop offset="0.49" stop-color="#EBEFF2"/>
<stop offset="1" stop-color="white"/>
</linearGradient>
<linearGradient id="paint3_linear" x1="320.885" y1="149.26" x2="292.646" y2="227.703" gradientUnits="userSpaceOnUse">
<stop stop-color="#FFC444"/>
<stop offset="0.92" stop-color="#F47555"/>
<stop offset="1" stop-color="#F36F56"/>
</linearGradient>
<linearGradient id="paint4_linear" x1="313.629" y1="150.269" x2="318.939" y2="239.573" gradientUnits="userSpaceOnUse">
<stop stop-color="#FFC444"/>
<stop offset="1" stop-color="#F36F56"/>
</linearGradient>
<linearGradient id="paint5_linear" x1="363.74" y1="179.995" x2="288.802" y2="243.922" gradientUnits="userSpaceOnUse">
<stop stop-color="#E38DDD"/>
<stop offset="1" stop-color="#9571F6"/>
</linearGradient>
<linearGradient id="paint6_linear" x1="115663" y1="57940.1" x2="119980" y2="57940.1" gradientUnits="userSpaceOnUse">
<stop stop-color="#E38DDD"/>
<stop offset="1" stop-color="#9571F6"/>
</linearGradient>
<linearGradient id="paint7_linear" x1="159915" y1="54061.7" x2="166861" y2="54061.7" gradientUnits="userSpaceOnUse">
<stop stop-color="#E38DDD"/>
<stop offset="1" stop-color="#9571F6"/>
</linearGradient>
<linearGradient id="paint8_linear" x1="81327.6" y1="39945.6" x2="78731.6" y2="53539.5" gradientUnits="userSpaceOnUse">
<stop offset="0.49" stop-color="#EBEFF2"/>
<stop offset="1" stop-color="white"/>
</linearGradient>
<linearGradient id="paint9_linear" x1="222.099" y1="217.378" x2="229.839" y2="206.541" gradientUnits="userSpaceOnUse">
<stop stop-color="#FF9085"/>
<stop offset="1" stop-color="#FB6FBB"/>
</linearGradient>
<linearGradient id="paint10_linear" x1="51388.7" y1="55239" x2="45722.2" y2="62490.6" gradientUnits="userSpaceOnUse">
<stop stop-color="#FF9085"/>
<stop offset="1" stop-color="#FB6FBB"/>
</linearGradient>
<linearGradient id="paint11_linear" x1="148.349" y1="368.431" x2="140.032" y2="368.68" gradientUnits="userSpaceOnUse">
<stop stop-color="#444B8C"/>
<stop offset="1" stop-color="#26264F"/>
</linearGradient>
<linearGradient id="paint12_linear" x1="-2923.1" y1="14212.7" x2="-3125.04" y2="13984.6" gradientUnits="userSpaceOnUse">
<stop stop-color="#FFC444"/>
<stop offset="1" stop-color="#F36F56"/>
</linearGradient>
<linearGradient id="paint13_linear" x1="-11852.9" y1="14459.7" x2="-12582" y2="14664.7" gradientUnits="userSpaceOnUse">
<stop stop-color="#444B8C"/>
<stop offset="1" stop-color="#26264F"/>
</linearGradient>
<linearGradient id="paint14_linear" x1="-2697.66" y1="14093.5" x2="-2904.27" y2="13846" gradientUnits="userSpaceOnUse">
<stop stop-color="#FFC444"/>
<stop offset="1" stop-color="#F36F56"/>
</linearGradient>
<linearGradient id="paint15_linear" x1="40227.9" y1="239657" x2="16843.3" y2="220235" gradientUnits="userSpaceOnUse">
<stop stop-color="#444B8C"/>
<stop offset="1" stop-color="#26264F"/>
</linearGradient>
<linearGradient id="paint16_linear" x1="40227.9" y1="239657" x2="16843.3" y2="220235" gradientUnits="userSpaceOnUse">
<stop stop-color="#444B8C"/>
<stop offset="1" stop-color="#26264F"/>
</linearGradient>
<linearGradient id="paint17_linear" x1="46055.7" y1="244917" x2="23800.5" y2="235532" gradientUnits="userSpaceOnUse">
<stop stop-color="#444B8C"/>
<stop offset="1" stop-color="#26264F"/>
</linearGradient>
<linearGradient id="paint18_linear" x1="67199.4" y1="77848.4" x2="29046.5" y2="117492" gradientUnits="userSpaceOnUse">
<stop stop-color="#FFC444"/>
<stop offset="1" stop-color="#F36F56"/>
</linearGradient>
<linearGradient id="paint19_linear" x1="68216.7" y1="142655" x2="44858.6" y2="162377" gradientUnits="userSpaceOnUse">
<stop stop-color="#FF9085"/>
<stop offset="1" stop-color="#FB6FBB"/>
</linearGradient>
<linearGradient id="paint20_linear" x1="51564.8" y1="171984" x2="70303.8" y2="129569" gradientUnits="userSpaceOnUse">
<stop stop-color="#FF9085"/>
<stop offset="1" stop-color="#FB6FBB"/>
</linearGradient>
<linearGradient id="paint21_linear" x1="39466.6" y1="84516.9" x2="24874.1" y2="97053.8" gradientUnits="userSpaceOnUse">
<stop stop-color="#FF9085"/>
<stop offset="1" stop-color="#FB6FBB"/>
</linearGradient>
<linearGradient id="paint22_linear" x1="199597" y1="33678.9" x2="269002" y2="33678.9" gradientUnits="userSpaceOnUse">
<stop stop-color="#FFC444"/>
<stop offset="1" stop-color="#F36F56"/>
</linearGradient>
<linearGradient id="paint23_linear" x1="97765.1" y1="66896" x2="98558.3" y2="63372.1" gradientUnits="userSpaceOnUse">
<stop stop-color="#22C2A4"/>
<stop offset="1" stop-color="#22C2A4"/>
</linearGradient>
<linearGradient id="paint24_linear" x1="150565" y1="55711.9" x2="182429" y2="55711.9" gradientUnits="userSpaceOnUse">
<stop stop-color="#FF9085"/>
<stop offset="1" stop-color="#FB6FBB"/>
</linearGradient>
<linearGradient id="paint25_linear" x1="104303" y1="66663.2" x2="102662" y2="76380.1" gradientUnits="userSpaceOnUse">
<stop stop-color="#FFC444"/>
<stop offset="1" stop-color="#F36F56"/>
</linearGradient>
<linearGradient id="paint26_linear" x1="150565" y1="64061.4" x2="182429" y2="64061.4" gradientUnits="userSpaceOnUse">
<stop stop-color="#FF9085"/>
<stop offset="1" stop-color="#FB6FBB"/>
</linearGradient>
<linearGradient id="paint27_linear" x1="156033" y1="70514.5" x2="190613" y2="70514.5" gradientUnits="userSpaceOnUse">
<stop stop-color="#FFC444"/>
<stop offset="1" stop-color="#F36F56"/>
</linearGradient>
<linearGradient id="paint28_linear" x1="51043.5" y1="76455" x2="56355.8" y2="81355.2" gradientUnits="userSpaceOnUse">
<stop stop-color="#E38DDD"/>
<stop offset="1" stop-color="#9571F6"/>
</linearGradient>
<linearGradient id="paint29_linear" x1="273.175" y1="307.035" x2="283.042" y2="302.057" gradientUnits="userSpaceOnUse">
<stop stop-color="#26264F"/>
<stop offset="1" stop-color="#444B8C"/>
</linearGradient>
<linearGradient id="paint30_linear" x1="-56724.2" y1="47101.3" x2="-59743.2" y2="47205.2" gradientUnits="userSpaceOnUse">
<stop stop-color="#26264F"/>
<stop offset="1" stop-color="#444B8C"/>
</linearGradient>
<linearGradient id="paint31_linear" x1="275.318" y1="293.347" x2="280.526" y2="294.312" gradientUnits="userSpaceOnUse">
<stop stop-color="#AA80F9"/>
<stop offset="1" stop-color="#6165D7"/>
</linearGradient>
<linearGradient id="paint32_linear" x1="148488" y1="99229.5" x2="154127" y2="87152.8" gradientUnits="userSpaceOnUse">
<stop stop-color="#FF9085"/>
<stop offset="1" stop-color="#FB6FBB"/>
</linearGradient>
<linearGradient id="paint33_linear" x1="263.76" y1="370.689" x2="272.895" y2="370.689" gradientUnits="userSpaceOnUse">
<stop stop-color="#311944"/>
<stop offset="1" stop-color="#6B3976"/>
</linearGradient>
<linearGradient id="paint34_linear" x1="-18694.1" y1="19432.2" x2="-17919.9" y2="17179.3" gradientUnits="userSpaceOnUse">
<stop stop-color="#FFC444"/>
<stop offset="1" stop-color="#F36F56"/>
</linearGradient>
<linearGradient id="paint35_linear" x1="-18921.5" y1="22425.4" x2="-18629.1" y2="22425.4" gradientUnits="userSpaceOnUse">
<stop stop-color="#311944"/>
<stop offset="1" stop-color="#6B3976"/>
</linearGradient>
<linearGradient id="paint36_linear" x1="-11764.6" y1="22758" x2="-10848.4" y2="21338.2" gradientUnits="userSpaceOnUse">
<stop stop-color="#FFC444"/>
<stop offset="1" stop-color="#F36F56"/>
</linearGradient>
<linearGradient id="paint37_linear" x1="273.216" y1="323.149" x2="280.02" y2="362.485" gradientUnits="userSpaceOnUse">
<stop stop-color="#AB316D"/>
<stop offset="1" stop-color="#792D3D"/>
</linearGradient>
<linearGradient id="paint38_linear" x1="-163718" y1="169534" x2="-158656" y2="154439" gradientUnits="userSpaceOnUse">
<stop stop-color="#AB316D"/>
<stop offset="1" stop-color="#792D3D"/>
</linearGradient>
<linearGradient id="paint39_linear" x1="-156074" y1="82152" x2="-154731" y2="74259.1" gradientUnits="userSpaceOnUse">
<stop stop-color="#AB316D"/>
<stop offset="1" stop-color="#792D3D"/>
</linearGradient>
<linearGradient id="paint40_linear" x1="-139777" y1="49075.2" x2="-139302" y2="55866.6" gradientUnits="userSpaceOnUse">
<stop stop-color="#AB316D"/>
<stop offset="1" stop-color="#792D3D"/>
</linearGradient>
<linearGradient id="paint41_linear" x1="85728.6" y1="93123.9" x2="83337.6" y2="75905.8" gradientUnits="userSpaceOnUse">
<stop stop-color="#E38DDD"/>
<stop offset="1" stop-color="#9571F6"/>
</linearGradient>
<linearGradient id="paint42_linear" x1="85728.6" y1="82934.6" x2="83826.3" y2="67546.5" gradientUnits="userSpaceOnUse">
<stop stop-color="#E38DDD"/>
<stop offset="1" stop-color="#9571F6"/>
</linearGradient>
<linearGradient id="paint43_linear" x1="72150.5" y1="83537.8" x2="69732.5" y2="68078.5" gradientUnits="userSpaceOnUse">
<stop stop-color="#E38DDD"/>
<stop offset="1" stop-color="#9571F6"/>
</linearGradient>
<linearGradient id="paint44_linear" x1="38636.8" y1="91608.9" x2="32686.8" y2="92035.1" gradientUnits="userSpaceOnUse">
<stop stop-color="#311944"/>
<stop offset="1" stop-color="#6B3976"/>
</linearGradient>
<linearGradient id="paint45_linear" x1="38953.6" y1="17172.5" x2="33824.9" y2="19262.5" gradientUnits="userSpaceOnUse">
<stop stop-color="#311944"/>
<stop offset="1" stop-color="#6B3976"/>
</linearGradient>
<linearGradient id="paint46_linear" x1="33279.4" y1="15642.4" x2="38353.9" y2="15642.4" gradientUnits="userSpaceOnUse">
<stop stop-color="#311944"/>
<stop offset="1" stop-color="#6B3976"/>
</linearGradient>
<linearGradient id="paint47_linear" x1="183.925" y1="319.656" x2="201.937" y2="319.656" gradientUnits="userSpaceOnUse">
<stop offset="0.01" stop-color="#97A6B7"/>
<stop offset="0.28" stop-color="#EBEFF2"/>
<stop offset="1" stop-color="#97A6B7"/>
</linearGradient>
<linearGradient id="paint48_linear" x1="26241.2" y1="12166.1" x2="29279.7" y2="12166.1" gradientUnits="userSpaceOnUse">
<stop offset="0.01" stop-color="#97A6B7"/>
<stop offset="0.28" stop-color="#EBEFF2"/>
<stop offset="1" stop-color="#97A6B7"/>
</linearGradient>
<linearGradient id="paint49_linear" x1="20249.9" y1="87343.3" x2="22001.8" y2="87343.3" gradientUnits="userSpaceOnUse">
<stop stop-color="#FF9085"/>
<stop offset="1" stop-color="#FB6FBB"/>
</linearGradient>
<linearGradient id="paint50_linear" x1="15090.6" y1="86053.8" x2="16012.4" y2="86053.8" gradientUnits="userSpaceOnUse">
<stop stop-color="#FF9085"/>
<stop offset="1" stop-color="#FB6FBB"/>
</linearGradient>
<linearGradient id="paint51_linear" x1="69217.4" y1="105645" x2="83556.6" y2="100318" gradientUnits="userSpaceOnUse">
<stop stop-color="#311944"/>
<stop offset="1" stop-color="#6B3976"/>
</linearGradient>
<linearGradient id="paint52_linear" x1="47105.4" y1="59141.9" x2="44586.2" y2="53790.4" gradientUnits="userSpaceOnUse">
<stop stop-color="#311944"/>
<stop offset="1" stop-color="#6B3976"/>
</linearGradient>
<linearGradient id="paint53_linear" x1="45401.1" y1="55319.3" x2="54132.8" y2="51239.5" gradientUnits="userSpaceOnUse">
<stop stop-color="#311944"/>
<stop offset="1" stop-color="#6B3976"/>
</linearGradient>
<clipPath id="clip0">
<rect width="293" height="298.98" fill="white" transform="translate(82 79)"/>
</clipPath>
</defs>
</svg>
