<svg width="452" height="452" viewBox="0 0 452 452" fill="none" xmlns="http://www.w3.org/2000/svg">
<g opacity="0.6" filter="url(#filter0_f)">
<circle cx="226" cy="226" r="154" fill="#F0F5FB"/>
</g>
<g clip-path="url(#clip0)">
<path d="M174.403 344.927C172.052 350.499 167.666 358.242 162.998 367.171H262.485C247.283 339.072 227.413 310.137 242.897 255.285C250.165 229.549 272.635 182.891 256.743 156.25C238.647 125.891 214.109 143.682 203.756 119.652C187.559 82.0929 150.362 59.7248 117.425 84.3309C84.93 108.598 96.2554 178.471 153.832 248.368C189.458 303.197 186.689 315.8 174.403 344.927Z" fill="url(#paint0_linear)"/>
<g style="mix-blend-mode:soft-light">
<g style="mix-blend-mode:soft-light">
<g style="mix-blend-mode:soft-light">
<path d="M214.424 361.406C213.283 348.51 211.542 336.393 209.7 323.576L209.089 319.304C207.823 313.189 206.738 307.119 205.687 301.253C203.325 288.006 201.098 275.494 196.905 262.473C196.758 261.693 196.645 260.936 196.521 260.134C196.091 257.274 195.65 254.313 193.571 251.724L193.514 251.611C176.605 181.987 145.037 114.679 99.7012 51.5754L100.165 51.2363C145.534 114.385 177.125 181.738 194.068 251.419C196.204 254.121 196.667 257.274 197.086 260.055C197.21 260.846 197.323 261.592 197.47 262.326C201.652 275.347 203.89 287.882 206.264 301.151C207.303 307.017 208.388 313.076 209.654 319.202L210.276 323.497C212.118 336.326 213.848 348.442 215.001 361.35L214.424 361.406Z" fill="#FCFDFE"/>
</g>
<g style="mix-blend-mode:soft-light">
<path d="M204.704 298.902C199.245 265.604 211.113 223.388 222.031 193.843C233.854 161.845 247.135 137.397 247.27 137.16L247.779 137.431C247.643 137.68 234.374 162.094 222.574 194.058C211.678 223.535 199.833 265.638 205.281 298.8L204.704 298.902Z" fill="#FCFDFE"/>
</g>
<g style="mix-blend-mode:soft-light">
<path d="M161.278 157.042C153.513 122.037 153.468 83.4945 153.457 70.8355C153.457 68.4054 153.457 66.8117 153.4 66.5065L153.966 66.4048C154.033 66.7439 154.033 68.0098 154.033 70.8355C154.045 83.4832 154.09 121.969 161.832 156.917L161.278 157.042Z" fill="#FCFDFE"/>
</g>
<g style="mix-blend-mode:soft-light">
<path d="M182.201 211.792C165.846 183.038 99.4872 165.044 98.8203 164.863L98.9673 164.298C99.6454 164.479 166.23 182.54 182.698 211.509L182.201 211.792Z" fill="#FCFDFE"/>
</g>
</g>
</g>
<path d="M157.302 233.877C157.845 279.574 179.885 264.519 200.208 269.029C223.672 302.971 225.888 334.472 190.86 361.666L151.821 355.823C137.342 355.156 120.354 350.725 121.315 331.443C122.388 309.628 127.554 295.783 102.936 285.068C78.3189 274.353 67.7395 254.821 77.7085 232.589C88.1975 209.192 63.6027 177.658 81.574 161.992C112.917 134.673 156.749 186.282 157.302 233.877Z" fill="url(#paint1_linear)"/>
<g style="mix-blend-mode:soft-light">
<g style="mix-blend-mode:soft-light">
<g style="mix-blend-mode:soft-light">
<path d="M166.987 315.664C150.676 297.805 136.588 278.035 125.031 256.788C113.378 235.358 104.505 212.764 98.6389 189.616C95.2937 176.412 92.9362 162.977 91.5859 149.423L92.1737 149.367C93.5156 162.891 95.8694 176.296 99.2153 189.469C105.059 212.572 113.92 235.121 125.551 256.505C137.077 277.717 151.139 297.45 167.427 315.268L166.987 315.664Z" fill="#FCFDFE"/>
</g>
<g style="mix-blend-mode:soft-light">
<path d="M124.986 340.767L124.715 340.247C131.96 336.551 140.516 333.669 150.135 331.68C154.597 330.753 159.117 330.134 163.664 329.826L163.698 330.414C159.177 330.717 154.682 331.336 150.248 332.268C140.686 334.234 132.186 337.105 124.986 340.767Z" fill="#FCFDFE"/>
</g>
<g style="mix-blend-mode:soft-light">
<path d="M132.627 269.831C112.475 250.334 69.5693 252.109 69.1398 252.131L69.1172 251.544C69.5467 251.521 112.701 249.724 133.034 269.402L132.627 269.831Z" fill="#FCFDFE"/>
</g>
<g style="mix-blend-mode:soft-light">
<path d="M107.774 218.947C101.749 187.842 125.056 151.899 125.293 151.537L125.779 151.865C125.553 152.227 102.371 187.966 108.361 218.834L107.774 218.947Z" fill="#FCFDFE"/>
</g>
</g>
</g>
<path d="M351.935 364.956L214.799 355.484H214.313L132.639 359.191C130.684 359.361 130.774 364.481 132.99 364.763L261.31 381.944C261.836 382.008 262.367 382.004 262.892 381.932L351.687 369.465C352.862 369.251 353.303 365.057 351.935 364.956Z" fill="url(#paint2_linear)"/>
<path d="M351.665 364.809L214.8 351.89H214.314L133.036 359.022C131.544 359.157 131.51 361.327 132.991 361.508L261.311 377.344C261.836 377.411 262.368 377.411 262.893 377.344L351.688 365.86C352.31 365.781 352.298 364.865 351.665 364.809Z" fill="url(#paint3_linear)"/>
<path d="M259.953 375.795L260.53 375.761L340.101 365.476C340.156 365.464 340.206 365.433 340.242 365.389C340.277 365.344 340.297 365.289 340.297 365.233C340.297 365.176 340.277 365.121 340.242 365.077C340.206 365.032 340.156 365.002 340.101 364.99L217.896 353.483H217.737L140.053 360.299C139.984 360.311 139.92 360.347 139.874 360.401C139.828 360.455 139.802 360.523 139.801 360.594C139.799 360.665 139.823 360.734 139.867 360.789C139.911 360.845 139.973 360.883 140.042 360.898L259.411 375.761L259.953 375.795Z" fill="url(#paint4_linear)"/>
<path d="M305.232 370.845C305.254 371.082 306 371.195 306.904 371.082C307.809 370.969 308.498 370.698 308.464 370.46C308.43 370.223 307.696 370.11 306.791 370.223C305.887 370.336 305.198 370.607 305.232 370.845Z" fill="url(#paint5_linear)"/>
<path d="M240.512 378.18L252.832 379.796C253.736 379.909 254.471 379.468 254.471 378.813C254.471 378.146 253.736 377.524 252.832 377.423L240.512 375.987C239.755 375.897 239.145 376.304 239.145 376.914C239.145 377.513 239.755 378.078 240.512 378.18Z" fill="url(#paint6_linear)"/>
<path d="M227.061 376.405L237.2 377.739C237.935 377.841 238.545 377.434 238.545 376.835C238.545 376.236 237.935 375.682 237.2 375.592L227.061 374.405C226.429 374.337 225.92 374.721 225.92 375.264C225.92 375.818 226.429 376.326 227.061 376.405Z" fill="url(#paint7_linear)"/>
<path d="M210.064 374.179L217.772 375.185C218.326 375.264 218.789 374.902 218.789 374.382C218.789 373.862 218.326 373.388 217.772 373.331L210.064 372.427C209.953 372.408 209.84 372.415 209.733 372.445C209.625 372.476 209.526 372.529 209.441 372.603C209.357 372.676 209.29 372.768 209.245 372.87C209.2 372.973 209.179 373.084 209.182 373.195C209.192 373.436 209.286 373.666 209.447 373.845C209.607 374.024 209.825 374.142 210.064 374.179Z" fill="url(#paint8_linear)"/>
<g style="mix-blend-mode:soft-light" opacity="0.6">
<path d="M195.776 359.858C207.7 361.983 215.624 366.312 232.736 366.651C247.565 366.956 247.667 363.532 264.904 362.458C287.475 361.045 293.353 366.527 316.444 366.052C324.238 365.886 332.005 365.092 339.671 363.679L351.664 364.809C352.297 364.865 352.308 365.781 351.686 365.86L262.892 377.344C262.366 377.411 261.835 377.411 261.309 377.344L152.701 363.938C171.339 357.722 185.603 358.05 195.776 359.858Z" fill="white"/>
</g>
<path d="M224.045 366.131C217.693 366.131 208.232 365.035 208.232 362.005C208.232 358.976 217.693 357.88 224.045 357.88C230.397 357.88 239.858 358.976 239.858 362.005C239.858 365.035 230.397 366.131 224.045 366.131ZM224.045 359.089C214.46 359.089 209.442 360.988 209.442 362.005C209.442 363.023 214.46 364.933 224.045 364.933C233.63 364.933 238.648 363.023 238.648 362.005C238.648 360.988 233.63 359.089 224.045 359.089Z" fill="white"/>
<g style="mix-blend-mode:soft-light" opacity="0.6">
<path d="M224.046 363.61C227.866 363.61 230.963 362.892 230.963 362.005C230.963 361.119 227.866 360.4 224.046 360.4C220.226 360.4 217.129 361.119 217.129 362.005C217.129 362.892 220.226 363.61 224.046 363.61Z" fill="white"/>
</g>
<path opacity="0.56" d="M321.622 220.54L239.846 354.252L239.1 355.473L238.105 357.1L236.365 359.949L235.099 362.006C235.099 363.385 230.453 364.504 224.61 364.571H224.045C217.93 364.571 212.991 363.43 212.991 362.006L211.826 359.903L209.509 355.71L208.718 354.275L207.735 352.466L202.863 343.639L194.477 328.436L185.039 311.301L184.09 309.583L173.657 290.651L167.022 278.614L137.646 225.344C144.451 220.133 160.309 208.865 183.434 201.111C186.87 199.958 190.464 198.892 194.217 197.912L196.839 197.257L198.851 196.793L200.445 196.443H200.456C208.956 194.616 217.596 193.516 226.283 193.154C227.39 193.109 228.509 193.063 229.64 193.041C245.378 192.712 261.076 194.774 276.196 199.156L277.529 199.551L277.914 199.664C279.327 200.094 280.728 200.535 282.084 200.987C285.814 202.23 289.326 203.533 292.619 204.897C306.51 210.617 316.456 216.991 321.622 220.54Z" fill="white"/>
<path d="M372.417 172.594L364.381 171.102C364.817 165.789 364.52 160.442 363.499 155.21L371.038 152.543C373.095 151.808 374.192 149.502 373.48 147.377L371.592 141.703C370.88 139.567 368.619 138.403 366.54 139.115L359.114 141.669C356.799 136.686 353.814 132.043 350.241 127.869L355.35 121.957C356.808 120.273 356.627 117.64 354.92 116.091L350.388 111.932C348.67 110.361 346.07 110.463 344.578 112.169L339.481 118.001C334.843 114.685 329.764 112.033 324.392 110.123L325.85 102.336C326.279 100.041 324.753 97.7356 322.436 97.1931L316.242 95.735C313.891 95.1812 311.631 96.6166 311.19 98.9337L309.721 106.8C303.889 106.2 298.002 106.432 292.235 107.49L289.398 99.5893C288.562 97.2722 285.985 95.9498 283.645 96.6393L277.372 98.5042C274.999 99.205 273.767 101.68 274.626 104.02L277.587 112.101C272.223 114.559 267.24 117.775 262.792 121.652L255.795 115.752C253.817 114.079 250.845 114.192 249.172 116.023L244.696 120.884C243.012 122.715 243.272 125.563 245.284 127.224L252.54 133.226C249.267 138.049 246.73 143.333 245.013 148.903L235.303 147.095C232.681 146.609 230.183 148.191 229.731 150.632L228.511 157.12C228.058 159.562 229.81 161.913 232.433 162.365L242.424 164.117C242.209 169.832 242.833 175.548 244.278 181.082L234.546 184.428C232.06 185.275 230.782 187.841 231.698 190.147L234.105 196.25C235.01 198.545 237.745 199.686 240.209 198.816L250.076 195.324C252.848 200.204 256.287 204.674 260.294 208.604L253.535 216.347C251.885 218.234 252.133 220.981 254.1 222.461L259.288 226.395C261.221 227.853 264.103 227.525 265.73 225.637L272.456 217.85C277.227 220.618 282.353 222.724 287.692 224.112L285.861 233.866C285.431 236.183 287.025 238.308 289.41 238.613L295.739 239.416C298.102 239.709 300.362 238.093 300.792 235.799L302.6 226.157C308.004 226.248 313.396 225.628 318.639 224.315L321.871 233.142C322.64 235.256 325.036 236.262 327.206 235.392L332.959 233.097C335.107 232.238 336.237 229.842 335.48 227.751L332.36 219.082C337.058 216.615 341.416 213.549 345.324 209.961L352.174 215.635C353.858 217.025 356.39 216.72 357.837 214.979L361.657 210.334C363.092 208.593 362.911 206.05 361.25 204.66L354.649 199.087C357.572 194.703 359.894 189.948 361.555 184.948L369.829 186.394C371.965 186.767 374.022 185.298 374.429 183.105L375.525 177.273C375.932 175.092 374.553 172.989 372.417 172.594ZM298.339 208.344C274.388 204.761 257.954 182.563 262.396 158.883C266.838 135.204 290.269 120.228 313.937 125.269C336.813 130.141 351.405 152 347.223 174.244C343.041 196.488 321.476 211.803 298.339 208.344Z" fill="#97A6B7"/>
<path d="M291.546 97.8035L285.861 96.5376L282.922 101.296L291.546 97.8035Z" fill="#97A6B7"/>
<path d="M347.867 110.835L354.457 112.135L353.541 117.007L347.867 110.835Z" fill="#97A6B7"/>
<path d="M368.607 139.047L375.14 140.551L372.801 143.919L368.607 139.047Z" fill="#97A6B7"/>
<path d="M372.971 172.774L379.526 174.549L376.746 177.363L372.971 172.774Z" fill="#97A6B7"/>
<path d="M353.361 216.301L359.634 218.426L361.409 213.306L353.361 216.301Z" fill="#97A6B7"/>
<path d="M324.221 235.414L329.816 237.562L331.081 233.369L324.221 235.414Z" fill="#97A6B7"/>
<path d="M293.343 240.252L288.324 238.353L294.043 232.543L293.343 240.252Z" fill="#97A6B7"/>
<path d="M266.228 229.368L260.418 226.983L266.148 222.202L266.228 229.368Z" fill="#97A6B7"/>
<path d="M252.574 114.543L258.847 115.922L255.49 120.059L252.574 114.543Z" fill="#97A6B7"/>
<path d="M230.703 161.732L236.332 163.676L236.762 158.85L230.703 161.732Z" fill="#97A6B7"/>
<path d="M236.625 198.737L242.107 200.726L243.282 197.064L236.625 198.737Z" fill="#97A6B7"/>
<path d="M378.813 174.334L370.709 172.831C371.146 167.473 370.849 162.081 369.828 156.804L377.423 154.114C379.503 153.379 380.599 151.051 379.887 148.915L377.977 143.195C377.254 141.036 374.982 139.861 372.891 140.584L365.397 143.15C363.064 138.128 360.052 133.45 356.445 129.248L361.599 123.291C363.069 121.584 362.888 118.928 361.17 117.369L356.592 113.187C354.863 111.604 352.241 111.706 350.749 113.413L345.606 119.301C340.927 115.952 335.802 113.273 330.381 111.344L331.862 103.5C332.291 101.183 330.754 98.8659 328.414 98.3121L322.164 96.8427C319.802 96.2889 317.519 97.7356 317.078 100.075L315.586 108.01C309.709 107.398 303.776 107.63 297.965 108.699L295.094 100.731C294.258 98.3912 291.658 97.0575 289.296 97.7582L282.977 99.6345C280.581 100.347 279.338 102.833 280.208 105.195L283.192 113.356C277.784 115.825 272.762 119.065 268.284 122.975L261.231 117.029C259.23 115.345 256.235 115.458 254.54 117.301L250.03 122.195C248.335 124.048 248.594 126.919 250.629 128.592L257.942 134.639C254.645 139.506 252.089 144.835 250.358 150.452L240.558 148.632C237.925 148.135 235.404 149.728 234.941 152.192L233.72 158.737C233.257 161.189 235.031 163.563 237.665 164.026L247.747 165.79C247.524 171.551 248.152 177.313 249.612 182.891L239.801 186.259C237.292 187.118 236.003 189.706 236.919 192.023L239.36 198.183C240.276 200.489 243.022 201.642 245.509 200.76L255.455 197.245C258.251 202.168 261.721 206.676 265.763 210.639L258.948 218.449C257.275 220.348 257.535 223.106 259.513 224.609L264.746 228.565C266.701 230.046 269.606 229.707 271.245 227.819L278.027 219.964C282.839 222.748 288.006 224.87 293.387 226.271L291.545 236.104C291.104 238.444 292.709 240.591 295.128 240.896L301.503 241.699C303.888 242.004 306.159 240.365 306.6 238.059L308.42 228.339C313.87 228.427 319.307 227.8 324.594 226.474L327.849 235.381C328.629 237.505 331.037 238.523 333.229 237.641L339.028 235.324C341.198 234.465 342.328 232.058 341.571 229.944L338.429 221.196C343.167 218.717 347.56 215.627 351.495 212.006L358.401 217.726C360.096 219.127 362.65 218.822 364.109 217.059L367.963 212.379C369.41 210.628 369.229 208.073 367.556 206.66L360.899 201.043C363.847 196.625 366.188 191.831 367.861 186.79L376.202 188.248C378.35 188.621 380.43 187.14 380.837 184.936L381.944 179.059C382.362 176.844 380.961 174.73 378.813 174.334ZM304.125 210.379C279.982 206.762 263.401 184.383 267.888 160.511C272.375 136.64 295.976 121.539 319.847 126.625C342.905 131.531 357.621 153.583 353.416 176.007C349.212 198.432 327.454 213.86 304.125 210.379Z" fill="#D8DEE8"/>
<path d="M350.419 310.567L346.136 309.764C346.36 306.934 346.2 304.086 345.661 301.299L349.685 299.874C350.781 299.49 351.357 298.258 350.984 297.117L349.978 294.099C349.594 292.957 348.385 292.336 347.277 292.72L343.321 294.076C342.09 291.419 340.501 288.943 338.597 286.718L341.309 283.576C341.686 283.128 341.874 282.551 341.834 281.967C341.794 281.383 341.529 280.838 341.095 280.445L338.664 278.23C337.749 277.393 336.37 277.439 335.579 278.354L332.855 281.462C330.383 279.69 327.674 278.275 324.807 277.258L325.587 273.11C325.69 272.506 325.559 271.886 325.221 271.376C324.883 270.866 324.363 270.504 323.767 270.363L320.467 269.583C319.212 269.289 318.003 270.058 317.777 271.29L316.986 275.494C313.876 275.172 310.736 275.293 307.661 275.856L306.158 271.64C305.706 270.408 304.338 269.696 303.083 270.069L299.738 271.064C299.441 271.148 299.164 271.294 298.927 271.491C298.689 271.689 298.495 271.934 298.358 272.21C298.221 272.487 298.143 272.79 298.129 273.098C298.116 273.407 298.167 273.715 298.28 274.003L299.851 278.32C296.993 279.626 294.339 281.339 291.973 283.406L288.243 280.264C287.18 279.371 285.598 279.428 284.705 280.4L282.32 283C281.416 283.972 281.563 285.486 282.637 286.379L286.502 289.578C284.76 292.149 283.408 294.964 282.49 297.93L277.313 296.97C275.923 296.71 274.589 297.557 274.34 298.857L273.696 302.316C273.448 303.616 274.386 304.87 275.787 305.119L281.111 306.046C281 309.092 281.335 312.138 282.105 315.088L276.906 316.874C275.584 317.326 274.906 318.694 275.392 319.926L276.68 323.181C277.155 324.401 278.613 325.012 279.924 324.548L285.191 322.683C286.669 325.288 288.502 327.673 290.639 329.77L287.033 333.896C286.152 334.902 286.287 336.36 287.339 337.151L290.096 339.242C291.136 340.033 292.674 339.852 293.533 338.846L297.127 334.698C299.67 336.169 302.4 337.291 305.242 338.032L304.27 343.232C304.033 344.464 304.892 345.605 306.158 345.764L309.537 346.193C310.792 346.351 312.001 345.492 312.227 344.26L313.199 339.118C316.078 339.169 318.951 338.842 321.744 338.146L323.462 342.847C323.88 343.978 325.158 344.509 326.311 344.046L329.374 342.825C330.526 342.361 331.125 341.084 330.73 339.977L329.057 335.354C331.562 334.037 333.887 332.404 335.974 330.494L339.625 333.511C340.518 334.246 341.874 334.088 342.643 333.161L344.677 330.686C345.446 329.759 345.344 328.403 344.463 327.657L340.936 324.684C342.499 322.353 343.739 319.821 344.621 317.156L349.04 317.925C350.171 318.128 351.267 317.337 351.493 316.173L352.069 313.065C352.126 312.792 352.127 312.512 352.075 312.238C352.022 311.965 351.916 311.705 351.763 311.473C351.61 311.241 351.412 311.042 351.181 310.886C350.951 310.731 350.692 310.622 350.419 310.567ZM310.927 329.623C298.155 327.713 289.396 315.879 291.758 303.254C294.12 290.629 306.621 282.649 319.235 285.339C331.431 287.927 339.207 299.592 336.98 311.448C334.754 323.305 323.259 331.466 310.927 329.623Z" fill="#97A6B7"/>
<path d="M307.299 270.69L304.27 270.012L302.699 272.555L307.299 270.69Z" fill="#97A6B7"/>
<path d="M337.33 277.642L340.834 278.332L340.348 280.931L337.33 277.642Z" fill="#97A6B7"/>
<path d="M348.385 292.674L351.866 293.477L350.623 295.285L348.385 292.674Z" fill="#97A6B7"/>
<path d="M350.713 310.657L354.205 311.607L352.725 313.11L350.713 310.657Z" fill="#97A6B7"/>
<path d="M340.258 333.862L343.603 335.003L344.553 332.279L340.258 333.862Z" fill="#97A6B7"/>
<path d="M324.717 344.057L327.701 345.198L328.379 342.972L324.717 344.057Z" fill="#97A6B7"/>
<path d="M308.261 346.634L305.582 345.628L308.634 342.531L308.261 346.634Z" fill="#97A6B7"/>
<path d="M293.804 340.835L290.707 339.558L293.759 337.015L293.804 340.835Z" fill="#97A6B7"/>
<path d="M286.525 279.608L289.871 280.354L288.074 282.558L286.525 279.608Z" fill="#97A6B7"/>
<path d="M274.859 304.769L277.866 305.808L278.092 303.231L274.859 304.769Z" fill="#97A6B7"/>
<path d="M278.025 324.503L280.941 325.566L281.563 323.61L278.025 324.503Z" fill="#97A6B7"/>
<path d="M353.821 311.494L349.504 310.691C349.739 307.835 349.579 304.959 349.029 302.146L353.087 300.711C354.194 300.327 354.782 299.083 354.398 297.942L353.381 294.89C353.296 294.619 353.158 294.368 352.975 294.151C352.793 293.934 352.568 293.755 352.316 293.626C352.063 293.497 351.788 293.419 351.505 293.397C351.222 293.375 350.937 293.41 350.668 293.5L346.678 294.867C345.43 292.192 343.826 289.698 341.908 287.453L344.644 284.277C345.435 283.373 345.333 281.96 344.418 281.123L341.976 278.885C341.764 278.686 341.514 278.531 341.242 278.43C340.969 278.329 340.678 278.283 340.388 278.296C340.097 278.309 339.812 278.379 339.549 278.504C339.286 278.628 339.051 278.804 338.857 279.021L336.121 282.152C333.627 280.368 330.895 278.942 328.006 277.913L328.797 273.731C328.9 273.122 328.766 272.497 328.424 271.982C328.082 271.468 327.556 271.103 326.955 270.962L323.62 270.182C322.366 269.888 321.145 270.657 320.919 271.9L320.117 276.128C316.984 275.803 313.821 275.928 310.724 276.501L309.198 272.251C308.975 271.646 308.532 271.148 307.959 270.855C307.385 270.562 306.722 270.495 306.101 270.668L302.733 271.674C302.433 271.759 302.154 271.905 301.914 272.104C301.673 272.302 301.477 272.549 301.338 272.828C301.199 273.106 301.119 273.411 301.104 273.722C301.089 274.034 301.14 274.345 301.252 274.636L302.846 278.976C299.965 280.297 297.289 282.025 294.9 284.107L291.136 280.942C290.074 280.038 288.469 280.106 287.576 281.078L285.168 283.7C284.264 284.684 284.4 286.21 285.485 287.102L289.384 290.335C287.627 292.926 286.263 295.764 285.338 298.756L280.116 297.784C278.715 297.524 277.37 298.371 277.121 299.682L276.465 303.175C276.217 304.486 277.166 305.752 278.579 306.001L283.948 306.939C283.837 310.008 284.172 313.076 284.942 316.049L279.709 317.846C278.376 318.309 277.686 319.688 278.183 320.92L279.472 324.209C279.958 325.441 281.427 326.052 282.75 325.588L288.062 323.712C289.551 326.338 291.4 328.742 293.555 330.855L289.916 335.015C289.034 336.021 289.17 337.502 290.221 338.293L293.013 340.406C294.052 341.198 295.601 341.017 296.471 340.011L300.088 335.817C302.659 337.298 305.414 338.43 308.283 339.186L307.299 344.43C307.062 345.673 307.921 346.815 309.209 346.973L312.612 347.414C313.877 347.572 315.098 346.702 315.324 345.47L316.296 340.282C319.201 340.329 322.1 339.998 324.92 339.299L326.65 344.046C327.068 345.176 328.356 345.719 329.52 345.244L332.617 344.012C333.77 343.548 334.381 342.271 333.974 341.141L332.301 336.484C334.824 335.156 337.164 333.507 339.263 331.579L342.948 334.619C343.852 335.377 345.209 335.218 345.989 334.269L348.046 331.782C348.814 330.844 348.713 329.477 347.831 328.731L344.271 325.735C345.843 323.38 347.093 320.826 347.989 318.14L352.431 318.908C352.993 319 353.568 318.866 354.032 318.536C354.495 318.206 354.81 317.706 354.907 317.145L355.494 314.014C355.552 313.739 355.554 313.455 355.501 313.178C355.448 312.902 355.34 312.639 355.185 312.404C355.029 312.17 354.829 311.969 354.594 311.812C354.36 311.656 354.098 311.548 353.821 311.494ZM314.002 330.709C301.128 328.787 292.301 316.851 294.685 304.124C297.07 291.398 309.662 283.35 322.388 286.063C334.686 288.674 342.53 300.428 340.281 312.387C338.031 324.345 326.446 332.573 314.002 330.709Z" fill="#D8DEE8"/>
<path d="M305.265 224.564C316.208 224.564 325.079 212.095 325.079 196.714C325.079 181.333 316.208 168.864 305.265 168.864C294.322 168.864 285.451 181.333 285.451 196.714C285.451 212.095 294.322 224.564 305.265 224.564Z" fill="#D8DEE8"/>
<path d="M244.693 129.236H207.383C169.146 129.236 138.131 160.24 138.131 198.488C138.131 218.89 154.678 235.437 175.091 235.437H276.985C297.398 235.437 313.945 218.89 313.945 198.488C313.945 160.24 282.93 129.236 244.693 129.236Z" fill="white"/>
<path d="M238.137 311.165H213.938C189.129 311.165 169.01 291.046 169.01 266.237C169.01 252.99 179.747 242.264 192.983 242.264H259.093C272.328 242.264 283.066 252.99 283.066 266.237C283.066 291.046 262.947 311.165 238.137 311.165Z" fill="white"/>
<path d="M278.545 220.506H207.643C198.036 220.506 190.146 213.137 190.146 204.049V190.113C190.146 181.037 198.036 173.916 207.643 174.221L278.545 176.493C287.124 176.764 294.007 183.829 294.007 192.272V205.214C294.007 213.657 287.124 220.506 278.545 220.506Z" fill="url(#paint9_linear)"/>
<path d="M230.362 196.341C230.362 202.41 225.197 207.271 218.777 207.18C212.357 207.09 206.988 202.037 206.988 195.866C206.988 189.695 212.289 184.857 218.777 185.038C225.265 185.219 230.362 190.283 230.362 196.341Z" fill="white"/>
<path d="M278.275 197.324C278.275 203.179 273.449 207.881 267.459 207.802C261.468 207.723 256.461 202.829 256.461 196.872C256.461 190.916 261.412 186.225 267.459 186.395C273.505 186.564 278.275 191.458 278.275 197.324Z" fill="white"/>
<g style="mix-blend-mode:soft-light" opacity="0.3">
<path d="M251.769 225.728C241.223 213.34 245.914 203.428 232.125 186.632C213.159 163.529 191.028 166.151 185.953 150.475C184.551 146.134 184.393 140.178 188.157 131.938C159.267 140.279 138.131 166.909 138.131 198.489C138.131 218.89 154.678 235.437 175.091 235.437H263.897C258.573 232.544 254.685 229.153 251.769 225.728Z" fill="white"/>
</g>
<path d="M148.101 224.372C159.044 224.372 167.915 211.903 167.915 196.522C167.915 181.141 159.044 168.672 148.101 168.672C137.158 168.672 128.287 181.141 128.287 196.522C128.287 211.903 137.158 224.372 148.101 224.372Z" fill="#D8DEE8"/>
<path d="M132.423 208.695C137.211 208.695 141.092 203.245 141.092 196.522C141.092 189.799 137.211 184.349 132.423 184.349C127.635 184.349 123.754 189.799 123.754 196.522C123.754 203.245 127.635 208.695 132.423 208.695Z" fill="#BFC8D6"/>
<g style="mix-blend-mode:multiply" opacity="0.4">
<path d="M244.094 286.435C240.782 270.837 204.048 271.21 203.054 261.026C202.285 253.16 223.365 245.383 226.021 244.411C228.281 243.575 230.527 242.859 232.757 242.264H192.983C179.747 242.264 169.01 252.99 169.01 266.237C169.01 291.046 189.129 311.165 213.938 311.165H238.137C240.427 311.165 242.713 310.991 244.976 310.645C242.873 308.034 241.494 305.186 241.167 302.067C240.432 295.161 245.382 292.47 244.094 286.435Z" fill="#D8DEE8"/>
</g>
<path d="M226.633 248.22C247.738 248.22 264.847 246.151 264.847 243.597C264.847 241.044 247.738 238.975 226.633 238.975C205.527 238.975 188.418 241.044 188.418 243.597C188.418 246.151 205.527 248.22 226.633 248.22Z" fill="#D8DEE8"/>
<path d="M354.161 239.766C347.64 237.268 340.508 238.534 334.755 242.513C332.652 232.012 325.984 223.129 316.037 219.319C299.761 213.069 280.875 222.823 273.867 241.089C272.12 245.613 271.23 250.423 271.245 255.274C270.397 254.734 269.495 254.283 268.555 253.929C259.659 250.515 249.34 255.839 245.508 265.83C241.677 275.822 245.666 287.034 254.697 290.086C259.512 291.714 267.142 291.736 267.142 291.736C267.142 291.736 341.367 286.209 343.661 286.232C352.805 286.311 361.813 280.049 365.634 270.08C370.426 257.602 365.283 244.039 354.161 239.766Z" fill="url(#paint10_linear)"/>
<path d="M356.377 239.777C349.844 237.279 342.712 238.534 336.959 242.524C334.868 232.024 328.188 223.14 318.253 219.319C301.966 213.08 283.079 222.823 276.071 241.1C274.32 245.623 273.434 250.435 273.46 255.285C272.607 254.747 271.702 254.296 270.759 253.94C261.864 250.526 251.544 255.85 247.724 265.83C243.903 275.811 248.006 286.673 256.902 290.086C258.789 290.809 269.357 291.747 269.357 291.747C269.357 291.747 343.571 286.22 345.866 286.243C355.01 286.311 364.018 280.06 367.85 270.08C372.631 257.613 367.488 244.039 356.377 239.777Z" fill="url(#paint11_linear)"/>
<path d="M180.642 256.099C179.28 257.218 178.417 258.832 178.243 260.586C178.07 262.341 178.599 264.093 179.715 265.457L198.896 288.865L209.181 280.433L190.001 257.025C189.447 256.35 188.766 255.79 187.996 255.377C187.226 254.965 186.383 254.708 185.513 254.622C184.644 254.536 183.767 254.622 182.931 254.876C182.095 255.129 181.317 255.545 180.642 256.099Z" fill="white"/>
<path d="M240.773 278.241C240.574 276.487 239.688 274.885 238.308 273.785C236.928 272.685 235.168 272.178 233.415 272.375L203.35 275.799L204.853 289.012L234.918 285.599C236.669 285.397 238.269 284.51 239.367 283.13C240.464 281.751 240.97 279.992 240.773 278.241Z" fill="white"/>
<path d="M210.166 290.44C213.935 286.671 213.935 280.559 210.166 276.789C206.396 273.02 200.284 273.02 196.515 276.789C192.745 280.559 192.745 286.671 196.515 290.44C200.284 294.21 206.396 294.21 210.166 290.44Z" fill="url(#paint12_linear)"/>
<path d="M234.635 273.606L239.608 285.802C240.343 287.611 243.146 288.153 245.282 286.865C248.402 284.988 251.827 281.767 250.448 277.122C248.696 271.233 243.497 269.537 239.224 269.198C236.319 268.961 233.754 271.448 234.635 273.606Z" fill="url(#paint13_linear)"/>
</g>
<defs>
<filter id="filter0_f" x="0" y="0" width="452" height="452" filterUnits="userSpaceOnUse" color-interpolation-filters="sRGB">
<feFlood flood-opacity="0" result="BackgroundImageFix"/>
<feBlend mode="normal" in="SourceGraphic" in2="BackgroundImageFix" result="shape"/>
<feGaussianBlur stdDeviation="36" result="effect1_foregroundBlur"/>
</filter>
<linearGradient id="paint0_linear" x1="203.025" y1="88.9661" x2="163.508" y2="367.426" gradientUnits="userSpaceOnUse">
<stop stop-color="#FFC444"/>
<stop offset="1" stop-color="#F36F56"/>
</linearGradient>
<linearGradient id="paint1_linear" x1="92.6892" y1="191.958" x2="240.758" y2="435.716" gradientUnits="userSpaceOnUse">
<stop stop-color="#E38DDD"/>
<stop offset="1" stop-color="#9571F6"/>
</linearGradient>
<linearGradient id="paint2_linear" x1="242.326" y1="344.077" x2="242.118" y2="357.587" gradientUnits="userSpaceOnUse">
<stop stop-color="#444B8C"/>
<stop offset="1" stop-color="#26264F"/>
</linearGradient>
<linearGradient id="paint3_linear" x1="512543" y1="78949.2" x2="513167" y2="62623.9" gradientUnits="userSpaceOnUse">
<stop stop-color="#444B8C"/>
<stop offset="1" stop-color="#26264F"/>
</linearGradient>
<linearGradient id="paint4_linear" x1="340.318" y1="364.637" x2="139.778" y2="364.637" gradientUnits="userSpaceOnUse">
<stop stop-color="#FF9085"/>
<stop offset="1" stop-color="#FB6FBB"/>
</linearGradient>
<linearGradient id="paint5_linear" x1="-6472.79" y1="3884.83" x2="-6565.25" y2="3896.03" gradientUnits="userSpaceOnUse">
<stop stop-color="#FF9085"/>
<stop offset="1" stop-color="#FB6FBB"/>
</linearGradient>
<linearGradient id="paint6_linear" x1="35603.4" y1="12423.8" x2="35605.3" y2="12618.6" gradientUnits="userSpaceOnUse">
<stop stop-color="#444B8C"/>
<stop offset="1" stop-color="#26264F"/>
</linearGradient>
<linearGradient id="paint7_linear" x1="30990.8" y1="10894.2" x2="30992.6" y2="11064.6" gradientUnits="userSpaceOnUse">
<stop stop-color="#444B8C"/>
<stop offset="1" stop-color="#26264F"/>
</linearGradient>
<linearGradient id="paint8_linear" x1="25177.4" y1="9061.93" x2="25179" y2="9202.97" gradientUnits="userSpaceOnUse">
<stop stop-color="#444B8C"/>
<stop offset="1" stop-color="#26264F"/>
</linearGradient>
<linearGradient id="paint9_linear" x1="153347" y1="71764.1" x2="248780" y2="71764.1" gradientUnits="userSpaceOnUse">
<stop stop-color="#444B8C"/>
<stop offset="1" stop-color="#26264F"/>
</linearGradient>
<linearGradient id="paint10_linear" x1="244.063" y1="254.583" x2="367.427" y2="254.583" gradientUnits="userSpaceOnUse">
<stop stop-color="#40447E"/>
<stop offset="1" stop-color="#3C3B6B"/>
</linearGradient>
<linearGradient id="paint11_linear" x1="333.85" y1="238.79" x2="280.391" y2="299.146" gradientUnits="userSpaceOnUse">
<stop stop-color="#AA80F9"/>
<stop offset="1" stop-color="#6165D7"/>
</linearGradient>
<linearGradient id="paint12_linear" x1="32263.3" y1="43158.5" x2="28582.2" y2="47808.3" gradientUnits="userSpaceOnUse">
<stop stop-color="#444B8C"/>
<stop offset="1" stop-color="#26264F"/>
</linearGradient>
<linearGradient id="paint13_linear" x1="35070.3" y1="80119.7" x2="30803.6" y2="77349.4" gradientUnits="userSpaceOnUse">
<stop stop-color="#444B8C"/>
<stop offset="1" stop-color="#26264F"/>
</linearGradient>
<clipPath id="clip0">
<rect width="308" height="308" fill="white" transform="translate(74 74)"/>
</clipPath>
</defs>
</svg>
