<svg width="21" height="18" viewBox="0 0 21 18" fill="none" xmlns="http://www.w3.org/2000/svg">
<path fill-rule="evenodd" clip-rule="evenodd" d="M8.72833 11.6172C8.53633 11.6172 8.34433 11.5442 8.19833 11.3972C7.46033 10.6602 7.05333 9.6802 7.05333 8.6382C7.05333 6.4782 8.80933 4.7212 10.9673 4.7212C12.0053 4.7212 13.0133 5.1402 13.7323 5.8712C14.0223 6.1672 14.0193 6.6412 13.7233 6.9312C13.4283 7.2232 12.9543 7.2182 12.6633 6.9242C12.2243 6.4772 11.6063 6.2212 10.9673 6.2212C9.63633 6.2212 8.55333 7.3052 8.55333 8.6382C8.55333 9.2792 8.80433 9.8832 9.25833 10.3372C9.55133 10.6302 9.55133 11.1042 9.25933 11.3972C9.11233 11.5442 8.92033 11.6172 8.72833 11.6172Z" fill="black"/>
<path fill-rule="evenodd" clip-rule="evenodd" d="M11.5349 12.4912C11.1799 12.4912 10.8639 12.2372 10.7979 11.8752C10.7239 11.4682 10.9939 11.0772 11.4019 11.0032C12.3819 10.8252 13.1579 10.0472 13.3339 9.06619C13.4079 8.65919 13.7979 8.39119 14.2049 8.46119C14.6129 8.53419 14.8839 8.92419 14.8109 9.33219C14.5239 10.9252 13.2619 12.1892 11.6699 12.4792C11.6249 12.4872 11.5789 12.4912 11.5349 12.4912Z" fill="black"/>
<mask id="mask0" mask-type="alpha" maskUnits="userSpaceOnUse" x="0" y="0" width="18" height="15">
<path fill-rule="evenodd" clip-rule="evenodd" d="M0.967529 0.624466H17.0538V14.7226H0.967529V0.624466Z" fill="white"/>
</mask>
<g mask="url(#mask0)">
<path fill-rule="evenodd" clip-rule="evenodd" d="M5.62192 14.7226C5.45992 14.7226 5.29692 14.6696 5.15892 14.5626C3.46792 13.2346 2.03892 11.2876 1.02892 8.93359C0.946922 8.74359 0.946922 8.52959 1.02892 8.34059C2.04992 5.97659 3.48792 4.01959 5.18792 2.68259C8.65392 -0.060407 13.2679 -0.069407 16.7689 2.70259C17.0939 2.95959 17.1489 3.43159 16.8919 3.75659C16.6339 4.07959 16.1639 4.13659 15.8379 3.87859C12.8719 1.53059 9.05092 1.53859 6.11692 3.86059C4.68092 4.99059 3.44792 6.63659 2.53792 8.63859C3.43892 10.6286 4.66092 12.2646 6.08592 13.3826C6.41192 13.6386 6.46792 14.1106 6.21192 14.4356C6.06392 14.6236 5.84392 14.7226 5.62192 14.7226Z" fill="black"/>
</g>
<mask id="mask1" mask-type="alpha" maskUnits="userSpaceOnUse" x="7" y="4" width="14" height="13">
<path fill-rule="evenodd" clip-rule="evenodd" d="M7.685 4.74119H20.9675V16.6894H7.685V4.74119Z" fill="white"/>
</mask>
<g mask="url(#mask1)">
<path fill-rule="evenodd" clip-rule="evenodd" d="M10.9676 16.6894C10.0306 16.6894 9.09863 16.5374 8.19863 16.2384C7.80563 16.1074 7.59263 15.6824 7.72363 15.2894C7.85463 14.8954 8.27763 14.6864 8.67263 14.8144C9.41963 15.0634 10.1916 15.1894 10.9676 15.1894C14.3956 15.1894 17.5286 12.7474 19.3976 8.63639C18.9416 7.63739 18.4106 6.73239 17.8166 5.94239C17.5676 5.61139 17.6336 5.14039 17.9646 4.89139C18.2946 4.64239 18.7656 4.71039 19.0146 5.04039C19.7386 6.00139 20.3746 7.11239 20.9056 8.33839C20.9886 8.52839 20.9886 8.74439 20.9056 8.93339C18.8096 13.7904 15.0946 16.6894 10.9676 16.6894Z" fill="black"/>
</g>
<mask id="mask2" mask-type="alpha" maskUnits="userSpaceOnUse" x="2" y="0" width="18" height="18">
<path fill-rule="evenodd" clip-rule="evenodd" d="M2.33109 0.000396729H19.6046V17.2734H2.33109V0.000396729Z" fill="white"/>
</mask>
<g mask="url(#mask2)">
<path fill-rule="evenodd" clip-rule="evenodd" d="M3.08084 17.2734C2.88884 17.2734 2.69684 17.2004 2.55084 17.0534C2.25784 16.7604 2.25784 16.2864 2.55084 15.9934L18.3248 0.219399C18.6178 -0.073601 19.0918 -0.073601 19.3848 0.219399C19.6778 0.512399 19.6778 0.987399 19.3848 1.2804L3.61084 17.0534C3.46484 17.2004 3.27284 17.2734 3.08084 17.2734Z" fill="black"/>
</g>
</svg>
