<svg width="23" height="23" viewBox="0 0 23 23" fill="none" xmlns="http://www.w3.org/2000/svg">
<circle cx="11.5" cy="11.5" r="11.5" fill="#55ACE3"/>
<path d="M17.5942 8.56759C17.1917 8.74009 16.7317 8.8551 16.2717 8.9126C16.7317 8.6251 17.1342 8.1651 17.3067 7.6476C16.8467 7.9351 16.3867 8.1076 15.8117 8.2226C15.4092 7.7626 14.7767 7.4751 14.1442 7.4751C12.8792 7.4751 11.8442 8.5101 11.8442 9.7751C11.8442 9.9476 11.8442 10.1201 11.9017 10.2926C10.0042 10.1776 8.27922 9.2576 7.12922 7.8776C6.95672 8.2226 6.84172 8.6251 6.84172 9.0276C6.84172 9.8326 7.24422 10.5226 7.87672 10.9251C7.47422 10.9251 7.12922 10.8101 6.84172 10.6376C6.84172 11.7301 7.64671 12.7076 8.68171 12.8801C8.50921 12.9376 8.27922 12.9376 8.04922 12.9376C7.87672 12.9376 7.76172 12.9376 7.58922 12.8801C7.87672 13.8001 8.73922 14.4901 9.77422 14.4901C8.96922 15.1226 7.99172 15.4676 6.89922 15.4676C6.72672 15.4676 6.55422 15.4676 6.32422 15.4101C7.35922 16.0426 8.56672 16.4451 9.88922 16.4451C14.1442 16.4451 16.4442 12.9376 16.4442 9.8901V9.6026C16.9042 9.4301 17.3067 9.02759 17.5942 8.56759Z" fill="white"/>
</svg>
