<svg width="36" height="42" viewBox="0 0 36 42" fill="none" xmlns="http://www.w3.org/2000/svg">
	<mask id="mask0" mask-type="alpha" maskUnits="userSpaceOnUse" x="3" y="4" width="31" height="35">
		<path fill-rule="evenodd" clip-rule="evenodd" d="M3.27344 4.02002H33.1147V38.7636H3.27344V4.02002Z" fill="white" />
	</mask>
	<g mask="url(#mask0)">
		<path fill-rule="evenodd" clip-rule="evenodd" d="M11.2763 6.64502C8.37656 6.64502 5.96856 8.99352 5.90031 11.8898V30.648C5.83731 33.6248 8.18231 36.0748 11.1311 36.1395H25.2763C28.1971 36.0345 30.5088 33.6248 30.4896 30.6568V15.094L22.3801 6.64502H11.2973H11.2763ZM11.2973 38.7645H11.0768C6.68081 38.67 3.18081 35.016 3.27531 30.62V11.8583C3.37856 7.51652 6.96256 4.02002 11.2711 4.02002H11.3026H22.9383C23.2953 4.02002 23.6366 4.16527 23.8851 4.42252L32.7506 13.6573C32.9833 13.9005 33.1146 14.2278 33.1146 14.5655V30.648C33.1426 35.0388 29.7196 38.607 25.3218 38.7645H11.2973Z" fill="#ADBBD4" />
	</g>
	<path fill-rule="evenodd" clip-rule="evenodd" d="M31.794 16.222H26.9745C23.7702 16.2133 21.168 13.6023 21.168 10.4032V5.3125C21.168 4.588 21.756 4 22.4805 4C23.205 4 23.793 4.588 23.793 5.3125V10.4032C23.793 12.1602 25.221 13.5918 26.978 13.597H31.794C32.5185 13.597 33.1065 14.185 33.1065 14.9095C33.1065 15.634 32.5185 16.222 31.794 16.222Z" fill="#ADBBD4" />
	<path fill-rule="evenodd" clip-rule="evenodd" d="M17.5234 29.7251C16.7989 29.7251 16.2109 29.1371 16.2109 28.4126V17.8408C16.2109 17.1163 16.7989 16.5283 17.5234 16.5283C18.2479 16.5283 18.8359 17.1163 18.8359 17.8408V28.4126C18.8359 29.1371 18.2479 29.7251 17.5234 29.7251Z" fill="#ADBBD4" />
	<path fill-rule="evenodd" clip-rule="evenodd" d="M17.5206 29.7229C17.1724 29.7229 16.8364 29.5846 16.5914 29.3361L12.4876 25.2166C11.9766 24.7021 11.9784 23.8709 12.4911 23.3599C13.0056 22.8489 13.8369 22.8489 14.3479 23.3634L17.5206 26.5519L20.6934 23.3634C21.2044 22.8489 22.0356 22.8489 22.5501 23.3599C23.0629 23.8709 23.0646 24.7021 22.5536 25.2166L18.4499 29.3361C18.2049 29.5846 17.8689 29.7229 17.5206 29.7229Z" fill="#ADBBD4" />
</svg>
