<svg width="22" height="22" viewBox="0 0 22 22" fill="none" xmlns="http://www.w3.org/2000/svg">
<mask id="mask0" mask-type="alpha" maskUnits="userSpaceOnUse" x="13" y="1" width="8" height="9">
<path fill-rule="evenodd" clip-rule="evenodd" d="M13.1582 1.8335H20.9856V9.65524H13.1582V1.8335Z" fill="white"/>
</mask>
<g mask="url(#mask0)">
<path fill-rule="evenodd" clip-rule="evenodd" d="M20.2978 9.65524C19.9523 9.65524 19.6553 9.39582 19.6158 9.04474C19.2684 5.95008 16.8649 3.54841 13.7693 3.20466C13.3926 3.16249 13.1203 2.82333 13.1625 2.44566C13.2038 2.06891 13.5402 1.79116 13.9215 1.83883C17.6597 2.25408 20.5628 5.15349 20.9817 8.89074C21.0238 9.26841 20.7525 9.60849 20.3758 9.65066C20.3501 9.65341 20.3235 9.65524 20.2978 9.65524" fill="#ADBBD4"/>
</g>
<path fill-rule="evenodd" clip-rule="evenodd" d="M17.0531 9.66507C16.7304 9.66507 16.4435 9.43773 16.3793 9.10957C16.1153 7.7529 15.0694 6.70698 13.7146 6.4439C13.3415 6.37148 13.0986 6.01123 13.171 5.63815C13.2434 5.26507 13.6101 5.02123 13.9767 5.09457C15.8843 5.4649 17.3574 6.93707 17.7286 8.84557C17.8011 9.21957 17.5581 9.57982 17.186 9.65223C17.1411 9.66048 17.0971 9.66507 17.0531 9.66507" fill="#ADBBD4"/>
<mask id="mask1" mask-type="alpha" maskUnits="userSpaceOnUse" x="1" y="1" width="20" height="20">
<path fill-rule="evenodd" clip-rule="evenodd" d="M1.83398 1.83301H20.6259V20.6251H1.83398V1.83301Z" fill="white"/>
</mask>
<g mask="url(#mask1)">
<path fill-rule="evenodd" clip-rule="evenodd" d="M3.99648 4.63942C3.99831 4.63942 3.95248 4.68709 3.89473 4.74392C3.6729 4.95934 3.21365 5.40759 3.20906 6.34534C3.20173 7.65709 4.06431 10.0927 8.21773 14.2452C12.351 18.3775 14.7829 19.2502 16.0983 19.2502H16.1176C17.0553 19.2447 17.5026 18.7854 17.7181 18.5645C17.7831 18.4976 17.8363 18.4472 17.8739 18.4169C18.7878 17.4975 19.2553 16.8146 19.2507 16.3755C19.2452 15.9282 18.6888 15.4002 17.9197 14.6678C17.675 14.4358 17.4091 14.1819 17.1286 13.9014C16.4008 13.1763 16.0424 13.3001 15.2495 13.5788C14.1541 13.9628 12.6535 14.489 10.3151 12.1488C7.97573 9.81034 8.50006 8.30976 8.88231 7.21342C9.15915 6.42142 9.28565 6.06117 8.55873 5.33334C8.27457 5.04917 8.01881 4.77967 7.78323 4.53217C7.0554 3.76767 6.53015 3.21492 6.08556 3.20851H6.07823C5.63915 3.20851 4.95715 3.67784 3.9919 4.64309C3.99465 4.64034 3.99556 4.63942 3.99648 4.63942V4.63942ZM16.0983 20.6252C13.814 20.6252 10.8357 18.8065 7.24606 15.2178C3.64173 11.6143 1.82031 8.62692 1.83406 6.338C1.84231 4.8255 2.63523 4.05092 2.93315 3.76034C2.94873 3.74109 3.0019 3.68884 3.02023 3.6705C4.33565 2.35509 5.23948 1.81425 6.10298 1.8335C7.1269 1.84725 7.85656 2.6145 8.77965 3.58525C9.0079 3.8245 9.25448 4.08575 9.5304 4.36075C10.8678 5.69909 10.4874 6.79084 10.1803 7.66717C9.84665 8.62325 9.5579 9.44825 11.2867 11.1771C13.0156 12.9059 13.8396 12.6172 14.7948 12.2808C15.6721 11.9746 16.7611 11.5914 18.1012 12.9298C18.3735 13.202 18.6301 13.4458 18.8685 13.6723C19.8429 14.5999 20.6129 15.3323 20.6257 16.359C20.6358 17.2335 20.1041 18.1263 18.7915 19.439L18.2103 19.0448L18.7026 19.5243C18.412 19.8222 17.6392 20.616 16.1258 20.6252H16.0983Z" fill="#ADBBD4"/>
</g>
</svg>
