<svg width="17" height="17" viewBox="0 0 17 17" fill="none" xmlns="http://www.w3.org/2000/svg">
<path d="M6.97674 0.897777C7.91669 0.343789 9.08331 0.343789 10.0233 0.897777L10.9661 1.45345C11.2075 1.59572 11.4676 1.70347 11.7389 1.77357L12.7985 2.04731C13.8549 2.32023 14.6798 3.14515 14.9527 4.20152L15.2264 5.2611C15.2965 5.5324 15.4043 5.79254 15.5466 6.03394L16.1022 6.97674C16.6562 7.91669 16.6562 9.08331 16.1022 10.0233L15.5466 10.9661C15.4043 11.2075 15.2965 11.4676 15.2264 11.7389L14.9527 12.7985C14.6798 13.8549 13.8549 14.6798 12.7985 14.9527L11.7389 15.2264C11.4676 15.2965 11.2075 15.4043 10.9661 15.5466L10.0233 16.1022C9.08331 16.6562 7.91669 16.6562 6.97674 16.1022L6.03394 15.5466C5.79254 15.4043 5.5324 15.2965 5.2611 15.2264L4.20152 14.9527C3.14515 14.6798 2.32023 13.8549 2.04731 12.7985L1.77357 11.7389C1.70347 11.4676 1.59572 11.2075 1.45345 10.9661L0.897777 10.0233C0.343789 9.08331 0.343789 7.91669 0.897777 6.97674L1.45345 6.03394C1.59572 5.79254 1.70347 5.5324 1.77357 5.2611L2.04731 4.20152C2.32023 3.14515 3.14515 2.32023 4.20152 2.04731L5.2611 1.77357C5.5324 1.70347 5.79254 1.59572 6.03394 1.45345L6.97674 0.897777Z" fill="#EB5757"/>
<line x1="6.5" y1="8.5" x2="10.5" y2="8.5" stroke="white" stroke-linecap="round" stroke-linejoin="round"/>
</svg>
