<svg width="17" height="17" viewBox="0 0 17 17" fill="none" xmlns="http://www.w3.org/2000/svg">
<mask id="mask0" mask-type="alpha" maskUnits="userSpaceOnUse" x="0" y="0" width="17" height="17">
<path fill-rule="evenodd" clip-rule="evenodd" d="M10.6966 0.925223C9.49201 -0.308408 7.50799 -0.308408 6.30341 0.925223L5.6427 1.60186L4.69705 1.5906C2.97297 1.57006 1.57006 2.97297 1.5906 4.69705L1.60186 5.6427L0.925223 6.30341C-0.308408 7.50799 -0.308408 9.49201 0.925223 10.6966L1.60186 11.3573L1.5906 12.303C1.57006 14.027 2.97297 15.4299 4.69705 15.4094L5.6427 15.3981L6.30341 16.0748C7.50799 17.3084 9.49201 17.3084 10.6966 16.0748L11.3573 15.3981L12.303 15.4094C14.027 15.4299 15.4299 14.027 15.4094 12.303L15.3981 11.3573L16.0748 10.6966C17.3084 9.49201 17.3084 7.50799 16.0748 6.30341L15.3981 5.6427L15.4094 4.69705C15.4299 2.97297 14.027 1.57006 12.303 1.5906L11.3573 1.60186L10.6966 0.925223ZM11.0007 7.2819C11.2081 7.07443 11.2081 6.73807 11.0007 6.5306C10.7932 6.32313 10.4568 6.32313 10.2493 6.5306L7.4375 9.34245L6.2194 8.12435C6.01193 7.91688 5.67557 7.91688 5.4681 8.12435C5.26063 8.33182 5.26063 8.66818 5.4681 8.87565L7.06185 10.4694C7.16148 10.569 7.2966 10.625 7.4375 10.625C7.5784 10.625 7.71352 10.569 7.81315 10.4694L11.0007 7.2819Z" fill="black"/>
</mask>
<g mask="url(#mask0)">
<rect width="17" height="17" fill="#22C2A4"/>
</g>
</svg>
