<svg width="26" height="26" viewBox="0 0 26 26" fill="none" xmlns="http://www.w3.org/2000/svg">
<path fill-rule="evenodd" clip-rule="evenodd" d="M13 0C20.1797 0 26 5.8203 26 13C26 20.1797 20.1797 26 13 26C5.8203 26 0 20.1797 0 13C0 5.8203 5.8203 0 13 0Z" fill="#7F4DA0"/>
<path fill-rule="evenodd" clip-rule="evenodd" d="M16.462 11.3526C16.3988 10.8389 16.2409 10.4356 15.9605 10.0783C15.5964 9.61828 15.1312 9.34281 14.4424 9.1794C13.9934 9.07048 13.8121 9.08299 13.6497 9.23129C13.4985 9.37024 13.469 9.64878 13.5845 9.82916C13.6658 9.96008 13.7596 10.007 14.0203 10.0582C14.3676 10.1221 14.6076 10.205 14.8259 10.3298C15.2893 10.5974 15.505 11.016 15.5282 11.6938C15.539 12.0121 15.5665 12.1099 15.6776 12.2228C15.8836 12.4292 16.2503 12.389 16.4058 12.1421C16.4629 12.049 16.4716 12.0085 16.4776 11.7924C16.4816 11.6586 16.4759 11.4595 16.462 11.3526Z" fill="white"/>
<path fill-rule="evenodd" clip-rule="evenodd" d="M18.2789 11.9318C18.1873 10.358 17.5718 9.09187 16.4702 8.20103C15.8495 7.70047 15.0992 7.35627 14.2768 7.18888C13.9756 7.12901 13.4209 7.08049 13.3258 7.10824C13.236 7.13395 13.109 7.23117 13.0524 7.31909C12.9925 7.41444 12.979 7.62732 13.0301 7.75045C13.1125 7.9563 13.2658 8.02903 13.6952 8.06659C14.3572 8.12451 15.04 8.35708 15.5559 8.70139C16.1448 9.09341 16.613 9.6296 16.9159 10.2597C17.1776 10.801 17.3386 11.5812 17.3341 12.2798C17.3326 12.5325 17.3716 12.6752 17.4732 12.7795C17.6266 12.94 17.8502 12.975 18.0475 12.8685C18.2662 12.7535 18.3173 12.5516 18.2789 11.9318Z" fill="white"/>
<path fill-rule="evenodd" clip-rule="evenodd" d="M20.2855 17.9921C20.2547 17.9021 20.1829 17.7634 20.1316 17.6837C19.8083 17.1955 18.0713 15.8362 17.2041 15.3916C16.7089 15.1373 16.342 15.0525 16.0701 15.1321C15.7776 15.2144 15.6236 15.3505 15.1336 15.9595C14.936 16.2037 14.7333 16.4324 14.6795 16.4683C14.546 16.5608 14.2843 16.6354 14.0996 16.6354C13.6711 16.6328 12.8937 16.3553 12.2959 15.9904C11.8315 15.7077 11.2363 15.2015 10.7796 14.7005C10.2408 14.112 9.87391 13.593 9.58395 13.0071C9.20938 12.2542 9.11445 11.7942 9.27093 11.4576C9.30943 11.3728 9.36075 11.2829 9.38381 11.2546C9.40692 11.229 9.64811 11.0311 9.91491 10.8152C10.4383 10.399 10.523 10.3039 10.6205 10.0187C10.7436 9.65633 10.7103 9.28631 10.5204 8.91374C10.3742 8.63107 9.9919 8.01437 9.71481 7.61609C9.34792 7.09192 8.43452 5.97157 8.25233 5.81993C7.92393 5.55271 7.50319 5.50643 7.03875 5.68634C6.54875 5.8765 5.6302 6.61653 5.23763 7.13303C4.88356 7.60068 4.74763 7.93214 4.72708 8.36898C4.70913 8.7287 4.73991 8.87774 4.92978 9.33772C6.41532 12.9454 8.63206 15.8259 11.6776 18.1129C13.2683 19.3077 14.9181 20.2174 16.6294 20.8392C17.6274 21.2015 18.061 21.2195 18.5716 20.9215C18.7871 20.793 19.3208 20.2456 19.6184 19.8474C20.111 19.1844 20.2932 18.8786 20.3445 18.6345C20.3804 18.4675 20.3522 18.1771 20.2855 17.9921Z" fill="white"/>
<path fill-rule="evenodd" clip-rule="evenodd" d="M20.1255 12.2929C20.0926 11.4027 19.9427 10.6726 19.6302 9.85848C19.3216 9.05768 19.0094 8.53513 18.4196 7.82835C17.862 7.16566 17.429 6.78728 16.7421 6.36609C15.7838 5.77925 14.6176 5.3909 13.3107 5.22758C12.865 5.1705 12.7642 5.17458 12.6274 5.26582C12.3625 5.43865 12.366 5.86975 12.6318 6.04C12.7198 6.09416 12.7979 6.11389 13.1544 6.16055C13.7017 6.23423 14.0536 6.30367 14.4712 6.41761C16.1086 6.86523 17.3679 7.78018 18.2097 9.13839C18.9142 10.2705 19.2066 11.4026 19.1651 12.8486C19.1507 13.3374 19.1612 13.4235 19.2359 13.5409C19.379 13.7598 19.7564 13.8031 19.95 13.6215C20.0704 13.5108 20.0931 13.4276 20.1169 13.0093C20.1282 12.791 20.1307 12.4688 20.1255 12.2929Z" fill="white"/>
</svg>
