<svg width="23" height="23" viewBox="0 0 23 23" fill="none" xmlns="http://www.w3.org/2000/svg">
<circle cx="11.5" cy="11.5" r="11.5" fill="#7294C7"/>
<path d="M17.1388 14.4412C17.1388 14.3935 17.091 14.3935 17.091 14.3457C16.9001 13.9638 16.4704 13.4864 15.8976 12.9613C15.6111 12.7226 15.4679 12.5317 15.3724 12.4362C15.2292 12.2452 15.2292 12.102 15.277 11.9111C15.3247 11.7679 15.5157 11.5292 15.8498 11.0995C16.0408 10.8608 16.1363 10.7176 16.2795 10.5744C16.9955 9.61965 17.3297 8.99904 17.2342 8.71262L17.1865 8.66488C17.1388 8.61714 17.091 8.56941 16.9955 8.56941C16.9001 8.52167 16.7569 8.52167 16.6136 8.56941H14.7996C14.7519 8.56941 14.7519 8.56941 14.6564 8.56941C14.6086 8.56941 14.5609 8.56941 14.5609 8.56941H14.5132H14.4654L14.4177 8.61714C14.3699 8.66488 14.3699 8.66488 14.3699 8.71262C14.179 9.23774 13.9403 9.66738 13.7016 10.1448C13.5584 10.3835 13.4152 10.6221 13.272 10.8131C13.1288 11.0041 13.0333 11.1473 12.9378 11.2427C12.8423 11.3382 12.7468 11.386 12.6991 11.4814C12.6514 11.5292 12.5559 11.5769 12.5559 11.5292C12.5082 11.5292 12.4604 11.5292 12.4604 11.4814C12.4127 11.4337 12.3649 11.386 12.3172 11.3382C12.2695 11.2905 12.2695 11.195 12.2217 11.0995C12.2217 11.004 12.2217 10.9086 12.2217 10.8608C12.2217 10.8131 12.2217 10.6699 12.2217 10.5744C12.2217 10.4312 12.2217 10.3357 12.2217 10.288C12.2217 10.1448 12.2217 9.95381 12.2217 9.76286C12.2217 9.57191 12.2217 9.42869 12.2217 9.33321C12.2217 9.23774 12.2217 9.09452 12.2217 8.99905C12.2217 8.85583 12.2217 8.76035 12.2217 8.71262C12.2217 8.66488 12.174 8.5694 12.174 8.52167C12.1263 8.47393 12.0785 8.42619 12.0308 8.37845C11.983 8.33071 11.8876 8.33071 11.8398 8.28297C11.6011 8.23524 11.3147 8.1875 10.9805 8.1875C10.2167 8.1875 9.69161 8.23524 9.50066 8.33072C9.40518 8.37845 9.3097 8.42619 9.26196 8.52167C9.16649 8.61714 9.16649 8.66488 9.21422 8.66488C9.45291 8.71262 9.64387 8.80809 9.73935 8.95131L9.78709 9.04679C9.83483 9.09453 9.83482 9.19 9.88256 9.33321C9.93029 9.47643 9.9303 9.61964 9.9303 9.8106C9.9303 10.097 9.9303 10.3835 9.9303 10.5744C9.9303 10.8131 9.88256 10.9563 9.88256 11.0995C9.88256 11.2427 9.83483 11.3382 9.78709 11.386C9.73935 11.4814 9.73934 11.5292 9.69161 11.5292C9.69161 11.5292 9.6916 11.5769 9.64386 11.5769C9.59613 11.5769 9.54839 11.6246 9.45291 11.6246C9.40518 11.6246 9.3097 11.5769 9.26196 11.5292C9.16649 11.4814 9.07101 11.386 9.02327 11.2905C8.9278 11.195 8.83232 11.0518 8.73684 10.8608C8.64137 10.6699 8.49815 10.4789 8.40267 10.1925L8.3072 10.0016C8.25946 9.90608 8.16399 9.71512 8.06851 9.47643C7.97303 9.23774 7.87755 9.04679 7.78208 8.8081C7.73434 8.71262 7.68661 8.66488 7.63887 8.61714H7.59113C7.59113 8.61714 7.54338 8.56941 7.49565 8.56941C7.44791 8.56941 7.40018 8.52167 7.35244 8.52167H5.63386C5.44291 8.52167 5.34743 8.5694 5.29969 8.61714L5.25195 8.66488C5.25195 8.66488 5.25195 8.71262 5.25195 8.76036C5.25195 8.80809 5.25196 8.85583 5.29969 8.95131C5.53839 9.52416 5.82481 10.097 6.11124 10.6699C6.39767 11.195 6.6841 11.6724 6.87506 12.0066C7.11375 12.3407 7.3047 12.6749 7.54339 12.9613C7.78208 13.2477 7.92529 13.4387 7.97303 13.5342C8.0685 13.6297 8.11624 13.6774 8.16398 13.7251L8.3072 13.8683C8.40268 13.9638 8.54589 14.107 8.73684 14.2502C8.92779 14.3935 9.16648 14.5367 9.40517 14.6799C9.64386 14.8231 9.9303 14.9186 10.2167 15.0141C10.5509 15.1095 10.8373 15.1573 11.1238 15.1095H11.8398C11.983 15.1095 12.0785 15.0618 12.174 14.9663L12.2217 14.9186C12.2217 14.8708 12.2695 14.8708 12.2695 14.8231C12.2695 14.7754 12.2695 14.7276 12.2695 14.6322C12.2695 14.4412 12.2695 14.298 12.3172 14.1548C12.3649 14.0116 12.3649 13.9161 12.4127 13.8206C12.4604 13.7251 12.5082 13.6774 12.5559 13.6297C12.6036 13.5819 12.6514 13.5342 12.6514 13.5342H12.6991C12.7946 13.4864 12.9378 13.5342 13.0333 13.6297C13.1765 13.7251 13.3197 13.8683 13.4152 14.0116C13.5107 14.1548 13.6539 14.298 13.8448 14.4889C14.0358 14.6799 14.179 14.8231 14.2745 14.8708L14.4177 14.9663C14.5132 15.0141 14.6086 15.0618 14.7519 15.1095C14.8951 15.1573 14.9905 15.1573 15.086 15.1573L16.7091 15.1095C16.8523 15.1095 16.9955 15.0618 17.091 15.0141C17.1865 14.9663 17.2342 14.9186 17.2342 14.8231C17.2342 14.7754 17.2342 14.6799 17.2342 14.6322C17.1388 14.5367 17.1388 14.4889 17.1388 14.4412Z" fill="white"/>
</svg>
