<svg width="39" height="35" viewBox="0 0 39 35" fill="none" xmlns="http://www.w3.org/2000/svg">
<g opacity="0.4">
<path fill-rule="evenodd" clip-rule="evenodd" d="M30.6011 10.2553H38.6636C38.6636 3.78173 34.7848 0 28.2128 0H11.0036C4.43158 0 0.552734 3.78173 0.552734 10.1727V24.1271C0.552734 30.5181 4.43158 34.2998 11.0036 34.2998H28.2128C34.7848 34.2998 38.6636 30.5181 38.6636 24.1271V23.5326H30.6011C26.8592 23.5326 23.8258 20.5752 23.8258 16.927C23.8258 13.2788 26.8592 10.3213 30.6011 10.3213V10.2553ZM30.5947 13.0976H37.2345C38.0203 13.0976 38.6573 13.7187 38.6573 14.4848V19.3069C38.6481 20.0693 38.0164 20.6852 37.2345 20.6941H30.7471C28.8528 20.7189 27.1963 19.4544 26.7667 17.6555C26.5515 16.5388 26.8536 15.3864 27.5919 14.5073C28.3302 13.6282 29.4294 13.1122 30.5947 13.0976ZM30.8832 18.1678H31.5099C32.3144 18.1678 32.9666 17.532 32.9666 16.7476C32.9666 15.9633 32.3144 15.3274 31.5099 15.3274H30.8832C30.4984 15.323 30.1279 15.4689 29.8542 15.7327C29.5805 15.9964 29.4265 16.3559 29.4265 16.7311C29.4265 17.5182 30.076 18.1588 30.8832 18.1678ZM9.57726 10.2554H20.333C21.1375 10.2554 21.7897 9.61951 21.7897 8.83515C21.7897 8.05079 21.1375 7.41494 20.333 7.41494H9.57726C8.77933 7.41488 8.12986 8.04073 8.12058 8.81863C8.12053 9.60571 8.77003 10.2463 9.57726 10.2554Z" fill="#ADBBD4"/>
</g>
</svg>
