<svg width="26" height="26" viewBox="0 0 26 26" fill="none" xmlns="http://www.w3.org/2000/svg">
<path fill-rule="evenodd" clip-rule="evenodd" d="M13 26C20.1797 26 26 20.1797 26 13C26 5.8203 20.1797 0 13 0C5.8203 0 0 5.8203 0 13C0 20.1797 5.8203 26 13 26Z" fill="#25D366"/>
<path fill-rule="evenodd" clip-rule="evenodd" d="M13.428 20.2325H13.4248C12.131 20.2321 10.8598 19.9075 9.73071 19.2916L5.63281 20.3666L6.72948 16.3609C6.053 15.1885 5.69704 13.8587 5.69762 12.4963C5.69932 8.23419 9.16709 4.7666 13.4279 4.7666C15.4958 4.76749 17.4367 5.57253 18.8962 7.0337C20.3556 8.4948 21.159 10.4369 21.1581 12.5024C21.1564 16.7636 17.69 20.2308 13.428 20.2325ZM9.91923 17.8919L10.1538 18.0312C11.1403 18.6166 12.2711 18.9263 13.424 18.9268H13.4266C16.9679 18.9268 19.8502 16.0444 19.8516 12.5017C19.8523 10.7849 19.1846 9.17066 17.9715 7.95619C16.7585 6.74173 15.1453 6.07257 13.4292 6.07198C9.88514 6.07198 7.00285 8.95401 7.00144 12.4965C7.00095 13.7105 7.34063 14.8928 7.98379 15.9158L8.13655 16.1589L7.48748 18.5298L9.91923 17.8919ZM17.3209 14.3404C17.2726 14.2598 17.1439 14.2115 16.9507 14.1148C16.7576 14.0181 15.808 13.5509 15.6309 13.4863C15.4539 13.4219 15.3251 13.3897 15.1963 13.583C15.0676 13.7764 14.6974 14.2115 14.5847 14.3404C14.472 14.4692 14.3594 14.4854 14.1663 14.3887C13.9731 14.292 13.3508 14.0881 12.613 13.43C12.0388 12.9178 11.6511 12.2854 11.5385 12.092C11.4258 11.8986 11.5265 11.7941 11.6232 11.6978C11.7101 11.6112 11.8163 11.4721 11.9129 11.3594C12.0095 11.2466 12.0417 11.166 12.106 11.0372C12.1704 10.9082 12.1382 10.7955 12.0899 10.6988C12.0417 10.6021 11.6554 9.65137 11.4944 9.26462C11.3376 8.88799 11.1784 8.93901 11.0598 8.93306C10.9473 8.92741 10.8184 8.92622 10.6896 8.92622C10.5609 8.92622 10.3516 8.97456 10.1746 9.16794C9.99753 9.36131 9.49856 9.82861 9.49856 10.7793C9.49856 11.73 10.1907 12.6485 10.2872 12.7774C10.3838 12.9063 11.6492 14.8572 13.5868 15.6939C14.0477 15.8929 14.4074 16.0117 14.688 16.1007C15.1506 16.2478 15.5718 16.227 15.9045 16.1773C16.2756 16.1218 17.0473 15.7101 17.2083 15.2589C17.3692 14.8076 17.3692 14.4209 17.3209 14.3404Z" fill="#FDFDFD"/>
</svg>
